G04 #@! TF.GenerationSoftware,KiCad,Pcbnew,5.1.2*
G04 #@! TF.CreationDate,2019-07-22T21:22:39-05:00*
G04 #@! TF.ProjectId,Raptor2000,52617074-6f72-4323-9030-302e6b696361,A*
G04 #@! TF.SameCoordinates,Original*
G04 #@! TF.FileFunction,Legend,Top*
G04 #@! TF.FilePolarity,Positive*
%FSLAX46Y46*%
G04 Gerber Fmt 4.6, Leading zero omitted, Abs format (unit mm)*
G04 Created by KiCad (PCBNEW 5.1.2) date 2019-07-22 21:22:39*
%MOMM*%
%LPD*%
G04 APERTURE LIST*
%ADD10C,0.120000*%
%ADD11C,0.150000*%
%ADD12C,0.100000*%
G04 APERTURE END LIST*
D10*
X160055779Y-68451000D02*
X159730221Y-68451000D01*
X160055779Y-69471000D02*
X159730221Y-69471000D01*
X117890000Y-69461500D02*
X115205000Y-69461500D01*
X117890000Y-71381500D02*
X117890000Y-69461500D01*
X115205000Y-71381500D02*
X117890000Y-71381500D01*
X117890000Y-66921500D02*
X115205000Y-66921500D01*
X117890000Y-68841500D02*
X117890000Y-66921500D01*
X115205000Y-68841500D02*
X117890000Y-68841500D01*
X163955000Y-110898721D02*
X163955000Y-111224279D01*
X164975000Y-110898721D02*
X164975000Y-111224279D01*
X162177000Y-110898721D02*
X162177000Y-111224279D01*
X163197000Y-110898721D02*
X163197000Y-111224279D01*
D11*
X140830000Y-86656500D02*
X139755000Y-86656500D01*
X155080000Y-86156500D02*
X154495000Y-86156500D01*
X155080000Y-100406500D02*
X154495000Y-100406500D01*
X140830000Y-100406500D02*
X141415000Y-100406500D01*
X140830000Y-86156500D02*
X141415000Y-86156500D01*
X140830000Y-100406500D02*
X140830000Y-99821500D01*
X155080000Y-100406500D02*
X155080000Y-99821500D01*
X155080000Y-86156500D02*
X155080000Y-86741500D01*
X140830000Y-86156500D02*
X140830000Y-86656500D01*
D10*
X156593000Y-114500779D02*
X156593000Y-114175221D01*
X155573000Y-114500779D02*
X155573000Y-114175221D01*
X160265000Y-112853500D02*
X157835000Y-112853500D01*
X158505000Y-115923500D02*
X160265000Y-115923500D01*
X163955000Y-114200721D02*
X163955000Y-114526279D01*
X164975000Y-114200721D02*
X164975000Y-114526279D01*
X162177000Y-114200721D02*
X162177000Y-114526279D01*
X163197000Y-114200721D02*
X163197000Y-114526279D01*
X138301000Y-69217221D02*
X138301000Y-69542779D01*
X139321000Y-69217221D02*
X139321000Y-69542779D01*
X173194000Y-71127500D02*
X175879000Y-71127500D01*
X173194000Y-69207500D02*
X173194000Y-71127500D01*
X175879000Y-69207500D02*
X173194000Y-69207500D01*
X173194000Y-76207500D02*
X175879000Y-76207500D01*
X173194000Y-74287500D02*
X173194000Y-76207500D01*
X175879000Y-74287500D02*
X173194000Y-74287500D01*
X173194000Y-68587500D02*
X175879000Y-68587500D01*
X173194000Y-66667500D02*
X173194000Y-68587500D01*
X175879000Y-66667500D02*
X173194000Y-66667500D01*
X173194000Y-73667500D02*
X175879000Y-73667500D01*
X173194000Y-71747500D02*
X173194000Y-73667500D01*
X175879000Y-71747500D02*
X173194000Y-71747500D01*
X173194000Y-78747500D02*
X175879000Y-78747500D01*
X173194000Y-76827500D02*
X173194000Y-78747500D01*
X175879000Y-76827500D02*
X173194000Y-76827500D01*
X173194000Y-83827500D02*
X175879000Y-83827500D01*
X173194000Y-81907500D02*
X173194000Y-83827500D01*
X175879000Y-81907500D02*
X173194000Y-81907500D01*
X173272500Y-81287500D02*
X175957500Y-81287500D01*
X173272500Y-79367500D02*
X173272500Y-81287500D01*
X175957500Y-79367500D02*
X173272500Y-79367500D01*
X159247000Y-102343500D02*
X161047000Y-102343500D01*
X161097000Y-100943500D02*
X161097000Y-99843500D01*
X159197000Y-100943500D02*
X159197000Y-99843500D01*
X165607000Y-92233500D02*
X165607000Y-88233500D01*
X162307000Y-92233500D02*
X165607000Y-92233500D01*
D11*
X124586001Y-75035499D02*
X124586001Y-76635499D01*
X134661001Y-75035499D02*
X134661001Y-69285499D01*
X124011001Y-75035499D02*
X124011001Y-69285499D01*
X134661001Y-75035499D02*
X134011001Y-75035499D01*
X134661001Y-69285499D02*
X134011001Y-69285499D01*
X124011001Y-69285499D02*
X124661001Y-69285499D01*
X124011001Y-75035499D02*
X124586001Y-75035499D01*
D12*
X132393000Y-84951500D02*
X132393000Y-85701500D01*
X123893000Y-84951500D02*
X132393000Y-84951500D01*
X123893000Y-85701500D02*
X123893000Y-84951500D01*
X123893000Y-91451500D02*
X123893000Y-90701500D01*
X132393000Y-91451500D02*
X123893000Y-91451500D01*
X132393000Y-90701500D02*
X132393000Y-91451500D01*
X133643000Y-90701500D02*
X132393000Y-90701500D01*
D10*
X152493000Y-59775500D02*
X152493000Y-59375500D01*
X141893000Y-59775500D02*
X141893000Y-59375500D01*
X141893000Y-81975500D02*
X141893000Y-81575500D01*
X152493000Y-59375500D02*
X141893000Y-59375500D01*
X152493000Y-81975500D02*
X141893000Y-81975500D01*
X152493000Y-81575500D02*
X152493000Y-81975500D01*
X153693000Y-81575500D02*
X152493000Y-81575500D01*
X166599000Y-60993500D02*
X166599000Y-63593500D01*
X160299000Y-65743500D02*
X160299000Y-65493500D01*
X166599000Y-65743500D02*
X160299000Y-65743500D01*
X166599000Y-65493500D02*
X166599000Y-65743500D01*
X160299000Y-63593500D02*
X160299000Y-60993500D01*
X166599000Y-58843500D02*
X166599000Y-59093500D01*
X160299000Y-58843500D02*
X166599000Y-58843500D01*
X160299000Y-59093500D02*
X160299000Y-58843500D01*
X124331000Y-65432721D02*
X124331000Y-65758279D01*
X125351000Y-65432721D02*
X125351000Y-65758279D01*
X129919000Y-65432721D02*
X129919000Y-65758279D01*
X130939000Y-65432721D02*
X130939000Y-65758279D01*
X119598221Y-70931500D02*
X119923779Y-70931500D01*
X119598221Y-69911500D02*
X119923779Y-69911500D01*
X119598221Y-68391500D02*
X119923779Y-68391500D01*
X119598221Y-67371500D02*
X119923779Y-67371500D01*
X171160221Y-70677500D02*
X171485779Y-70677500D01*
X171160221Y-69657500D02*
X171485779Y-69657500D01*
X171160221Y-75757500D02*
X171485779Y-75757500D01*
X171160221Y-74737500D02*
X171485779Y-74737500D01*
X171160221Y-68137500D02*
X171485779Y-68137500D01*
X171160221Y-67117500D02*
X171485779Y-67117500D01*
X171160221Y-73217500D02*
X171485779Y-73217500D01*
X171160221Y-72197500D02*
X171485779Y-72197500D01*
X171160221Y-78297500D02*
X171485779Y-78297500D01*
X171160221Y-77277500D02*
X171485779Y-77277500D01*
X148719000Y-104874279D02*
X148719000Y-104548721D01*
X147699000Y-104874279D02*
X147699000Y-104548721D01*
X146433000Y-106017279D02*
X146433000Y-105691721D01*
X145413000Y-106017279D02*
X145413000Y-105691721D01*
X151546779Y-104963500D02*
X151221221Y-104963500D01*
X151546779Y-105983500D02*
X151221221Y-105983500D01*
X152689779Y-106741500D02*
X152364221Y-106741500D01*
X152689779Y-107761500D02*
X152364221Y-107761500D01*
X171160221Y-83377500D02*
X171485779Y-83377500D01*
X171160221Y-82357500D02*
X171485779Y-82357500D01*
X171160221Y-80837500D02*
X171485779Y-80837500D01*
X171160221Y-79817500D02*
X171485779Y-79817500D01*
X160055779Y-66609500D02*
X159730221Y-66609500D01*
X160055779Y-67629500D02*
X159730221Y-67629500D01*
X158371000Y-94942779D02*
X158371000Y-94617221D01*
X157351000Y-94942779D02*
X157351000Y-94617221D01*
X160403000Y-88618279D02*
X160403000Y-88292721D01*
X159383000Y-88618279D02*
X159383000Y-88292721D01*
X166495000Y-89450721D02*
X166495000Y-89776279D01*
X167515000Y-89450721D02*
X167515000Y-89776279D01*
X137289000Y-91158279D02*
X137289000Y-90832721D01*
X136269000Y-91158279D02*
X136269000Y-90832721D01*
X134237000Y-83974721D02*
X134237000Y-84300279D01*
X135257000Y-83974721D02*
X135257000Y-84300279D01*
X130774221Y-93029500D02*
X131099779Y-93029500D01*
X130774221Y-92009500D02*
X131099779Y-92009500D01*
X135761000Y-83974721D02*
X135761000Y-84300279D01*
X136781000Y-83974721D02*
X136781000Y-84300279D01*
X130097000Y-62828000D02*
X130097000Y-62378000D01*
X130097000Y-62828000D02*
X129647000Y-62828000D01*
X124497000Y-62278000D02*
X124947000Y-62278000D01*
X124497000Y-60428000D02*
X124497000Y-62278000D01*
X132297000Y-57878000D02*
X132297000Y-58128000D01*
X124497000Y-57878000D02*
X124497000Y-58128000D01*
X132297000Y-60428000D02*
X132297000Y-62278000D01*
X132297000Y-62278000D02*
X131847000Y-62278000D01*
D12*
X168669000Y-120555500D02*
X176669000Y-120555500D01*
X176669000Y-120555500D02*
X176669000Y-134555500D01*
X114669000Y-120555500D02*
X145669000Y-120555500D01*
X114669000Y-134555500D02*
X114669000Y-120555500D01*
D10*
X126363000Y-65432721D02*
X126363000Y-65758279D01*
X127383000Y-65432721D02*
X127383000Y-65758279D01*
X129504221Y-116397500D02*
X129829779Y-116397500D01*
X129504221Y-115377500D02*
X129829779Y-115377500D01*
X138419721Y-116397500D02*
X138745279Y-116397500D01*
X138419721Y-115377500D02*
X138745279Y-115377500D01*
X157351000Y-101754721D02*
X157351000Y-102080279D01*
X158371000Y-101754721D02*
X158371000Y-102080279D01*
X157351000Y-98452721D02*
X157351000Y-98778279D01*
X158371000Y-98452721D02*
X158371000Y-98778279D01*
X160907000Y-88292721D02*
X160907000Y-88618279D01*
X161927000Y-88292721D02*
X161927000Y-88618279D01*
X160907000Y-91848721D02*
X160907000Y-92174279D01*
X161927000Y-91848721D02*
X161927000Y-92174279D01*
X124932221Y-93029500D02*
X125257779Y-93029500D01*
X124932221Y-92009500D02*
X125257779Y-92009500D01*
D11*
X162329952Y-69318142D02*
X162282333Y-69365761D01*
X162139476Y-69413380D01*
X162044238Y-69413380D01*
X161901380Y-69365761D01*
X161806142Y-69270523D01*
X161758523Y-69175285D01*
X161710904Y-68984809D01*
X161710904Y-68841952D01*
X161758523Y-68651476D01*
X161806142Y-68556238D01*
X161901380Y-68461000D01*
X162044238Y-68413380D01*
X162139476Y-68413380D01*
X162282333Y-68461000D01*
X162329952Y-68508619D01*
X163187095Y-68746714D02*
X163187095Y-69413380D01*
X162949000Y-68365761D02*
X162710904Y-69080047D01*
X163329952Y-69080047D01*
X164234714Y-69413380D02*
X163663285Y-69413380D01*
X163949000Y-69413380D02*
X163949000Y-68413380D01*
X163853761Y-68556238D01*
X163758523Y-68651476D01*
X163663285Y-68699095D01*
X164568047Y-68413380D02*
X165187095Y-68413380D01*
X164853761Y-68794333D01*
X164996619Y-68794333D01*
X165091857Y-68841952D01*
X165139476Y-68889571D01*
X165187095Y-68984809D01*
X165187095Y-69222904D01*
X165139476Y-69318142D01*
X165091857Y-69365761D01*
X164996619Y-69413380D01*
X164710904Y-69413380D01*
X164615666Y-69365761D01*
X164568047Y-69318142D01*
X166347380Y-111228166D02*
X165871190Y-111561500D01*
X166347380Y-111799595D02*
X165347380Y-111799595D01*
X165347380Y-111418642D01*
X165395000Y-111323404D01*
X165442619Y-111275785D01*
X165537857Y-111228166D01*
X165680714Y-111228166D01*
X165775952Y-111275785D01*
X165823571Y-111323404D01*
X165871190Y-111418642D01*
X165871190Y-111799595D01*
X166347380Y-110275785D02*
X166347380Y-110847214D01*
X166347380Y-110561500D02*
X165347380Y-110561500D01*
X165490238Y-110656738D01*
X165585476Y-110751976D01*
X165633095Y-110847214D01*
X161742380Y-111291666D02*
X161266190Y-111625000D01*
X161742380Y-111863095D02*
X160742380Y-111863095D01*
X160742380Y-111482142D01*
X160790000Y-111386904D01*
X160837619Y-111339285D01*
X160932857Y-111291666D01*
X161075714Y-111291666D01*
X161170952Y-111339285D01*
X161218571Y-111386904D01*
X161266190Y-111482142D01*
X161266190Y-111863095D01*
X160837619Y-110910714D02*
X160790000Y-110863095D01*
X160742380Y-110767857D01*
X160742380Y-110529761D01*
X160790000Y-110434523D01*
X160837619Y-110386904D01*
X160932857Y-110339285D01*
X161028095Y-110339285D01*
X161170952Y-110386904D01*
X161742380Y-110958333D01*
X161742380Y-110339285D01*
X139636714Y-83589880D02*
X139636714Y-84399404D01*
X139684333Y-84494642D01*
X139731952Y-84542261D01*
X139827190Y-84589880D01*
X140017666Y-84589880D01*
X140112904Y-84542261D01*
X140160523Y-84494642D01*
X140208142Y-84399404D01*
X140208142Y-83589880D01*
X141112904Y-83923214D02*
X141112904Y-84589880D01*
X140874809Y-83542261D02*
X140636714Y-84256547D01*
X141255761Y-84256547D01*
X141827190Y-83589880D02*
X141922428Y-83589880D01*
X142017666Y-83637500D01*
X142065285Y-83685119D01*
X142112904Y-83780357D01*
X142160523Y-83970833D01*
X142160523Y-84208928D01*
X142112904Y-84399404D01*
X142065285Y-84494642D01*
X142017666Y-84542261D01*
X141922428Y-84589880D01*
X141827190Y-84589880D01*
X141731952Y-84542261D01*
X141684333Y-84494642D01*
X141636714Y-84399404D01*
X141589095Y-84208928D01*
X141589095Y-83970833D01*
X141636714Y-83780357D01*
X141684333Y-83685119D01*
X141731952Y-83637500D01*
X141827190Y-83589880D01*
X143112904Y-84589880D02*
X142541476Y-84589880D01*
X142827190Y-84589880D02*
X142827190Y-83589880D01*
X142731952Y-83732738D01*
X142636714Y-83827976D01*
X142541476Y-83875595D01*
X154916142Y-114530166D02*
X154963761Y-114577785D01*
X155011380Y-114720642D01*
X155011380Y-114815880D01*
X154963761Y-114958738D01*
X154868523Y-115053976D01*
X154773285Y-115101595D01*
X154582809Y-115149214D01*
X154439952Y-115149214D01*
X154249476Y-115101595D01*
X154154238Y-115053976D01*
X154059000Y-114958738D01*
X154011380Y-114815880D01*
X154011380Y-114720642D01*
X154059000Y-114577785D01*
X154106619Y-114530166D01*
X154011380Y-114196833D02*
X154011380Y-113577785D01*
X154392333Y-113911119D01*
X154392333Y-113768261D01*
X154439952Y-113673023D01*
X154487571Y-113625404D01*
X154582809Y-113577785D01*
X154820904Y-113577785D01*
X154916142Y-113625404D01*
X154963761Y-113673023D01*
X155011380Y-113768261D01*
X155011380Y-114053976D01*
X154963761Y-114149214D01*
X154916142Y-114196833D01*
X157353095Y-116355880D02*
X157353095Y-117165404D01*
X157400714Y-117260642D01*
X157448333Y-117308261D01*
X157543571Y-117355880D01*
X157734047Y-117355880D01*
X157829285Y-117308261D01*
X157876904Y-117260642D01*
X157924523Y-117165404D01*
X157924523Y-116355880D01*
X158924523Y-117355880D02*
X158353095Y-117355880D01*
X158638809Y-117355880D02*
X158638809Y-116355880D01*
X158543571Y-116498738D01*
X158448333Y-116593976D01*
X158353095Y-116641595D01*
X164822142Y-117070166D02*
X164869761Y-117117785D01*
X164917380Y-117260642D01*
X164917380Y-117355880D01*
X164869761Y-117498738D01*
X164774523Y-117593976D01*
X164679285Y-117641595D01*
X164488809Y-117689214D01*
X164345952Y-117689214D01*
X164155476Y-117641595D01*
X164060238Y-117593976D01*
X163965000Y-117498738D01*
X163917380Y-117355880D01*
X163917380Y-117260642D01*
X163965000Y-117117785D01*
X164012619Y-117070166D01*
X164012619Y-116689214D02*
X163965000Y-116641595D01*
X163917380Y-116546357D01*
X163917380Y-116308261D01*
X163965000Y-116213023D01*
X164012619Y-116165404D01*
X164107857Y-116117785D01*
X164203095Y-116117785D01*
X164345952Y-116165404D01*
X164917380Y-116736833D01*
X164917380Y-116117785D01*
X163044142Y-117070166D02*
X163091761Y-117117785D01*
X163139380Y-117260642D01*
X163139380Y-117355880D01*
X163091761Y-117498738D01*
X162996523Y-117593976D01*
X162901285Y-117641595D01*
X162710809Y-117689214D01*
X162567952Y-117689214D01*
X162377476Y-117641595D01*
X162282238Y-117593976D01*
X162187000Y-117498738D01*
X162139380Y-117355880D01*
X162139380Y-117260642D01*
X162187000Y-117117785D01*
X162234619Y-117070166D01*
X163139380Y-116117785D02*
X163139380Y-116689214D01*
X163139380Y-116403500D02*
X162139380Y-116403500D01*
X162282238Y-116498738D01*
X162377476Y-116593976D01*
X162425095Y-116689214D01*
X137739380Y-70524547D02*
X137263190Y-70857880D01*
X137739380Y-71095976D02*
X136739380Y-71095976D01*
X136739380Y-70715023D01*
X136787000Y-70619785D01*
X136834619Y-70572166D01*
X136929857Y-70524547D01*
X137072714Y-70524547D01*
X137167952Y-70572166D01*
X137215571Y-70619785D01*
X137263190Y-70715023D01*
X137263190Y-71095976D01*
X136834619Y-70143595D02*
X136787000Y-70095976D01*
X136739380Y-70000738D01*
X136739380Y-69762642D01*
X136787000Y-69667404D01*
X136834619Y-69619785D01*
X136929857Y-69572166D01*
X137025095Y-69572166D01*
X137167952Y-69619785D01*
X137739380Y-70191214D01*
X137739380Y-69572166D01*
X136739380Y-68953119D02*
X136739380Y-68857880D01*
X136787000Y-68762642D01*
X136834619Y-68715023D01*
X136929857Y-68667404D01*
X137120333Y-68619785D01*
X137358428Y-68619785D01*
X137548904Y-68667404D01*
X137644142Y-68715023D01*
X137691761Y-68762642D01*
X137739380Y-68857880D01*
X137739380Y-68953119D01*
X137691761Y-69048357D01*
X137644142Y-69095976D01*
X137548904Y-69143595D01*
X137358428Y-69191214D01*
X137120333Y-69191214D01*
X136929857Y-69143595D01*
X136834619Y-69095976D01*
X136787000Y-69048357D01*
X136739380Y-68953119D01*
X137739380Y-67667404D02*
X137739380Y-68238833D01*
X137739380Y-67953119D02*
X136739380Y-67953119D01*
X136882238Y-68048357D01*
X136977476Y-68143595D01*
X137025095Y-68238833D01*
X162155190Y-101822071D02*
X162631380Y-101822071D01*
X161631380Y-102155404D02*
X162155190Y-101822071D01*
X161631380Y-101488738D01*
X161964714Y-100726833D02*
X162631380Y-100726833D01*
X161583761Y-100964928D02*
X162298047Y-101203023D01*
X162298047Y-100583976D01*
X161631380Y-100012547D02*
X161631380Y-99917309D01*
X161679000Y-99822071D01*
X161726619Y-99774452D01*
X161821857Y-99726833D01*
X162012333Y-99679214D01*
X162250428Y-99679214D01*
X162440904Y-99726833D01*
X162536142Y-99774452D01*
X162583761Y-99822071D01*
X162631380Y-99917309D01*
X162631380Y-100012547D01*
X162583761Y-100107785D01*
X162536142Y-100155404D01*
X162440904Y-100203023D01*
X162250428Y-100250642D01*
X162012333Y-100250642D01*
X161821857Y-100203023D01*
X161726619Y-100155404D01*
X161679000Y-100107785D01*
X161631380Y-100012547D01*
X161726619Y-99298261D02*
X161679000Y-99250642D01*
X161631380Y-99155404D01*
X161631380Y-98917309D01*
X161679000Y-98822071D01*
X161726619Y-98774452D01*
X161821857Y-98726833D01*
X161917095Y-98726833D01*
X162059952Y-98774452D01*
X162631380Y-99345880D01*
X162631380Y-98726833D01*
X162528428Y-87415690D02*
X162528428Y-87891880D01*
X162195095Y-86891880D02*
X162528428Y-87415690D01*
X162861761Y-86891880D01*
X163623666Y-87225214D02*
X163623666Y-87891880D01*
X163385571Y-86844261D02*
X163147476Y-87558547D01*
X163766523Y-87558547D01*
X164337952Y-86891880D02*
X164433190Y-86891880D01*
X164528428Y-86939500D01*
X164576047Y-86987119D01*
X164623666Y-87082357D01*
X164671285Y-87272833D01*
X164671285Y-87510928D01*
X164623666Y-87701404D01*
X164576047Y-87796642D01*
X164528428Y-87844261D01*
X164433190Y-87891880D01*
X164337952Y-87891880D01*
X164242714Y-87844261D01*
X164195095Y-87796642D01*
X164147476Y-87701404D01*
X164099857Y-87510928D01*
X164099857Y-87272833D01*
X164147476Y-87082357D01*
X164195095Y-86987119D01*
X164242714Y-86939500D01*
X164337952Y-86891880D01*
X165623666Y-87891880D02*
X165052238Y-87891880D01*
X165337952Y-87891880D02*
X165337952Y-86891880D01*
X165242714Y-87034738D01*
X165147476Y-87129976D01*
X165052238Y-87177595D01*
X131508714Y-77239880D02*
X131508714Y-78049404D01*
X131556333Y-78144642D01*
X131603952Y-78192261D01*
X131699190Y-78239880D01*
X131889666Y-78239880D01*
X131984904Y-78192261D01*
X132032523Y-78144642D01*
X132080142Y-78049404D01*
X132080142Y-77239880D01*
X133032523Y-77239880D02*
X132556333Y-77239880D01*
X132508714Y-77716071D01*
X132556333Y-77668452D01*
X132651571Y-77620833D01*
X132889666Y-77620833D01*
X132984904Y-77668452D01*
X133032523Y-77716071D01*
X133080142Y-77811309D01*
X133080142Y-78049404D01*
X133032523Y-78144642D01*
X132984904Y-78192261D01*
X132889666Y-78239880D01*
X132651571Y-78239880D01*
X132556333Y-78192261D01*
X132508714Y-78144642D01*
X133699190Y-77239880D02*
X133794428Y-77239880D01*
X133889666Y-77287500D01*
X133937285Y-77335119D01*
X133984904Y-77430357D01*
X134032523Y-77620833D01*
X134032523Y-77858928D01*
X133984904Y-78049404D01*
X133937285Y-78144642D01*
X133889666Y-78192261D01*
X133794428Y-78239880D01*
X133699190Y-78239880D01*
X133603952Y-78192261D01*
X133556333Y-78144642D01*
X133508714Y-78049404D01*
X133461095Y-77858928D01*
X133461095Y-77620833D01*
X133508714Y-77430357D01*
X133556333Y-77335119D01*
X133603952Y-77287500D01*
X133699190Y-77239880D01*
X134984904Y-78239880D02*
X134413476Y-78239880D01*
X134699190Y-78239880D02*
X134699190Y-77239880D01*
X134603952Y-77382738D01*
X134508714Y-77477976D01*
X134413476Y-77525595D01*
X126428714Y-83589880D02*
X126428714Y-84399404D01*
X126476333Y-84494642D01*
X126523952Y-84542261D01*
X126619190Y-84589880D01*
X126809666Y-84589880D01*
X126904904Y-84542261D01*
X126952523Y-84494642D01*
X127000142Y-84399404D01*
X127000142Y-83589880D01*
X127428714Y-83685119D02*
X127476333Y-83637500D01*
X127571571Y-83589880D01*
X127809666Y-83589880D01*
X127904904Y-83637500D01*
X127952523Y-83685119D01*
X128000142Y-83780357D01*
X128000142Y-83875595D01*
X127952523Y-84018452D01*
X127381095Y-84589880D01*
X128000142Y-84589880D01*
X128619190Y-83589880D02*
X128714428Y-83589880D01*
X128809666Y-83637500D01*
X128857285Y-83685119D01*
X128904904Y-83780357D01*
X128952523Y-83970833D01*
X128952523Y-84208928D01*
X128904904Y-84399404D01*
X128857285Y-84494642D01*
X128809666Y-84542261D01*
X128714428Y-84589880D01*
X128619190Y-84589880D01*
X128523952Y-84542261D01*
X128476333Y-84494642D01*
X128428714Y-84399404D01*
X128381095Y-84208928D01*
X128381095Y-83970833D01*
X128428714Y-83780357D01*
X128476333Y-83685119D01*
X128523952Y-83637500D01*
X128619190Y-83589880D01*
X129333476Y-83685119D02*
X129381095Y-83637500D01*
X129476333Y-83589880D01*
X129714428Y-83589880D01*
X129809666Y-83637500D01*
X129857285Y-83685119D01*
X129904904Y-83780357D01*
X129904904Y-83875595D01*
X129857285Y-84018452D01*
X129285857Y-84589880D01*
X129904904Y-84589880D01*
X154646380Y-81470285D02*
X155455904Y-81470285D01*
X155551142Y-81422666D01*
X155598761Y-81375047D01*
X155646380Y-81279809D01*
X155646380Y-81089333D01*
X155598761Y-80994095D01*
X155551142Y-80946476D01*
X155455904Y-80898857D01*
X154646380Y-80898857D01*
X154741619Y-80470285D02*
X154694000Y-80422666D01*
X154646380Y-80327428D01*
X154646380Y-80089333D01*
X154694000Y-79994095D01*
X154741619Y-79946476D01*
X154836857Y-79898857D01*
X154932095Y-79898857D01*
X155074952Y-79946476D01*
X155646380Y-80517904D01*
X155646380Y-79898857D01*
X154646380Y-79279809D02*
X154646380Y-79184571D01*
X154694000Y-79089333D01*
X154741619Y-79041714D01*
X154836857Y-78994095D01*
X155027333Y-78946476D01*
X155265428Y-78946476D01*
X155455904Y-78994095D01*
X155551142Y-79041714D01*
X155598761Y-79089333D01*
X155646380Y-79184571D01*
X155646380Y-79279809D01*
X155598761Y-79375047D01*
X155551142Y-79422666D01*
X155455904Y-79470285D01*
X155265428Y-79517904D01*
X155027333Y-79517904D01*
X154836857Y-79470285D01*
X154741619Y-79422666D01*
X154694000Y-79375047D01*
X154646380Y-79279809D01*
X155646380Y-77994095D02*
X155646380Y-78565523D01*
X155646380Y-78279809D02*
X154646380Y-78279809D01*
X154789238Y-78375047D01*
X154884476Y-78470285D01*
X154932095Y-78565523D01*
X161163285Y-62698261D02*
X161306142Y-62745880D01*
X161544238Y-62745880D01*
X161639476Y-62698261D01*
X161687095Y-62650642D01*
X161734714Y-62555404D01*
X161734714Y-62460166D01*
X161687095Y-62364928D01*
X161639476Y-62317309D01*
X161544238Y-62269690D01*
X161353761Y-62222071D01*
X161258523Y-62174452D01*
X161210904Y-62126833D01*
X161163285Y-62031595D01*
X161163285Y-61936357D01*
X161210904Y-61841119D01*
X161258523Y-61793500D01*
X161353761Y-61745880D01*
X161591857Y-61745880D01*
X161734714Y-61793500D01*
X162068047Y-61745880D02*
X162306142Y-62745880D01*
X162496619Y-62031595D01*
X162687095Y-62745880D01*
X162925190Y-61745880D01*
X163734714Y-62079214D02*
X163734714Y-62745880D01*
X163496619Y-61698261D02*
X163258523Y-62412547D01*
X163877571Y-62412547D01*
X164449000Y-61745880D02*
X164544238Y-61745880D01*
X164639476Y-61793500D01*
X164687095Y-61841119D01*
X164734714Y-61936357D01*
X164782333Y-62126833D01*
X164782333Y-62364928D01*
X164734714Y-62555404D01*
X164687095Y-62650642D01*
X164639476Y-62698261D01*
X164544238Y-62745880D01*
X164449000Y-62745880D01*
X164353761Y-62698261D01*
X164306142Y-62650642D01*
X164258523Y-62555404D01*
X164210904Y-62364928D01*
X164210904Y-62126833D01*
X164258523Y-61936357D01*
X164306142Y-61841119D01*
X164353761Y-61793500D01*
X164449000Y-61745880D01*
X165734714Y-62745880D02*
X165163285Y-62745880D01*
X165449000Y-62745880D02*
X165449000Y-61745880D01*
X165353761Y-61888738D01*
X165258523Y-61983976D01*
X165163285Y-62031595D01*
X123769380Y-66968547D02*
X123293190Y-67301880D01*
X123769380Y-67539976D02*
X122769380Y-67539976D01*
X122769380Y-67159023D01*
X122817000Y-67063785D01*
X122864619Y-67016166D01*
X122959857Y-66968547D01*
X123102714Y-66968547D01*
X123197952Y-67016166D01*
X123245571Y-67063785D01*
X123293190Y-67159023D01*
X123293190Y-67539976D01*
X122769380Y-66063785D02*
X122769380Y-66539976D01*
X123245571Y-66587595D01*
X123197952Y-66539976D01*
X123150333Y-66444738D01*
X123150333Y-66206642D01*
X123197952Y-66111404D01*
X123245571Y-66063785D01*
X123340809Y-66016166D01*
X123578904Y-66016166D01*
X123674142Y-66063785D01*
X123721761Y-66111404D01*
X123769380Y-66206642D01*
X123769380Y-66444738D01*
X123721761Y-66539976D01*
X123674142Y-66587595D01*
X122769380Y-65397119D02*
X122769380Y-65301880D01*
X122817000Y-65206642D01*
X122864619Y-65159023D01*
X122959857Y-65111404D01*
X123150333Y-65063785D01*
X123388428Y-65063785D01*
X123578904Y-65111404D01*
X123674142Y-65159023D01*
X123721761Y-65206642D01*
X123769380Y-65301880D01*
X123769380Y-65397119D01*
X123721761Y-65492357D01*
X123674142Y-65539976D01*
X123578904Y-65587595D01*
X123388428Y-65635214D01*
X123150333Y-65635214D01*
X122959857Y-65587595D01*
X122864619Y-65539976D01*
X122817000Y-65492357D01*
X122769380Y-65397119D01*
X122769380Y-64159023D02*
X122769380Y-64635214D01*
X123245571Y-64682833D01*
X123197952Y-64635214D01*
X123150333Y-64539976D01*
X123150333Y-64301880D01*
X123197952Y-64206642D01*
X123245571Y-64159023D01*
X123340809Y-64111404D01*
X123578904Y-64111404D01*
X123674142Y-64159023D01*
X123721761Y-64206642D01*
X123769380Y-64301880D01*
X123769380Y-64539976D01*
X123721761Y-64635214D01*
X123674142Y-64682833D01*
X132311380Y-66714547D02*
X131835190Y-67047880D01*
X132311380Y-67285976D02*
X131311380Y-67285976D01*
X131311380Y-66905023D01*
X131359000Y-66809785D01*
X131406619Y-66762166D01*
X131501857Y-66714547D01*
X131644714Y-66714547D01*
X131739952Y-66762166D01*
X131787571Y-66809785D01*
X131835190Y-66905023D01*
X131835190Y-67285976D01*
X131311380Y-65809785D02*
X131311380Y-66285976D01*
X131787571Y-66333595D01*
X131739952Y-66285976D01*
X131692333Y-66190738D01*
X131692333Y-65952642D01*
X131739952Y-65857404D01*
X131787571Y-65809785D01*
X131882809Y-65762166D01*
X132120904Y-65762166D01*
X132216142Y-65809785D01*
X132263761Y-65857404D01*
X132311380Y-65952642D01*
X132311380Y-66190738D01*
X132263761Y-66285976D01*
X132216142Y-66333595D01*
X131311380Y-65143119D02*
X131311380Y-65047880D01*
X131359000Y-64952642D01*
X131406619Y-64905023D01*
X131501857Y-64857404D01*
X131692333Y-64809785D01*
X131930428Y-64809785D01*
X132120904Y-64857404D01*
X132216142Y-64905023D01*
X132263761Y-64952642D01*
X132311380Y-65047880D01*
X132311380Y-65143119D01*
X132263761Y-65238357D01*
X132216142Y-65285976D01*
X132120904Y-65333595D01*
X131930428Y-65381214D01*
X131692333Y-65381214D01*
X131501857Y-65333595D01*
X131406619Y-65285976D01*
X131359000Y-65238357D01*
X131311380Y-65143119D01*
X131311380Y-64476452D02*
X131311380Y-63857404D01*
X131692333Y-64190738D01*
X131692333Y-64047880D01*
X131739952Y-63952642D01*
X131787571Y-63905023D01*
X131882809Y-63857404D01*
X132120904Y-63857404D01*
X132216142Y-63905023D01*
X132263761Y-63952642D01*
X132311380Y-64047880D01*
X132311380Y-64333595D01*
X132263761Y-64428833D01*
X132216142Y-64476452D01*
X148661380Y-109386547D02*
X148185190Y-109719880D01*
X148661380Y-109957976D02*
X147661380Y-109957976D01*
X147661380Y-109577023D01*
X147709000Y-109481785D01*
X147756619Y-109434166D01*
X147851857Y-109386547D01*
X147994714Y-109386547D01*
X148089952Y-109434166D01*
X148137571Y-109481785D01*
X148185190Y-109577023D01*
X148185190Y-109957976D01*
X147994714Y-108529404D02*
X148661380Y-108529404D01*
X147613761Y-108767500D02*
X148328047Y-109005595D01*
X148328047Y-108386547D01*
X148661380Y-107481785D02*
X148661380Y-108053214D01*
X148661380Y-107767500D02*
X147661380Y-107767500D01*
X147804238Y-107862738D01*
X147899476Y-107957976D01*
X147947095Y-108053214D01*
X147756619Y-107100833D02*
X147709000Y-107053214D01*
X147661380Y-106957976D01*
X147661380Y-106719880D01*
X147709000Y-106624642D01*
X147756619Y-106577023D01*
X147851857Y-106529404D01*
X147947095Y-106529404D01*
X148089952Y-106577023D01*
X148661380Y-107148452D01*
X148661380Y-106529404D01*
X146375380Y-110402547D02*
X145899190Y-110735880D01*
X146375380Y-110973976D02*
X145375380Y-110973976D01*
X145375380Y-110593023D01*
X145423000Y-110497785D01*
X145470619Y-110450166D01*
X145565857Y-110402547D01*
X145708714Y-110402547D01*
X145803952Y-110450166D01*
X145851571Y-110497785D01*
X145899190Y-110593023D01*
X145899190Y-110973976D01*
X145708714Y-109545404D02*
X146375380Y-109545404D01*
X145327761Y-109783500D02*
X146042047Y-110021595D01*
X146042047Y-109402547D01*
X146375380Y-108497785D02*
X146375380Y-109069214D01*
X146375380Y-108783500D02*
X145375380Y-108783500D01*
X145518238Y-108878738D01*
X145613476Y-108973976D01*
X145661095Y-109069214D01*
X146375380Y-107545404D02*
X146375380Y-108116833D01*
X146375380Y-107831119D02*
X145375380Y-107831119D01*
X145518238Y-107926357D01*
X145613476Y-108021595D01*
X145661095Y-108116833D01*
X153947952Y-105925880D02*
X153614619Y-105449690D01*
X153376523Y-105925880D02*
X153376523Y-104925880D01*
X153757476Y-104925880D01*
X153852714Y-104973500D01*
X153900333Y-105021119D01*
X153947952Y-105116357D01*
X153947952Y-105259214D01*
X153900333Y-105354452D01*
X153852714Y-105402071D01*
X153757476Y-105449690D01*
X153376523Y-105449690D01*
X154805095Y-105259214D02*
X154805095Y-105925880D01*
X154567000Y-104878261D02*
X154328904Y-105592547D01*
X154947952Y-105592547D01*
X155852714Y-105925880D02*
X155281285Y-105925880D01*
X155567000Y-105925880D02*
X155567000Y-104925880D01*
X155471761Y-105068738D01*
X155376523Y-105163976D01*
X155281285Y-105211595D01*
X156471761Y-104925880D02*
X156567000Y-104925880D01*
X156662238Y-104973500D01*
X156709857Y-105021119D01*
X156757476Y-105116357D01*
X156805095Y-105306833D01*
X156805095Y-105544928D01*
X156757476Y-105735404D01*
X156709857Y-105830642D01*
X156662238Y-105878261D01*
X156567000Y-105925880D01*
X156471761Y-105925880D01*
X156376523Y-105878261D01*
X156328904Y-105830642D01*
X156281285Y-105735404D01*
X156233666Y-105544928D01*
X156233666Y-105306833D01*
X156281285Y-105116357D01*
X156328904Y-105021119D01*
X156376523Y-104973500D01*
X156471761Y-104925880D01*
X154963952Y-107703880D02*
X154630619Y-107227690D01*
X154392523Y-107703880D02*
X154392523Y-106703880D01*
X154773476Y-106703880D01*
X154868714Y-106751500D01*
X154916333Y-106799119D01*
X154963952Y-106894357D01*
X154963952Y-107037214D01*
X154916333Y-107132452D01*
X154868714Y-107180071D01*
X154773476Y-107227690D01*
X154392523Y-107227690D01*
X155821095Y-107037214D02*
X155821095Y-107703880D01*
X155583000Y-106656261D02*
X155344904Y-107370547D01*
X155963952Y-107370547D01*
X156535380Y-106703880D02*
X156630619Y-106703880D01*
X156725857Y-106751500D01*
X156773476Y-106799119D01*
X156821095Y-106894357D01*
X156868714Y-107084833D01*
X156868714Y-107322928D01*
X156821095Y-107513404D01*
X156773476Y-107608642D01*
X156725857Y-107656261D01*
X156630619Y-107703880D01*
X156535380Y-107703880D01*
X156440142Y-107656261D01*
X156392523Y-107608642D01*
X156344904Y-107513404D01*
X156297285Y-107322928D01*
X156297285Y-107084833D01*
X156344904Y-106894357D01*
X156392523Y-106799119D01*
X156440142Y-106751500D01*
X156535380Y-106703880D01*
X157344904Y-107703880D02*
X157535380Y-107703880D01*
X157630619Y-107656261D01*
X157678238Y-107608642D01*
X157773476Y-107465785D01*
X157821095Y-107275309D01*
X157821095Y-106894357D01*
X157773476Y-106799119D01*
X157725857Y-106751500D01*
X157630619Y-106703880D01*
X157440142Y-106703880D01*
X157344904Y-106751500D01*
X157297285Y-106799119D01*
X157249666Y-106894357D01*
X157249666Y-107132452D01*
X157297285Y-107227690D01*
X157344904Y-107275309D01*
X157440142Y-107322928D01*
X157630619Y-107322928D01*
X157725857Y-107275309D01*
X157773476Y-107227690D01*
X157821095Y-107132452D01*
X162329952Y-67571880D02*
X161996619Y-67095690D01*
X161758523Y-67571880D02*
X161758523Y-66571880D01*
X162139476Y-66571880D01*
X162234714Y-66619500D01*
X162282333Y-66667119D01*
X162329952Y-66762357D01*
X162329952Y-66905214D01*
X162282333Y-67000452D01*
X162234714Y-67048071D01*
X162139476Y-67095690D01*
X161758523Y-67095690D01*
X163187095Y-66905214D02*
X163187095Y-67571880D01*
X162949000Y-66524261D02*
X162710904Y-67238547D01*
X163329952Y-67238547D01*
X163901380Y-66571880D02*
X163996619Y-66571880D01*
X164091857Y-66619500D01*
X164139476Y-66667119D01*
X164187095Y-66762357D01*
X164234714Y-66952833D01*
X164234714Y-67190928D01*
X164187095Y-67381404D01*
X164139476Y-67476642D01*
X164091857Y-67524261D01*
X163996619Y-67571880D01*
X163901380Y-67571880D01*
X163806142Y-67524261D01*
X163758523Y-67476642D01*
X163710904Y-67381404D01*
X163663285Y-67190928D01*
X163663285Y-66952833D01*
X163710904Y-66762357D01*
X163758523Y-66667119D01*
X163806142Y-66619500D01*
X163901380Y-66571880D01*
X165091857Y-66571880D02*
X164901380Y-66571880D01*
X164806142Y-66619500D01*
X164758523Y-66667119D01*
X164663285Y-66809976D01*
X164615666Y-67000452D01*
X164615666Y-67381404D01*
X164663285Y-67476642D01*
X164710904Y-67524261D01*
X164806142Y-67571880D01*
X164996619Y-67571880D01*
X165091857Y-67524261D01*
X165139476Y-67476642D01*
X165187095Y-67381404D01*
X165187095Y-67143309D01*
X165139476Y-67048071D01*
X165091857Y-67000452D01*
X164996619Y-66952833D01*
X164806142Y-66952833D01*
X164710904Y-67000452D01*
X164663285Y-67048071D01*
X164615666Y-67143309D01*
X159837380Y-95924547D02*
X159361190Y-96257880D01*
X159837380Y-96495976D02*
X158837380Y-96495976D01*
X158837380Y-96115023D01*
X158885000Y-96019785D01*
X158932619Y-95972166D01*
X159027857Y-95924547D01*
X159170714Y-95924547D01*
X159265952Y-95972166D01*
X159313571Y-96019785D01*
X159361190Y-96115023D01*
X159361190Y-96495976D01*
X159170714Y-95067404D02*
X159837380Y-95067404D01*
X158789761Y-95305500D02*
X159504047Y-95543595D01*
X159504047Y-94924547D01*
X158837380Y-94353119D02*
X158837380Y-94257880D01*
X158885000Y-94162642D01*
X158932619Y-94115023D01*
X159027857Y-94067404D01*
X159218333Y-94019785D01*
X159456428Y-94019785D01*
X159646904Y-94067404D01*
X159742142Y-94115023D01*
X159789761Y-94162642D01*
X159837380Y-94257880D01*
X159837380Y-94353119D01*
X159789761Y-94448357D01*
X159742142Y-94495976D01*
X159646904Y-94543595D01*
X159456428Y-94591214D01*
X159218333Y-94591214D01*
X159027857Y-94543595D01*
X158932619Y-94495976D01*
X158885000Y-94448357D01*
X158837380Y-94353119D01*
X158837380Y-93115023D02*
X158837380Y-93591214D01*
X159313571Y-93638833D01*
X159265952Y-93591214D01*
X159218333Y-93495976D01*
X159218333Y-93257880D01*
X159265952Y-93162642D01*
X159313571Y-93115023D01*
X159408809Y-93067404D01*
X159646904Y-93067404D01*
X159742142Y-93115023D01*
X159789761Y-93162642D01*
X159837380Y-93257880D01*
X159837380Y-93495976D01*
X159789761Y-93591214D01*
X159742142Y-93638833D01*
X160345380Y-86018547D02*
X159869190Y-86351880D01*
X160345380Y-86589976D02*
X159345380Y-86589976D01*
X159345380Y-86209023D01*
X159393000Y-86113785D01*
X159440619Y-86066166D01*
X159535857Y-86018547D01*
X159678714Y-86018547D01*
X159773952Y-86066166D01*
X159821571Y-86113785D01*
X159869190Y-86209023D01*
X159869190Y-86589976D01*
X159678714Y-85161404D02*
X160345380Y-85161404D01*
X159297761Y-85399500D02*
X160012047Y-85637595D01*
X160012047Y-85018547D01*
X159345380Y-84447119D02*
X159345380Y-84351880D01*
X159393000Y-84256642D01*
X159440619Y-84209023D01*
X159535857Y-84161404D01*
X159726333Y-84113785D01*
X159964428Y-84113785D01*
X160154904Y-84161404D01*
X160250142Y-84209023D01*
X160297761Y-84256642D01*
X160345380Y-84351880D01*
X160345380Y-84447119D01*
X160297761Y-84542357D01*
X160250142Y-84589976D01*
X160154904Y-84637595D01*
X159964428Y-84685214D01*
X159726333Y-84685214D01*
X159535857Y-84637595D01*
X159440619Y-84589976D01*
X159393000Y-84542357D01*
X159345380Y-84447119D01*
X159345380Y-83780452D02*
X159345380Y-83161404D01*
X159726333Y-83494738D01*
X159726333Y-83351880D01*
X159773952Y-83256642D01*
X159821571Y-83209023D01*
X159916809Y-83161404D01*
X160154904Y-83161404D01*
X160250142Y-83209023D01*
X160297761Y-83256642D01*
X160345380Y-83351880D01*
X160345380Y-83637595D01*
X160297761Y-83732833D01*
X160250142Y-83780452D01*
X168887380Y-90732547D02*
X168411190Y-91065880D01*
X168887380Y-91303976D02*
X167887380Y-91303976D01*
X167887380Y-90923023D01*
X167935000Y-90827785D01*
X167982619Y-90780166D01*
X168077857Y-90732547D01*
X168220714Y-90732547D01*
X168315952Y-90780166D01*
X168363571Y-90827785D01*
X168411190Y-90923023D01*
X168411190Y-91303976D01*
X168220714Y-89875404D02*
X168887380Y-89875404D01*
X167839761Y-90113500D02*
X168554047Y-90351595D01*
X168554047Y-89732547D01*
X167887380Y-89161119D02*
X167887380Y-89065880D01*
X167935000Y-88970642D01*
X167982619Y-88923023D01*
X168077857Y-88875404D01*
X168268333Y-88827785D01*
X168506428Y-88827785D01*
X168696904Y-88875404D01*
X168792142Y-88923023D01*
X168839761Y-88970642D01*
X168887380Y-89065880D01*
X168887380Y-89161119D01*
X168839761Y-89256357D01*
X168792142Y-89303976D01*
X168696904Y-89351595D01*
X168506428Y-89399214D01*
X168268333Y-89399214D01*
X168077857Y-89351595D01*
X167982619Y-89303976D01*
X167935000Y-89256357D01*
X167887380Y-89161119D01*
X167982619Y-88446833D02*
X167935000Y-88399214D01*
X167887380Y-88303976D01*
X167887380Y-88065880D01*
X167935000Y-87970642D01*
X167982619Y-87923023D01*
X168077857Y-87875404D01*
X168173095Y-87875404D01*
X168315952Y-87923023D01*
X168887380Y-88494452D01*
X168887380Y-87875404D01*
X135801380Y-92114547D02*
X135325190Y-92447880D01*
X135801380Y-92685976D02*
X134801380Y-92685976D01*
X134801380Y-92305023D01*
X134849000Y-92209785D01*
X134896619Y-92162166D01*
X134991857Y-92114547D01*
X135134714Y-92114547D01*
X135229952Y-92162166D01*
X135277571Y-92209785D01*
X135325190Y-92305023D01*
X135325190Y-92685976D01*
X134896619Y-91733595D02*
X134849000Y-91685976D01*
X134801380Y-91590738D01*
X134801380Y-91352642D01*
X134849000Y-91257404D01*
X134896619Y-91209785D01*
X134991857Y-91162166D01*
X135087095Y-91162166D01*
X135229952Y-91209785D01*
X135801380Y-91781214D01*
X135801380Y-91162166D01*
X134801380Y-90543119D02*
X134801380Y-90447880D01*
X134849000Y-90352642D01*
X134896619Y-90305023D01*
X134991857Y-90257404D01*
X135182333Y-90209785D01*
X135420428Y-90209785D01*
X135610904Y-90257404D01*
X135706142Y-90305023D01*
X135753761Y-90352642D01*
X135801380Y-90447880D01*
X135801380Y-90543119D01*
X135753761Y-90638357D01*
X135706142Y-90685976D01*
X135610904Y-90733595D01*
X135420428Y-90781214D01*
X135182333Y-90781214D01*
X134991857Y-90733595D01*
X134896619Y-90685976D01*
X134849000Y-90638357D01*
X134801380Y-90543119D01*
X134801380Y-89305023D02*
X134801380Y-89781214D01*
X135277571Y-89828833D01*
X135229952Y-89781214D01*
X135182333Y-89685976D01*
X135182333Y-89447880D01*
X135229952Y-89352642D01*
X135277571Y-89305023D01*
X135372809Y-89257404D01*
X135610904Y-89257404D01*
X135706142Y-89305023D01*
X135753761Y-89352642D01*
X135801380Y-89447880D01*
X135801380Y-89685976D01*
X135753761Y-89781214D01*
X135706142Y-89828833D01*
X133929380Y-85002547D02*
X133453190Y-85335880D01*
X133929380Y-85573976D02*
X132929380Y-85573976D01*
X132929380Y-85193023D01*
X132977000Y-85097785D01*
X133024619Y-85050166D01*
X133119857Y-85002547D01*
X133262714Y-85002547D01*
X133357952Y-85050166D01*
X133405571Y-85097785D01*
X133453190Y-85193023D01*
X133453190Y-85573976D01*
X133024619Y-84621595D02*
X132977000Y-84573976D01*
X132929380Y-84478738D01*
X132929380Y-84240642D01*
X132977000Y-84145404D01*
X133024619Y-84097785D01*
X133119857Y-84050166D01*
X133215095Y-84050166D01*
X133357952Y-84097785D01*
X133929380Y-84669214D01*
X133929380Y-84050166D01*
X132929380Y-83431119D02*
X132929380Y-83335880D01*
X132977000Y-83240642D01*
X133024619Y-83193023D01*
X133119857Y-83145404D01*
X133310333Y-83097785D01*
X133548428Y-83097785D01*
X133738904Y-83145404D01*
X133834142Y-83193023D01*
X133881761Y-83240642D01*
X133929380Y-83335880D01*
X133929380Y-83431119D01*
X133881761Y-83526357D01*
X133834142Y-83573976D01*
X133738904Y-83621595D01*
X133548428Y-83669214D01*
X133310333Y-83669214D01*
X133119857Y-83621595D01*
X133024619Y-83573976D01*
X132977000Y-83526357D01*
X132929380Y-83431119D01*
X133262714Y-82240642D02*
X133929380Y-82240642D01*
X132881761Y-82478738D02*
X133596047Y-82716833D01*
X133596047Y-82097785D01*
X129817952Y-94495880D02*
X129484619Y-94019690D01*
X129246523Y-94495880D02*
X129246523Y-93495880D01*
X129627476Y-93495880D01*
X129722714Y-93543500D01*
X129770333Y-93591119D01*
X129817952Y-93686357D01*
X129817952Y-93829214D01*
X129770333Y-93924452D01*
X129722714Y-93972071D01*
X129627476Y-94019690D01*
X129246523Y-94019690D01*
X130198904Y-93591119D02*
X130246523Y-93543500D01*
X130341761Y-93495880D01*
X130579857Y-93495880D01*
X130675095Y-93543500D01*
X130722714Y-93591119D01*
X130770333Y-93686357D01*
X130770333Y-93781595D01*
X130722714Y-93924452D01*
X130151285Y-94495880D01*
X130770333Y-94495880D01*
X131389380Y-93495880D02*
X131484619Y-93495880D01*
X131579857Y-93543500D01*
X131627476Y-93591119D01*
X131675095Y-93686357D01*
X131722714Y-93876833D01*
X131722714Y-94114928D01*
X131675095Y-94305404D01*
X131627476Y-94400642D01*
X131579857Y-94448261D01*
X131484619Y-94495880D01*
X131389380Y-94495880D01*
X131294142Y-94448261D01*
X131246523Y-94400642D01*
X131198904Y-94305404D01*
X131151285Y-94114928D01*
X131151285Y-93876833D01*
X131198904Y-93686357D01*
X131246523Y-93591119D01*
X131294142Y-93543500D01*
X131389380Y-93495880D01*
X132056047Y-93495880D02*
X132675095Y-93495880D01*
X132341761Y-93876833D01*
X132484619Y-93876833D01*
X132579857Y-93924452D01*
X132627476Y-93972071D01*
X132675095Y-94067309D01*
X132675095Y-94305404D01*
X132627476Y-94400642D01*
X132579857Y-94448261D01*
X132484619Y-94495880D01*
X132198904Y-94495880D01*
X132103666Y-94448261D01*
X132056047Y-94400642D01*
X138153380Y-85002547D02*
X137677190Y-85335880D01*
X138153380Y-85573976D02*
X137153380Y-85573976D01*
X137153380Y-85193023D01*
X137201000Y-85097785D01*
X137248619Y-85050166D01*
X137343857Y-85002547D01*
X137486714Y-85002547D01*
X137581952Y-85050166D01*
X137629571Y-85097785D01*
X137677190Y-85193023D01*
X137677190Y-85573976D01*
X137248619Y-84621595D02*
X137201000Y-84573976D01*
X137153380Y-84478738D01*
X137153380Y-84240642D01*
X137201000Y-84145404D01*
X137248619Y-84097785D01*
X137343857Y-84050166D01*
X137439095Y-84050166D01*
X137581952Y-84097785D01*
X138153380Y-84669214D01*
X138153380Y-84050166D01*
X137153380Y-83431119D02*
X137153380Y-83335880D01*
X137201000Y-83240642D01*
X137248619Y-83193023D01*
X137343857Y-83145404D01*
X137534333Y-83097785D01*
X137772428Y-83097785D01*
X137962904Y-83145404D01*
X138058142Y-83193023D01*
X138105761Y-83240642D01*
X138153380Y-83335880D01*
X138153380Y-83431119D01*
X138105761Y-83526357D01*
X138058142Y-83573976D01*
X137962904Y-83621595D01*
X137772428Y-83669214D01*
X137534333Y-83669214D01*
X137343857Y-83621595D01*
X137248619Y-83573976D01*
X137201000Y-83526357D01*
X137153380Y-83431119D01*
X137248619Y-82716833D02*
X137201000Y-82669214D01*
X137153380Y-82573976D01*
X137153380Y-82335880D01*
X137201000Y-82240642D01*
X137248619Y-82193023D01*
X137343857Y-82145404D01*
X137439095Y-82145404D01*
X137581952Y-82193023D01*
X138153380Y-82764452D01*
X138153380Y-82145404D01*
X144383285Y-119007880D02*
X144383285Y-119722166D01*
X144335666Y-119865023D01*
X144240428Y-119960261D01*
X144097571Y-120007880D01*
X144002333Y-120007880D01*
X144764238Y-119007880D02*
X145383285Y-119007880D01*
X145049952Y-119388833D01*
X145192809Y-119388833D01*
X145288047Y-119436452D01*
X145335666Y-119484071D01*
X145383285Y-119579309D01*
X145383285Y-119817404D01*
X145335666Y-119912642D01*
X145288047Y-119960261D01*
X145192809Y-120007880D01*
X144907095Y-120007880D01*
X144811857Y-119960261D01*
X144764238Y-119912642D01*
X146002333Y-119007880D02*
X146097571Y-119007880D01*
X146192809Y-119055500D01*
X146240428Y-119103119D01*
X146288047Y-119198357D01*
X146335666Y-119388833D01*
X146335666Y-119626928D01*
X146288047Y-119817404D01*
X146240428Y-119912642D01*
X146192809Y-119960261D01*
X146097571Y-120007880D01*
X146002333Y-120007880D01*
X145907095Y-119960261D01*
X145859476Y-119912642D01*
X145811857Y-119817404D01*
X145764238Y-119626928D01*
X145764238Y-119388833D01*
X145811857Y-119198357D01*
X145859476Y-119103119D01*
X145907095Y-119055500D01*
X146002333Y-119007880D01*
X147288047Y-120007880D02*
X146716619Y-120007880D01*
X147002333Y-120007880D02*
X147002333Y-119007880D01*
X146907095Y-119150738D01*
X146811857Y-119245976D01*
X146716619Y-119293595D01*
X128754142Y-66968547D02*
X128801761Y-67016166D01*
X128849380Y-67159023D01*
X128849380Y-67254261D01*
X128801761Y-67397119D01*
X128706523Y-67492357D01*
X128611285Y-67539976D01*
X128420809Y-67587595D01*
X128277952Y-67587595D01*
X128087476Y-67539976D01*
X127992238Y-67492357D01*
X127897000Y-67397119D01*
X127849380Y-67254261D01*
X127849380Y-67159023D01*
X127897000Y-67016166D01*
X127944619Y-66968547D01*
X127849380Y-66063785D02*
X127849380Y-66539976D01*
X128325571Y-66587595D01*
X128277952Y-66539976D01*
X128230333Y-66444738D01*
X128230333Y-66206642D01*
X128277952Y-66111404D01*
X128325571Y-66063785D01*
X128420809Y-66016166D01*
X128658904Y-66016166D01*
X128754142Y-66063785D01*
X128801761Y-66111404D01*
X128849380Y-66206642D01*
X128849380Y-66444738D01*
X128801761Y-66539976D01*
X128754142Y-66587595D01*
X127849380Y-65397119D02*
X127849380Y-65301880D01*
X127897000Y-65206642D01*
X127944619Y-65159023D01*
X128039857Y-65111404D01*
X128230333Y-65063785D01*
X128468428Y-65063785D01*
X128658904Y-65111404D01*
X128754142Y-65159023D01*
X128801761Y-65206642D01*
X128849380Y-65301880D01*
X128849380Y-65397119D01*
X128801761Y-65492357D01*
X128754142Y-65539976D01*
X128658904Y-65587595D01*
X128468428Y-65635214D01*
X128230333Y-65635214D01*
X128039857Y-65587595D01*
X127944619Y-65539976D01*
X127897000Y-65492357D01*
X127849380Y-65397119D01*
X127849380Y-64730452D02*
X127849380Y-64111404D01*
X128230333Y-64444738D01*
X128230333Y-64301880D01*
X128277952Y-64206642D01*
X128325571Y-64159023D01*
X128420809Y-64111404D01*
X128658904Y-64111404D01*
X128754142Y-64159023D01*
X128801761Y-64206642D01*
X128849380Y-64301880D01*
X128849380Y-64587595D01*
X128801761Y-64682833D01*
X128754142Y-64730452D01*
X128547952Y-114814642D02*
X128500333Y-114862261D01*
X128357476Y-114909880D01*
X128262238Y-114909880D01*
X128119380Y-114862261D01*
X128024142Y-114767023D01*
X127976523Y-114671785D01*
X127928904Y-114481309D01*
X127928904Y-114338452D01*
X127976523Y-114147976D01*
X128024142Y-114052738D01*
X128119380Y-113957500D01*
X128262238Y-113909880D01*
X128357476Y-113909880D01*
X128500333Y-113957500D01*
X128547952Y-114005119D01*
X129405095Y-114243214D02*
X129405095Y-114909880D01*
X129167000Y-113862261D02*
X128928904Y-114576547D01*
X129547952Y-114576547D01*
X130452714Y-114909880D02*
X129881285Y-114909880D01*
X130167000Y-114909880D02*
X130167000Y-113909880D01*
X130071761Y-114052738D01*
X129976523Y-114147976D01*
X129881285Y-114195595D01*
X131357476Y-113909880D02*
X130881285Y-113909880D01*
X130833666Y-114386071D01*
X130881285Y-114338452D01*
X130976523Y-114290833D01*
X131214619Y-114290833D01*
X131309857Y-114338452D01*
X131357476Y-114386071D01*
X131405095Y-114481309D01*
X131405095Y-114719404D01*
X131357476Y-114814642D01*
X131309857Y-114862261D01*
X131214619Y-114909880D01*
X130976523Y-114909880D01*
X130881285Y-114862261D01*
X130833666Y-114814642D01*
X137463452Y-114814642D02*
X137415833Y-114862261D01*
X137272976Y-114909880D01*
X137177738Y-114909880D01*
X137034880Y-114862261D01*
X136939642Y-114767023D01*
X136892023Y-114671785D01*
X136844404Y-114481309D01*
X136844404Y-114338452D01*
X136892023Y-114147976D01*
X136939642Y-114052738D01*
X137034880Y-113957500D01*
X137177738Y-113909880D01*
X137272976Y-113909880D01*
X137415833Y-113957500D01*
X137463452Y-114005119D01*
X138320595Y-114243214D02*
X138320595Y-114909880D01*
X138082500Y-113862261D02*
X137844404Y-114576547D01*
X138463452Y-114576547D01*
X139368214Y-114909880D02*
X138796785Y-114909880D01*
X139082500Y-114909880D02*
X139082500Y-113909880D01*
X138987261Y-114052738D01*
X138892023Y-114147976D01*
X138796785Y-114195595D01*
X140225357Y-114243214D02*
X140225357Y-114909880D01*
X139987261Y-113862261D02*
X139749166Y-114576547D01*
X140368214Y-114576547D01*
X159535952Y-103544642D02*
X159488333Y-103592261D01*
X159345476Y-103639880D01*
X159250238Y-103639880D01*
X159107380Y-103592261D01*
X159012142Y-103497023D01*
X158964523Y-103401785D01*
X158916904Y-103211309D01*
X158916904Y-103068452D01*
X158964523Y-102877976D01*
X159012142Y-102782738D01*
X159107380Y-102687500D01*
X159250238Y-102639880D01*
X159345476Y-102639880D01*
X159488333Y-102687500D01*
X159535952Y-102735119D01*
X160393095Y-102973214D02*
X160393095Y-103639880D01*
X160155000Y-102592261D02*
X159916904Y-103306547D01*
X160535952Y-103306547D01*
X161440714Y-103639880D02*
X160869285Y-103639880D01*
X161155000Y-103639880D02*
X161155000Y-102639880D01*
X161059761Y-102782738D01*
X160964523Y-102877976D01*
X160869285Y-102925595D01*
X161821666Y-102735119D02*
X161869285Y-102687500D01*
X161964523Y-102639880D01*
X162202619Y-102639880D01*
X162297857Y-102687500D01*
X162345476Y-102735119D01*
X162393095Y-102830357D01*
X162393095Y-102925595D01*
X162345476Y-103068452D01*
X161774047Y-103639880D01*
X162393095Y-103639880D01*
X159535952Y-97956642D02*
X159488333Y-98004261D01*
X159345476Y-98051880D01*
X159250238Y-98051880D01*
X159107380Y-98004261D01*
X159012142Y-97909023D01*
X158964523Y-97813785D01*
X158916904Y-97623309D01*
X158916904Y-97480452D01*
X158964523Y-97289976D01*
X159012142Y-97194738D01*
X159107380Y-97099500D01*
X159250238Y-97051880D01*
X159345476Y-97051880D01*
X159488333Y-97099500D01*
X159535952Y-97147119D01*
X160393095Y-97385214D02*
X160393095Y-98051880D01*
X160155000Y-97004261D02*
X159916904Y-97718547D01*
X160535952Y-97718547D01*
X161440714Y-98051880D02*
X160869285Y-98051880D01*
X161155000Y-98051880D02*
X161155000Y-97051880D01*
X161059761Y-97194738D01*
X160964523Y-97289976D01*
X160869285Y-97337595D01*
X162393095Y-98051880D02*
X161821666Y-98051880D01*
X162107380Y-98051880D02*
X162107380Y-97051880D01*
X162012142Y-97194738D01*
X161916904Y-97289976D01*
X161821666Y-97337595D01*
X161774142Y-86018547D02*
X161821761Y-86066166D01*
X161869380Y-86209023D01*
X161869380Y-86304261D01*
X161821761Y-86447119D01*
X161726523Y-86542357D01*
X161631285Y-86589976D01*
X161440809Y-86637595D01*
X161297952Y-86637595D01*
X161107476Y-86589976D01*
X161012238Y-86542357D01*
X160917000Y-86447119D01*
X160869380Y-86304261D01*
X160869380Y-86209023D01*
X160917000Y-86066166D01*
X160964619Y-86018547D01*
X161202714Y-85161404D02*
X161869380Y-85161404D01*
X160821761Y-85399500D02*
X161536047Y-85637595D01*
X161536047Y-85018547D01*
X160869380Y-84447119D02*
X160869380Y-84351880D01*
X160917000Y-84256642D01*
X160964619Y-84209023D01*
X161059857Y-84161404D01*
X161250333Y-84113785D01*
X161488428Y-84113785D01*
X161678904Y-84161404D01*
X161774142Y-84209023D01*
X161821761Y-84256642D01*
X161869380Y-84351880D01*
X161869380Y-84447119D01*
X161821761Y-84542357D01*
X161774142Y-84589976D01*
X161678904Y-84637595D01*
X161488428Y-84685214D01*
X161250333Y-84685214D01*
X161059857Y-84637595D01*
X160964619Y-84589976D01*
X160917000Y-84542357D01*
X160869380Y-84447119D01*
X160964619Y-83732833D02*
X160917000Y-83685214D01*
X160869380Y-83589976D01*
X160869380Y-83351880D01*
X160917000Y-83256642D01*
X160964619Y-83209023D01*
X161059857Y-83161404D01*
X161155095Y-83161404D01*
X161297952Y-83209023D01*
X161869380Y-83780452D01*
X161869380Y-83161404D01*
X161186952Y-94654642D02*
X161139333Y-94702261D01*
X160996476Y-94749880D01*
X160901238Y-94749880D01*
X160758380Y-94702261D01*
X160663142Y-94607023D01*
X160615523Y-94511785D01*
X160567904Y-94321309D01*
X160567904Y-94178452D01*
X160615523Y-93987976D01*
X160663142Y-93892738D01*
X160758380Y-93797500D01*
X160901238Y-93749880D01*
X160996476Y-93749880D01*
X161139333Y-93797500D01*
X161186952Y-93845119D01*
X162044095Y-94083214D02*
X162044095Y-94749880D01*
X161806000Y-93702261D02*
X161567904Y-94416547D01*
X162186952Y-94416547D01*
X162758380Y-93749880D02*
X162853619Y-93749880D01*
X162948857Y-93797500D01*
X162996476Y-93845119D01*
X163044095Y-93940357D01*
X163091714Y-94130833D01*
X163091714Y-94368928D01*
X163044095Y-94559404D01*
X162996476Y-94654642D01*
X162948857Y-94702261D01*
X162853619Y-94749880D01*
X162758380Y-94749880D01*
X162663142Y-94702261D01*
X162615523Y-94654642D01*
X162567904Y-94559404D01*
X162520285Y-94368928D01*
X162520285Y-94130833D01*
X162567904Y-93940357D01*
X162615523Y-93845119D01*
X162663142Y-93797500D01*
X162758380Y-93749880D01*
X164044095Y-94749880D02*
X163472666Y-94749880D01*
X163758380Y-94749880D02*
X163758380Y-93749880D01*
X163663142Y-93892738D01*
X163567904Y-93987976D01*
X163472666Y-94035595D01*
X123975952Y-94400642D02*
X123928333Y-94448261D01*
X123785476Y-94495880D01*
X123690238Y-94495880D01*
X123547380Y-94448261D01*
X123452142Y-94353023D01*
X123404523Y-94257785D01*
X123356904Y-94067309D01*
X123356904Y-93924452D01*
X123404523Y-93733976D01*
X123452142Y-93638738D01*
X123547380Y-93543500D01*
X123690238Y-93495880D01*
X123785476Y-93495880D01*
X123928333Y-93543500D01*
X123975952Y-93591119D01*
X124356904Y-93591119D02*
X124404523Y-93543500D01*
X124499761Y-93495880D01*
X124737857Y-93495880D01*
X124833095Y-93543500D01*
X124880714Y-93591119D01*
X124928333Y-93686357D01*
X124928333Y-93781595D01*
X124880714Y-93924452D01*
X124309285Y-94495880D01*
X124928333Y-94495880D01*
X125547380Y-93495880D02*
X125642619Y-93495880D01*
X125737857Y-93543500D01*
X125785476Y-93591119D01*
X125833095Y-93686357D01*
X125880714Y-93876833D01*
X125880714Y-94114928D01*
X125833095Y-94305404D01*
X125785476Y-94400642D01*
X125737857Y-94448261D01*
X125642619Y-94495880D01*
X125547380Y-94495880D01*
X125452142Y-94448261D01*
X125404523Y-94400642D01*
X125356904Y-94305404D01*
X125309285Y-94114928D01*
X125309285Y-93876833D01*
X125356904Y-93686357D01*
X125404523Y-93591119D01*
X125452142Y-93543500D01*
X125547380Y-93495880D01*
X126452142Y-93924452D02*
X126356904Y-93876833D01*
X126309285Y-93829214D01*
X126261666Y-93733976D01*
X126261666Y-93686357D01*
X126309285Y-93591119D01*
X126356904Y-93543500D01*
X126452142Y-93495880D01*
X126642619Y-93495880D01*
X126737857Y-93543500D01*
X126785476Y-93591119D01*
X126833095Y-93686357D01*
X126833095Y-93733976D01*
X126785476Y-93829214D01*
X126737857Y-93876833D01*
X126642619Y-93924452D01*
X126452142Y-93924452D01*
X126356904Y-93972071D01*
X126309285Y-94019690D01*
X126261666Y-94114928D01*
X126261666Y-94305404D01*
X126309285Y-94400642D01*
X126356904Y-94448261D01*
X126452142Y-94495880D01*
X126642619Y-94495880D01*
X126737857Y-94448261D01*
X126785476Y-94400642D01*
X126833095Y-94305404D01*
X126833095Y-94114928D01*
X126785476Y-94019690D01*
X126737857Y-93972071D01*
X126642619Y-93924452D01*
M02*
