G04 #@! TF.GenerationSoftware,KiCad,Pcbnew,5.1.2*
G04 #@! TF.CreationDate,2019-07-22T21:22:39-05:00*
G04 #@! TF.ProjectId,Raptor2000,52617074-6f72-4323-9030-302e6b696361,A*
G04 #@! TF.SameCoordinates,Original*
G04 #@! TF.FileFunction,Paste,Bot*
G04 #@! TF.FilePolarity,Positive*
%FSLAX46Y46*%
G04 Gerber Fmt 4.6, Leading zero omitted, Abs format (unit mm)*
G04 Created by KiCad (PCBNEW 5.1.2) date 2019-07-22 21:22:39*
%MOMM*%
%LPD*%
G04 APERTURE LIST*
%ADD10C,0.100000*%
%ADD11C,0.875000*%
G04 APERTURE END LIST*
D10*
G36*
X129094191Y-68169553D02*
G01*
X129115426Y-68172703D01*
X129136250Y-68177919D01*
X129156462Y-68185151D01*
X129175868Y-68194330D01*
X129194281Y-68205366D01*
X129211524Y-68218154D01*
X129227430Y-68232570D01*
X129241846Y-68248476D01*
X129254634Y-68265719D01*
X129265670Y-68284132D01*
X129274849Y-68303538D01*
X129282081Y-68323750D01*
X129287297Y-68344574D01*
X129290447Y-68365809D01*
X129291500Y-68387250D01*
X129291500Y-68899750D01*
X129290447Y-68921191D01*
X129287297Y-68942426D01*
X129282081Y-68963250D01*
X129274849Y-68983462D01*
X129265670Y-69002868D01*
X129254634Y-69021281D01*
X129241846Y-69038524D01*
X129227430Y-69054430D01*
X129211524Y-69068846D01*
X129194281Y-69081634D01*
X129175868Y-69092670D01*
X129156462Y-69101849D01*
X129136250Y-69109081D01*
X129115426Y-69114297D01*
X129094191Y-69117447D01*
X129072750Y-69118500D01*
X128635250Y-69118500D01*
X128613809Y-69117447D01*
X128592574Y-69114297D01*
X128571750Y-69109081D01*
X128551538Y-69101849D01*
X128532132Y-69092670D01*
X128513719Y-69081634D01*
X128496476Y-69068846D01*
X128480570Y-69054430D01*
X128466154Y-69038524D01*
X128453366Y-69021281D01*
X128442330Y-69002868D01*
X128433151Y-68983462D01*
X128425919Y-68963250D01*
X128420703Y-68942426D01*
X128417553Y-68921191D01*
X128416500Y-68899750D01*
X128416500Y-68387250D01*
X128417553Y-68365809D01*
X128420703Y-68344574D01*
X128425919Y-68323750D01*
X128433151Y-68303538D01*
X128442330Y-68284132D01*
X128453366Y-68265719D01*
X128466154Y-68248476D01*
X128480570Y-68232570D01*
X128496476Y-68218154D01*
X128513719Y-68205366D01*
X128532132Y-68194330D01*
X128551538Y-68185151D01*
X128571750Y-68177919D01*
X128592574Y-68172703D01*
X128613809Y-68169553D01*
X128635250Y-68168500D01*
X129072750Y-68168500D01*
X129094191Y-68169553D01*
X129094191Y-68169553D01*
G37*
D11*
X128854000Y-68643500D03*
D10*
G36*
X130669191Y-68169553D02*
G01*
X130690426Y-68172703D01*
X130711250Y-68177919D01*
X130731462Y-68185151D01*
X130750868Y-68194330D01*
X130769281Y-68205366D01*
X130786524Y-68218154D01*
X130802430Y-68232570D01*
X130816846Y-68248476D01*
X130829634Y-68265719D01*
X130840670Y-68284132D01*
X130849849Y-68303538D01*
X130857081Y-68323750D01*
X130862297Y-68344574D01*
X130865447Y-68365809D01*
X130866500Y-68387250D01*
X130866500Y-68899750D01*
X130865447Y-68921191D01*
X130862297Y-68942426D01*
X130857081Y-68963250D01*
X130849849Y-68983462D01*
X130840670Y-69002868D01*
X130829634Y-69021281D01*
X130816846Y-69038524D01*
X130802430Y-69054430D01*
X130786524Y-69068846D01*
X130769281Y-69081634D01*
X130750868Y-69092670D01*
X130731462Y-69101849D01*
X130711250Y-69109081D01*
X130690426Y-69114297D01*
X130669191Y-69117447D01*
X130647750Y-69118500D01*
X130210250Y-69118500D01*
X130188809Y-69117447D01*
X130167574Y-69114297D01*
X130146750Y-69109081D01*
X130126538Y-69101849D01*
X130107132Y-69092670D01*
X130088719Y-69081634D01*
X130071476Y-69068846D01*
X130055570Y-69054430D01*
X130041154Y-69038524D01*
X130028366Y-69021281D01*
X130017330Y-69002868D01*
X130008151Y-68983462D01*
X130000919Y-68963250D01*
X129995703Y-68942426D01*
X129992553Y-68921191D01*
X129991500Y-68899750D01*
X129991500Y-68387250D01*
X129992553Y-68365809D01*
X129995703Y-68344574D01*
X130000919Y-68323750D01*
X130008151Y-68303538D01*
X130017330Y-68284132D01*
X130028366Y-68265719D01*
X130041154Y-68248476D01*
X130055570Y-68232570D01*
X130071476Y-68218154D01*
X130088719Y-68205366D01*
X130107132Y-68194330D01*
X130126538Y-68185151D01*
X130146750Y-68177919D01*
X130167574Y-68172703D01*
X130188809Y-68169553D01*
X130210250Y-68168500D01*
X130647750Y-68168500D01*
X130669191Y-68169553D01*
X130669191Y-68169553D01*
G37*
D11*
X130429000Y-68643500D03*
D10*
G36*
X154570691Y-100427553D02*
G01*
X154591926Y-100430703D01*
X154612750Y-100435919D01*
X154632962Y-100443151D01*
X154652368Y-100452330D01*
X154670781Y-100463366D01*
X154688024Y-100476154D01*
X154703930Y-100490570D01*
X154718346Y-100506476D01*
X154731134Y-100523719D01*
X154742170Y-100542132D01*
X154751349Y-100561538D01*
X154758581Y-100581750D01*
X154763797Y-100602574D01*
X154766947Y-100623809D01*
X154768000Y-100645250D01*
X154768000Y-101157750D01*
X154766947Y-101179191D01*
X154763797Y-101200426D01*
X154758581Y-101221250D01*
X154751349Y-101241462D01*
X154742170Y-101260868D01*
X154731134Y-101279281D01*
X154718346Y-101296524D01*
X154703930Y-101312430D01*
X154688024Y-101326846D01*
X154670781Y-101339634D01*
X154652368Y-101350670D01*
X154632962Y-101359849D01*
X154612750Y-101367081D01*
X154591926Y-101372297D01*
X154570691Y-101375447D01*
X154549250Y-101376500D01*
X154111750Y-101376500D01*
X154090309Y-101375447D01*
X154069074Y-101372297D01*
X154048250Y-101367081D01*
X154028038Y-101359849D01*
X154008632Y-101350670D01*
X153990219Y-101339634D01*
X153972976Y-101326846D01*
X153957070Y-101312430D01*
X153942654Y-101296524D01*
X153929866Y-101279281D01*
X153918830Y-101260868D01*
X153909651Y-101241462D01*
X153902419Y-101221250D01*
X153897203Y-101200426D01*
X153894053Y-101179191D01*
X153893000Y-101157750D01*
X153893000Y-100645250D01*
X153894053Y-100623809D01*
X153897203Y-100602574D01*
X153902419Y-100581750D01*
X153909651Y-100561538D01*
X153918830Y-100542132D01*
X153929866Y-100523719D01*
X153942654Y-100506476D01*
X153957070Y-100490570D01*
X153972976Y-100476154D01*
X153990219Y-100463366D01*
X154008632Y-100452330D01*
X154028038Y-100443151D01*
X154048250Y-100435919D01*
X154069074Y-100430703D01*
X154090309Y-100427553D01*
X154111750Y-100426500D01*
X154549250Y-100426500D01*
X154570691Y-100427553D01*
X154570691Y-100427553D01*
G37*
D11*
X154330500Y-100901500D03*
D10*
G36*
X152995691Y-100427553D02*
G01*
X153016926Y-100430703D01*
X153037750Y-100435919D01*
X153057962Y-100443151D01*
X153077368Y-100452330D01*
X153095781Y-100463366D01*
X153113024Y-100476154D01*
X153128930Y-100490570D01*
X153143346Y-100506476D01*
X153156134Y-100523719D01*
X153167170Y-100542132D01*
X153176349Y-100561538D01*
X153183581Y-100581750D01*
X153188797Y-100602574D01*
X153191947Y-100623809D01*
X153193000Y-100645250D01*
X153193000Y-101157750D01*
X153191947Y-101179191D01*
X153188797Y-101200426D01*
X153183581Y-101221250D01*
X153176349Y-101241462D01*
X153167170Y-101260868D01*
X153156134Y-101279281D01*
X153143346Y-101296524D01*
X153128930Y-101312430D01*
X153113024Y-101326846D01*
X153095781Y-101339634D01*
X153077368Y-101350670D01*
X153057962Y-101359849D01*
X153037750Y-101367081D01*
X153016926Y-101372297D01*
X152995691Y-101375447D01*
X152974250Y-101376500D01*
X152536750Y-101376500D01*
X152515309Y-101375447D01*
X152494074Y-101372297D01*
X152473250Y-101367081D01*
X152453038Y-101359849D01*
X152433632Y-101350670D01*
X152415219Y-101339634D01*
X152397976Y-101326846D01*
X152382070Y-101312430D01*
X152367654Y-101296524D01*
X152354866Y-101279281D01*
X152343830Y-101260868D01*
X152334651Y-101241462D01*
X152327419Y-101221250D01*
X152322203Y-101200426D01*
X152319053Y-101179191D01*
X152318000Y-101157750D01*
X152318000Y-100645250D01*
X152319053Y-100623809D01*
X152322203Y-100602574D01*
X152327419Y-100581750D01*
X152334651Y-100561538D01*
X152343830Y-100542132D01*
X152354866Y-100523719D01*
X152367654Y-100506476D01*
X152382070Y-100490570D01*
X152397976Y-100476154D01*
X152415219Y-100463366D01*
X152433632Y-100452330D01*
X152453038Y-100443151D01*
X152473250Y-100435919D01*
X152494074Y-100430703D01*
X152515309Y-100427553D01*
X152536750Y-100426500D01*
X152974250Y-100426500D01*
X152995691Y-100427553D01*
X152995691Y-100427553D01*
G37*
D11*
X152755500Y-100901500D03*
D10*
G36*
X132447191Y-68169553D02*
G01*
X132468426Y-68172703D01*
X132489250Y-68177919D01*
X132509462Y-68185151D01*
X132528868Y-68194330D01*
X132547281Y-68205366D01*
X132564524Y-68218154D01*
X132580430Y-68232570D01*
X132594846Y-68248476D01*
X132607634Y-68265719D01*
X132618670Y-68284132D01*
X132627849Y-68303538D01*
X132635081Y-68323750D01*
X132640297Y-68344574D01*
X132643447Y-68365809D01*
X132644500Y-68387250D01*
X132644500Y-68899750D01*
X132643447Y-68921191D01*
X132640297Y-68942426D01*
X132635081Y-68963250D01*
X132627849Y-68983462D01*
X132618670Y-69002868D01*
X132607634Y-69021281D01*
X132594846Y-69038524D01*
X132580430Y-69054430D01*
X132564524Y-69068846D01*
X132547281Y-69081634D01*
X132528868Y-69092670D01*
X132509462Y-69101849D01*
X132489250Y-69109081D01*
X132468426Y-69114297D01*
X132447191Y-69117447D01*
X132425750Y-69118500D01*
X131988250Y-69118500D01*
X131966809Y-69117447D01*
X131945574Y-69114297D01*
X131924750Y-69109081D01*
X131904538Y-69101849D01*
X131885132Y-69092670D01*
X131866719Y-69081634D01*
X131849476Y-69068846D01*
X131833570Y-69054430D01*
X131819154Y-69038524D01*
X131806366Y-69021281D01*
X131795330Y-69002868D01*
X131786151Y-68983462D01*
X131778919Y-68963250D01*
X131773703Y-68942426D01*
X131770553Y-68921191D01*
X131769500Y-68899750D01*
X131769500Y-68387250D01*
X131770553Y-68365809D01*
X131773703Y-68344574D01*
X131778919Y-68323750D01*
X131786151Y-68303538D01*
X131795330Y-68284132D01*
X131806366Y-68265719D01*
X131819154Y-68248476D01*
X131833570Y-68232570D01*
X131849476Y-68218154D01*
X131866719Y-68205366D01*
X131885132Y-68194330D01*
X131904538Y-68185151D01*
X131924750Y-68177919D01*
X131945574Y-68172703D01*
X131966809Y-68169553D01*
X131988250Y-68168500D01*
X132425750Y-68168500D01*
X132447191Y-68169553D01*
X132447191Y-68169553D01*
G37*
D11*
X132207000Y-68643500D03*
D10*
G36*
X134022191Y-68169553D02*
G01*
X134043426Y-68172703D01*
X134064250Y-68177919D01*
X134084462Y-68185151D01*
X134103868Y-68194330D01*
X134122281Y-68205366D01*
X134139524Y-68218154D01*
X134155430Y-68232570D01*
X134169846Y-68248476D01*
X134182634Y-68265719D01*
X134193670Y-68284132D01*
X134202849Y-68303538D01*
X134210081Y-68323750D01*
X134215297Y-68344574D01*
X134218447Y-68365809D01*
X134219500Y-68387250D01*
X134219500Y-68899750D01*
X134218447Y-68921191D01*
X134215297Y-68942426D01*
X134210081Y-68963250D01*
X134202849Y-68983462D01*
X134193670Y-69002868D01*
X134182634Y-69021281D01*
X134169846Y-69038524D01*
X134155430Y-69054430D01*
X134139524Y-69068846D01*
X134122281Y-69081634D01*
X134103868Y-69092670D01*
X134084462Y-69101849D01*
X134064250Y-69109081D01*
X134043426Y-69114297D01*
X134022191Y-69117447D01*
X134000750Y-69118500D01*
X133563250Y-69118500D01*
X133541809Y-69117447D01*
X133520574Y-69114297D01*
X133499750Y-69109081D01*
X133479538Y-69101849D01*
X133460132Y-69092670D01*
X133441719Y-69081634D01*
X133424476Y-69068846D01*
X133408570Y-69054430D01*
X133394154Y-69038524D01*
X133381366Y-69021281D01*
X133370330Y-69002868D01*
X133361151Y-68983462D01*
X133353919Y-68963250D01*
X133348703Y-68942426D01*
X133345553Y-68921191D01*
X133344500Y-68899750D01*
X133344500Y-68387250D01*
X133345553Y-68365809D01*
X133348703Y-68344574D01*
X133353919Y-68323750D01*
X133361151Y-68303538D01*
X133370330Y-68284132D01*
X133381366Y-68265719D01*
X133394154Y-68248476D01*
X133408570Y-68232570D01*
X133424476Y-68218154D01*
X133441719Y-68205366D01*
X133460132Y-68194330D01*
X133479538Y-68185151D01*
X133499750Y-68177919D01*
X133520574Y-68172703D01*
X133541809Y-68169553D01*
X133563250Y-68168500D01*
X134000750Y-68168500D01*
X134022191Y-68169553D01*
X134022191Y-68169553D01*
G37*
D11*
X133782000Y-68643500D03*
D10*
G36*
X127341691Y-75027553D02*
G01*
X127362926Y-75030703D01*
X127383750Y-75035919D01*
X127403962Y-75043151D01*
X127423368Y-75052330D01*
X127441781Y-75063366D01*
X127459024Y-75076154D01*
X127474930Y-75090570D01*
X127489346Y-75106476D01*
X127502134Y-75123719D01*
X127513170Y-75142132D01*
X127522349Y-75161538D01*
X127529581Y-75181750D01*
X127534797Y-75202574D01*
X127537947Y-75223809D01*
X127539000Y-75245250D01*
X127539000Y-75757750D01*
X127537947Y-75779191D01*
X127534797Y-75800426D01*
X127529581Y-75821250D01*
X127522349Y-75841462D01*
X127513170Y-75860868D01*
X127502134Y-75879281D01*
X127489346Y-75896524D01*
X127474930Y-75912430D01*
X127459024Y-75926846D01*
X127441781Y-75939634D01*
X127423368Y-75950670D01*
X127403962Y-75959849D01*
X127383750Y-75967081D01*
X127362926Y-75972297D01*
X127341691Y-75975447D01*
X127320250Y-75976500D01*
X126882750Y-75976500D01*
X126861309Y-75975447D01*
X126840074Y-75972297D01*
X126819250Y-75967081D01*
X126799038Y-75959849D01*
X126779632Y-75950670D01*
X126761219Y-75939634D01*
X126743976Y-75926846D01*
X126728070Y-75912430D01*
X126713654Y-75896524D01*
X126700866Y-75879281D01*
X126689830Y-75860868D01*
X126680651Y-75841462D01*
X126673419Y-75821250D01*
X126668203Y-75800426D01*
X126665053Y-75779191D01*
X126664000Y-75757750D01*
X126664000Y-75245250D01*
X126665053Y-75223809D01*
X126668203Y-75202574D01*
X126673419Y-75181750D01*
X126680651Y-75161538D01*
X126689830Y-75142132D01*
X126700866Y-75123719D01*
X126713654Y-75106476D01*
X126728070Y-75090570D01*
X126743976Y-75076154D01*
X126761219Y-75063366D01*
X126779632Y-75052330D01*
X126799038Y-75043151D01*
X126819250Y-75035919D01*
X126840074Y-75030703D01*
X126861309Y-75027553D01*
X126882750Y-75026500D01*
X127320250Y-75026500D01*
X127341691Y-75027553D01*
X127341691Y-75027553D01*
G37*
D11*
X127101500Y-75501500D03*
D10*
G36*
X128916691Y-75027553D02*
G01*
X128937926Y-75030703D01*
X128958750Y-75035919D01*
X128978962Y-75043151D01*
X128998368Y-75052330D01*
X129016781Y-75063366D01*
X129034024Y-75076154D01*
X129049930Y-75090570D01*
X129064346Y-75106476D01*
X129077134Y-75123719D01*
X129088170Y-75142132D01*
X129097349Y-75161538D01*
X129104581Y-75181750D01*
X129109797Y-75202574D01*
X129112947Y-75223809D01*
X129114000Y-75245250D01*
X129114000Y-75757750D01*
X129112947Y-75779191D01*
X129109797Y-75800426D01*
X129104581Y-75821250D01*
X129097349Y-75841462D01*
X129088170Y-75860868D01*
X129077134Y-75879281D01*
X129064346Y-75896524D01*
X129049930Y-75912430D01*
X129034024Y-75926846D01*
X129016781Y-75939634D01*
X128998368Y-75950670D01*
X128978962Y-75959849D01*
X128958750Y-75967081D01*
X128937926Y-75972297D01*
X128916691Y-75975447D01*
X128895250Y-75976500D01*
X128457750Y-75976500D01*
X128436309Y-75975447D01*
X128415074Y-75972297D01*
X128394250Y-75967081D01*
X128374038Y-75959849D01*
X128354632Y-75950670D01*
X128336219Y-75939634D01*
X128318976Y-75926846D01*
X128303070Y-75912430D01*
X128288654Y-75896524D01*
X128275866Y-75879281D01*
X128264830Y-75860868D01*
X128255651Y-75841462D01*
X128248419Y-75821250D01*
X128243203Y-75800426D01*
X128240053Y-75779191D01*
X128239000Y-75757750D01*
X128239000Y-75245250D01*
X128240053Y-75223809D01*
X128243203Y-75202574D01*
X128248419Y-75181750D01*
X128255651Y-75161538D01*
X128264830Y-75142132D01*
X128275866Y-75123719D01*
X128288654Y-75106476D01*
X128303070Y-75090570D01*
X128318976Y-75076154D01*
X128336219Y-75063366D01*
X128354632Y-75052330D01*
X128374038Y-75043151D01*
X128394250Y-75035919D01*
X128415074Y-75030703D01*
X128436309Y-75027553D01*
X128457750Y-75026500D01*
X128895250Y-75026500D01*
X128916691Y-75027553D01*
X128916691Y-75027553D01*
G37*
D11*
X128676500Y-75501500D03*
D10*
G36*
X140485691Y-88933553D02*
G01*
X140506926Y-88936703D01*
X140527750Y-88941919D01*
X140547962Y-88949151D01*
X140567368Y-88958330D01*
X140585781Y-88969366D01*
X140603024Y-88982154D01*
X140618930Y-88996570D01*
X140633346Y-89012476D01*
X140646134Y-89029719D01*
X140657170Y-89048132D01*
X140666349Y-89067538D01*
X140673581Y-89087750D01*
X140678797Y-89108574D01*
X140681947Y-89129809D01*
X140683000Y-89151250D01*
X140683000Y-89588750D01*
X140681947Y-89610191D01*
X140678797Y-89631426D01*
X140673581Y-89652250D01*
X140666349Y-89672462D01*
X140657170Y-89691868D01*
X140646134Y-89710281D01*
X140633346Y-89727524D01*
X140618930Y-89743430D01*
X140603024Y-89757846D01*
X140585781Y-89770634D01*
X140567368Y-89781670D01*
X140547962Y-89790849D01*
X140527750Y-89798081D01*
X140506926Y-89803297D01*
X140485691Y-89806447D01*
X140464250Y-89807500D01*
X139951750Y-89807500D01*
X139930309Y-89806447D01*
X139909074Y-89803297D01*
X139888250Y-89798081D01*
X139868038Y-89790849D01*
X139848632Y-89781670D01*
X139830219Y-89770634D01*
X139812976Y-89757846D01*
X139797070Y-89743430D01*
X139782654Y-89727524D01*
X139769866Y-89710281D01*
X139758830Y-89691868D01*
X139749651Y-89672462D01*
X139742419Y-89652250D01*
X139737203Y-89631426D01*
X139734053Y-89610191D01*
X139733000Y-89588750D01*
X139733000Y-89151250D01*
X139734053Y-89129809D01*
X139737203Y-89108574D01*
X139742419Y-89087750D01*
X139749651Y-89067538D01*
X139758830Y-89048132D01*
X139769866Y-89029719D01*
X139782654Y-89012476D01*
X139797070Y-88996570D01*
X139812976Y-88982154D01*
X139830219Y-88969366D01*
X139848632Y-88958330D01*
X139868038Y-88949151D01*
X139888250Y-88941919D01*
X139909074Y-88936703D01*
X139930309Y-88933553D01*
X139951750Y-88932500D01*
X140464250Y-88932500D01*
X140485691Y-88933553D01*
X140485691Y-88933553D01*
G37*
D11*
X140208000Y-89370000D03*
D10*
G36*
X140485691Y-87358553D02*
G01*
X140506926Y-87361703D01*
X140527750Y-87366919D01*
X140547962Y-87374151D01*
X140567368Y-87383330D01*
X140585781Y-87394366D01*
X140603024Y-87407154D01*
X140618930Y-87421570D01*
X140633346Y-87437476D01*
X140646134Y-87454719D01*
X140657170Y-87473132D01*
X140666349Y-87492538D01*
X140673581Y-87512750D01*
X140678797Y-87533574D01*
X140681947Y-87554809D01*
X140683000Y-87576250D01*
X140683000Y-88013750D01*
X140681947Y-88035191D01*
X140678797Y-88056426D01*
X140673581Y-88077250D01*
X140666349Y-88097462D01*
X140657170Y-88116868D01*
X140646134Y-88135281D01*
X140633346Y-88152524D01*
X140618930Y-88168430D01*
X140603024Y-88182846D01*
X140585781Y-88195634D01*
X140567368Y-88206670D01*
X140547962Y-88215849D01*
X140527750Y-88223081D01*
X140506926Y-88228297D01*
X140485691Y-88231447D01*
X140464250Y-88232500D01*
X139951750Y-88232500D01*
X139930309Y-88231447D01*
X139909074Y-88228297D01*
X139888250Y-88223081D01*
X139868038Y-88215849D01*
X139848632Y-88206670D01*
X139830219Y-88195634D01*
X139812976Y-88182846D01*
X139797070Y-88168430D01*
X139782654Y-88152524D01*
X139769866Y-88135281D01*
X139758830Y-88116868D01*
X139749651Y-88097462D01*
X139742419Y-88077250D01*
X139737203Y-88056426D01*
X139734053Y-88035191D01*
X139733000Y-88013750D01*
X139733000Y-87576250D01*
X139734053Y-87554809D01*
X139737203Y-87533574D01*
X139742419Y-87512750D01*
X139749651Y-87492538D01*
X139758830Y-87473132D01*
X139769866Y-87454719D01*
X139782654Y-87437476D01*
X139797070Y-87421570D01*
X139812976Y-87407154D01*
X139830219Y-87394366D01*
X139848632Y-87383330D01*
X139868038Y-87374151D01*
X139888250Y-87366919D01*
X139909074Y-87361703D01*
X139930309Y-87358553D01*
X139951750Y-87357500D01*
X140464250Y-87357500D01*
X140485691Y-87358553D01*
X140485691Y-87358553D01*
G37*
D11*
X140208000Y-87795000D03*
D10*
G36*
X140485691Y-90508053D02*
G01*
X140506926Y-90511203D01*
X140527750Y-90516419D01*
X140547962Y-90523651D01*
X140567368Y-90532830D01*
X140585781Y-90543866D01*
X140603024Y-90556654D01*
X140618930Y-90571070D01*
X140633346Y-90586976D01*
X140646134Y-90604219D01*
X140657170Y-90622632D01*
X140666349Y-90642038D01*
X140673581Y-90662250D01*
X140678797Y-90683074D01*
X140681947Y-90704309D01*
X140683000Y-90725750D01*
X140683000Y-91163250D01*
X140681947Y-91184691D01*
X140678797Y-91205926D01*
X140673581Y-91226750D01*
X140666349Y-91246962D01*
X140657170Y-91266368D01*
X140646134Y-91284781D01*
X140633346Y-91302024D01*
X140618930Y-91317930D01*
X140603024Y-91332346D01*
X140585781Y-91345134D01*
X140567368Y-91356170D01*
X140547962Y-91365349D01*
X140527750Y-91372581D01*
X140506926Y-91377797D01*
X140485691Y-91380947D01*
X140464250Y-91382000D01*
X139951750Y-91382000D01*
X139930309Y-91380947D01*
X139909074Y-91377797D01*
X139888250Y-91372581D01*
X139868038Y-91365349D01*
X139848632Y-91356170D01*
X139830219Y-91345134D01*
X139812976Y-91332346D01*
X139797070Y-91317930D01*
X139782654Y-91302024D01*
X139769866Y-91284781D01*
X139758830Y-91266368D01*
X139749651Y-91246962D01*
X139742419Y-91226750D01*
X139737203Y-91205926D01*
X139734053Y-91184691D01*
X139733000Y-91163250D01*
X139733000Y-90725750D01*
X139734053Y-90704309D01*
X139737203Y-90683074D01*
X139742419Y-90662250D01*
X139749651Y-90642038D01*
X139758830Y-90622632D01*
X139769866Y-90604219D01*
X139782654Y-90586976D01*
X139797070Y-90571070D01*
X139812976Y-90556654D01*
X139830219Y-90543866D01*
X139848632Y-90532830D01*
X139868038Y-90523651D01*
X139888250Y-90516419D01*
X139909074Y-90511203D01*
X139930309Y-90508053D01*
X139951750Y-90507000D01*
X140464250Y-90507000D01*
X140485691Y-90508053D01*
X140485691Y-90508053D01*
G37*
D11*
X140208000Y-90944500D03*
D10*
G36*
X140485691Y-92083053D02*
G01*
X140506926Y-92086203D01*
X140527750Y-92091419D01*
X140547962Y-92098651D01*
X140567368Y-92107830D01*
X140585781Y-92118866D01*
X140603024Y-92131654D01*
X140618930Y-92146070D01*
X140633346Y-92161976D01*
X140646134Y-92179219D01*
X140657170Y-92197632D01*
X140666349Y-92217038D01*
X140673581Y-92237250D01*
X140678797Y-92258074D01*
X140681947Y-92279309D01*
X140683000Y-92300750D01*
X140683000Y-92738250D01*
X140681947Y-92759691D01*
X140678797Y-92780926D01*
X140673581Y-92801750D01*
X140666349Y-92821962D01*
X140657170Y-92841368D01*
X140646134Y-92859781D01*
X140633346Y-92877024D01*
X140618930Y-92892930D01*
X140603024Y-92907346D01*
X140585781Y-92920134D01*
X140567368Y-92931170D01*
X140547962Y-92940349D01*
X140527750Y-92947581D01*
X140506926Y-92952797D01*
X140485691Y-92955947D01*
X140464250Y-92957000D01*
X139951750Y-92957000D01*
X139930309Y-92955947D01*
X139909074Y-92952797D01*
X139888250Y-92947581D01*
X139868038Y-92940349D01*
X139848632Y-92931170D01*
X139830219Y-92920134D01*
X139812976Y-92907346D01*
X139797070Y-92892930D01*
X139782654Y-92877024D01*
X139769866Y-92859781D01*
X139758830Y-92841368D01*
X139749651Y-92821962D01*
X139742419Y-92801750D01*
X139737203Y-92780926D01*
X139734053Y-92759691D01*
X139733000Y-92738250D01*
X139733000Y-92300750D01*
X139734053Y-92279309D01*
X139737203Y-92258074D01*
X139742419Y-92237250D01*
X139749651Y-92217038D01*
X139758830Y-92197632D01*
X139769866Y-92179219D01*
X139782654Y-92161976D01*
X139797070Y-92146070D01*
X139812976Y-92131654D01*
X139830219Y-92118866D01*
X139848632Y-92107830D01*
X139868038Y-92098651D01*
X139888250Y-92091419D01*
X139909074Y-92086203D01*
X139930309Y-92083053D01*
X139951750Y-92082000D01*
X140464250Y-92082000D01*
X140485691Y-92083053D01*
X140485691Y-92083053D01*
G37*
D11*
X140208000Y-92519500D03*
D10*
G36*
X160412691Y-91702554D02*
G01*
X160433926Y-91705704D01*
X160454750Y-91710920D01*
X160474962Y-91718152D01*
X160494368Y-91727331D01*
X160512781Y-91738367D01*
X160530024Y-91751155D01*
X160545930Y-91765571D01*
X160560346Y-91781477D01*
X160573134Y-91798720D01*
X160584170Y-91817133D01*
X160593349Y-91836539D01*
X160600581Y-91856751D01*
X160605797Y-91877575D01*
X160608947Y-91898810D01*
X160610000Y-91920251D01*
X160610000Y-92432751D01*
X160608947Y-92454192D01*
X160605797Y-92475427D01*
X160600581Y-92496251D01*
X160593349Y-92516463D01*
X160584170Y-92535869D01*
X160573134Y-92554282D01*
X160560346Y-92571525D01*
X160545930Y-92587431D01*
X160530024Y-92601847D01*
X160512781Y-92614635D01*
X160494368Y-92625671D01*
X160474962Y-92634850D01*
X160454750Y-92642082D01*
X160433926Y-92647298D01*
X160412691Y-92650448D01*
X160391250Y-92651501D01*
X159953750Y-92651501D01*
X159932309Y-92650448D01*
X159911074Y-92647298D01*
X159890250Y-92642082D01*
X159870038Y-92634850D01*
X159850632Y-92625671D01*
X159832219Y-92614635D01*
X159814976Y-92601847D01*
X159799070Y-92587431D01*
X159784654Y-92571525D01*
X159771866Y-92554282D01*
X159760830Y-92535869D01*
X159751651Y-92516463D01*
X159744419Y-92496251D01*
X159739203Y-92475427D01*
X159736053Y-92454192D01*
X159735000Y-92432751D01*
X159735000Y-91920251D01*
X159736053Y-91898810D01*
X159739203Y-91877575D01*
X159744419Y-91856751D01*
X159751651Y-91836539D01*
X159760830Y-91817133D01*
X159771866Y-91798720D01*
X159784654Y-91781477D01*
X159799070Y-91765571D01*
X159814976Y-91751155D01*
X159832219Y-91738367D01*
X159850632Y-91727331D01*
X159870038Y-91718152D01*
X159890250Y-91710920D01*
X159911074Y-91705704D01*
X159932309Y-91702554D01*
X159953750Y-91701501D01*
X160391250Y-91701501D01*
X160412691Y-91702554D01*
X160412691Y-91702554D01*
G37*
D11*
X160172500Y-92176501D03*
D10*
G36*
X158837691Y-91702554D02*
G01*
X158858926Y-91705704D01*
X158879750Y-91710920D01*
X158899962Y-91718152D01*
X158919368Y-91727331D01*
X158937781Y-91738367D01*
X158955024Y-91751155D01*
X158970930Y-91765571D01*
X158985346Y-91781477D01*
X158998134Y-91798720D01*
X159009170Y-91817133D01*
X159018349Y-91836539D01*
X159025581Y-91856751D01*
X159030797Y-91877575D01*
X159033947Y-91898810D01*
X159035000Y-91920251D01*
X159035000Y-92432751D01*
X159033947Y-92454192D01*
X159030797Y-92475427D01*
X159025581Y-92496251D01*
X159018349Y-92516463D01*
X159009170Y-92535869D01*
X158998134Y-92554282D01*
X158985346Y-92571525D01*
X158970930Y-92587431D01*
X158955024Y-92601847D01*
X158937781Y-92614635D01*
X158919368Y-92625671D01*
X158899962Y-92634850D01*
X158879750Y-92642082D01*
X158858926Y-92647298D01*
X158837691Y-92650448D01*
X158816250Y-92651501D01*
X158378750Y-92651501D01*
X158357309Y-92650448D01*
X158336074Y-92647298D01*
X158315250Y-92642082D01*
X158295038Y-92634850D01*
X158275632Y-92625671D01*
X158257219Y-92614635D01*
X158239976Y-92601847D01*
X158224070Y-92587431D01*
X158209654Y-92571525D01*
X158196866Y-92554282D01*
X158185830Y-92535869D01*
X158176651Y-92516463D01*
X158169419Y-92496251D01*
X158164203Y-92475427D01*
X158161053Y-92454192D01*
X158160000Y-92432751D01*
X158160000Y-91920251D01*
X158161053Y-91898810D01*
X158164203Y-91877575D01*
X158169419Y-91856751D01*
X158176651Y-91836539D01*
X158185830Y-91817133D01*
X158196866Y-91798720D01*
X158209654Y-91781477D01*
X158224070Y-91765571D01*
X158239976Y-91751155D01*
X158257219Y-91738367D01*
X158275632Y-91727331D01*
X158295038Y-91718152D01*
X158315250Y-91710920D01*
X158336074Y-91705704D01*
X158357309Y-91702554D01*
X158378750Y-91701501D01*
X158816250Y-91701501D01*
X158837691Y-91702554D01*
X158837691Y-91702554D01*
G37*
D11*
X158597500Y-92176501D03*
D10*
G36*
X155979691Y-92972053D02*
G01*
X156000926Y-92975203D01*
X156021750Y-92980419D01*
X156041962Y-92987651D01*
X156061368Y-92996830D01*
X156079781Y-93007866D01*
X156097024Y-93020654D01*
X156112930Y-93035070D01*
X156127346Y-93050976D01*
X156140134Y-93068219D01*
X156151170Y-93086632D01*
X156160349Y-93106038D01*
X156167581Y-93126250D01*
X156172797Y-93147074D01*
X156175947Y-93168309D01*
X156177000Y-93189750D01*
X156177000Y-93627250D01*
X156175947Y-93648691D01*
X156172797Y-93669926D01*
X156167581Y-93690750D01*
X156160349Y-93710962D01*
X156151170Y-93730368D01*
X156140134Y-93748781D01*
X156127346Y-93766024D01*
X156112930Y-93781930D01*
X156097024Y-93796346D01*
X156079781Y-93809134D01*
X156061368Y-93820170D01*
X156041962Y-93829349D01*
X156021750Y-93836581D01*
X156000926Y-93841797D01*
X155979691Y-93844947D01*
X155958250Y-93846000D01*
X155445750Y-93846000D01*
X155424309Y-93844947D01*
X155403074Y-93841797D01*
X155382250Y-93836581D01*
X155362038Y-93829349D01*
X155342632Y-93820170D01*
X155324219Y-93809134D01*
X155306976Y-93796346D01*
X155291070Y-93781930D01*
X155276654Y-93766024D01*
X155263866Y-93748781D01*
X155252830Y-93730368D01*
X155243651Y-93710962D01*
X155236419Y-93690750D01*
X155231203Y-93669926D01*
X155228053Y-93648691D01*
X155227000Y-93627250D01*
X155227000Y-93189750D01*
X155228053Y-93168309D01*
X155231203Y-93147074D01*
X155236419Y-93126250D01*
X155243651Y-93106038D01*
X155252830Y-93086632D01*
X155263866Y-93068219D01*
X155276654Y-93050976D01*
X155291070Y-93035070D01*
X155306976Y-93020654D01*
X155324219Y-93007866D01*
X155342632Y-92996830D01*
X155362038Y-92987651D01*
X155382250Y-92980419D01*
X155403074Y-92975203D01*
X155424309Y-92972053D01*
X155445750Y-92971000D01*
X155958250Y-92971000D01*
X155979691Y-92972053D01*
X155979691Y-92972053D01*
G37*
D11*
X155702000Y-93408500D03*
D10*
G36*
X155979691Y-94547053D02*
G01*
X156000926Y-94550203D01*
X156021750Y-94555419D01*
X156041962Y-94562651D01*
X156061368Y-94571830D01*
X156079781Y-94582866D01*
X156097024Y-94595654D01*
X156112930Y-94610070D01*
X156127346Y-94625976D01*
X156140134Y-94643219D01*
X156151170Y-94661632D01*
X156160349Y-94681038D01*
X156167581Y-94701250D01*
X156172797Y-94722074D01*
X156175947Y-94743309D01*
X156177000Y-94764750D01*
X156177000Y-95202250D01*
X156175947Y-95223691D01*
X156172797Y-95244926D01*
X156167581Y-95265750D01*
X156160349Y-95285962D01*
X156151170Y-95305368D01*
X156140134Y-95323781D01*
X156127346Y-95341024D01*
X156112930Y-95356930D01*
X156097024Y-95371346D01*
X156079781Y-95384134D01*
X156061368Y-95395170D01*
X156041962Y-95404349D01*
X156021750Y-95411581D01*
X156000926Y-95416797D01*
X155979691Y-95419947D01*
X155958250Y-95421000D01*
X155445750Y-95421000D01*
X155424309Y-95419947D01*
X155403074Y-95416797D01*
X155382250Y-95411581D01*
X155362038Y-95404349D01*
X155342632Y-95395170D01*
X155324219Y-95384134D01*
X155306976Y-95371346D01*
X155291070Y-95356930D01*
X155276654Y-95341024D01*
X155263866Y-95323781D01*
X155252830Y-95305368D01*
X155243651Y-95285962D01*
X155236419Y-95265750D01*
X155231203Y-95244926D01*
X155228053Y-95223691D01*
X155227000Y-95202250D01*
X155227000Y-94764750D01*
X155228053Y-94743309D01*
X155231203Y-94722074D01*
X155236419Y-94701250D01*
X155243651Y-94681038D01*
X155252830Y-94661632D01*
X155263866Y-94643219D01*
X155276654Y-94625976D01*
X155291070Y-94610070D01*
X155306976Y-94595654D01*
X155324219Y-94582866D01*
X155342632Y-94571830D01*
X155362038Y-94562651D01*
X155382250Y-94555419D01*
X155403074Y-94550203D01*
X155424309Y-94547053D01*
X155445750Y-94546000D01*
X155958250Y-94546000D01*
X155979691Y-94547053D01*
X155979691Y-94547053D01*
G37*
D11*
X155702000Y-94983500D03*
D10*
G36*
X160412691Y-90013553D02*
G01*
X160433926Y-90016703D01*
X160454750Y-90021919D01*
X160474962Y-90029151D01*
X160494368Y-90038330D01*
X160512781Y-90049366D01*
X160530024Y-90062154D01*
X160545930Y-90076570D01*
X160560346Y-90092476D01*
X160573134Y-90109719D01*
X160584170Y-90128132D01*
X160593349Y-90147538D01*
X160600581Y-90167750D01*
X160605797Y-90188574D01*
X160608947Y-90209809D01*
X160610000Y-90231250D01*
X160610000Y-90743750D01*
X160608947Y-90765191D01*
X160605797Y-90786426D01*
X160600581Y-90807250D01*
X160593349Y-90827462D01*
X160584170Y-90846868D01*
X160573134Y-90865281D01*
X160560346Y-90882524D01*
X160545930Y-90898430D01*
X160530024Y-90912846D01*
X160512781Y-90925634D01*
X160494368Y-90936670D01*
X160474962Y-90945849D01*
X160454750Y-90953081D01*
X160433926Y-90958297D01*
X160412691Y-90961447D01*
X160391250Y-90962500D01*
X159953750Y-90962500D01*
X159932309Y-90961447D01*
X159911074Y-90958297D01*
X159890250Y-90953081D01*
X159870038Y-90945849D01*
X159850632Y-90936670D01*
X159832219Y-90925634D01*
X159814976Y-90912846D01*
X159799070Y-90898430D01*
X159784654Y-90882524D01*
X159771866Y-90865281D01*
X159760830Y-90846868D01*
X159751651Y-90827462D01*
X159744419Y-90807250D01*
X159739203Y-90786426D01*
X159736053Y-90765191D01*
X159735000Y-90743750D01*
X159735000Y-90231250D01*
X159736053Y-90209809D01*
X159739203Y-90188574D01*
X159744419Y-90167750D01*
X159751651Y-90147538D01*
X159760830Y-90128132D01*
X159771866Y-90109719D01*
X159784654Y-90092476D01*
X159799070Y-90076570D01*
X159814976Y-90062154D01*
X159832219Y-90049366D01*
X159850632Y-90038330D01*
X159870038Y-90029151D01*
X159890250Y-90021919D01*
X159911074Y-90016703D01*
X159932309Y-90013553D01*
X159953750Y-90012500D01*
X160391250Y-90012500D01*
X160412691Y-90013553D01*
X160412691Y-90013553D01*
G37*
D11*
X160172500Y-90487500D03*
D10*
G36*
X158837691Y-90013553D02*
G01*
X158858926Y-90016703D01*
X158879750Y-90021919D01*
X158899962Y-90029151D01*
X158919368Y-90038330D01*
X158937781Y-90049366D01*
X158955024Y-90062154D01*
X158970930Y-90076570D01*
X158985346Y-90092476D01*
X158998134Y-90109719D01*
X159009170Y-90128132D01*
X159018349Y-90147538D01*
X159025581Y-90167750D01*
X159030797Y-90188574D01*
X159033947Y-90209809D01*
X159035000Y-90231250D01*
X159035000Y-90743750D01*
X159033947Y-90765191D01*
X159030797Y-90786426D01*
X159025581Y-90807250D01*
X159018349Y-90827462D01*
X159009170Y-90846868D01*
X158998134Y-90865281D01*
X158985346Y-90882524D01*
X158970930Y-90898430D01*
X158955024Y-90912846D01*
X158937781Y-90925634D01*
X158919368Y-90936670D01*
X158899962Y-90945849D01*
X158879750Y-90953081D01*
X158858926Y-90958297D01*
X158837691Y-90961447D01*
X158816250Y-90962500D01*
X158378750Y-90962500D01*
X158357309Y-90961447D01*
X158336074Y-90958297D01*
X158315250Y-90953081D01*
X158295038Y-90945849D01*
X158275632Y-90936670D01*
X158257219Y-90925634D01*
X158239976Y-90912846D01*
X158224070Y-90898430D01*
X158209654Y-90882524D01*
X158196866Y-90865281D01*
X158185830Y-90846868D01*
X158176651Y-90827462D01*
X158169419Y-90807250D01*
X158164203Y-90786426D01*
X158161053Y-90765191D01*
X158160000Y-90743750D01*
X158160000Y-90231250D01*
X158161053Y-90209809D01*
X158164203Y-90188574D01*
X158169419Y-90167750D01*
X158176651Y-90147538D01*
X158185830Y-90128132D01*
X158196866Y-90109719D01*
X158209654Y-90092476D01*
X158224070Y-90076570D01*
X158239976Y-90062154D01*
X158257219Y-90049366D01*
X158275632Y-90038330D01*
X158295038Y-90029151D01*
X158315250Y-90021919D01*
X158336074Y-90016703D01*
X158357309Y-90013553D01*
X158378750Y-90012500D01*
X158816250Y-90012500D01*
X158837691Y-90013553D01*
X158837691Y-90013553D01*
G37*
D11*
X158597500Y-90487500D03*
D10*
G36*
X140485691Y-93734053D02*
G01*
X140506926Y-93737203D01*
X140527750Y-93742419D01*
X140547962Y-93749651D01*
X140567368Y-93758830D01*
X140585781Y-93769866D01*
X140603024Y-93782654D01*
X140618930Y-93797070D01*
X140633346Y-93812976D01*
X140646134Y-93830219D01*
X140657170Y-93848632D01*
X140666349Y-93868038D01*
X140673581Y-93888250D01*
X140678797Y-93909074D01*
X140681947Y-93930309D01*
X140683000Y-93951750D01*
X140683000Y-94389250D01*
X140681947Y-94410691D01*
X140678797Y-94431926D01*
X140673581Y-94452750D01*
X140666349Y-94472962D01*
X140657170Y-94492368D01*
X140646134Y-94510781D01*
X140633346Y-94528024D01*
X140618930Y-94543930D01*
X140603024Y-94558346D01*
X140585781Y-94571134D01*
X140567368Y-94582170D01*
X140547962Y-94591349D01*
X140527750Y-94598581D01*
X140506926Y-94603797D01*
X140485691Y-94606947D01*
X140464250Y-94608000D01*
X139951750Y-94608000D01*
X139930309Y-94606947D01*
X139909074Y-94603797D01*
X139888250Y-94598581D01*
X139868038Y-94591349D01*
X139848632Y-94582170D01*
X139830219Y-94571134D01*
X139812976Y-94558346D01*
X139797070Y-94543930D01*
X139782654Y-94528024D01*
X139769866Y-94510781D01*
X139758830Y-94492368D01*
X139749651Y-94472962D01*
X139742419Y-94452750D01*
X139737203Y-94431926D01*
X139734053Y-94410691D01*
X139733000Y-94389250D01*
X139733000Y-93951750D01*
X139734053Y-93930309D01*
X139737203Y-93909074D01*
X139742419Y-93888250D01*
X139749651Y-93868038D01*
X139758830Y-93848632D01*
X139769866Y-93830219D01*
X139782654Y-93812976D01*
X139797070Y-93797070D01*
X139812976Y-93782654D01*
X139830219Y-93769866D01*
X139848632Y-93758830D01*
X139868038Y-93749651D01*
X139888250Y-93742419D01*
X139909074Y-93737203D01*
X139930309Y-93734053D01*
X139951750Y-93733000D01*
X140464250Y-93733000D01*
X140485691Y-93734053D01*
X140485691Y-93734053D01*
G37*
D11*
X140208000Y-94170500D03*
D10*
G36*
X140485691Y-95309053D02*
G01*
X140506926Y-95312203D01*
X140527750Y-95317419D01*
X140547962Y-95324651D01*
X140567368Y-95333830D01*
X140585781Y-95344866D01*
X140603024Y-95357654D01*
X140618930Y-95372070D01*
X140633346Y-95387976D01*
X140646134Y-95405219D01*
X140657170Y-95423632D01*
X140666349Y-95443038D01*
X140673581Y-95463250D01*
X140678797Y-95484074D01*
X140681947Y-95505309D01*
X140683000Y-95526750D01*
X140683000Y-95964250D01*
X140681947Y-95985691D01*
X140678797Y-96006926D01*
X140673581Y-96027750D01*
X140666349Y-96047962D01*
X140657170Y-96067368D01*
X140646134Y-96085781D01*
X140633346Y-96103024D01*
X140618930Y-96118930D01*
X140603024Y-96133346D01*
X140585781Y-96146134D01*
X140567368Y-96157170D01*
X140547962Y-96166349D01*
X140527750Y-96173581D01*
X140506926Y-96178797D01*
X140485691Y-96181947D01*
X140464250Y-96183000D01*
X139951750Y-96183000D01*
X139930309Y-96181947D01*
X139909074Y-96178797D01*
X139888250Y-96173581D01*
X139868038Y-96166349D01*
X139848632Y-96157170D01*
X139830219Y-96146134D01*
X139812976Y-96133346D01*
X139797070Y-96118930D01*
X139782654Y-96103024D01*
X139769866Y-96085781D01*
X139758830Y-96067368D01*
X139749651Y-96047962D01*
X139742419Y-96027750D01*
X139737203Y-96006926D01*
X139734053Y-95985691D01*
X139733000Y-95964250D01*
X139733000Y-95526750D01*
X139734053Y-95505309D01*
X139737203Y-95484074D01*
X139742419Y-95463250D01*
X139749651Y-95443038D01*
X139758830Y-95423632D01*
X139769866Y-95405219D01*
X139782654Y-95387976D01*
X139797070Y-95372070D01*
X139812976Y-95357654D01*
X139830219Y-95344866D01*
X139848632Y-95333830D01*
X139868038Y-95324651D01*
X139888250Y-95317419D01*
X139909074Y-95312203D01*
X139930309Y-95309053D01*
X139951750Y-95308000D01*
X140464250Y-95308000D01*
X140485691Y-95309053D01*
X140485691Y-95309053D01*
G37*
D11*
X140208000Y-95745500D03*
D10*
G36*
X160412691Y-88235553D02*
G01*
X160433926Y-88238703D01*
X160454750Y-88243919D01*
X160474962Y-88251151D01*
X160494368Y-88260330D01*
X160512781Y-88271366D01*
X160530024Y-88284154D01*
X160545930Y-88298570D01*
X160560346Y-88314476D01*
X160573134Y-88331719D01*
X160584170Y-88350132D01*
X160593349Y-88369538D01*
X160600581Y-88389750D01*
X160605797Y-88410574D01*
X160608947Y-88431809D01*
X160610000Y-88453250D01*
X160610000Y-88965750D01*
X160608947Y-88987191D01*
X160605797Y-89008426D01*
X160600581Y-89029250D01*
X160593349Y-89049462D01*
X160584170Y-89068868D01*
X160573134Y-89087281D01*
X160560346Y-89104524D01*
X160545930Y-89120430D01*
X160530024Y-89134846D01*
X160512781Y-89147634D01*
X160494368Y-89158670D01*
X160474962Y-89167849D01*
X160454750Y-89175081D01*
X160433926Y-89180297D01*
X160412691Y-89183447D01*
X160391250Y-89184500D01*
X159953750Y-89184500D01*
X159932309Y-89183447D01*
X159911074Y-89180297D01*
X159890250Y-89175081D01*
X159870038Y-89167849D01*
X159850632Y-89158670D01*
X159832219Y-89147634D01*
X159814976Y-89134846D01*
X159799070Y-89120430D01*
X159784654Y-89104524D01*
X159771866Y-89087281D01*
X159760830Y-89068868D01*
X159751651Y-89049462D01*
X159744419Y-89029250D01*
X159739203Y-89008426D01*
X159736053Y-88987191D01*
X159735000Y-88965750D01*
X159735000Y-88453250D01*
X159736053Y-88431809D01*
X159739203Y-88410574D01*
X159744419Y-88389750D01*
X159751651Y-88369538D01*
X159760830Y-88350132D01*
X159771866Y-88331719D01*
X159784654Y-88314476D01*
X159799070Y-88298570D01*
X159814976Y-88284154D01*
X159832219Y-88271366D01*
X159850632Y-88260330D01*
X159870038Y-88251151D01*
X159890250Y-88243919D01*
X159911074Y-88238703D01*
X159932309Y-88235553D01*
X159953750Y-88234500D01*
X160391250Y-88234500D01*
X160412691Y-88235553D01*
X160412691Y-88235553D01*
G37*
D11*
X160172500Y-88709500D03*
D10*
G36*
X158837691Y-88235553D02*
G01*
X158858926Y-88238703D01*
X158879750Y-88243919D01*
X158899962Y-88251151D01*
X158919368Y-88260330D01*
X158937781Y-88271366D01*
X158955024Y-88284154D01*
X158970930Y-88298570D01*
X158985346Y-88314476D01*
X158998134Y-88331719D01*
X159009170Y-88350132D01*
X159018349Y-88369538D01*
X159025581Y-88389750D01*
X159030797Y-88410574D01*
X159033947Y-88431809D01*
X159035000Y-88453250D01*
X159035000Y-88965750D01*
X159033947Y-88987191D01*
X159030797Y-89008426D01*
X159025581Y-89029250D01*
X159018349Y-89049462D01*
X159009170Y-89068868D01*
X158998134Y-89087281D01*
X158985346Y-89104524D01*
X158970930Y-89120430D01*
X158955024Y-89134846D01*
X158937781Y-89147634D01*
X158919368Y-89158670D01*
X158899962Y-89167849D01*
X158879750Y-89175081D01*
X158858926Y-89180297D01*
X158837691Y-89183447D01*
X158816250Y-89184500D01*
X158378750Y-89184500D01*
X158357309Y-89183447D01*
X158336074Y-89180297D01*
X158315250Y-89175081D01*
X158295038Y-89167849D01*
X158275632Y-89158670D01*
X158257219Y-89147634D01*
X158239976Y-89134846D01*
X158224070Y-89120430D01*
X158209654Y-89104524D01*
X158196866Y-89087281D01*
X158185830Y-89068868D01*
X158176651Y-89049462D01*
X158169419Y-89029250D01*
X158164203Y-89008426D01*
X158161053Y-88987191D01*
X158160000Y-88965750D01*
X158160000Y-88453250D01*
X158161053Y-88431809D01*
X158164203Y-88410574D01*
X158169419Y-88389750D01*
X158176651Y-88369538D01*
X158185830Y-88350132D01*
X158196866Y-88331719D01*
X158209654Y-88314476D01*
X158224070Y-88298570D01*
X158239976Y-88284154D01*
X158257219Y-88271366D01*
X158275632Y-88260330D01*
X158295038Y-88251151D01*
X158315250Y-88243919D01*
X158336074Y-88238703D01*
X158357309Y-88235553D01*
X158378750Y-88234500D01*
X158816250Y-88234500D01*
X158837691Y-88235553D01*
X158837691Y-88235553D01*
G37*
D11*
X158597500Y-88709500D03*
D10*
G36*
X148500191Y-100554553D02*
G01*
X148521426Y-100557703D01*
X148542250Y-100562919D01*
X148562462Y-100570151D01*
X148581868Y-100579330D01*
X148600281Y-100590366D01*
X148617524Y-100603154D01*
X148633430Y-100617570D01*
X148647846Y-100633476D01*
X148660634Y-100650719D01*
X148671670Y-100669132D01*
X148680849Y-100688538D01*
X148688081Y-100708750D01*
X148693297Y-100729574D01*
X148696447Y-100750809D01*
X148697500Y-100772250D01*
X148697500Y-101284750D01*
X148696447Y-101306191D01*
X148693297Y-101327426D01*
X148688081Y-101348250D01*
X148680849Y-101368462D01*
X148671670Y-101387868D01*
X148660634Y-101406281D01*
X148647846Y-101423524D01*
X148633430Y-101439430D01*
X148617524Y-101453846D01*
X148600281Y-101466634D01*
X148581868Y-101477670D01*
X148562462Y-101486849D01*
X148542250Y-101494081D01*
X148521426Y-101499297D01*
X148500191Y-101502447D01*
X148478750Y-101503500D01*
X148041250Y-101503500D01*
X148019809Y-101502447D01*
X147998574Y-101499297D01*
X147977750Y-101494081D01*
X147957538Y-101486849D01*
X147938132Y-101477670D01*
X147919719Y-101466634D01*
X147902476Y-101453846D01*
X147886570Y-101439430D01*
X147872154Y-101423524D01*
X147859366Y-101406281D01*
X147848330Y-101387868D01*
X147839151Y-101368462D01*
X147831919Y-101348250D01*
X147826703Y-101327426D01*
X147823553Y-101306191D01*
X147822500Y-101284750D01*
X147822500Y-100772250D01*
X147823553Y-100750809D01*
X147826703Y-100729574D01*
X147831919Y-100708750D01*
X147839151Y-100688538D01*
X147848330Y-100669132D01*
X147859366Y-100650719D01*
X147872154Y-100633476D01*
X147886570Y-100617570D01*
X147902476Y-100603154D01*
X147919719Y-100590366D01*
X147938132Y-100579330D01*
X147957538Y-100570151D01*
X147977750Y-100562919D01*
X147998574Y-100557703D01*
X148019809Y-100554553D01*
X148041250Y-100553500D01*
X148478750Y-100553500D01*
X148500191Y-100554553D01*
X148500191Y-100554553D01*
G37*
D11*
X148260000Y-101028500D03*
D10*
G36*
X146925191Y-100554553D02*
G01*
X146946426Y-100557703D01*
X146967250Y-100562919D01*
X146987462Y-100570151D01*
X147006868Y-100579330D01*
X147025281Y-100590366D01*
X147042524Y-100603154D01*
X147058430Y-100617570D01*
X147072846Y-100633476D01*
X147085634Y-100650719D01*
X147096670Y-100669132D01*
X147105849Y-100688538D01*
X147113081Y-100708750D01*
X147118297Y-100729574D01*
X147121447Y-100750809D01*
X147122500Y-100772250D01*
X147122500Y-101284750D01*
X147121447Y-101306191D01*
X147118297Y-101327426D01*
X147113081Y-101348250D01*
X147105849Y-101368462D01*
X147096670Y-101387868D01*
X147085634Y-101406281D01*
X147072846Y-101423524D01*
X147058430Y-101439430D01*
X147042524Y-101453846D01*
X147025281Y-101466634D01*
X147006868Y-101477670D01*
X146987462Y-101486849D01*
X146967250Y-101494081D01*
X146946426Y-101499297D01*
X146925191Y-101502447D01*
X146903750Y-101503500D01*
X146466250Y-101503500D01*
X146444809Y-101502447D01*
X146423574Y-101499297D01*
X146402750Y-101494081D01*
X146382538Y-101486849D01*
X146363132Y-101477670D01*
X146344719Y-101466634D01*
X146327476Y-101453846D01*
X146311570Y-101439430D01*
X146297154Y-101423524D01*
X146284366Y-101406281D01*
X146273330Y-101387868D01*
X146264151Y-101368462D01*
X146256919Y-101348250D01*
X146251703Y-101327426D01*
X146248553Y-101306191D01*
X146247500Y-101284750D01*
X146247500Y-100772250D01*
X146248553Y-100750809D01*
X146251703Y-100729574D01*
X146256919Y-100708750D01*
X146264151Y-100688538D01*
X146273330Y-100669132D01*
X146284366Y-100650719D01*
X146297154Y-100633476D01*
X146311570Y-100617570D01*
X146327476Y-100603154D01*
X146344719Y-100590366D01*
X146363132Y-100579330D01*
X146382538Y-100570151D01*
X146402750Y-100562919D01*
X146423574Y-100557703D01*
X146444809Y-100554553D01*
X146466250Y-100553500D01*
X146903750Y-100553500D01*
X146925191Y-100554553D01*
X146925191Y-100554553D01*
G37*
D11*
X146685000Y-101028500D03*
D10*
G36*
X153312691Y-68181553D02*
G01*
X153333926Y-68184703D01*
X153354750Y-68189919D01*
X153374962Y-68197151D01*
X153394368Y-68206330D01*
X153412781Y-68217366D01*
X153430024Y-68230154D01*
X153445930Y-68244570D01*
X153460346Y-68260476D01*
X153473134Y-68277719D01*
X153484170Y-68296132D01*
X153493349Y-68315538D01*
X153500581Y-68335750D01*
X153505797Y-68356574D01*
X153508947Y-68377809D01*
X153510000Y-68399250D01*
X153510000Y-68836750D01*
X153508947Y-68858191D01*
X153505797Y-68879426D01*
X153500581Y-68900250D01*
X153493349Y-68920462D01*
X153484170Y-68939868D01*
X153473134Y-68958281D01*
X153460346Y-68975524D01*
X153445930Y-68991430D01*
X153430024Y-69005846D01*
X153412781Y-69018634D01*
X153394368Y-69029670D01*
X153374962Y-69038849D01*
X153354750Y-69046081D01*
X153333926Y-69051297D01*
X153312691Y-69054447D01*
X153291250Y-69055500D01*
X152778750Y-69055500D01*
X152757309Y-69054447D01*
X152736074Y-69051297D01*
X152715250Y-69046081D01*
X152695038Y-69038849D01*
X152675632Y-69029670D01*
X152657219Y-69018634D01*
X152639976Y-69005846D01*
X152624070Y-68991430D01*
X152609654Y-68975524D01*
X152596866Y-68958281D01*
X152585830Y-68939868D01*
X152576651Y-68920462D01*
X152569419Y-68900250D01*
X152564203Y-68879426D01*
X152561053Y-68858191D01*
X152560000Y-68836750D01*
X152560000Y-68399250D01*
X152561053Y-68377809D01*
X152564203Y-68356574D01*
X152569419Y-68335750D01*
X152576651Y-68315538D01*
X152585830Y-68296132D01*
X152596866Y-68277719D01*
X152609654Y-68260476D01*
X152624070Y-68244570D01*
X152639976Y-68230154D01*
X152657219Y-68217366D01*
X152675632Y-68206330D01*
X152695038Y-68197151D01*
X152715250Y-68189919D01*
X152736074Y-68184703D01*
X152757309Y-68181553D01*
X152778750Y-68180500D01*
X153291250Y-68180500D01*
X153312691Y-68181553D01*
X153312691Y-68181553D01*
G37*
D11*
X153035000Y-68618000D03*
D10*
G36*
X153312691Y-69756553D02*
G01*
X153333926Y-69759703D01*
X153354750Y-69764919D01*
X153374962Y-69772151D01*
X153394368Y-69781330D01*
X153412781Y-69792366D01*
X153430024Y-69805154D01*
X153445930Y-69819570D01*
X153460346Y-69835476D01*
X153473134Y-69852719D01*
X153484170Y-69871132D01*
X153493349Y-69890538D01*
X153500581Y-69910750D01*
X153505797Y-69931574D01*
X153508947Y-69952809D01*
X153510000Y-69974250D01*
X153510000Y-70411750D01*
X153508947Y-70433191D01*
X153505797Y-70454426D01*
X153500581Y-70475250D01*
X153493349Y-70495462D01*
X153484170Y-70514868D01*
X153473134Y-70533281D01*
X153460346Y-70550524D01*
X153445930Y-70566430D01*
X153430024Y-70580846D01*
X153412781Y-70593634D01*
X153394368Y-70604670D01*
X153374962Y-70613849D01*
X153354750Y-70621081D01*
X153333926Y-70626297D01*
X153312691Y-70629447D01*
X153291250Y-70630500D01*
X152778750Y-70630500D01*
X152757309Y-70629447D01*
X152736074Y-70626297D01*
X152715250Y-70621081D01*
X152695038Y-70613849D01*
X152675632Y-70604670D01*
X152657219Y-70593634D01*
X152639976Y-70580846D01*
X152624070Y-70566430D01*
X152609654Y-70550524D01*
X152596866Y-70533281D01*
X152585830Y-70514868D01*
X152576651Y-70495462D01*
X152569419Y-70475250D01*
X152564203Y-70454426D01*
X152561053Y-70433191D01*
X152560000Y-70411750D01*
X152560000Y-69974250D01*
X152561053Y-69952809D01*
X152564203Y-69931574D01*
X152569419Y-69910750D01*
X152576651Y-69890538D01*
X152585830Y-69871132D01*
X152596866Y-69852719D01*
X152609654Y-69835476D01*
X152624070Y-69819570D01*
X152639976Y-69805154D01*
X152657219Y-69792366D01*
X152675632Y-69781330D01*
X152695038Y-69772151D01*
X152715250Y-69764919D01*
X152736074Y-69759703D01*
X152757309Y-69756553D01*
X152778750Y-69755500D01*
X153291250Y-69755500D01*
X153312691Y-69756553D01*
X153312691Y-69756553D01*
G37*
D11*
X153035000Y-70193000D03*
D10*
G36*
X153312691Y-77071553D02*
G01*
X153333926Y-77074703D01*
X153354750Y-77079919D01*
X153374962Y-77087151D01*
X153394368Y-77096330D01*
X153412781Y-77107366D01*
X153430024Y-77120154D01*
X153445930Y-77134570D01*
X153460346Y-77150476D01*
X153473134Y-77167719D01*
X153484170Y-77186132D01*
X153493349Y-77205538D01*
X153500581Y-77225750D01*
X153505797Y-77246574D01*
X153508947Y-77267809D01*
X153510000Y-77289250D01*
X153510000Y-77726750D01*
X153508947Y-77748191D01*
X153505797Y-77769426D01*
X153500581Y-77790250D01*
X153493349Y-77810462D01*
X153484170Y-77829868D01*
X153473134Y-77848281D01*
X153460346Y-77865524D01*
X153445930Y-77881430D01*
X153430024Y-77895846D01*
X153412781Y-77908634D01*
X153394368Y-77919670D01*
X153374962Y-77928849D01*
X153354750Y-77936081D01*
X153333926Y-77941297D01*
X153312691Y-77944447D01*
X153291250Y-77945500D01*
X152778750Y-77945500D01*
X152757309Y-77944447D01*
X152736074Y-77941297D01*
X152715250Y-77936081D01*
X152695038Y-77928849D01*
X152675632Y-77919670D01*
X152657219Y-77908634D01*
X152639976Y-77895846D01*
X152624070Y-77881430D01*
X152609654Y-77865524D01*
X152596866Y-77848281D01*
X152585830Y-77829868D01*
X152576651Y-77810462D01*
X152569419Y-77790250D01*
X152564203Y-77769426D01*
X152561053Y-77748191D01*
X152560000Y-77726750D01*
X152560000Y-77289250D01*
X152561053Y-77267809D01*
X152564203Y-77246574D01*
X152569419Y-77225750D01*
X152576651Y-77205538D01*
X152585830Y-77186132D01*
X152596866Y-77167719D01*
X152609654Y-77150476D01*
X152624070Y-77134570D01*
X152639976Y-77120154D01*
X152657219Y-77107366D01*
X152675632Y-77096330D01*
X152695038Y-77087151D01*
X152715250Y-77079919D01*
X152736074Y-77074703D01*
X152757309Y-77071553D01*
X152778750Y-77070500D01*
X153291250Y-77070500D01*
X153312691Y-77071553D01*
X153312691Y-77071553D01*
G37*
D11*
X153035000Y-77508000D03*
D10*
G36*
X153312691Y-78646553D02*
G01*
X153333926Y-78649703D01*
X153354750Y-78654919D01*
X153374962Y-78662151D01*
X153394368Y-78671330D01*
X153412781Y-78682366D01*
X153430024Y-78695154D01*
X153445930Y-78709570D01*
X153460346Y-78725476D01*
X153473134Y-78742719D01*
X153484170Y-78761132D01*
X153493349Y-78780538D01*
X153500581Y-78800750D01*
X153505797Y-78821574D01*
X153508947Y-78842809D01*
X153510000Y-78864250D01*
X153510000Y-79301750D01*
X153508947Y-79323191D01*
X153505797Y-79344426D01*
X153500581Y-79365250D01*
X153493349Y-79385462D01*
X153484170Y-79404868D01*
X153473134Y-79423281D01*
X153460346Y-79440524D01*
X153445930Y-79456430D01*
X153430024Y-79470846D01*
X153412781Y-79483634D01*
X153394368Y-79494670D01*
X153374962Y-79503849D01*
X153354750Y-79511081D01*
X153333926Y-79516297D01*
X153312691Y-79519447D01*
X153291250Y-79520500D01*
X152778750Y-79520500D01*
X152757309Y-79519447D01*
X152736074Y-79516297D01*
X152715250Y-79511081D01*
X152695038Y-79503849D01*
X152675632Y-79494670D01*
X152657219Y-79483634D01*
X152639976Y-79470846D01*
X152624070Y-79456430D01*
X152609654Y-79440524D01*
X152596866Y-79423281D01*
X152585830Y-79404868D01*
X152576651Y-79385462D01*
X152569419Y-79365250D01*
X152564203Y-79344426D01*
X152561053Y-79323191D01*
X152560000Y-79301750D01*
X152560000Y-78864250D01*
X152561053Y-78842809D01*
X152564203Y-78821574D01*
X152569419Y-78800750D01*
X152576651Y-78780538D01*
X152585830Y-78761132D01*
X152596866Y-78742719D01*
X152609654Y-78725476D01*
X152624070Y-78709570D01*
X152639976Y-78695154D01*
X152657219Y-78682366D01*
X152675632Y-78671330D01*
X152695038Y-78662151D01*
X152715250Y-78654919D01*
X152736074Y-78649703D01*
X152757309Y-78646553D01*
X152778750Y-78645500D01*
X153291250Y-78645500D01*
X153312691Y-78646553D01*
X153312691Y-78646553D01*
G37*
D11*
X153035000Y-79083000D03*
D10*
G36*
X141628691Y-60307553D02*
G01*
X141649926Y-60310703D01*
X141670750Y-60315919D01*
X141690962Y-60323151D01*
X141710368Y-60332330D01*
X141728781Y-60343366D01*
X141746024Y-60356154D01*
X141761930Y-60370570D01*
X141776346Y-60386476D01*
X141789134Y-60403719D01*
X141800170Y-60422132D01*
X141809349Y-60441538D01*
X141816581Y-60461750D01*
X141821797Y-60482574D01*
X141824947Y-60503809D01*
X141826000Y-60525250D01*
X141826000Y-60962750D01*
X141824947Y-60984191D01*
X141821797Y-61005426D01*
X141816581Y-61026250D01*
X141809349Y-61046462D01*
X141800170Y-61065868D01*
X141789134Y-61084281D01*
X141776346Y-61101524D01*
X141761930Y-61117430D01*
X141746024Y-61131846D01*
X141728781Y-61144634D01*
X141710368Y-61155670D01*
X141690962Y-61164849D01*
X141670750Y-61172081D01*
X141649926Y-61177297D01*
X141628691Y-61180447D01*
X141607250Y-61181500D01*
X141094750Y-61181500D01*
X141073309Y-61180447D01*
X141052074Y-61177297D01*
X141031250Y-61172081D01*
X141011038Y-61164849D01*
X140991632Y-61155670D01*
X140973219Y-61144634D01*
X140955976Y-61131846D01*
X140940070Y-61117430D01*
X140925654Y-61101524D01*
X140912866Y-61084281D01*
X140901830Y-61065868D01*
X140892651Y-61046462D01*
X140885419Y-61026250D01*
X140880203Y-61005426D01*
X140877053Y-60984191D01*
X140876000Y-60962750D01*
X140876000Y-60525250D01*
X140877053Y-60503809D01*
X140880203Y-60482574D01*
X140885419Y-60461750D01*
X140892651Y-60441538D01*
X140901830Y-60422132D01*
X140912866Y-60403719D01*
X140925654Y-60386476D01*
X140940070Y-60370570D01*
X140955976Y-60356154D01*
X140973219Y-60343366D01*
X140991632Y-60332330D01*
X141011038Y-60323151D01*
X141031250Y-60315919D01*
X141052074Y-60310703D01*
X141073309Y-60307553D01*
X141094750Y-60306500D01*
X141607250Y-60306500D01*
X141628691Y-60307553D01*
X141628691Y-60307553D01*
G37*
D11*
X141351000Y-60744000D03*
D10*
G36*
X141628691Y-61882553D02*
G01*
X141649926Y-61885703D01*
X141670750Y-61890919D01*
X141690962Y-61898151D01*
X141710368Y-61907330D01*
X141728781Y-61918366D01*
X141746024Y-61931154D01*
X141761930Y-61945570D01*
X141776346Y-61961476D01*
X141789134Y-61978719D01*
X141800170Y-61997132D01*
X141809349Y-62016538D01*
X141816581Y-62036750D01*
X141821797Y-62057574D01*
X141824947Y-62078809D01*
X141826000Y-62100250D01*
X141826000Y-62537750D01*
X141824947Y-62559191D01*
X141821797Y-62580426D01*
X141816581Y-62601250D01*
X141809349Y-62621462D01*
X141800170Y-62640868D01*
X141789134Y-62659281D01*
X141776346Y-62676524D01*
X141761930Y-62692430D01*
X141746024Y-62706846D01*
X141728781Y-62719634D01*
X141710368Y-62730670D01*
X141690962Y-62739849D01*
X141670750Y-62747081D01*
X141649926Y-62752297D01*
X141628691Y-62755447D01*
X141607250Y-62756500D01*
X141094750Y-62756500D01*
X141073309Y-62755447D01*
X141052074Y-62752297D01*
X141031250Y-62747081D01*
X141011038Y-62739849D01*
X140991632Y-62730670D01*
X140973219Y-62719634D01*
X140955976Y-62706846D01*
X140940070Y-62692430D01*
X140925654Y-62676524D01*
X140912866Y-62659281D01*
X140901830Y-62640868D01*
X140892651Y-62621462D01*
X140885419Y-62601250D01*
X140880203Y-62580426D01*
X140877053Y-62559191D01*
X140876000Y-62537750D01*
X140876000Y-62100250D01*
X140877053Y-62078809D01*
X140880203Y-62057574D01*
X140885419Y-62036750D01*
X140892651Y-62016538D01*
X140901830Y-61997132D01*
X140912866Y-61978719D01*
X140925654Y-61961476D01*
X140940070Y-61945570D01*
X140955976Y-61931154D01*
X140973219Y-61918366D01*
X140991632Y-61907330D01*
X141011038Y-61898151D01*
X141031250Y-61890919D01*
X141052074Y-61885703D01*
X141073309Y-61882553D01*
X141094750Y-61881500D01*
X141607250Y-61881500D01*
X141628691Y-61882553D01*
X141628691Y-61882553D01*
G37*
D11*
X141351000Y-62319000D03*
D10*
G36*
X153312691Y-61882553D02*
G01*
X153333926Y-61885703D01*
X153354750Y-61890919D01*
X153374962Y-61898151D01*
X153394368Y-61907330D01*
X153412781Y-61918366D01*
X153430024Y-61931154D01*
X153445930Y-61945570D01*
X153460346Y-61961476D01*
X153473134Y-61978719D01*
X153484170Y-61997132D01*
X153493349Y-62016538D01*
X153500581Y-62036750D01*
X153505797Y-62057574D01*
X153508947Y-62078809D01*
X153510000Y-62100250D01*
X153510000Y-62537750D01*
X153508947Y-62559191D01*
X153505797Y-62580426D01*
X153500581Y-62601250D01*
X153493349Y-62621462D01*
X153484170Y-62640868D01*
X153473134Y-62659281D01*
X153460346Y-62676524D01*
X153445930Y-62692430D01*
X153430024Y-62706846D01*
X153412781Y-62719634D01*
X153394368Y-62730670D01*
X153374962Y-62739849D01*
X153354750Y-62747081D01*
X153333926Y-62752297D01*
X153312691Y-62755447D01*
X153291250Y-62756500D01*
X152778750Y-62756500D01*
X152757309Y-62755447D01*
X152736074Y-62752297D01*
X152715250Y-62747081D01*
X152695038Y-62739849D01*
X152675632Y-62730670D01*
X152657219Y-62719634D01*
X152639976Y-62706846D01*
X152624070Y-62692430D01*
X152609654Y-62676524D01*
X152596866Y-62659281D01*
X152585830Y-62640868D01*
X152576651Y-62621462D01*
X152569419Y-62601250D01*
X152564203Y-62580426D01*
X152561053Y-62559191D01*
X152560000Y-62537750D01*
X152560000Y-62100250D01*
X152561053Y-62078809D01*
X152564203Y-62057574D01*
X152569419Y-62036750D01*
X152576651Y-62016538D01*
X152585830Y-61997132D01*
X152596866Y-61978719D01*
X152609654Y-61961476D01*
X152624070Y-61945570D01*
X152639976Y-61931154D01*
X152657219Y-61918366D01*
X152675632Y-61907330D01*
X152695038Y-61898151D01*
X152715250Y-61890919D01*
X152736074Y-61885703D01*
X152757309Y-61882553D01*
X152778750Y-61881500D01*
X153291250Y-61881500D01*
X153312691Y-61882553D01*
X153312691Y-61882553D01*
G37*
D11*
X153035000Y-62319000D03*
D10*
G36*
X153312691Y-60307553D02*
G01*
X153333926Y-60310703D01*
X153354750Y-60315919D01*
X153374962Y-60323151D01*
X153394368Y-60332330D01*
X153412781Y-60343366D01*
X153430024Y-60356154D01*
X153445930Y-60370570D01*
X153460346Y-60386476D01*
X153473134Y-60403719D01*
X153484170Y-60422132D01*
X153493349Y-60441538D01*
X153500581Y-60461750D01*
X153505797Y-60482574D01*
X153508947Y-60503809D01*
X153510000Y-60525250D01*
X153510000Y-60962750D01*
X153508947Y-60984191D01*
X153505797Y-61005426D01*
X153500581Y-61026250D01*
X153493349Y-61046462D01*
X153484170Y-61065868D01*
X153473134Y-61084281D01*
X153460346Y-61101524D01*
X153445930Y-61117430D01*
X153430024Y-61131846D01*
X153412781Y-61144634D01*
X153394368Y-61155670D01*
X153374962Y-61164849D01*
X153354750Y-61172081D01*
X153333926Y-61177297D01*
X153312691Y-61180447D01*
X153291250Y-61181500D01*
X152778750Y-61181500D01*
X152757309Y-61180447D01*
X152736074Y-61177297D01*
X152715250Y-61172081D01*
X152695038Y-61164849D01*
X152675632Y-61155670D01*
X152657219Y-61144634D01*
X152639976Y-61131846D01*
X152624070Y-61117430D01*
X152609654Y-61101524D01*
X152596866Y-61084281D01*
X152585830Y-61065868D01*
X152576651Y-61046462D01*
X152569419Y-61026250D01*
X152564203Y-61005426D01*
X152561053Y-60984191D01*
X152560000Y-60962750D01*
X152560000Y-60525250D01*
X152561053Y-60503809D01*
X152564203Y-60482574D01*
X152569419Y-60461750D01*
X152576651Y-60441538D01*
X152585830Y-60422132D01*
X152596866Y-60403719D01*
X152609654Y-60386476D01*
X152624070Y-60370570D01*
X152639976Y-60356154D01*
X152657219Y-60343366D01*
X152675632Y-60332330D01*
X152695038Y-60323151D01*
X152715250Y-60315919D01*
X152736074Y-60310703D01*
X152757309Y-60307553D01*
X152778750Y-60306500D01*
X153291250Y-60306500D01*
X153312691Y-60307553D01*
X153312691Y-60307553D01*
G37*
D11*
X153035000Y-60744000D03*
D10*
G36*
X141628691Y-73820553D02*
G01*
X141649926Y-73823703D01*
X141670750Y-73828919D01*
X141690962Y-73836151D01*
X141710368Y-73845330D01*
X141728781Y-73856366D01*
X141746024Y-73869154D01*
X141761930Y-73883570D01*
X141776346Y-73899476D01*
X141789134Y-73916719D01*
X141800170Y-73935132D01*
X141809349Y-73954538D01*
X141816581Y-73974750D01*
X141821797Y-73995574D01*
X141824947Y-74016809D01*
X141826000Y-74038250D01*
X141826000Y-74475750D01*
X141824947Y-74497191D01*
X141821797Y-74518426D01*
X141816581Y-74539250D01*
X141809349Y-74559462D01*
X141800170Y-74578868D01*
X141789134Y-74597281D01*
X141776346Y-74614524D01*
X141761930Y-74630430D01*
X141746024Y-74644846D01*
X141728781Y-74657634D01*
X141710368Y-74668670D01*
X141690962Y-74677849D01*
X141670750Y-74685081D01*
X141649926Y-74690297D01*
X141628691Y-74693447D01*
X141607250Y-74694500D01*
X141094750Y-74694500D01*
X141073309Y-74693447D01*
X141052074Y-74690297D01*
X141031250Y-74685081D01*
X141011038Y-74677849D01*
X140991632Y-74668670D01*
X140973219Y-74657634D01*
X140955976Y-74644846D01*
X140940070Y-74630430D01*
X140925654Y-74614524D01*
X140912866Y-74597281D01*
X140901830Y-74578868D01*
X140892651Y-74559462D01*
X140885419Y-74539250D01*
X140880203Y-74518426D01*
X140877053Y-74497191D01*
X140876000Y-74475750D01*
X140876000Y-74038250D01*
X140877053Y-74016809D01*
X140880203Y-73995574D01*
X140885419Y-73974750D01*
X140892651Y-73954538D01*
X140901830Y-73935132D01*
X140912866Y-73916719D01*
X140925654Y-73899476D01*
X140940070Y-73883570D01*
X140955976Y-73869154D01*
X140973219Y-73856366D01*
X140991632Y-73845330D01*
X141011038Y-73836151D01*
X141031250Y-73828919D01*
X141052074Y-73823703D01*
X141073309Y-73820553D01*
X141094750Y-73819500D01*
X141607250Y-73819500D01*
X141628691Y-73820553D01*
X141628691Y-73820553D01*
G37*
D11*
X141351000Y-74257000D03*
D10*
G36*
X141628691Y-72245553D02*
G01*
X141649926Y-72248703D01*
X141670750Y-72253919D01*
X141690962Y-72261151D01*
X141710368Y-72270330D01*
X141728781Y-72281366D01*
X141746024Y-72294154D01*
X141761930Y-72308570D01*
X141776346Y-72324476D01*
X141789134Y-72341719D01*
X141800170Y-72360132D01*
X141809349Y-72379538D01*
X141816581Y-72399750D01*
X141821797Y-72420574D01*
X141824947Y-72441809D01*
X141826000Y-72463250D01*
X141826000Y-72900750D01*
X141824947Y-72922191D01*
X141821797Y-72943426D01*
X141816581Y-72964250D01*
X141809349Y-72984462D01*
X141800170Y-73003868D01*
X141789134Y-73022281D01*
X141776346Y-73039524D01*
X141761930Y-73055430D01*
X141746024Y-73069846D01*
X141728781Y-73082634D01*
X141710368Y-73093670D01*
X141690962Y-73102849D01*
X141670750Y-73110081D01*
X141649926Y-73115297D01*
X141628691Y-73118447D01*
X141607250Y-73119500D01*
X141094750Y-73119500D01*
X141073309Y-73118447D01*
X141052074Y-73115297D01*
X141031250Y-73110081D01*
X141011038Y-73102849D01*
X140991632Y-73093670D01*
X140973219Y-73082634D01*
X140955976Y-73069846D01*
X140940070Y-73055430D01*
X140925654Y-73039524D01*
X140912866Y-73022281D01*
X140901830Y-73003868D01*
X140892651Y-72984462D01*
X140885419Y-72964250D01*
X140880203Y-72943426D01*
X140877053Y-72922191D01*
X140876000Y-72900750D01*
X140876000Y-72463250D01*
X140877053Y-72441809D01*
X140880203Y-72420574D01*
X140885419Y-72399750D01*
X140892651Y-72379538D01*
X140901830Y-72360132D01*
X140912866Y-72341719D01*
X140925654Y-72324476D01*
X140940070Y-72308570D01*
X140955976Y-72294154D01*
X140973219Y-72281366D01*
X140991632Y-72270330D01*
X141011038Y-72261151D01*
X141031250Y-72253919D01*
X141052074Y-72248703D01*
X141073309Y-72245553D01*
X141094750Y-72244500D01*
X141607250Y-72244500D01*
X141628691Y-72245553D01*
X141628691Y-72245553D01*
G37*
D11*
X141351000Y-72682000D03*
D10*
G36*
X141628691Y-78646553D02*
G01*
X141649926Y-78649703D01*
X141670750Y-78654919D01*
X141690962Y-78662151D01*
X141710368Y-78671330D01*
X141728781Y-78682366D01*
X141746024Y-78695154D01*
X141761930Y-78709570D01*
X141776346Y-78725476D01*
X141789134Y-78742719D01*
X141800170Y-78761132D01*
X141809349Y-78780538D01*
X141816581Y-78800750D01*
X141821797Y-78821574D01*
X141824947Y-78842809D01*
X141826000Y-78864250D01*
X141826000Y-79301750D01*
X141824947Y-79323191D01*
X141821797Y-79344426D01*
X141816581Y-79365250D01*
X141809349Y-79385462D01*
X141800170Y-79404868D01*
X141789134Y-79423281D01*
X141776346Y-79440524D01*
X141761930Y-79456430D01*
X141746024Y-79470846D01*
X141728781Y-79483634D01*
X141710368Y-79494670D01*
X141690962Y-79503849D01*
X141670750Y-79511081D01*
X141649926Y-79516297D01*
X141628691Y-79519447D01*
X141607250Y-79520500D01*
X141094750Y-79520500D01*
X141073309Y-79519447D01*
X141052074Y-79516297D01*
X141031250Y-79511081D01*
X141011038Y-79503849D01*
X140991632Y-79494670D01*
X140973219Y-79483634D01*
X140955976Y-79470846D01*
X140940070Y-79456430D01*
X140925654Y-79440524D01*
X140912866Y-79423281D01*
X140901830Y-79404868D01*
X140892651Y-79385462D01*
X140885419Y-79365250D01*
X140880203Y-79344426D01*
X140877053Y-79323191D01*
X140876000Y-79301750D01*
X140876000Y-78864250D01*
X140877053Y-78842809D01*
X140880203Y-78821574D01*
X140885419Y-78800750D01*
X140892651Y-78780538D01*
X140901830Y-78761132D01*
X140912866Y-78742719D01*
X140925654Y-78725476D01*
X140940070Y-78709570D01*
X140955976Y-78695154D01*
X140973219Y-78682366D01*
X140991632Y-78671330D01*
X141011038Y-78662151D01*
X141031250Y-78654919D01*
X141052074Y-78649703D01*
X141073309Y-78646553D01*
X141094750Y-78645500D01*
X141607250Y-78645500D01*
X141628691Y-78646553D01*
X141628691Y-78646553D01*
G37*
D11*
X141351000Y-79083000D03*
D10*
G36*
X141628691Y-77071553D02*
G01*
X141649926Y-77074703D01*
X141670750Y-77079919D01*
X141690962Y-77087151D01*
X141710368Y-77096330D01*
X141728781Y-77107366D01*
X141746024Y-77120154D01*
X141761930Y-77134570D01*
X141776346Y-77150476D01*
X141789134Y-77167719D01*
X141800170Y-77186132D01*
X141809349Y-77205538D01*
X141816581Y-77225750D01*
X141821797Y-77246574D01*
X141824947Y-77267809D01*
X141826000Y-77289250D01*
X141826000Y-77726750D01*
X141824947Y-77748191D01*
X141821797Y-77769426D01*
X141816581Y-77790250D01*
X141809349Y-77810462D01*
X141800170Y-77829868D01*
X141789134Y-77848281D01*
X141776346Y-77865524D01*
X141761930Y-77881430D01*
X141746024Y-77895846D01*
X141728781Y-77908634D01*
X141710368Y-77919670D01*
X141690962Y-77928849D01*
X141670750Y-77936081D01*
X141649926Y-77941297D01*
X141628691Y-77944447D01*
X141607250Y-77945500D01*
X141094750Y-77945500D01*
X141073309Y-77944447D01*
X141052074Y-77941297D01*
X141031250Y-77936081D01*
X141011038Y-77928849D01*
X140991632Y-77919670D01*
X140973219Y-77908634D01*
X140955976Y-77895846D01*
X140940070Y-77881430D01*
X140925654Y-77865524D01*
X140912866Y-77848281D01*
X140901830Y-77829868D01*
X140892651Y-77810462D01*
X140885419Y-77790250D01*
X140880203Y-77769426D01*
X140877053Y-77748191D01*
X140876000Y-77726750D01*
X140876000Y-77289250D01*
X140877053Y-77267809D01*
X140880203Y-77246574D01*
X140885419Y-77225750D01*
X140892651Y-77205538D01*
X140901830Y-77186132D01*
X140912866Y-77167719D01*
X140925654Y-77150476D01*
X140940070Y-77134570D01*
X140955976Y-77120154D01*
X140973219Y-77107366D01*
X140991632Y-77096330D01*
X141011038Y-77087151D01*
X141031250Y-77079919D01*
X141052074Y-77074703D01*
X141073309Y-77071553D01*
X141094750Y-77070500D01*
X141607250Y-77070500D01*
X141628691Y-77071553D01*
X141628691Y-77071553D01*
G37*
D11*
X141351000Y-77508000D03*
D10*
G36*
X153312691Y-72245553D02*
G01*
X153333926Y-72248703D01*
X153354750Y-72253919D01*
X153374962Y-72261151D01*
X153394368Y-72270330D01*
X153412781Y-72281366D01*
X153430024Y-72294154D01*
X153445930Y-72308570D01*
X153460346Y-72324476D01*
X153473134Y-72341719D01*
X153484170Y-72360132D01*
X153493349Y-72379538D01*
X153500581Y-72399750D01*
X153505797Y-72420574D01*
X153508947Y-72441809D01*
X153510000Y-72463250D01*
X153510000Y-72900750D01*
X153508947Y-72922191D01*
X153505797Y-72943426D01*
X153500581Y-72964250D01*
X153493349Y-72984462D01*
X153484170Y-73003868D01*
X153473134Y-73022281D01*
X153460346Y-73039524D01*
X153445930Y-73055430D01*
X153430024Y-73069846D01*
X153412781Y-73082634D01*
X153394368Y-73093670D01*
X153374962Y-73102849D01*
X153354750Y-73110081D01*
X153333926Y-73115297D01*
X153312691Y-73118447D01*
X153291250Y-73119500D01*
X152778750Y-73119500D01*
X152757309Y-73118447D01*
X152736074Y-73115297D01*
X152715250Y-73110081D01*
X152695038Y-73102849D01*
X152675632Y-73093670D01*
X152657219Y-73082634D01*
X152639976Y-73069846D01*
X152624070Y-73055430D01*
X152609654Y-73039524D01*
X152596866Y-73022281D01*
X152585830Y-73003868D01*
X152576651Y-72984462D01*
X152569419Y-72964250D01*
X152564203Y-72943426D01*
X152561053Y-72922191D01*
X152560000Y-72900750D01*
X152560000Y-72463250D01*
X152561053Y-72441809D01*
X152564203Y-72420574D01*
X152569419Y-72399750D01*
X152576651Y-72379538D01*
X152585830Y-72360132D01*
X152596866Y-72341719D01*
X152609654Y-72324476D01*
X152624070Y-72308570D01*
X152639976Y-72294154D01*
X152657219Y-72281366D01*
X152675632Y-72270330D01*
X152695038Y-72261151D01*
X152715250Y-72253919D01*
X152736074Y-72248703D01*
X152757309Y-72245553D01*
X152778750Y-72244500D01*
X153291250Y-72244500D01*
X153312691Y-72245553D01*
X153312691Y-72245553D01*
G37*
D11*
X153035000Y-72682000D03*
D10*
G36*
X153312691Y-73820553D02*
G01*
X153333926Y-73823703D01*
X153354750Y-73828919D01*
X153374962Y-73836151D01*
X153394368Y-73845330D01*
X153412781Y-73856366D01*
X153430024Y-73869154D01*
X153445930Y-73883570D01*
X153460346Y-73899476D01*
X153473134Y-73916719D01*
X153484170Y-73935132D01*
X153493349Y-73954538D01*
X153500581Y-73974750D01*
X153505797Y-73995574D01*
X153508947Y-74016809D01*
X153510000Y-74038250D01*
X153510000Y-74475750D01*
X153508947Y-74497191D01*
X153505797Y-74518426D01*
X153500581Y-74539250D01*
X153493349Y-74559462D01*
X153484170Y-74578868D01*
X153473134Y-74597281D01*
X153460346Y-74614524D01*
X153445930Y-74630430D01*
X153430024Y-74644846D01*
X153412781Y-74657634D01*
X153394368Y-74668670D01*
X153374962Y-74677849D01*
X153354750Y-74685081D01*
X153333926Y-74690297D01*
X153312691Y-74693447D01*
X153291250Y-74694500D01*
X152778750Y-74694500D01*
X152757309Y-74693447D01*
X152736074Y-74690297D01*
X152715250Y-74685081D01*
X152695038Y-74677849D01*
X152675632Y-74668670D01*
X152657219Y-74657634D01*
X152639976Y-74644846D01*
X152624070Y-74630430D01*
X152609654Y-74614524D01*
X152596866Y-74597281D01*
X152585830Y-74578868D01*
X152576651Y-74559462D01*
X152569419Y-74539250D01*
X152564203Y-74518426D01*
X152561053Y-74497191D01*
X152560000Y-74475750D01*
X152560000Y-74038250D01*
X152561053Y-74016809D01*
X152564203Y-73995574D01*
X152569419Y-73974750D01*
X152576651Y-73954538D01*
X152585830Y-73935132D01*
X152596866Y-73916719D01*
X152609654Y-73899476D01*
X152624070Y-73883570D01*
X152639976Y-73869154D01*
X152657219Y-73856366D01*
X152675632Y-73845330D01*
X152695038Y-73836151D01*
X152715250Y-73828919D01*
X152736074Y-73823703D01*
X152757309Y-73820553D01*
X152778750Y-73819500D01*
X153291250Y-73819500D01*
X153312691Y-73820553D01*
X153312691Y-73820553D01*
G37*
D11*
X153035000Y-74257000D03*
M02*
