G04 #@! TF.GenerationSoftware,KiCad,Pcbnew,5.1.2*
G04 #@! TF.CreationDate,2019-07-22T21:22:39-05:00*
G04 #@! TF.ProjectId,Raptor2000,52617074-6f72-4323-9030-302e6b696361,A*
G04 #@! TF.SameCoordinates,Original*
G04 #@! TF.FileFunction,Legend,Bot*
G04 #@! TF.FilePolarity,Positive*
%FSLAX46Y46*%
G04 Gerber Fmt 4.6, Leading zero omitted, Abs format (unit mm)*
G04 Created by KiCad (PCBNEW 5.1.2) date 2019-07-22 21:22:39*
%MOMM*%
%LPD*%
G04 APERTURE LIST*
%ADD10C,0.120000*%
%ADD11C,0.150000*%
G04 APERTURE END LIST*
D10*
X129804279Y-69153500D02*
X129478721Y-69153500D01*
X129804279Y-68133500D02*
X129478721Y-68133500D01*
X153380221Y-100391500D02*
X153705779Y-100391500D01*
X153380221Y-101411500D02*
X153705779Y-101411500D01*
X133157279Y-69153500D02*
X132831721Y-69153500D01*
X133157279Y-68133500D02*
X132831721Y-68133500D01*
X128051779Y-76011500D02*
X127726221Y-76011500D01*
X128051779Y-74991500D02*
X127726221Y-74991500D01*
X140718000Y-88745279D02*
X140718000Y-88419721D01*
X139698000Y-88745279D02*
X139698000Y-88419721D01*
X139698000Y-91894779D02*
X139698000Y-91569221D01*
X140718000Y-91894779D02*
X140718000Y-91569221D01*
X159222221Y-91666501D02*
X159547779Y-91666501D01*
X159222221Y-92686501D02*
X159547779Y-92686501D01*
X155192000Y-94358779D02*
X155192000Y-94033221D01*
X156212000Y-94358779D02*
X156212000Y-94033221D01*
X159222221Y-89977500D02*
X159547779Y-89977500D01*
X159222221Y-90997500D02*
X159547779Y-90997500D01*
X139698000Y-95120779D02*
X139698000Y-94795221D01*
X140718000Y-95120779D02*
X140718000Y-94795221D01*
X159222221Y-88199500D02*
X159547779Y-88199500D01*
X159222221Y-89219500D02*
X159547779Y-89219500D01*
X147309721Y-100518500D02*
X147635279Y-100518500D01*
X147309721Y-101538500D02*
X147635279Y-101538500D01*
X152525000Y-69568279D02*
X152525000Y-69242721D01*
X153545000Y-69568279D02*
X153545000Y-69242721D01*
X152525000Y-78458279D02*
X152525000Y-78132721D01*
X153545000Y-78458279D02*
X153545000Y-78132721D01*
X140841000Y-61694279D02*
X140841000Y-61368721D01*
X141861000Y-61694279D02*
X141861000Y-61368721D01*
X153545000Y-61368721D02*
X153545000Y-61694279D01*
X152525000Y-61368721D02*
X152525000Y-61694279D01*
X141861000Y-73306721D02*
X141861000Y-73632279D01*
X140841000Y-73306721D02*
X140841000Y-73632279D01*
X141861000Y-78132721D02*
X141861000Y-78458279D01*
X140841000Y-78132721D02*
X140841000Y-78458279D01*
X152525000Y-73632279D02*
X152525000Y-73306721D01*
X153545000Y-73632279D02*
X153545000Y-73306721D01*
D11*
X130278047Y-67825880D02*
X130611380Y-67349690D01*
X130849476Y-67825880D02*
X130849476Y-66825880D01*
X130468523Y-66825880D01*
X130373285Y-66873500D01*
X130325666Y-66921119D01*
X130278047Y-67016357D01*
X130278047Y-67159214D01*
X130325666Y-67254452D01*
X130373285Y-67302071D01*
X130468523Y-67349690D01*
X130849476Y-67349690D01*
X129373285Y-66825880D02*
X129849476Y-66825880D01*
X129897095Y-67302071D01*
X129849476Y-67254452D01*
X129754238Y-67206833D01*
X129516142Y-67206833D01*
X129420904Y-67254452D01*
X129373285Y-67302071D01*
X129325666Y-67397309D01*
X129325666Y-67635404D01*
X129373285Y-67730642D01*
X129420904Y-67778261D01*
X129516142Y-67825880D01*
X129754238Y-67825880D01*
X129849476Y-67778261D01*
X129897095Y-67730642D01*
X128706619Y-66825880D02*
X128611380Y-66825880D01*
X128516142Y-66873500D01*
X128468523Y-66921119D01*
X128420904Y-67016357D01*
X128373285Y-67206833D01*
X128373285Y-67444928D01*
X128420904Y-67635404D01*
X128468523Y-67730642D01*
X128516142Y-67778261D01*
X128611380Y-67825880D01*
X128706619Y-67825880D01*
X128801857Y-67778261D01*
X128849476Y-67730642D01*
X128897095Y-67635404D01*
X128944714Y-67444928D01*
X128944714Y-67206833D01*
X128897095Y-67016357D01*
X128849476Y-66921119D01*
X128801857Y-66873500D01*
X128706619Y-66825880D01*
X127516142Y-67159214D02*
X127516142Y-67825880D01*
X127754238Y-66778261D02*
X127992333Y-67492547D01*
X127373285Y-67492547D01*
X154662047Y-99829880D02*
X154995380Y-99353690D01*
X155233476Y-99829880D02*
X155233476Y-98829880D01*
X154852523Y-98829880D01*
X154757285Y-98877500D01*
X154709666Y-98925119D01*
X154662047Y-99020357D01*
X154662047Y-99163214D01*
X154709666Y-99258452D01*
X154757285Y-99306071D01*
X154852523Y-99353690D01*
X155233476Y-99353690D01*
X153804904Y-99163214D02*
X153804904Y-99829880D01*
X154043000Y-98782261D02*
X154281095Y-99496547D01*
X153662047Y-99496547D01*
X153090619Y-98829880D02*
X152995380Y-98829880D01*
X152900142Y-98877500D01*
X152852523Y-98925119D01*
X152804904Y-99020357D01*
X152757285Y-99210833D01*
X152757285Y-99448928D01*
X152804904Y-99639404D01*
X152852523Y-99734642D01*
X152900142Y-99782261D01*
X152995380Y-99829880D01*
X153090619Y-99829880D01*
X153185857Y-99782261D01*
X153233476Y-99734642D01*
X153281095Y-99639404D01*
X153328714Y-99448928D01*
X153328714Y-99210833D01*
X153281095Y-99020357D01*
X153233476Y-98925119D01*
X153185857Y-98877500D01*
X153090619Y-98829880D01*
X151900142Y-99163214D02*
X151900142Y-99829880D01*
X152138238Y-98782261D02*
X152376333Y-99496547D01*
X151757285Y-99496547D01*
X166583285Y-134007880D02*
X166583285Y-133007880D01*
X166202333Y-133007880D01*
X166107095Y-133055500D01*
X166059476Y-133103119D01*
X166011857Y-133198357D01*
X166011857Y-133341214D01*
X166059476Y-133436452D01*
X166107095Y-133484071D01*
X166202333Y-133531690D01*
X166583285Y-133531690D01*
X165392809Y-133007880D02*
X165297571Y-133007880D01*
X165202333Y-133055500D01*
X165154714Y-133103119D01*
X165107095Y-133198357D01*
X165059476Y-133388833D01*
X165059476Y-133626928D01*
X165107095Y-133817404D01*
X165154714Y-133912642D01*
X165202333Y-133960261D01*
X165297571Y-134007880D01*
X165392809Y-134007880D01*
X165488047Y-133960261D01*
X165535666Y-133912642D01*
X165583285Y-133817404D01*
X165630904Y-133626928D01*
X165630904Y-133388833D01*
X165583285Y-133198357D01*
X165535666Y-133103119D01*
X165488047Y-133055500D01*
X165392809Y-133007880D01*
X164202333Y-133341214D02*
X164202333Y-134007880D01*
X164440428Y-132960261D02*
X164678523Y-133674547D01*
X164059476Y-133674547D01*
X161083285Y-134007880D02*
X161083285Y-133007880D01*
X160702333Y-133007880D01*
X160607095Y-133055500D01*
X160559476Y-133103119D01*
X160511857Y-133198357D01*
X160511857Y-133341214D01*
X160559476Y-133436452D01*
X160607095Y-133484071D01*
X160702333Y-133531690D01*
X161083285Y-133531690D01*
X159892809Y-133007880D02*
X159797571Y-133007880D01*
X159702333Y-133055500D01*
X159654714Y-133103119D01*
X159607095Y-133198357D01*
X159559476Y-133388833D01*
X159559476Y-133626928D01*
X159607095Y-133817404D01*
X159654714Y-133912642D01*
X159702333Y-133960261D01*
X159797571Y-134007880D01*
X159892809Y-134007880D01*
X159988047Y-133960261D01*
X160035666Y-133912642D01*
X160083285Y-133817404D01*
X160130904Y-133626928D01*
X160130904Y-133388833D01*
X160083285Y-133198357D01*
X160035666Y-133103119D01*
X159988047Y-133055500D01*
X159892809Y-133007880D01*
X159226142Y-133007880D02*
X158607095Y-133007880D01*
X158940428Y-133388833D01*
X158797571Y-133388833D01*
X158702333Y-133436452D01*
X158654714Y-133484071D01*
X158607095Y-133579309D01*
X158607095Y-133817404D01*
X158654714Y-133912642D01*
X158702333Y-133960261D01*
X158797571Y-134007880D01*
X159083285Y-134007880D01*
X159178523Y-133960261D01*
X159226142Y-133912642D01*
X155683285Y-134007880D02*
X155683285Y-133007880D01*
X155302333Y-133007880D01*
X155207095Y-133055500D01*
X155159476Y-133103119D01*
X155111857Y-133198357D01*
X155111857Y-133341214D01*
X155159476Y-133436452D01*
X155207095Y-133484071D01*
X155302333Y-133531690D01*
X155683285Y-133531690D01*
X154492809Y-133007880D02*
X154397571Y-133007880D01*
X154302333Y-133055500D01*
X154254714Y-133103119D01*
X154207095Y-133198357D01*
X154159476Y-133388833D01*
X154159476Y-133626928D01*
X154207095Y-133817404D01*
X154254714Y-133912642D01*
X154302333Y-133960261D01*
X154397571Y-134007880D01*
X154492809Y-134007880D01*
X154588047Y-133960261D01*
X154635666Y-133912642D01*
X154683285Y-133817404D01*
X154730904Y-133626928D01*
X154730904Y-133388833D01*
X154683285Y-133198357D01*
X154635666Y-133103119D01*
X154588047Y-133055500D01*
X154492809Y-133007880D01*
X153778523Y-133103119D02*
X153730904Y-133055500D01*
X153635666Y-133007880D01*
X153397571Y-133007880D01*
X153302333Y-133055500D01*
X153254714Y-133103119D01*
X153207095Y-133198357D01*
X153207095Y-133293595D01*
X153254714Y-133436452D01*
X153826142Y-134007880D01*
X153207095Y-134007880D01*
X150083285Y-134007880D02*
X150083285Y-133007880D01*
X149702333Y-133007880D01*
X149607095Y-133055500D01*
X149559476Y-133103119D01*
X149511857Y-133198357D01*
X149511857Y-133341214D01*
X149559476Y-133436452D01*
X149607095Y-133484071D01*
X149702333Y-133531690D01*
X150083285Y-133531690D01*
X148892809Y-133007880D02*
X148797571Y-133007880D01*
X148702333Y-133055500D01*
X148654714Y-133103119D01*
X148607095Y-133198357D01*
X148559476Y-133388833D01*
X148559476Y-133626928D01*
X148607095Y-133817404D01*
X148654714Y-133912642D01*
X148702333Y-133960261D01*
X148797571Y-134007880D01*
X148892809Y-134007880D01*
X148988047Y-133960261D01*
X149035666Y-133912642D01*
X149083285Y-133817404D01*
X149130904Y-133626928D01*
X149130904Y-133388833D01*
X149083285Y-133198357D01*
X149035666Y-133103119D01*
X148988047Y-133055500D01*
X148892809Y-133007880D01*
X147607095Y-134007880D02*
X148178523Y-134007880D01*
X147892809Y-134007880D02*
X147892809Y-133007880D01*
X147988047Y-133150738D01*
X148083285Y-133245976D01*
X148178523Y-133293595D01*
X145430904Y-124503119D02*
X145383285Y-124455500D01*
X145288047Y-124407880D01*
X145049952Y-124407880D01*
X144954714Y-124455500D01*
X144907095Y-124503119D01*
X144859476Y-124598357D01*
X144859476Y-124693595D01*
X144907095Y-124836452D01*
X145478523Y-125407880D01*
X144859476Y-125407880D01*
X144002333Y-124741214D02*
X144002333Y-125407880D01*
X144240428Y-124360261D02*
X144478523Y-125074547D01*
X143859476Y-125074547D01*
X122859476Y-125407880D02*
X123430904Y-125407880D01*
X123145190Y-125407880D02*
X123145190Y-124407880D01*
X123240428Y-124550738D01*
X123335666Y-124645976D01*
X123430904Y-124693595D01*
X122526142Y-124407880D02*
X121859476Y-124407880D01*
X122288047Y-125407880D01*
X144764238Y-129936452D02*
X144859476Y-129888833D01*
X144907095Y-129841214D01*
X144954714Y-129745976D01*
X144954714Y-129698357D01*
X144907095Y-129603119D01*
X144859476Y-129555500D01*
X144764238Y-129507880D01*
X144573761Y-129507880D01*
X144478523Y-129555500D01*
X144430904Y-129603119D01*
X144383285Y-129698357D01*
X144383285Y-129745976D01*
X144430904Y-129841214D01*
X144478523Y-129888833D01*
X144573761Y-129936452D01*
X144764238Y-129936452D01*
X144859476Y-129984071D01*
X144907095Y-130031690D01*
X144954714Y-130126928D01*
X144954714Y-130317404D01*
X144907095Y-130412642D01*
X144859476Y-130460261D01*
X144764238Y-130507880D01*
X144573761Y-130507880D01*
X144478523Y-130460261D01*
X144430904Y-130412642D01*
X144383285Y-130317404D01*
X144383285Y-130126928D01*
X144430904Y-130031690D01*
X144478523Y-129984071D01*
X144573761Y-129936452D01*
X122383285Y-130407880D02*
X122954714Y-130407880D01*
X122669000Y-130407880D02*
X122669000Y-129407880D01*
X122764238Y-129550738D01*
X122859476Y-129645976D01*
X122954714Y-129693595D01*
X134596047Y-67730642D02*
X134643666Y-67778261D01*
X134786523Y-67825880D01*
X134881761Y-67825880D01*
X135024619Y-67778261D01*
X135119857Y-67683023D01*
X135167476Y-67587785D01*
X135215095Y-67397309D01*
X135215095Y-67254452D01*
X135167476Y-67063976D01*
X135119857Y-66968738D01*
X135024619Y-66873500D01*
X134881761Y-66825880D01*
X134786523Y-66825880D01*
X134643666Y-66873500D01*
X134596047Y-66921119D01*
X133691285Y-66825880D02*
X134167476Y-66825880D01*
X134215095Y-67302071D01*
X134167476Y-67254452D01*
X134072238Y-67206833D01*
X133834142Y-67206833D01*
X133738904Y-67254452D01*
X133691285Y-67302071D01*
X133643666Y-67397309D01*
X133643666Y-67635404D01*
X133691285Y-67730642D01*
X133738904Y-67778261D01*
X133834142Y-67825880D01*
X134072238Y-67825880D01*
X134167476Y-67778261D01*
X134215095Y-67730642D01*
X133024619Y-66825880D02*
X132929380Y-66825880D01*
X132834142Y-66873500D01*
X132786523Y-66921119D01*
X132738904Y-67016357D01*
X132691285Y-67206833D01*
X132691285Y-67444928D01*
X132738904Y-67635404D01*
X132786523Y-67730642D01*
X132834142Y-67778261D01*
X132929380Y-67825880D01*
X133024619Y-67825880D01*
X133119857Y-67778261D01*
X133167476Y-67730642D01*
X133215095Y-67635404D01*
X133262714Y-67444928D01*
X133262714Y-67206833D01*
X133215095Y-67016357D01*
X133167476Y-66921119D01*
X133119857Y-66873500D01*
X133024619Y-66825880D01*
X132310333Y-66921119D02*
X132262714Y-66873500D01*
X132167476Y-66825880D01*
X131929380Y-66825880D01*
X131834142Y-66873500D01*
X131786523Y-66921119D01*
X131738904Y-67016357D01*
X131738904Y-67111595D01*
X131786523Y-67254452D01*
X132357952Y-67825880D01*
X131738904Y-67825880D01*
X129008047Y-74428642D02*
X129055666Y-74476261D01*
X129198523Y-74523880D01*
X129293761Y-74523880D01*
X129436619Y-74476261D01*
X129531857Y-74381023D01*
X129579476Y-74285785D01*
X129627095Y-74095309D01*
X129627095Y-73952452D01*
X129579476Y-73761976D01*
X129531857Y-73666738D01*
X129436619Y-73571500D01*
X129293761Y-73523880D01*
X129198523Y-73523880D01*
X129055666Y-73571500D01*
X129008047Y-73619119D01*
X128103285Y-73523880D02*
X128579476Y-73523880D01*
X128627095Y-74000071D01*
X128579476Y-73952452D01*
X128484238Y-73904833D01*
X128246142Y-73904833D01*
X128150904Y-73952452D01*
X128103285Y-74000071D01*
X128055666Y-74095309D01*
X128055666Y-74333404D01*
X128103285Y-74428642D01*
X128150904Y-74476261D01*
X128246142Y-74523880D01*
X128484238Y-74523880D01*
X128579476Y-74476261D01*
X128627095Y-74428642D01*
X127436619Y-73523880D02*
X127341380Y-73523880D01*
X127246142Y-73571500D01*
X127198523Y-73619119D01*
X127150904Y-73714357D01*
X127103285Y-73904833D01*
X127103285Y-74142928D01*
X127150904Y-74333404D01*
X127198523Y-74428642D01*
X127246142Y-74476261D01*
X127341380Y-74523880D01*
X127436619Y-74523880D01*
X127531857Y-74476261D01*
X127579476Y-74428642D01*
X127627095Y-74333404D01*
X127674714Y-74142928D01*
X127674714Y-73904833D01*
X127627095Y-73714357D01*
X127579476Y-73619119D01*
X127531857Y-73571500D01*
X127436619Y-73523880D01*
X126150904Y-74523880D02*
X126722333Y-74523880D01*
X126436619Y-74523880D02*
X126436619Y-73523880D01*
X126531857Y-73666738D01*
X126627095Y-73761976D01*
X126722333Y-73809595D01*
X139041142Y-87463452D02*
X139088761Y-87415833D01*
X139136380Y-87272976D01*
X139136380Y-87177738D01*
X139088761Y-87034880D01*
X138993523Y-86939642D01*
X138898285Y-86892023D01*
X138707809Y-86844404D01*
X138564952Y-86844404D01*
X138374476Y-86892023D01*
X138279238Y-86939642D01*
X138184000Y-87034880D01*
X138136380Y-87177738D01*
X138136380Y-87272976D01*
X138184000Y-87415833D01*
X138231619Y-87463452D01*
X138469714Y-88320595D02*
X139136380Y-88320595D01*
X138088761Y-88082500D02*
X138803047Y-87844404D01*
X138803047Y-88463452D01*
X139136380Y-89368214D02*
X139136380Y-88796785D01*
X139136380Y-89082500D02*
X138136380Y-89082500D01*
X138279238Y-88987261D01*
X138374476Y-88892023D01*
X138422095Y-88796785D01*
X138136380Y-90225357D02*
X138136380Y-90034880D01*
X138184000Y-89939642D01*
X138231619Y-89892023D01*
X138374476Y-89796785D01*
X138564952Y-89749166D01*
X138945904Y-89749166D01*
X139041142Y-89796785D01*
X139088761Y-89844404D01*
X139136380Y-89939642D01*
X139136380Y-90130119D01*
X139088761Y-90225357D01*
X139041142Y-90272976D01*
X138945904Y-90320595D01*
X138707809Y-90320595D01*
X138612571Y-90272976D01*
X138564952Y-90225357D01*
X138517333Y-90130119D01*
X138517333Y-89939642D01*
X138564952Y-89844404D01*
X138612571Y-89796785D01*
X138707809Y-89749166D01*
X142216142Y-90638452D02*
X142263761Y-90590833D01*
X142311380Y-90447976D01*
X142311380Y-90352738D01*
X142263761Y-90209880D01*
X142168523Y-90114642D01*
X142073285Y-90067023D01*
X141882809Y-90019404D01*
X141739952Y-90019404D01*
X141549476Y-90067023D01*
X141454238Y-90114642D01*
X141359000Y-90209880D01*
X141311380Y-90352738D01*
X141311380Y-90447976D01*
X141359000Y-90590833D01*
X141406619Y-90638452D01*
X141644714Y-91495595D02*
X142311380Y-91495595D01*
X141263761Y-91257500D02*
X141978047Y-91019404D01*
X141978047Y-91638452D01*
X141311380Y-92209880D02*
X141311380Y-92305119D01*
X141359000Y-92400357D01*
X141406619Y-92447976D01*
X141501857Y-92495595D01*
X141692333Y-92543214D01*
X141930428Y-92543214D01*
X142120904Y-92495595D01*
X142216142Y-92447976D01*
X142263761Y-92400357D01*
X142311380Y-92305119D01*
X142311380Y-92209880D01*
X142263761Y-92114642D01*
X142216142Y-92067023D01*
X142120904Y-92019404D01*
X141930428Y-91971785D01*
X141692333Y-91971785D01*
X141501857Y-92019404D01*
X141406619Y-92067023D01*
X141359000Y-92114642D01*
X141311380Y-92209880D01*
X142311380Y-93019404D02*
X142311380Y-93209880D01*
X142263761Y-93305119D01*
X142216142Y-93352738D01*
X142073285Y-93447976D01*
X141882809Y-93495595D01*
X141501857Y-93495595D01*
X141406619Y-93447976D01*
X141359000Y-93400357D01*
X141311380Y-93305119D01*
X141311380Y-93114642D01*
X141359000Y-93019404D01*
X141406619Y-92971785D01*
X141501857Y-92924166D01*
X141739952Y-92924166D01*
X141835190Y-92971785D01*
X141882809Y-93019404D01*
X141930428Y-93114642D01*
X141930428Y-93305119D01*
X141882809Y-93400357D01*
X141835190Y-93447976D01*
X141739952Y-93495595D01*
X163806047Y-92622642D02*
X163853666Y-92670261D01*
X163996523Y-92717880D01*
X164091761Y-92717880D01*
X164234619Y-92670261D01*
X164329857Y-92575023D01*
X164377476Y-92479785D01*
X164425095Y-92289309D01*
X164425095Y-92146452D01*
X164377476Y-91955976D01*
X164329857Y-91860738D01*
X164234619Y-91765500D01*
X164091761Y-91717880D01*
X163996523Y-91717880D01*
X163853666Y-91765500D01*
X163806047Y-91813119D01*
X162948904Y-92051214D02*
X162948904Y-92717880D01*
X163187000Y-91670261D02*
X163425095Y-92384547D01*
X162806047Y-92384547D01*
X162234619Y-91717880D02*
X162139380Y-91717880D01*
X162044142Y-91765500D01*
X161996523Y-91813119D01*
X161948904Y-91908357D01*
X161901285Y-92098833D01*
X161901285Y-92336928D01*
X161948904Y-92527404D01*
X161996523Y-92622642D01*
X162044142Y-92670261D01*
X162139380Y-92717880D01*
X162234619Y-92717880D01*
X162329857Y-92670261D01*
X162377476Y-92622642D01*
X162425095Y-92527404D01*
X162472714Y-92336928D01*
X162472714Y-92098833D01*
X162425095Y-91908357D01*
X162377476Y-91813119D01*
X162329857Y-91765500D01*
X162234619Y-91717880D01*
X161329857Y-92146452D02*
X161425095Y-92098833D01*
X161472714Y-92051214D01*
X161520333Y-91955976D01*
X161520333Y-91908357D01*
X161472714Y-91813119D01*
X161425095Y-91765500D01*
X161329857Y-91717880D01*
X161139380Y-91717880D01*
X161044142Y-91765500D01*
X160996523Y-91813119D01*
X160948904Y-91908357D01*
X160948904Y-91955976D01*
X160996523Y-92051214D01*
X161044142Y-92098833D01*
X161139380Y-92146452D01*
X161329857Y-92146452D01*
X161425095Y-92194071D01*
X161472714Y-92241690D01*
X161520333Y-92336928D01*
X161520333Y-92527404D01*
X161472714Y-92622642D01*
X161425095Y-92670261D01*
X161329857Y-92717880D01*
X161139380Y-92717880D01*
X161044142Y-92670261D01*
X160996523Y-92622642D01*
X160948904Y-92527404D01*
X160948904Y-92336928D01*
X160996523Y-92241690D01*
X161044142Y-92194071D01*
X161139380Y-92146452D01*
X157489142Y-93076952D02*
X157536761Y-93029333D01*
X157584380Y-92886476D01*
X157584380Y-92791238D01*
X157536761Y-92648380D01*
X157441523Y-92553142D01*
X157346285Y-92505523D01*
X157155809Y-92457904D01*
X157012952Y-92457904D01*
X156822476Y-92505523D01*
X156727238Y-92553142D01*
X156632000Y-92648380D01*
X156584380Y-92791238D01*
X156584380Y-92886476D01*
X156632000Y-93029333D01*
X156679619Y-93076952D01*
X156917714Y-93934095D02*
X157584380Y-93934095D01*
X156536761Y-93696000D02*
X157251047Y-93457904D01*
X157251047Y-94076952D01*
X156584380Y-94648380D02*
X156584380Y-94743619D01*
X156632000Y-94838857D01*
X156679619Y-94886476D01*
X156774857Y-94934095D01*
X156965333Y-94981714D01*
X157203428Y-94981714D01*
X157393904Y-94934095D01*
X157489142Y-94886476D01*
X157536761Y-94838857D01*
X157584380Y-94743619D01*
X157584380Y-94648380D01*
X157536761Y-94553142D01*
X157489142Y-94505523D01*
X157393904Y-94457904D01*
X157203428Y-94410285D01*
X156965333Y-94410285D01*
X156774857Y-94457904D01*
X156679619Y-94505523D01*
X156632000Y-94553142D01*
X156584380Y-94648380D01*
X156584380Y-95315047D02*
X156584380Y-95981714D01*
X157584380Y-95553142D01*
X164060047Y-90844642D02*
X164107666Y-90892261D01*
X164250523Y-90939880D01*
X164345761Y-90939880D01*
X164488619Y-90892261D01*
X164583857Y-90797023D01*
X164631476Y-90701785D01*
X164679095Y-90511309D01*
X164679095Y-90368452D01*
X164631476Y-90177976D01*
X164583857Y-90082738D01*
X164488619Y-89987500D01*
X164345761Y-89939880D01*
X164250523Y-89939880D01*
X164107666Y-89987500D01*
X164060047Y-90035119D01*
X163202904Y-90273214D02*
X163202904Y-90939880D01*
X163441000Y-89892261D02*
X163679095Y-90606547D01*
X163060047Y-90606547D01*
X162488619Y-89939880D02*
X162393380Y-89939880D01*
X162298142Y-89987500D01*
X162250523Y-90035119D01*
X162202904Y-90130357D01*
X162155285Y-90320833D01*
X162155285Y-90558928D01*
X162202904Y-90749404D01*
X162250523Y-90844642D01*
X162298142Y-90892261D01*
X162393380Y-90939880D01*
X162488619Y-90939880D01*
X162583857Y-90892261D01*
X162631476Y-90844642D01*
X162679095Y-90749404D01*
X162726714Y-90558928D01*
X162726714Y-90320833D01*
X162679095Y-90130357D01*
X162631476Y-90035119D01*
X162583857Y-89987500D01*
X162488619Y-89939880D01*
X161298142Y-89939880D02*
X161488619Y-89939880D01*
X161583857Y-89987500D01*
X161631476Y-90035119D01*
X161726714Y-90177976D01*
X161774333Y-90368452D01*
X161774333Y-90749404D01*
X161726714Y-90844642D01*
X161679095Y-90892261D01*
X161583857Y-90939880D01*
X161393380Y-90939880D01*
X161298142Y-90892261D01*
X161250523Y-90844642D01*
X161202904Y-90749404D01*
X161202904Y-90511309D01*
X161250523Y-90416071D01*
X161298142Y-90368452D01*
X161393380Y-90320833D01*
X161583857Y-90320833D01*
X161679095Y-90368452D01*
X161726714Y-90416071D01*
X161774333Y-90511309D01*
X141995142Y-93838952D02*
X142042761Y-93791333D01*
X142090380Y-93648476D01*
X142090380Y-93553238D01*
X142042761Y-93410380D01*
X141947523Y-93315142D01*
X141852285Y-93267523D01*
X141661809Y-93219904D01*
X141518952Y-93219904D01*
X141328476Y-93267523D01*
X141233238Y-93315142D01*
X141138000Y-93410380D01*
X141090380Y-93553238D01*
X141090380Y-93648476D01*
X141138000Y-93791333D01*
X141185619Y-93838952D01*
X141423714Y-94696095D02*
X142090380Y-94696095D01*
X141042761Y-94458000D02*
X141757047Y-94219904D01*
X141757047Y-94838952D01*
X141090380Y-95410380D02*
X141090380Y-95505619D01*
X141138000Y-95600857D01*
X141185619Y-95648476D01*
X141280857Y-95696095D01*
X141471333Y-95743714D01*
X141709428Y-95743714D01*
X141899904Y-95696095D01*
X141995142Y-95648476D01*
X142042761Y-95600857D01*
X142090380Y-95505619D01*
X142090380Y-95410380D01*
X142042761Y-95315142D01*
X141995142Y-95267523D01*
X141899904Y-95219904D01*
X141709428Y-95172285D01*
X141471333Y-95172285D01*
X141280857Y-95219904D01*
X141185619Y-95267523D01*
X141138000Y-95315142D01*
X141090380Y-95410380D01*
X141090380Y-96648476D02*
X141090380Y-96172285D01*
X141566571Y-96124666D01*
X141518952Y-96172285D01*
X141471333Y-96267523D01*
X141471333Y-96505619D01*
X141518952Y-96600857D01*
X141566571Y-96648476D01*
X141661809Y-96696095D01*
X141899904Y-96696095D01*
X141995142Y-96648476D01*
X142042761Y-96600857D01*
X142090380Y-96505619D01*
X142090380Y-96267523D01*
X142042761Y-96172285D01*
X141995142Y-96124666D01*
X164060047Y-89066642D02*
X164107666Y-89114261D01*
X164250523Y-89161880D01*
X164345761Y-89161880D01*
X164488619Y-89114261D01*
X164583857Y-89019023D01*
X164631476Y-88923785D01*
X164679095Y-88733309D01*
X164679095Y-88590452D01*
X164631476Y-88399976D01*
X164583857Y-88304738D01*
X164488619Y-88209500D01*
X164345761Y-88161880D01*
X164250523Y-88161880D01*
X164107666Y-88209500D01*
X164060047Y-88257119D01*
X163202904Y-88495214D02*
X163202904Y-89161880D01*
X163441000Y-88114261D02*
X163679095Y-88828547D01*
X163060047Y-88828547D01*
X162488619Y-88161880D02*
X162393380Y-88161880D01*
X162298142Y-88209500D01*
X162250523Y-88257119D01*
X162202904Y-88352357D01*
X162155285Y-88542833D01*
X162155285Y-88780928D01*
X162202904Y-88971404D01*
X162250523Y-89066642D01*
X162298142Y-89114261D01*
X162393380Y-89161880D01*
X162488619Y-89161880D01*
X162583857Y-89114261D01*
X162631476Y-89066642D01*
X162679095Y-88971404D01*
X162726714Y-88780928D01*
X162726714Y-88542833D01*
X162679095Y-88352357D01*
X162631476Y-88257119D01*
X162583857Y-88209500D01*
X162488619Y-88161880D01*
X161298142Y-88495214D02*
X161298142Y-89161880D01*
X161536238Y-88114261D02*
X161774333Y-88828547D01*
X161155285Y-88828547D01*
X148591547Y-102815642D02*
X148639166Y-102863261D01*
X148782023Y-102910880D01*
X148877261Y-102910880D01*
X149020119Y-102863261D01*
X149115357Y-102768023D01*
X149162976Y-102672785D01*
X149210595Y-102482309D01*
X149210595Y-102339452D01*
X149162976Y-102148976D01*
X149115357Y-102053738D01*
X149020119Y-101958500D01*
X148877261Y-101910880D01*
X148782023Y-101910880D01*
X148639166Y-101958500D01*
X148591547Y-102006119D01*
X147734404Y-102244214D02*
X147734404Y-102910880D01*
X147972500Y-101863261D02*
X148210595Y-102577547D01*
X147591547Y-102577547D01*
X147020119Y-101910880D02*
X146924880Y-101910880D01*
X146829642Y-101958500D01*
X146782023Y-102006119D01*
X146734404Y-102101357D01*
X146686785Y-102291833D01*
X146686785Y-102529928D01*
X146734404Y-102720404D01*
X146782023Y-102815642D01*
X146829642Y-102863261D01*
X146924880Y-102910880D01*
X147020119Y-102910880D01*
X147115357Y-102863261D01*
X147162976Y-102815642D01*
X147210595Y-102720404D01*
X147258214Y-102529928D01*
X147258214Y-102291833D01*
X147210595Y-102101357D01*
X147162976Y-102006119D01*
X147115357Y-101958500D01*
X147020119Y-101910880D01*
X146353452Y-101910880D02*
X145734404Y-101910880D01*
X146067738Y-102291833D01*
X145924880Y-102291833D01*
X145829642Y-102339452D01*
X145782023Y-102387071D01*
X145734404Y-102482309D01*
X145734404Y-102720404D01*
X145782023Y-102815642D01*
X145829642Y-102863261D01*
X145924880Y-102910880D01*
X146210595Y-102910880D01*
X146305833Y-102863261D01*
X146353452Y-102815642D01*
X151868142Y-68286452D02*
X151915761Y-68238833D01*
X151963380Y-68095976D01*
X151963380Y-68000738D01*
X151915761Y-67857880D01*
X151820523Y-67762642D01*
X151725285Y-67715023D01*
X151534809Y-67667404D01*
X151391952Y-67667404D01*
X151201476Y-67715023D01*
X151106238Y-67762642D01*
X151011000Y-67857880D01*
X150963380Y-68000738D01*
X150963380Y-68095976D01*
X151011000Y-68238833D01*
X151058619Y-68286452D01*
X151058619Y-68667404D02*
X151011000Y-68715023D01*
X150963380Y-68810261D01*
X150963380Y-69048357D01*
X151011000Y-69143595D01*
X151058619Y-69191214D01*
X151153857Y-69238833D01*
X151249095Y-69238833D01*
X151391952Y-69191214D01*
X151963380Y-68619785D01*
X151963380Y-69238833D01*
X150963380Y-69857880D02*
X150963380Y-69953119D01*
X151011000Y-70048357D01*
X151058619Y-70095976D01*
X151153857Y-70143595D01*
X151344333Y-70191214D01*
X151582428Y-70191214D01*
X151772904Y-70143595D01*
X151868142Y-70095976D01*
X151915761Y-70048357D01*
X151963380Y-69953119D01*
X151963380Y-69857880D01*
X151915761Y-69762642D01*
X151868142Y-69715023D01*
X151772904Y-69667404D01*
X151582428Y-69619785D01*
X151344333Y-69619785D01*
X151153857Y-69667404D01*
X151058619Y-69715023D01*
X151011000Y-69762642D01*
X150963380Y-69857880D01*
X150963380Y-70524547D02*
X150963380Y-71191214D01*
X151963380Y-70762642D01*
X151868142Y-77176452D02*
X151915761Y-77128833D01*
X151963380Y-76985976D01*
X151963380Y-76890738D01*
X151915761Y-76747880D01*
X151820523Y-76652642D01*
X151725285Y-76605023D01*
X151534809Y-76557404D01*
X151391952Y-76557404D01*
X151201476Y-76605023D01*
X151106238Y-76652642D01*
X151011000Y-76747880D01*
X150963380Y-76890738D01*
X150963380Y-76985976D01*
X151011000Y-77128833D01*
X151058619Y-77176452D01*
X151058619Y-77557404D02*
X151011000Y-77605023D01*
X150963380Y-77700261D01*
X150963380Y-77938357D01*
X151011000Y-78033595D01*
X151058619Y-78081214D01*
X151153857Y-78128833D01*
X151249095Y-78128833D01*
X151391952Y-78081214D01*
X151963380Y-77509785D01*
X151963380Y-78128833D01*
X150963380Y-78747880D02*
X150963380Y-78843119D01*
X151011000Y-78938357D01*
X151058619Y-78985976D01*
X151153857Y-79033595D01*
X151344333Y-79081214D01*
X151582428Y-79081214D01*
X151772904Y-79033595D01*
X151868142Y-78985976D01*
X151915761Y-78938357D01*
X151963380Y-78843119D01*
X151963380Y-78747880D01*
X151915761Y-78652642D01*
X151868142Y-78605023D01*
X151772904Y-78557404D01*
X151582428Y-78509785D01*
X151344333Y-78509785D01*
X151153857Y-78557404D01*
X151058619Y-78605023D01*
X151011000Y-78652642D01*
X150963380Y-78747880D01*
X150963380Y-79938357D02*
X150963380Y-79747880D01*
X151011000Y-79652642D01*
X151058619Y-79605023D01*
X151201476Y-79509785D01*
X151391952Y-79462166D01*
X151772904Y-79462166D01*
X151868142Y-79509785D01*
X151915761Y-79557404D01*
X151963380Y-79652642D01*
X151963380Y-79843119D01*
X151915761Y-79938357D01*
X151868142Y-79985976D01*
X151772904Y-80033595D01*
X151534809Y-80033595D01*
X151439571Y-79985976D01*
X151391952Y-79938357D01*
X151344333Y-79843119D01*
X151344333Y-79652642D01*
X151391952Y-79557404D01*
X151439571Y-79509785D01*
X151534809Y-79462166D01*
X143138142Y-60412452D02*
X143185761Y-60364833D01*
X143233380Y-60221976D01*
X143233380Y-60126738D01*
X143185761Y-59983880D01*
X143090523Y-59888642D01*
X142995285Y-59841023D01*
X142804809Y-59793404D01*
X142661952Y-59793404D01*
X142471476Y-59841023D01*
X142376238Y-59888642D01*
X142281000Y-59983880D01*
X142233380Y-60126738D01*
X142233380Y-60221976D01*
X142281000Y-60364833D01*
X142328619Y-60412452D01*
X142328619Y-60793404D02*
X142281000Y-60841023D01*
X142233380Y-60936261D01*
X142233380Y-61174357D01*
X142281000Y-61269595D01*
X142328619Y-61317214D01*
X142423857Y-61364833D01*
X142519095Y-61364833D01*
X142661952Y-61317214D01*
X143233380Y-60745785D01*
X143233380Y-61364833D01*
X142233380Y-61983880D02*
X142233380Y-62079119D01*
X142281000Y-62174357D01*
X142328619Y-62221976D01*
X142423857Y-62269595D01*
X142614333Y-62317214D01*
X142852428Y-62317214D01*
X143042904Y-62269595D01*
X143138142Y-62221976D01*
X143185761Y-62174357D01*
X143233380Y-62079119D01*
X143233380Y-61983880D01*
X143185761Y-61888642D01*
X143138142Y-61841023D01*
X143042904Y-61793404D01*
X142852428Y-61745785D01*
X142614333Y-61745785D01*
X142423857Y-61793404D01*
X142328619Y-61841023D01*
X142281000Y-61888642D01*
X142233380Y-61983880D01*
X142233380Y-63221976D02*
X142233380Y-62745785D01*
X142709571Y-62698166D01*
X142661952Y-62745785D01*
X142614333Y-62841023D01*
X142614333Y-63079119D01*
X142661952Y-63174357D01*
X142709571Y-63221976D01*
X142804809Y-63269595D01*
X143042904Y-63269595D01*
X143138142Y-63221976D01*
X143185761Y-63174357D01*
X143233380Y-63079119D01*
X143233380Y-62841023D01*
X143185761Y-62745785D01*
X143138142Y-62698166D01*
X151962142Y-60412452D02*
X152009761Y-60364833D01*
X152057380Y-60221976D01*
X152057380Y-60126738D01*
X152009761Y-59983880D01*
X151914523Y-59888642D01*
X151819285Y-59841023D01*
X151628809Y-59793404D01*
X151485952Y-59793404D01*
X151295476Y-59841023D01*
X151200238Y-59888642D01*
X151105000Y-59983880D01*
X151057380Y-60126738D01*
X151057380Y-60221976D01*
X151105000Y-60364833D01*
X151152619Y-60412452D01*
X151152619Y-60793404D02*
X151105000Y-60841023D01*
X151057380Y-60936261D01*
X151057380Y-61174357D01*
X151105000Y-61269595D01*
X151152619Y-61317214D01*
X151247857Y-61364833D01*
X151343095Y-61364833D01*
X151485952Y-61317214D01*
X152057380Y-60745785D01*
X152057380Y-61364833D01*
X151057380Y-61983880D02*
X151057380Y-62079119D01*
X151105000Y-62174357D01*
X151152619Y-62221976D01*
X151247857Y-62269595D01*
X151438333Y-62317214D01*
X151676428Y-62317214D01*
X151866904Y-62269595D01*
X151962142Y-62221976D01*
X152009761Y-62174357D01*
X152057380Y-62079119D01*
X152057380Y-61983880D01*
X152009761Y-61888642D01*
X151962142Y-61841023D01*
X151866904Y-61793404D01*
X151676428Y-61745785D01*
X151438333Y-61745785D01*
X151247857Y-61793404D01*
X151152619Y-61841023D01*
X151105000Y-61888642D01*
X151057380Y-61983880D01*
X151390714Y-63174357D02*
X152057380Y-63174357D01*
X151009761Y-62936261D02*
X151724047Y-62698166D01*
X151724047Y-63317214D01*
X143232142Y-72350452D02*
X143279761Y-72302833D01*
X143327380Y-72159976D01*
X143327380Y-72064738D01*
X143279761Y-71921880D01*
X143184523Y-71826642D01*
X143089285Y-71779023D01*
X142898809Y-71731404D01*
X142755952Y-71731404D01*
X142565476Y-71779023D01*
X142470238Y-71826642D01*
X142375000Y-71921880D01*
X142327380Y-72064738D01*
X142327380Y-72159976D01*
X142375000Y-72302833D01*
X142422619Y-72350452D01*
X142422619Y-72731404D02*
X142375000Y-72779023D01*
X142327380Y-72874261D01*
X142327380Y-73112357D01*
X142375000Y-73207595D01*
X142422619Y-73255214D01*
X142517857Y-73302833D01*
X142613095Y-73302833D01*
X142755952Y-73255214D01*
X143327380Y-72683785D01*
X143327380Y-73302833D01*
X142327380Y-73921880D02*
X142327380Y-74017119D01*
X142375000Y-74112357D01*
X142422619Y-74159976D01*
X142517857Y-74207595D01*
X142708333Y-74255214D01*
X142946428Y-74255214D01*
X143136904Y-74207595D01*
X143232142Y-74159976D01*
X143279761Y-74112357D01*
X143327380Y-74017119D01*
X143327380Y-73921880D01*
X143279761Y-73826642D01*
X143232142Y-73779023D01*
X143136904Y-73731404D01*
X142946428Y-73683785D01*
X142708333Y-73683785D01*
X142517857Y-73731404D01*
X142422619Y-73779023D01*
X142375000Y-73826642D01*
X142327380Y-73921880D01*
X142327380Y-74588547D02*
X142327380Y-75207595D01*
X142708333Y-74874261D01*
X142708333Y-75017119D01*
X142755952Y-75112357D01*
X142803571Y-75159976D01*
X142898809Y-75207595D01*
X143136904Y-75207595D01*
X143232142Y-75159976D01*
X143279761Y-75112357D01*
X143327380Y-75017119D01*
X143327380Y-74731404D01*
X143279761Y-74636166D01*
X143232142Y-74588547D01*
X143232142Y-77176452D02*
X143279761Y-77128833D01*
X143327380Y-76985976D01*
X143327380Y-76890738D01*
X143279761Y-76747880D01*
X143184523Y-76652642D01*
X143089285Y-76605023D01*
X142898809Y-76557404D01*
X142755952Y-76557404D01*
X142565476Y-76605023D01*
X142470238Y-76652642D01*
X142375000Y-76747880D01*
X142327380Y-76890738D01*
X142327380Y-76985976D01*
X142375000Y-77128833D01*
X142422619Y-77176452D01*
X142422619Y-77557404D02*
X142375000Y-77605023D01*
X142327380Y-77700261D01*
X142327380Y-77938357D01*
X142375000Y-78033595D01*
X142422619Y-78081214D01*
X142517857Y-78128833D01*
X142613095Y-78128833D01*
X142755952Y-78081214D01*
X143327380Y-77509785D01*
X143327380Y-78128833D01*
X142327380Y-78747880D02*
X142327380Y-78843119D01*
X142375000Y-78938357D01*
X142422619Y-78985976D01*
X142517857Y-79033595D01*
X142708333Y-79081214D01*
X142946428Y-79081214D01*
X143136904Y-79033595D01*
X143232142Y-78985976D01*
X143279761Y-78938357D01*
X143327380Y-78843119D01*
X143327380Y-78747880D01*
X143279761Y-78652642D01*
X143232142Y-78605023D01*
X143136904Y-78557404D01*
X142946428Y-78509785D01*
X142708333Y-78509785D01*
X142517857Y-78557404D01*
X142422619Y-78605023D01*
X142375000Y-78652642D01*
X142327380Y-78747880D01*
X142422619Y-79462166D02*
X142375000Y-79509785D01*
X142327380Y-79605023D01*
X142327380Y-79843119D01*
X142375000Y-79938357D01*
X142422619Y-79985976D01*
X142517857Y-80033595D01*
X142613095Y-80033595D01*
X142755952Y-79985976D01*
X143327380Y-79414547D01*
X143327380Y-80033595D01*
X151868142Y-72096452D02*
X151915761Y-72048833D01*
X151963380Y-71905976D01*
X151963380Y-71810738D01*
X151915761Y-71667880D01*
X151820523Y-71572642D01*
X151725285Y-71525023D01*
X151534809Y-71477404D01*
X151391952Y-71477404D01*
X151201476Y-71525023D01*
X151106238Y-71572642D01*
X151011000Y-71667880D01*
X150963380Y-71810738D01*
X150963380Y-71905976D01*
X151011000Y-72048833D01*
X151058619Y-72096452D01*
X151058619Y-72477404D02*
X151011000Y-72525023D01*
X150963380Y-72620261D01*
X150963380Y-72858357D01*
X151011000Y-72953595D01*
X151058619Y-73001214D01*
X151153857Y-73048833D01*
X151249095Y-73048833D01*
X151391952Y-73001214D01*
X151963380Y-72429785D01*
X151963380Y-73048833D01*
X150963380Y-73667880D02*
X150963380Y-73763119D01*
X151011000Y-73858357D01*
X151058619Y-73905976D01*
X151153857Y-73953595D01*
X151344333Y-74001214D01*
X151582428Y-74001214D01*
X151772904Y-73953595D01*
X151868142Y-73905976D01*
X151915761Y-73858357D01*
X151963380Y-73763119D01*
X151963380Y-73667880D01*
X151915761Y-73572642D01*
X151868142Y-73525023D01*
X151772904Y-73477404D01*
X151582428Y-73429785D01*
X151344333Y-73429785D01*
X151153857Y-73477404D01*
X151058619Y-73525023D01*
X151011000Y-73572642D01*
X150963380Y-73667880D01*
X151963380Y-74953595D02*
X151963380Y-74382166D01*
X151963380Y-74667880D02*
X150963380Y-74667880D01*
X151106238Y-74572642D01*
X151201476Y-74477404D01*
X151249095Y-74382166D01*
M02*
