G04 #@! TF.GenerationSoftware,KiCad,Pcbnew,5.1.2*
G04 #@! TF.CreationDate,2019-07-22T21:22:39-05:00*
G04 #@! TF.ProjectId,Raptor2000,52617074-6f72-4323-9030-302e6b696361,A*
G04 #@! TF.SameCoordinates,Original*
G04 #@! TF.FileFunction,Soldermask,Bot*
G04 #@! TF.FilePolarity,Negative*
%FSLAX46Y46*%
G04 Gerber Fmt 4.6, Leading zero omitted, Abs format (unit mm)*
G04 Created by KiCad (PCBNEW 5.1.2) date 2019-07-22 21:22:39*
%MOMM*%
%LPD*%
G04 APERTURE LIST*
%ADD10C,0.100000*%
G04 APERTURE END LIST*
D10*
G36*
X167175506Y-130545081D02*
G01*
X167287528Y-130591482D01*
X167366740Y-130624293D01*
X167481737Y-130701132D01*
X167517975Y-130725345D01*
X167538846Y-130739291D01*
X167685209Y-130885654D01*
X167800207Y-131057760D01*
X167820313Y-131106300D01*
X167879419Y-131248994D01*
X167919800Y-131452004D01*
X167919800Y-131658996D01*
X167879419Y-131862006D01*
X167833018Y-131974028D01*
X167800207Y-132053240D01*
X167685209Y-132225346D01*
X167538846Y-132371709D01*
X167366740Y-132486707D01*
X167287528Y-132519518D01*
X167175506Y-132565919D01*
X166972496Y-132606300D01*
X166765504Y-132606300D01*
X166562494Y-132565919D01*
X166450472Y-132519518D01*
X166371260Y-132486707D01*
X166199154Y-132371709D01*
X166052791Y-132225346D01*
X165937793Y-132053240D01*
X165904982Y-131974028D01*
X165858581Y-131862006D01*
X165818200Y-131658996D01*
X165818200Y-131452004D01*
X165858581Y-131248994D01*
X165917687Y-131106300D01*
X165937793Y-131057760D01*
X166052791Y-130885654D01*
X166199154Y-130739291D01*
X166220026Y-130725345D01*
X166256263Y-130701132D01*
X166371260Y-130624293D01*
X166450472Y-130591482D01*
X166562494Y-130545081D01*
X166765504Y-130504700D01*
X166972496Y-130504700D01*
X167175506Y-130545081D01*
X167175506Y-130545081D01*
G37*
G36*
X161675506Y-130545081D02*
G01*
X161787528Y-130591482D01*
X161866740Y-130624293D01*
X161981737Y-130701132D01*
X162017975Y-130725345D01*
X162038846Y-130739291D01*
X162185209Y-130885654D01*
X162300207Y-131057760D01*
X162320313Y-131106300D01*
X162379419Y-131248994D01*
X162419800Y-131452004D01*
X162419800Y-131658996D01*
X162379419Y-131862006D01*
X162333018Y-131974028D01*
X162300207Y-132053240D01*
X162185209Y-132225346D01*
X162038846Y-132371709D01*
X161866740Y-132486707D01*
X161787528Y-132519518D01*
X161675506Y-132565919D01*
X161472496Y-132606300D01*
X161265504Y-132606300D01*
X161062494Y-132565919D01*
X160950472Y-132519518D01*
X160871260Y-132486707D01*
X160699154Y-132371709D01*
X160552791Y-132225346D01*
X160437793Y-132053240D01*
X160404982Y-131974028D01*
X160358581Y-131862006D01*
X160318200Y-131658996D01*
X160318200Y-131452004D01*
X160358581Y-131248994D01*
X160417687Y-131106300D01*
X160437793Y-131057760D01*
X160552791Y-130885654D01*
X160699154Y-130739291D01*
X160720026Y-130725345D01*
X160756263Y-130701132D01*
X160871260Y-130624293D01*
X160950472Y-130591482D01*
X161062494Y-130545081D01*
X161265504Y-130504700D01*
X161472496Y-130504700D01*
X161675506Y-130545081D01*
X161675506Y-130545081D01*
G37*
G36*
X158675506Y-130545081D02*
G01*
X158787528Y-130591482D01*
X158866740Y-130624293D01*
X158981737Y-130701132D01*
X159017975Y-130725345D01*
X159038846Y-130739291D01*
X159185209Y-130885654D01*
X159300207Y-131057760D01*
X159320313Y-131106300D01*
X159379419Y-131248994D01*
X159419800Y-131452004D01*
X159419800Y-131658996D01*
X159379419Y-131862006D01*
X159333018Y-131974028D01*
X159300207Y-132053240D01*
X159185209Y-132225346D01*
X159038846Y-132371709D01*
X158866740Y-132486707D01*
X158787528Y-132519518D01*
X158675506Y-132565919D01*
X158472496Y-132606300D01*
X158265504Y-132606300D01*
X158062494Y-132565919D01*
X157950472Y-132519518D01*
X157871260Y-132486707D01*
X157699154Y-132371709D01*
X157552791Y-132225346D01*
X157437793Y-132053240D01*
X157404982Y-131974028D01*
X157358581Y-131862006D01*
X157318200Y-131658996D01*
X157318200Y-131452004D01*
X157358581Y-131248994D01*
X157417687Y-131106300D01*
X157437793Y-131057760D01*
X157552791Y-130885654D01*
X157699154Y-130739291D01*
X157720026Y-130725345D01*
X157756263Y-130701132D01*
X157871260Y-130624293D01*
X157950472Y-130591482D01*
X158062494Y-130545081D01*
X158265504Y-130504700D01*
X158472496Y-130504700D01*
X158675506Y-130545081D01*
X158675506Y-130545081D01*
G37*
G36*
X156175506Y-130545081D02*
G01*
X156287528Y-130591482D01*
X156366740Y-130624293D01*
X156481737Y-130701132D01*
X156517975Y-130725345D01*
X156538846Y-130739291D01*
X156685209Y-130885654D01*
X156800207Y-131057760D01*
X156820313Y-131106300D01*
X156879419Y-131248994D01*
X156919800Y-131452004D01*
X156919800Y-131658996D01*
X156879419Y-131862006D01*
X156833018Y-131974028D01*
X156800207Y-132053240D01*
X156685209Y-132225346D01*
X156538846Y-132371709D01*
X156366740Y-132486707D01*
X156287528Y-132519518D01*
X156175506Y-132565919D01*
X155972496Y-132606300D01*
X155765504Y-132606300D01*
X155562494Y-132565919D01*
X155450472Y-132519518D01*
X155371260Y-132486707D01*
X155199154Y-132371709D01*
X155052791Y-132225346D01*
X154937793Y-132053240D01*
X154904982Y-131974028D01*
X154858581Y-131862006D01*
X154818200Y-131658996D01*
X154818200Y-131452004D01*
X154858581Y-131248994D01*
X154917687Y-131106300D01*
X154937793Y-131057760D01*
X155052791Y-130885654D01*
X155199154Y-130739291D01*
X155220026Y-130725345D01*
X155256263Y-130701132D01*
X155371260Y-130624293D01*
X155450472Y-130591482D01*
X155562494Y-130545081D01*
X155765504Y-130504700D01*
X155972496Y-130504700D01*
X156175506Y-130545081D01*
X156175506Y-130545081D01*
G37*
G36*
X153175506Y-130545081D02*
G01*
X153287528Y-130591482D01*
X153366740Y-130624293D01*
X153481737Y-130701132D01*
X153517975Y-130725345D01*
X153538846Y-130739291D01*
X153685209Y-130885654D01*
X153800207Y-131057760D01*
X153820313Y-131106300D01*
X153879419Y-131248994D01*
X153919800Y-131452004D01*
X153919800Y-131658996D01*
X153879419Y-131862006D01*
X153833018Y-131974028D01*
X153800207Y-132053240D01*
X153685209Y-132225346D01*
X153538846Y-132371709D01*
X153366740Y-132486707D01*
X153287528Y-132519518D01*
X153175506Y-132565919D01*
X152972496Y-132606300D01*
X152765504Y-132606300D01*
X152562494Y-132565919D01*
X152450472Y-132519518D01*
X152371260Y-132486707D01*
X152199154Y-132371709D01*
X152052791Y-132225346D01*
X151937793Y-132053240D01*
X151904982Y-131974028D01*
X151858581Y-131862006D01*
X151818200Y-131658996D01*
X151818200Y-131452004D01*
X151858581Y-131248994D01*
X151917687Y-131106300D01*
X151937793Y-131057760D01*
X152052791Y-130885654D01*
X152199154Y-130739291D01*
X152220026Y-130725345D01*
X152256263Y-130701132D01*
X152371260Y-130624293D01*
X152450472Y-130591482D01*
X152562494Y-130545081D01*
X152765504Y-130504700D01*
X152972496Y-130504700D01*
X153175506Y-130545081D01*
X153175506Y-130545081D01*
G37*
G36*
X150675506Y-130545081D02*
G01*
X150787528Y-130591482D01*
X150866740Y-130624293D01*
X150981737Y-130701132D01*
X151017975Y-130725345D01*
X151038846Y-130739291D01*
X151185209Y-130885654D01*
X151300207Y-131057760D01*
X151320313Y-131106300D01*
X151379419Y-131248994D01*
X151419800Y-131452004D01*
X151419800Y-131658996D01*
X151379419Y-131862006D01*
X151333018Y-131974028D01*
X151300207Y-132053240D01*
X151185209Y-132225346D01*
X151038846Y-132371709D01*
X150866740Y-132486707D01*
X150787528Y-132519518D01*
X150675506Y-132565919D01*
X150472496Y-132606300D01*
X150265504Y-132606300D01*
X150062494Y-132565919D01*
X149950472Y-132519518D01*
X149871260Y-132486707D01*
X149699154Y-132371709D01*
X149552791Y-132225346D01*
X149437793Y-132053240D01*
X149404982Y-131974028D01*
X149358581Y-131862006D01*
X149318200Y-131658996D01*
X149318200Y-131452004D01*
X149358581Y-131248994D01*
X149417687Y-131106300D01*
X149437793Y-131057760D01*
X149552791Y-130885654D01*
X149699154Y-130739291D01*
X149720026Y-130725345D01*
X149756263Y-130701132D01*
X149871260Y-130624293D01*
X149950472Y-130591482D01*
X150062494Y-130545081D01*
X150265504Y-130504700D01*
X150472496Y-130504700D01*
X150675506Y-130545081D01*
X150675506Y-130545081D01*
G37*
G36*
X147675506Y-130545081D02*
G01*
X147787528Y-130591482D01*
X147866740Y-130624293D01*
X147981737Y-130701132D01*
X148017975Y-130725345D01*
X148038846Y-130739291D01*
X148185209Y-130885654D01*
X148300207Y-131057760D01*
X148320313Y-131106300D01*
X148379419Y-131248994D01*
X148419800Y-131452004D01*
X148419800Y-131658996D01*
X148379419Y-131862006D01*
X148333018Y-131974028D01*
X148300207Y-132053240D01*
X148185209Y-132225346D01*
X148038846Y-132371709D01*
X147866740Y-132486707D01*
X147787528Y-132519518D01*
X147675506Y-132565919D01*
X147472496Y-132606300D01*
X147265504Y-132606300D01*
X147062494Y-132565919D01*
X146950472Y-132519518D01*
X146871260Y-132486707D01*
X146699154Y-132371709D01*
X146552791Y-132225346D01*
X146437793Y-132053240D01*
X146404982Y-131974028D01*
X146358581Y-131862006D01*
X146318200Y-131658996D01*
X146318200Y-131452004D01*
X146358581Y-131248994D01*
X146417687Y-131106300D01*
X146437793Y-131057760D01*
X146552791Y-130885654D01*
X146699154Y-130739291D01*
X146720026Y-130725345D01*
X146756263Y-130701132D01*
X146871260Y-130624293D01*
X146950472Y-130591482D01*
X147062494Y-130545081D01*
X147265504Y-130504700D01*
X147472496Y-130504700D01*
X147675506Y-130545081D01*
X147675506Y-130545081D01*
G37*
G36*
X164175506Y-130545081D02*
G01*
X164287528Y-130591482D01*
X164366740Y-130624293D01*
X164481737Y-130701132D01*
X164517975Y-130725345D01*
X164538846Y-130739291D01*
X164685209Y-130885654D01*
X164800207Y-131057760D01*
X164820313Y-131106300D01*
X164879419Y-131248994D01*
X164919800Y-131452004D01*
X164919800Y-131658996D01*
X164879419Y-131862006D01*
X164833018Y-131974028D01*
X164800207Y-132053240D01*
X164685209Y-132225346D01*
X164538846Y-132371709D01*
X164366740Y-132486707D01*
X164287528Y-132519518D01*
X164175506Y-132565919D01*
X163972496Y-132606300D01*
X163765504Y-132606300D01*
X163562494Y-132565919D01*
X163450472Y-132519518D01*
X163371260Y-132486707D01*
X163199154Y-132371709D01*
X163052791Y-132225346D01*
X162937793Y-132053240D01*
X162904982Y-131974028D01*
X162858581Y-131862006D01*
X162818200Y-131658996D01*
X162818200Y-131452004D01*
X162858581Y-131248994D01*
X162917687Y-131106300D01*
X162937793Y-131057760D01*
X163052791Y-130885654D01*
X163199154Y-130739291D01*
X163220026Y-130725345D01*
X163256263Y-130701132D01*
X163371260Y-130624293D01*
X163450472Y-130591482D01*
X163562494Y-130545081D01*
X163765504Y-130504700D01*
X163972496Y-130504700D01*
X164175506Y-130545081D01*
X164175506Y-130545081D01*
G37*
G36*
X140325506Y-129045081D02*
G01*
X140437528Y-129091482D01*
X140516740Y-129124293D01*
X140688846Y-129239291D01*
X140835209Y-129385654D01*
X140950207Y-129557760D01*
X140950207Y-129557761D01*
X141029419Y-129748994D01*
X141069800Y-129952004D01*
X141069800Y-130158996D01*
X141029419Y-130362006D01*
X140983018Y-130474028D01*
X140950207Y-130553240D01*
X140873368Y-130668237D01*
X140835210Y-130725345D01*
X140688845Y-130871710D01*
X140631737Y-130909868D01*
X140516740Y-130986707D01*
X140437528Y-131019518D01*
X140325506Y-131065919D01*
X140122496Y-131106300D01*
X139915504Y-131106300D01*
X139712494Y-131065919D01*
X139600472Y-131019518D01*
X139521260Y-130986707D01*
X139406263Y-130909868D01*
X139349155Y-130871710D01*
X139202790Y-130725345D01*
X139164632Y-130668237D01*
X139087793Y-130553240D01*
X139054982Y-130474028D01*
X139008581Y-130362006D01*
X138968200Y-130158996D01*
X138968200Y-129952004D01*
X139008581Y-129748994D01*
X139087793Y-129557761D01*
X139087793Y-129557760D01*
X139202791Y-129385654D01*
X139349154Y-129239291D01*
X139521260Y-129124293D01*
X139600472Y-129091482D01*
X139712494Y-129045081D01*
X139915504Y-129004700D01*
X140122496Y-129004700D01*
X140325506Y-129045081D01*
X140325506Y-129045081D01*
G37*
G36*
X142865506Y-129045081D02*
G01*
X142977528Y-129091482D01*
X143056740Y-129124293D01*
X143228846Y-129239291D01*
X143375209Y-129385654D01*
X143490207Y-129557760D01*
X143490207Y-129557761D01*
X143569419Y-129748994D01*
X143609800Y-129952004D01*
X143609800Y-130158996D01*
X143569419Y-130362006D01*
X143523018Y-130474028D01*
X143490207Y-130553240D01*
X143413368Y-130668237D01*
X143375210Y-130725345D01*
X143228845Y-130871710D01*
X143171737Y-130909868D01*
X143056740Y-130986707D01*
X142977528Y-131019518D01*
X142865506Y-131065919D01*
X142662496Y-131106300D01*
X142455504Y-131106300D01*
X142252494Y-131065919D01*
X142140472Y-131019518D01*
X142061260Y-130986707D01*
X141946263Y-130909868D01*
X141889155Y-130871710D01*
X141742790Y-130725345D01*
X141704632Y-130668237D01*
X141627793Y-130553240D01*
X141594982Y-130474028D01*
X141548581Y-130362006D01*
X141508200Y-130158996D01*
X141508200Y-129952004D01*
X141548581Y-129748994D01*
X141627793Y-129557761D01*
X141627793Y-129557760D01*
X141742791Y-129385654D01*
X141889154Y-129239291D01*
X142061260Y-129124293D01*
X142140472Y-129091482D01*
X142252494Y-129045081D01*
X142455504Y-129004700D01*
X142662496Y-129004700D01*
X142865506Y-129045081D01*
X142865506Y-129045081D01*
G37*
G36*
X137785506Y-129045081D02*
G01*
X137897528Y-129091482D01*
X137976740Y-129124293D01*
X138148846Y-129239291D01*
X138295209Y-129385654D01*
X138410207Y-129557760D01*
X138410207Y-129557761D01*
X138489419Y-129748994D01*
X138529800Y-129952004D01*
X138529800Y-130158996D01*
X138489419Y-130362006D01*
X138443018Y-130474028D01*
X138410207Y-130553240D01*
X138333368Y-130668237D01*
X138295210Y-130725345D01*
X138148845Y-130871710D01*
X138091737Y-130909868D01*
X137976740Y-130986707D01*
X137897528Y-131019518D01*
X137785506Y-131065919D01*
X137582496Y-131106300D01*
X137375504Y-131106300D01*
X137172494Y-131065919D01*
X137060472Y-131019518D01*
X136981260Y-130986707D01*
X136866263Y-130909868D01*
X136809155Y-130871710D01*
X136662790Y-130725345D01*
X136624632Y-130668237D01*
X136547793Y-130553240D01*
X136514982Y-130474028D01*
X136468581Y-130362006D01*
X136428200Y-130158996D01*
X136428200Y-129952004D01*
X136468581Y-129748994D01*
X136547793Y-129557761D01*
X136547793Y-129557760D01*
X136662791Y-129385654D01*
X136809154Y-129239291D01*
X136981260Y-129124293D01*
X137060472Y-129091482D01*
X137172494Y-129045081D01*
X137375504Y-129004700D01*
X137582496Y-129004700D01*
X137785506Y-129045081D01*
X137785506Y-129045081D01*
G37*
G36*
X132705506Y-129045081D02*
G01*
X132817528Y-129091482D01*
X132896740Y-129124293D01*
X133068846Y-129239291D01*
X133215209Y-129385654D01*
X133330207Y-129557760D01*
X133330207Y-129557761D01*
X133409419Y-129748994D01*
X133449800Y-129952004D01*
X133449800Y-130158996D01*
X133409419Y-130362006D01*
X133363018Y-130474028D01*
X133330207Y-130553240D01*
X133253368Y-130668237D01*
X133215210Y-130725345D01*
X133068845Y-130871710D01*
X133011737Y-130909868D01*
X132896740Y-130986707D01*
X132817528Y-131019518D01*
X132705506Y-131065919D01*
X132502496Y-131106300D01*
X132295504Y-131106300D01*
X132092494Y-131065919D01*
X131980472Y-131019518D01*
X131901260Y-130986707D01*
X131786263Y-130909868D01*
X131729155Y-130871710D01*
X131582790Y-130725345D01*
X131544632Y-130668237D01*
X131467793Y-130553240D01*
X131434982Y-130474028D01*
X131388581Y-130362006D01*
X131348200Y-130158996D01*
X131348200Y-129952004D01*
X131388581Y-129748994D01*
X131467793Y-129557761D01*
X131467793Y-129557760D01*
X131582791Y-129385654D01*
X131729154Y-129239291D01*
X131901260Y-129124293D01*
X131980472Y-129091482D01*
X132092494Y-129045081D01*
X132295504Y-129004700D01*
X132502496Y-129004700D01*
X132705506Y-129045081D01*
X132705506Y-129045081D01*
G37*
G36*
X130165506Y-129045081D02*
G01*
X130277528Y-129091482D01*
X130356740Y-129124293D01*
X130528846Y-129239291D01*
X130675209Y-129385654D01*
X130790207Y-129557760D01*
X130790207Y-129557761D01*
X130869419Y-129748994D01*
X130909800Y-129952004D01*
X130909800Y-130158996D01*
X130869419Y-130362006D01*
X130823018Y-130474028D01*
X130790207Y-130553240D01*
X130713368Y-130668237D01*
X130675210Y-130725345D01*
X130528845Y-130871710D01*
X130471737Y-130909868D01*
X130356740Y-130986707D01*
X130277528Y-131019518D01*
X130165506Y-131065919D01*
X129962496Y-131106300D01*
X129755504Y-131106300D01*
X129552494Y-131065919D01*
X129440472Y-131019518D01*
X129361260Y-130986707D01*
X129246263Y-130909868D01*
X129189155Y-130871710D01*
X129042790Y-130725345D01*
X129004632Y-130668237D01*
X128927793Y-130553240D01*
X128894982Y-130474028D01*
X128848581Y-130362006D01*
X128808200Y-130158996D01*
X128808200Y-129952004D01*
X128848581Y-129748994D01*
X128927793Y-129557761D01*
X128927793Y-129557760D01*
X129042791Y-129385654D01*
X129189154Y-129239291D01*
X129361260Y-129124293D01*
X129440472Y-129091482D01*
X129552494Y-129045081D01*
X129755504Y-129004700D01*
X129962496Y-129004700D01*
X130165506Y-129045081D01*
X130165506Y-129045081D01*
G37*
G36*
X127625506Y-129045081D02*
G01*
X127737528Y-129091482D01*
X127816740Y-129124293D01*
X127988846Y-129239291D01*
X128135209Y-129385654D01*
X128250207Y-129557760D01*
X128250207Y-129557761D01*
X128329419Y-129748994D01*
X128369800Y-129952004D01*
X128369800Y-130158996D01*
X128329419Y-130362006D01*
X128283018Y-130474028D01*
X128250207Y-130553240D01*
X128173368Y-130668237D01*
X128135210Y-130725345D01*
X127988845Y-130871710D01*
X127931737Y-130909868D01*
X127816740Y-130986707D01*
X127737528Y-131019518D01*
X127625506Y-131065919D01*
X127422496Y-131106300D01*
X127215504Y-131106300D01*
X127012494Y-131065919D01*
X126900472Y-131019518D01*
X126821260Y-130986707D01*
X126706263Y-130909868D01*
X126649155Y-130871710D01*
X126502790Y-130725345D01*
X126464632Y-130668237D01*
X126387793Y-130553240D01*
X126354982Y-130474028D01*
X126308581Y-130362006D01*
X126268200Y-130158996D01*
X126268200Y-129952004D01*
X126308581Y-129748994D01*
X126387793Y-129557761D01*
X126387793Y-129557760D01*
X126502791Y-129385654D01*
X126649154Y-129239291D01*
X126821260Y-129124293D01*
X126900472Y-129091482D01*
X127012494Y-129045081D01*
X127215504Y-129004700D01*
X127422496Y-129004700D01*
X127625506Y-129045081D01*
X127625506Y-129045081D01*
G37*
G36*
X135245506Y-129045081D02*
G01*
X135357528Y-129091482D01*
X135436740Y-129124293D01*
X135608846Y-129239291D01*
X135755209Y-129385654D01*
X135870207Y-129557760D01*
X135870207Y-129557761D01*
X135949419Y-129748994D01*
X135989800Y-129952004D01*
X135989800Y-130158996D01*
X135949419Y-130362006D01*
X135903018Y-130474028D01*
X135870207Y-130553240D01*
X135793368Y-130668237D01*
X135755210Y-130725345D01*
X135608845Y-130871710D01*
X135551737Y-130909868D01*
X135436740Y-130986707D01*
X135357528Y-131019518D01*
X135245506Y-131065919D01*
X135042496Y-131106300D01*
X134835504Y-131106300D01*
X134632494Y-131065919D01*
X134520472Y-131019518D01*
X134441260Y-130986707D01*
X134326263Y-130909868D01*
X134269155Y-130871710D01*
X134122790Y-130725345D01*
X134084632Y-130668237D01*
X134007793Y-130553240D01*
X133974982Y-130474028D01*
X133928581Y-130362006D01*
X133888200Y-130158996D01*
X133888200Y-129952004D01*
X133928581Y-129748994D01*
X134007793Y-129557761D01*
X134007793Y-129557760D01*
X134122791Y-129385654D01*
X134269154Y-129239291D01*
X134441260Y-129124293D01*
X134520472Y-129091482D01*
X134632494Y-129045081D01*
X134835504Y-129004700D01*
X135042496Y-129004700D01*
X135245506Y-129045081D01*
X135245506Y-129045081D01*
G37*
G36*
X125085506Y-129045081D02*
G01*
X125197528Y-129091482D01*
X125276740Y-129124293D01*
X125448846Y-129239291D01*
X125595209Y-129385654D01*
X125710207Y-129557760D01*
X125710207Y-129557761D01*
X125789419Y-129748994D01*
X125829800Y-129952004D01*
X125829800Y-130158996D01*
X125789419Y-130362006D01*
X125743018Y-130474028D01*
X125710207Y-130553240D01*
X125633368Y-130668237D01*
X125595210Y-130725345D01*
X125448845Y-130871710D01*
X125391737Y-130909868D01*
X125276740Y-130986707D01*
X125197528Y-131019518D01*
X125085506Y-131065919D01*
X124882496Y-131106300D01*
X124675504Y-131106300D01*
X124472494Y-131065919D01*
X124360472Y-131019518D01*
X124281260Y-130986707D01*
X124166263Y-130909868D01*
X124109155Y-130871710D01*
X123962790Y-130725345D01*
X123924632Y-130668237D01*
X123847793Y-130553240D01*
X123814982Y-130474028D01*
X123768581Y-130362006D01*
X123728200Y-130158996D01*
X123728200Y-129952004D01*
X123768581Y-129748994D01*
X123847793Y-129557761D01*
X123847793Y-129557760D01*
X123962791Y-129385654D01*
X124109154Y-129239291D01*
X124281260Y-129124293D01*
X124360472Y-129091482D01*
X124472494Y-129045081D01*
X124675504Y-129004700D01*
X124882496Y-129004700D01*
X125085506Y-129045081D01*
X125085506Y-129045081D01*
G37*
G36*
X156175506Y-128045081D02*
G01*
X156287528Y-128091482D01*
X156366740Y-128124293D01*
X156538846Y-128239291D01*
X156685209Y-128385654D01*
X156800207Y-128557760D01*
X156800207Y-128557761D01*
X156879419Y-128748994D01*
X156919800Y-128952004D01*
X156919800Y-129158996D01*
X156879419Y-129362006D01*
X156869623Y-129385655D01*
X156800207Y-129553240D01*
X156685209Y-129725346D01*
X156538846Y-129871709D01*
X156366740Y-129986707D01*
X156287528Y-130019518D01*
X156175506Y-130065919D01*
X155972496Y-130106300D01*
X155765504Y-130106300D01*
X155562494Y-130065919D01*
X155450472Y-130019518D01*
X155371260Y-129986707D01*
X155199154Y-129871709D01*
X155052791Y-129725346D01*
X154937793Y-129553240D01*
X154868377Y-129385655D01*
X154858581Y-129362006D01*
X154818200Y-129158996D01*
X154818200Y-128952004D01*
X154858581Y-128748994D01*
X154937793Y-128557761D01*
X154937793Y-128557760D01*
X155052791Y-128385654D01*
X155199154Y-128239291D01*
X155371260Y-128124293D01*
X155450472Y-128091482D01*
X155562494Y-128045081D01*
X155765504Y-128004700D01*
X155972496Y-128004700D01*
X156175506Y-128045081D01*
X156175506Y-128045081D01*
G37*
G36*
X161675506Y-128045081D02*
G01*
X161787528Y-128091482D01*
X161866740Y-128124293D01*
X162038846Y-128239291D01*
X162185209Y-128385654D01*
X162300207Y-128557760D01*
X162300207Y-128557761D01*
X162379419Y-128748994D01*
X162419800Y-128952004D01*
X162419800Y-129158996D01*
X162379419Y-129362006D01*
X162369623Y-129385655D01*
X162300207Y-129553240D01*
X162185209Y-129725346D01*
X162038846Y-129871709D01*
X161866740Y-129986707D01*
X161787528Y-130019518D01*
X161675506Y-130065919D01*
X161472496Y-130106300D01*
X161265504Y-130106300D01*
X161062494Y-130065919D01*
X160950472Y-130019518D01*
X160871260Y-129986707D01*
X160699154Y-129871709D01*
X160552791Y-129725346D01*
X160437793Y-129553240D01*
X160368377Y-129385655D01*
X160358581Y-129362006D01*
X160318200Y-129158996D01*
X160318200Y-128952004D01*
X160358581Y-128748994D01*
X160437793Y-128557761D01*
X160437793Y-128557760D01*
X160552791Y-128385654D01*
X160699154Y-128239291D01*
X160871260Y-128124293D01*
X160950472Y-128091482D01*
X161062494Y-128045081D01*
X161265504Y-128004700D01*
X161472496Y-128004700D01*
X161675506Y-128045081D01*
X161675506Y-128045081D01*
G37*
G36*
X164175506Y-128045081D02*
G01*
X164287528Y-128091482D01*
X164366740Y-128124293D01*
X164538846Y-128239291D01*
X164685209Y-128385654D01*
X164800207Y-128557760D01*
X164800207Y-128557761D01*
X164879419Y-128748994D01*
X164919800Y-128952004D01*
X164919800Y-129158996D01*
X164879419Y-129362006D01*
X164869623Y-129385655D01*
X164800207Y-129553240D01*
X164685209Y-129725346D01*
X164538846Y-129871709D01*
X164366740Y-129986707D01*
X164287528Y-130019518D01*
X164175506Y-130065919D01*
X163972496Y-130106300D01*
X163765504Y-130106300D01*
X163562494Y-130065919D01*
X163450472Y-130019518D01*
X163371260Y-129986707D01*
X163199154Y-129871709D01*
X163052791Y-129725346D01*
X162937793Y-129553240D01*
X162868377Y-129385655D01*
X162858581Y-129362006D01*
X162818200Y-129158996D01*
X162818200Y-128952004D01*
X162858581Y-128748994D01*
X162937793Y-128557761D01*
X162937793Y-128557760D01*
X163052791Y-128385654D01*
X163199154Y-128239291D01*
X163371260Y-128124293D01*
X163450472Y-128091482D01*
X163562494Y-128045081D01*
X163765504Y-128004700D01*
X163972496Y-128004700D01*
X164175506Y-128045081D01*
X164175506Y-128045081D01*
G37*
G36*
X147675506Y-128045081D02*
G01*
X147787528Y-128091482D01*
X147866740Y-128124293D01*
X148038846Y-128239291D01*
X148185209Y-128385654D01*
X148300207Y-128557760D01*
X148300207Y-128557761D01*
X148379419Y-128748994D01*
X148419800Y-128952004D01*
X148419800Y-129158996D01*
X148379419Y-129362006D01*
X148369623Y-129385655D01*
X148300207Y-129553240D01*
X148185209Y-129725346D01*
X148038846Y-129871709D01*
X147866740Y-129986707D01*
X147787528Y-130019518D01*
X147675506Y-130065919D01*
X147472496Y-130106300D01*
X147265504Y-130106300D01*
X147062494Y-130065919D01*
X146950472Y-130019518D01*
X146871260Y-129986707D01*
X146699154Y-129871709D01*
X146552791Y-129725346D01*
X146437793Y-129553240D01*
X146368377Y-129385655D01*
X146358581Y-129362006D01*
X146318200Y-129158996D01*
X146318200Y-128952004D01*
X146358581Y-128748994D01*
X146437793Y-128557761D01*
X146437793Y-128557760D01*
X146552791Y-128385654D01*
X146699154Y-128239291D01*
X146871260Y-128124293D01*
X146950472Y-128091482D01*
X147062494Y-128045081D01*
X147265504Y-128004700D01*
X147472496Y-128004700D01*
X147675506Y-128045081D01*
X147675506Y-128045081D01*
G37*
G36*
X150675506Y-128045081D02*
G01*
X150787528Y-128091482D01*
X150866740Y-128124293D01*
X151038846Y-128239291D01*
X151185209Y-128385654D01*
X151300207Y-128557760D01*
X151300207Y-128557761D01*
X151379419Y-128748994D01*
X151419800Y-128952004D01*
X151419800Y-129158996D01*
X151379419Y-129362006D01*
X151369623Y-129385655D01*
X151300207Y-129553240D01*
X151185209Y-129725346D01*
X151038846Y-129871709D01*
X150866740Y-129986707D01*
X150787528Y-130019518D01*
X150675506Y-130065919D01*
X150472496Y-130106300D01*
X150265504Y-130106300D01*
X150062494Y-130065919D01*
X149950472Y-130019518D01*
X149871260Y-129986707D01*
X149699154Y-129871709D01*
X149552791Y-129725346D01*
X149437793Y-129553240D01*
X149368377Y-129385655D01*
X149358581Y-129362006D01*
X149318200Y-129158996D01*
X149318200Y-128952004D01*
X149358581Y-128748994D01*
X149437793Y-128557761D01*
X149437793Y-128557760D01*
X149552791Y-128385654D01*
X149699154Y-128239291D01*
X149871260Y-128124293D01*
X149950472Y-128091482D01*
X150062494Y-128045081D01*
X150265504Y-128004700D01*
X150472496Y-128004700D01*
X150675506Y-128045081D01*
X150675506Y-128045081D01*
G37*
G36*
X167175506Y-128045081D02*
G01*
X167287528Y-128091482D01*
X167366740Y-128124293D01*
X167538846Y-128239291D01*
X167685209Y-128385654D01*
X167800207Y-128557760D01*
X167800207Y-128557761D01*
X167879419Y-128748994D01*
X167919800Y-128952004D01*
X167919800Y-129158996D01*
X167879419Y-129362006D01*
X167869623Y-129385655D01*
X167800207Y-129553240D01*
X167685209Y-129725346D01*
X167538846Y-129871709D01*
X167366740Y-129986707D01*
X167287528Y-130019518D01*
X167175506Y-130065919D01*
X166972496Y-130106300D01*
X166765504Y-130106300D01*
X166562494Y-130065919D01*
X166450472Y-130019518D01*
X166371260Y-129986707D01*
X166199154Y-129871709D01*
X166052791Y-129725346D01*
X165937793Y-129553240D01*
X165868377Y-129385655D01*
X165858581Y-129362006D01*
X165818200Y-129158996D01*
X165818200Y-128952004D01*
X165858581Y-128748994D01*
X165937793Y-128557761D01*
X165937793Y-128557760D01*
X166052791Y-128385654D01*
X166199154Y-128239291D01*
X166371260Y-128124293D01*
X166450472Y-128091482D01*
X166562494Y-128045081D01*
X166765504Y-128004700D01*
X166972496Y-128004700D01*
X167175506Y-128045081D01*
X167175506Y-128045081D01*
G37*
G36*
X153175506Y-128045081D02*
G01*
X153287528Y-128091482D01*
X153366740Y-128124293D01*
X153538846Y-128239291D01*
X153685209Y-128385654D01*
X153800207Y-128557760D01*
X153800207Y-128557761D01*
X153879419Y-128748994D01*
X153919800Y-128952004D01*
X153919800Y-129158996D01*
X153879419Y-129362006D01*
X153869623Y-129385655D01*
X153800207Y-129553240D01*
X153685209Y-129725346D01*
X153538846Y-129871709D01*
X153366740Y-129986707D01*
X153287528Y-130019518D01*
X153175506Y-130065919D01*
X152972496Y-130106300D01*
X152765504Y-130106300D01*
X152562494Y-130065919D01*
X152450472Y-130019518D01*
X152371260Y-129986707D01*
X152199154Y-129871709D01*
X152052791Y-129725346D01*
X151937793Y-129553240D01*
X151868377Y-129385655D01*
X151858581Y-129362006D01*
X151818200Y-129158996D01*
X151818200Y-128952004D01*
X151858581Y-128748994D01*
X151937793Y-128557761D01*
X151937793Y-128557760D01*
X152052791Y-128385654D01*
X152199154Y-128239291D01*
X152371260Y-128124293D01*
X152450472Y-128091482D01*
X152562494Y-128045081D01*
X152765504Y-128004700D01*
X152972496Y-128004700D01*
X153175506Y-128045081D01*
X153175506Y-128045081D01*
G37*
G36*
X158675506Y-128045081D02*
G01*
X158787528Y-128091482D01*
X158866740Y-128124293D01*
X159038846Y-128239291D01*
X159185209Y-128385654D01*
X159300207Y-128557760D01*
X159300207Y-128557761D01*
X159379419Y-128748994D01*
X159419800Y-128952004D01*
X159419800Y-129158996D01*
X159379419Y-129362006D01*
X159369623Y-129385655D01*
X159300207Y-129553240D01*
X159185209Y-129725346D01*
X159038846Y-129871709D01*
X158866740Y-129986707D01*
X158787528Y-130019518D01*
X158675506Y-130065919D01*
X158472496Y-130106300D01*
X158265504Y-130106300D01*
X158062494Y-130065919D01*
X157950472Y-130019518D01*
X157871260Y-129986707D01*
X157699154Y-129871709D01*
X157552791Y-129725346D01*
X157437793Y-129553240D01*
X157368377Y-129385655D01*
X157358581Y-129362006D01*
X157318200Y-129158996D01*
X157318200Y-128952004D01*
X157358581Y-128748994D01*
X157437793Y-128557761D01*
X157437793Y-128557760D01*
X157552791Y-128385654D01*
X157699154Y-128239291D01*
X157871260Y-128124293D01*
X157950472Y-128091482D01*
X158062494Y-128045081D01*
X158265504Y-128004700D01*
X158472496Y-128004700D01*
X158675506Y-128045081D01*
X158675506Y-128045081D01*
G37*
G36*
X130165506Y-126505081D02*
G01*
X130277528Y-126551482D01*
X130356740Y-126584293D01*
X130528846Y-126699291D01*
X130675209Y-126845654D01*
X130790207Y-127017760D01*
X130790207Y-127017761D01*
X130869419Y-127208994D01*
X130909800Y-127412004D01*
X130909800Y-127618996D01*
X130869419Y-127822006D01*
X130862893Y-127837760D01*
X130790207Y-128013240D01*
X130675209Y-128185346D01*
X130528846Y-128331709D01*
X130356740Y-128446707D01*
X130277528Y-128479518D01*
X130165506Y-128525919D01*
X129962496Y-128566300D01*
X129755504Y-128566300D01*
X129552494Y-128525919D01*
X129440472Y-128479518D01*
X129361260Y-128446707D01*
X129189154Y-128331709D01*
X129042791Y-128185346D01*
X128927793Y-128013240D01*
X128855107Y-127837760D01*
X128848581Y-127822006D01*
X128808200Y-127618996D01*
X128808200Y-127412004D01*
X128848581Y-127208994D01*
X128927793Y-127017761D01*
X128927793Y-127017760D01*
X129042791Y-126845654D01*
X129189154Y-126699291D01*
X129361260Y-126584293D01*
X129440472Y-126551482D01*
X129552494Y-126505081D01*
X129755504Y-126464700D01*
X129962496Y-126464700D01*
X130165506Y-126505081D01*
X130165506Y-126505081D01*
G37*
G36*
X142865506Y-126505081D02*
G01*
X142977528Y-126551482D01*
X143056740Y-126584293D01*
X143228846Y-126699291D01*
X143375209Y-126845654D01*
X143490207Y-127017760D01*
X143490207Y-127017761D01*
X143569419Y-127208994D01*
X143609800Y-127412004D01*
X143609800Y-127618996D01*
X143569419Y-127822006D01*
X143562893Y-127837760D01*
X143490207Y-128013240D01*
X143375209Y-128185346D01*
X143228846Y-128331709D01*
X143056740Y-128446707D01*
X142977528Y-128479518D01*
X142865506Y-128525919D01*
X142662496Y-128566300D01*
X142455504Y-128566300D01*
X142252494Y-128525919D01*
X142140472Y-128479518D01*
X142061260Y-128446707D01*
X141889154Y-128331709D01*
X141742791Y-128185346D01*
X141627793Y-128013240D01*
X141555107Y-127837760D01*
X141548581Y-127822006D01*
X141508200Y-127618996D01*
X141508200Y-127412004D01*
X141548581Y-127208994D01*
X141627793Y-127017761D01*
X141627793Y-127017760D01*
X141742791Y-126845654D01*
X141889154Y-126699291D01*
X142061260Y-126584293D01*
X142140472Y-126551482D01*
X142252494Y-126505081D01*
X142455504Y-126464700D01*
X142662496Y-126464700D01*
X142865506Y-126505081D01*
X142865506Y-126505081D01*
G37*
G36*
X137785506Y-126505081D02*
G01*
X137897528Y-126551482D01*
X137976740Y-126584293D01*
X138148846Y-126699291D01*
X138295209Y-126845654D01*
X138410207Y-127017760D01*
X138410207Y-127017761D01*
X138489419Y-127208994D01*
X138529800Y-127412004D01*
X138529800Y-127618996D01*
X138489419Y-127822006D01*
X138482893Y-127837760D01*
X138410207Y-128013240D01*
X138295209Y-128185346D01*
X138148846Y-128331709D01*
X137976740Y-128446707D01*
X137897528Y-128479518D01*
X137785506Y-128525919D01*
X137582496Y-128566300D01*
X137375504Y-128566300D01*
X137172494Y-128525919D01*
X137060472Y-128479518D01*
X136981260Y-128446707D01*
X136809154Y-128331709D01*
X136662791Y-128185346D01*
X136547793Y-128013240D01*
X136475107Y-127837760D01*
X136468581Y-127822006D01*
X136428200Y-127618996D01*
X136428200Y-127412004D01*
X136468581Y-127208994D01*
X136547793Y-127017761D01*
X136547793Y-127017760D01*
X136662791Y-126845654D01*
X136809154Y-126699291D01*
X136981260Y-126584293D01*
X137060472Y-126551482D01*
X137172494Y-126505081D01*
X137375504Y-126464700D01*
X137582496Y-126464700D01*
X137785506Y-126505081D01*
X137785506Y-126505081D01*
G37*
G36*
X125085506Y-126505081D02*
G01*
X125197528Y-126551482D01*
X125276740Y-126584293D01*
X125448846Y-126699291D01*
X125595209Y-126845654D01*
X125710207Y-127017760D01*
X125710207Y-127017761D01*
X125789419Y-127208994D01*
X125829800Y-127412004D01*
X125829800Y-127618996D01*
X125789419Y-127822006D01*
X125782893Y-127837760D01*
X125710207Y-128013240D01*
X125595209Y-128185346D01*
X125448846Y-128331709D01*
X125276740Y-128446707D01*
X125197528Y-128479518D01*
X125085506Y-128525919D01*
X124882496Y-128566300D01*
X124675504Y-128566300D01*
X124472494Y-128525919D01*
X124360472Y-128479518D01*
X124281260Y-128446707D01*
X124109154Y-128331709D01*
X123962791Y-128185346D01*
X123847793Y-128013240D01*
X123775107Y-127837760D01*
X123768581Y-127822006D01*
X123728200Y-127618996D01*
X123728200Y-127412004D01*
X123768581Y-127208994D01*
X123847793Y-127017761D01*
X123847793Y-127017760D01*
X123962791Y-126845654D01*
X124109154Y-126699291D01*
X124281260Y-126584293D01*
X124360472Y-126551482D01*
X124472494Y-126505081D01*
X124675504Y-126464700D01*
X124882496Y-126464700D01*
X125085506Y-126505081D01*
X125085506Y-126505081D01*
G37*
G36*
X127625506Y-126505081D02*
G01*
X127737528Y-126551482D01*
X127816740Y-126584293D01*
X127988846Y-126699291D01*
X128135209Y-126845654D01*
X128250207Y-127017760D01*
X128250207Y-127017761D01*
X128329419Y-127208994D01*
X128369800Y-127412004D01*
X128369800Y-127618996D01*
X128329419Y-127822006D01*
X128322893Y-127837760D01*
X128250207Y-128013240D01*
X128135209Y-128185346D01*
X127988846Y-128331709D01*
X127816740Y-128446707D01*
X127737528Y-128479518D01*
X127625506Y-128525919D01*
X127422496Y-128566300D01*
X127215504Y-128566300D01*
X127012494Y-128525919D01*
X126900472Y-128479518D01*
X126821260Y-128446707D01*
X126649154Y-128331709D01*
X126502791Y-128185346D01*
X126387793Y-128013240D01*
X126315107Y-127837760D01*
X126308581Y-127822006D01*
X126268200Y-127618996D01*
X126268200Y-127412004D01*
X126308581Y-127208994D01*
X126387793Y-127017761D01*
X126387793Y-127017760D01*
X126502791Y-126845654D01*
X126649154Y-126699291D01*
X126821260Y-126584293D01*
X126900472Y-126551482D01*
X127012494Y-126505081D01*
X127215504Y-126464700D01*
X127422496Y-126464700D01*
X127625506Y-126505081D01*
X127625506Y-126505081D01*
G37*
G36*
X132705506Y-126505081D02*
G01*
X132817528Y-126551482D01*
X132896740Y-126584293D01*
X133068846Y-126699291D01*
X133215209Y-126845654D01*
X133330207Y-127017760D01*
X133330207Y-127017761D01*
X133409419Y-127208994D01*
X133449800Y-127412004D01*
X133449800Y-127618996D01*
X133409419Y-127822006D01*
X133402893Y-127837760D01*
X133330207Y-128013240D01*
X133215209Y-128185346D01*
X133068846Y-128331709D01*
X132896740Y-128446707D01*
X132817528Y-128479518D01*
X132705506Y-128525919D01*
X132502496Y-128566300D01*
X132295504Y-128566300D01*
X132092494Y-128525919D01*
X131980472Y-128479518D01*
X131901260Y-128446707D01*
X131729154Y-128331709D01*
X131582791Y-128185346D01*
X131467793Y-128013240D01*
X131395107Y-127837760D01*
X131388581Y-127822006D01*
X131348200Y-127618996D01*
X131348200Y-127412004D01*
X131388581Y-127208994D01*
X131467793Y-127017761D01*
X131467793Y-127017760D01*
X131582791Y-126845654D01*
X131729154Y-126699291D01*
X131901260Y-126584293D01*
X131980472Y-126551482D01*
X132092494Y-126505081D01*
X132295504Y-126464700D01*
X132502496Y-126464700D01*
X132705506Y-126505081D01*
X132705506Y-126505081D01*
G37*
G36*
X140325506Y-126505081D02*
G01*
X140437528Y-126551482D01*
X140516740Y-126584293D01*
X140688846Y-126699291D01*
X140835209Y-126845654D01*
X140950207Y-127017760D01*
X140950207Y-127017761D01*
X141029419Y-127208994D01*
X141069800Y-127412004D01*
X141069800Y-127618996D01*
X141029419Y-127822006D01*
X141022893Y-127837760D01*
X140950207Y-128013240D01*
X140835209Y-128185346D01*
X140688846Y-128331709D01*
X140516740Y-128446707D01*
X140437528Y-128479518D01*
X140325506Y-128525919D01*
X140122496Y-128566300D01*
X139915504Y-128566300D01*
X139712494Y-128525919D01*
X139600472Y-128479518D01*
X139521260Y-128446707D01*
X139349154Y-128331709D01*
X139202791Y-128185346D01*
X139087793Y-128013240D01*
X139015107Y-127837760D01*
X139008581Y-127822006D01*
X138968200Y-127618996D01*
X138968200Y-127412004D01*
X139008581Y-127208994D01*
X139087793Y-127017761D01*
X139087793Y-127017760D01*
X139202791Y-126845654D01*
X139349154Y-126699291D01*
X139521260Y-126584293D01*
X139600472Y-126551482D01*
X139712494Y-126505081D01*
X139915504Y-126464700D01*
X140122496Y-126464700D01*
X140325506Y-126505081D01*
X140325506Y-126505081D01*
G37*
G36*
X135245506Y-126505081D02*
G01*
X135357528Y-126551482D01*
X135436740Y-126584293D01*
X135608846Y-126699291D01*
X135755209Y-126845654D01*
X135870207Y-127017760D01*
X135870207Y-127017761D01*
X135949419Y-127208994D01*
X135989800Y-127412004D01*
X135989800Y-127618996D01*
X135949419Y-127822006D01*
X135942893Y-127837760D01*
X135870207Y-128013240D01*
X135755209Y-128185346D01*
X135608846Y-128331709D01*
X135436740Y-128446707D01*
X135357528Y-128479518D01*
X135245506Y-128525919D01*
X135042496Y-128566300D01*
X134835504Y-128566300D01*
X134632494Y-128525919D01*
X134520472Y-128479518D01*
X134441260Y-128446707D01*
X134269154Y-128331709D01*
X134122791Y-128185346D01*
X134007793Y-128013240D01*
X133935107Y-127837760D01*
X133928581Y-127822006D01*
X133888200Y-127618996D01*
X133888200Y-127412004D01*
X133928581Y-127208994D01*
X134007793Y-127017761D01*
X134007793Y-127017760D01*
X134122791Y-126845654D01*
X134269154Y-126699291D01*
X134441260Y-126584293D01*
X134520472Y-126551482D01*
X134632494Y-126505081D01*
X134835504Y-126464700D01*
X135042496Y-126464700D01*
X135245506Y-126505081D01*
X135245506Y-126505081D01*
G37*
G36*
X172637900Y-124925846D02*
G01*
X172850521Y-124968139D01*
X173150947Y-125092580D01*
X173421324Y-125273240D01*
X173651260Y-125503176D01*
X173831920Y-125773553D01*
X173956361Y-126073979D01*
X174019800Y-126392910D01*
X174019800Y-126718090D01*
X173956361Y-127037021D01*
X173831920Y-127337447D01*
X173651260Y-127607824D01*
X173421324Y-127837760D01*
X173150947Y-128018420D01*
X172850521Y-128142861D01*
X172637900Y-128185154D01*
X172531591Y-128206300D01*
X172206409Y-128206300D01*
X172100100Y-128185154D01*
X171887479Y-128142861D01*
X171587053Y-128018420D01*
X171316676Y-127837760D01*
X171086740Y-127607824D01*
X170906080Y-127337447D01*
X170781639Y-127037021D01*
X170718200Y-126718090D01*
X170718200Y-126392910D01*
X170781639Y-126073979D01*
X170906080Y-125773553D01*
X171086740Y-125503176D01*
X171316676Y-125273240D01*
X171587053Y-125092580D01*
X171887479Y-124968139D01*
X172100100Y-124925846D01*
X172206409Y-124904700D01*
X172531591Y-124904700D01*
X172637900Y-124925846D01*
X172637900Y-124925846D01*
G37*
G36*
X118877900Y-124925846D02*
G01*
X119090521Y-124968139D01*
X119390947Y-125092580D01*
X119661324Y-125273240D01*
X119891260Y-125503176D01*
X120071920Y-125773553D01*
X120196361Y-126073979D01*
X120259800Y-126392910D01*
X120259800Y-126718090D01*
X120196361Y-127037021D01*
X120071920Y-127337447D01*
X119891260Y-127607824D01*
X119661324Y-127837760D01*
X119390947Y-128018420D01*
X119090521Y-128142861D01*
X118877900Y-128185154D01*
X118771591Y-128206300D01*
X118446409Y-128206300D01*
X118340100Y-128185154D01*
X118127479Y-128142861D01*
X117827053Y-128018420D01*
X117556676Y-127837760D01*
X117326740Y-127607824D01*
X117146080Y-127337447D01*
X117021639Y-127037021D01*
X116958200Y-126718090D01*
X116958200Y-126392910D01*
X117021639Y-126073979D01*
X117146080Y-125773553D01*
X117326740Y-125503176D01*
X117556676Y-125273240D01*
X117827053Y-125092580D01*
X118127479Y-124968139D01*
X118340100Y-124925846D01*
X118446409Y-124904700D01*
X118771591Y-124904700D01*
X118877900Y-124925846D01*
X118877900Y-124925846D01*
G37*
G36*
X164175506Y-125545081D02*
G01*
X164287528Y-125591482D01*
X164366740Y-125624293D01*
X164538846Y-125739291D01*
X164685209Y-125885654D01*
X164800207Y-126057760D01*
X164800207Y-126057761D01*
X164879419Y-126248994D01*
X164919800Y-126452004D01*
X164919800Y-126658996D01*
X164879419Y-126862006D01*
X164833018Y-126974028D01*
X164800207Y-127053240D01*
X164685209Y-127225346D01*
X164538846Y-127371709D01*
X164366740Y-127486707D01*
X164287528Y-127519518D01*
X164175506Y-127565919D01*
X163972496Y-127606300D01*
X163765504Y-127606300D01*
X163562494Y-127565919D01*
X163450472Y-127519518D01*
X163371260Y-127486707D01*
X163199154Y-127371709D01*
X163052791Y-127225346D01*
X162937793Y-127053240D01*
X162904982Y-126974028D01*
X162858581Y-126862006D01*
X162818200Y-126658996D01*
X162818200Y-126452004D01*
X162858581Y-126248994D01*
X162937793Y-126057761D01*
X162937793Y-126057760D01*
X163052791Y-125885654D01*
X163199154Y-125739291D01*
X163371260Y-125624293D01*
X163450472Y-125591482D01*
X163562494Y-125545081D01*
X163765504Y-125504700D01*
X163972496Y-125504700D01*
X164175506Y-125545081D01*
X164175506Y-125545081D01*
G37*
G36*
X167175506Y-125545081D02*
G01*
X167287528Y-125591482D01*
X167366740Y-125624293D01*
X167538846Y-125739291D01*
X167685209Y-125885654D01*
X167800207Y-126057760D01*
X167800207Y-126057761D01*
X167879419Y-126248994D01*
X167919800Y-126452004D01*
X167919800Y-126658996D01*
X167879419Y-126862006D01*
X167833018Y-126974028D01*
X167800207Y-127053240D01*
X167685209Y-127225346D01*
X167538846Y-127371709D01*
X167366740Y-127486707D01*
X167287528Y-127519518D01*
X167175506Y-127565919D01*
X166972496Y-127606300D01*
X166765504Y-127606300D01*
X166562494Y-127565919D01*
X166450472Y-127519518D01*
X166371260Y-127486707D01*
X166199154Y-127371709D01*
X166052791Y-127225346D01*
X165937793Y-127053240D01*
X165904982Y-126974028D01*
X165858581Y-126862006D01*
X165818200Y-126658996D01*
X165818200Y-126452004D01*
X165858581Y-126248994D01*
X165937793Y-126057761D01*
X165937793Y-126057760D01*
X166052791Y-125885654D01*
X166199154Y-125739291D01*
X166371260Y-125624293D01*
X166450472Y-125591482D01*
X166562494Y-125545081D01*
X166765504Y-125504700D01*
X166972496Y-125504700D01*
X167175506Y-125545081D01*
X167175506Y-125545081D01*
G37*
G36*
X147675506Y-125545081D02*
G01*
X147787528Y-125591482D01*
X147866740Y-125624293D01*
X148038846Y-125739291D01*
X148185209Y-125885654D01*
X148300207Y-126057760D01*
X148300207Y-126057761D01*
X148379419Y-126248994D01*
X148419800Y-126452004D01*
X148419800Y-126658996D01*
X148379419Y-126862006D01*
X148333018Y-126974028D01*
X148300207Y-127053240D01*
X148185209Y-127225346D01*
X148038846Y-127371709D01*
X147866740Y-127486707D01*
X147787528Y-127519518D01*
X147675506Y-127565919D01*
X147472496Y-127606300D01*
X147265504Y-127606300D01*
X147062494Y-127565919D01*
X146950472Y-127519518D01*
X146871260Y-127486707D01*
X146699154Y-127371709D01*
X146552791Y-127225346D01*
X146437793Y-127053240D01*
X146404982Y-126974028D01*
X146358581Y-126862006D01*
X146318200Y-126658996D01*
X146318200Y-126452004D01*
X146358581Y-126248994D01*
X146437793Y-126057761D01*
X146437793Y-126057760D01*
X146552791Y-125885654D01*
X146699154Y-125739291D01*
X146871260Y-125624293D01*
X146950472Y-125591482D01*
X147062494Y-125545081D01*
X147265504Y-125504700D01*
X147472496Y-125504700D01*
X147675506Y-125545081D01*
X147675506Y-125545081D01*
G37*
G36*
X150675506Y-125545081D02*
G01*
X150787528Y-125591482D01*
X150866740Y-125624293D01*
X151038846Y-125739291D01*
X151185209Y-125885654D01*
X151300207Y-126057760D01*
X151300207Y-126057761D01*
X151379419Y-126248994D01*
X151419800Y-126452004D01*
X151419800Y-126658996D01*
X151379419Y-126862006D01*
X151333018Y-126974028D01*
X151300207Y-127053240D01*
X151185209Y-127225346D01*
X151038846Y-127371709D01*
X150866740Y-127486707D01*
X150787528Y-127519518D01*
X150675506Y-127565919D01*
X150472496Y-127606300D01*
X150265504Y-127606300D01*
X150062494Y-127565919D01*
X149950472Y-127519518D01*
X149871260Y-127486707D01*
X149699154Y-127371709D01*
X149552791Y-127225346D01*
X149437793Y-127053240D01*
X149404982Y-126974028D01*
X149358581Y-126862006D01*
X149318200Y-126658996D01*
X149318200Y-126452004D01*
X149358581Y-126248994D01*
X149437793Y-126057761D01*
X149437793Y-126057760D01*
X149552791Y-125885654D01*
X149699154Y-125739291D01*
X149871260Y-125624293D01*
X149950472Y-125591482D01*
X150062494Y-125545081D01*
X150265504Y-125504700D01*
X150472496Y-125504700D01*
X150675506Y-125545081D01*
X150675506Y-125545081D01*
G37*
G36*
X161675506Y-125545081D02*
G01*
X161787528Y-125591482D01*
X161866740Y-125624293D01*
X162038846Y-125739291D01*
X162185209Y-125885654D01*
X162300207Y-126057760D01*
X162300207Y-126057761D01*
X162379419Y-126248994D01*
X162419800Y-126452004D01*
X162419800Y-126658996D01*
X162379419Y-126862006D01*
X162333018Y-126974028D01*
X162300207Y-127053240D01*
X162185209Y-127225346D01*
X162038846Y-127371709D01*
X161866740Y-127486707D01*
X161787528Y-127519518D01*
X161675506Y-127565919D01*
X161472496Y-127606300D01*
X161265504Y-127606300D01*
X161062494Y-127565919D01*
X160950472Y-127519518D01*
X160871260Y-127486707D01*
X160699154Y-127371709D01*
X160552791Y-127225346D01*
X160437793Y-127053240D01*
X160404982Y-126974028D01*
X160358581Y-126862006D01*
X160318200Y-126658996D01*
X160318200Y-126452004D01*
X160358581Y-126248994D01*
X160437793Y-126057761D01*
X160437793Y-126057760D01*
X160552791Y-125885654D01*
X160699154Y-125739291D01*
X160871260Y-125624293D01*
X160950472Y-125591482D01*
X161062494Y-125545081D01*
X161265504Y-125504700D01*
X161472496Y-125504700D01*
X161675506Y-125545081D01*
X161675506Y-125545081D01*
G37*
G36*
X158675506Y-125545081D02*
G01*
X158787528Y-125591482D01*
X158866740Y-125624293D01*
X159038846Y-125739291D01*
X159185209Y-125885654D01*
X159300207Y-126057760D01*
X159300207Y-126057761D01*
X159379419Y-126248994D01*
X159419800Y-126452004D01*
X159419800Y-126658996D01*
X159379419Y-126862006D01*
X159333018Y-126974028D01*
X159300207Y-127053240D01*
X159185209Y-127225346D01*
X159038846Y-127371709D01*
X158866740Y-127486707D01*
X158787528Y-127519518D01*
X158675506Y-127565919D01*
X158472496Y-127606300D01*
X158265504Y-127606300D01*
X158062494Y-127565919D01*
X157950472Y-127519518D01*
X157871260Y-127486707D01*
X157699154Y-127371709D01*
X157552791Y-127225346D01*
X157437793Y-127053240D01*
X157404982Y-126974028D01*
X157358581Y-126862006D01*
X157318200Y-126658996D01*
X157318200Y-126452004D01*
X157358581Y-126248994D01*
X157437793Y-126057761D01*
X157437793Y-126057760D01*
X157552791Y-125885654D01*
X157699154Y-125739291D01*
X157871260Y-125624293D01*
X157950472Y-125591482D01*
X158062494Y-125545081D01*
X158265504Y-125504700D01*
X158472496Y-125504700D01*
X158675506Y-125545081D01*
X158675506Y-125545081D01*
G37*
G36*
X153175506Y-125545081D02*
G01*
X153287528Y-125591482D01*
X153366740Y-125624293D01*
X153538846Y-125739291D01*
X153685209Y-125885654D01*
X153800207Y-126057760D01*
X153800207Y-126057761D01*
X153879419Y-126248994D01*
X153919800Y-126452004D01*
X153919800Y-126658996D01*
X153879419Y-126862006D01*
X153833018Y-126974028D01*
X153800207Y-127053240D01*
X153685209Y-127225346D01*
X153538846Y-127371709D01*
X153366740Y-127486707D01*
X153287528Y-127519518D01*
X153175506Y-127565919D01*
X152972496Y-127606300D01*
X152765504Y-127606300D01*
X152562494Y-127565919D01*
X152450472Y-127519518D01*
X152371260Y-127486707D01*
X152199154Y-127371709D01*
X152052791Y-127225346D01*
X151937793Y-127053240D01*
X151904982Y-126974028D01*
X151858581Y-126862006D01*
X151818200Y-126658996D01*
X151818200Y-126452004D01*
X151858581Y-126248994D01*
X151937793Y-126057761D01*
X151937793Y-126057760D01*
X152052791Y-125885654D01*
X152199154Y-125739291D01*
X152371260Y-125624293D01*
X152450472Y-125591482D01*
X152562494Y-125545081D01*
X152765504Y-125504700D01*
X152972496Y-125504700D01*
X153175506Y-125545081D01*
X153175506Y-125545081D01*
G37*
G36*
X156175506Y-125545081D02*
G01*
X156287528Y-125591482D01*
X156366740Y-125624293D01*
X156538846Y-125739291D01*
X156685209Y-125885654D01*
X156800207Y-126057760D01*
X156800207Y-126057761D01*
X156879419Y-126248994D01*
X156919800Y-126452004D01*
X156919800Y-126658996D01*
X156879419Y-126862006D01*
X156833018Y-126974028D01*
X156800207Y-127053240D01*
X156685209Y-127225346D01*
X156538846Y-127371709D01*
X156366740Y-127486707D01*
X156287528Y-127519518D01*
X156175506Y-127565919D01*
X155972496Y-127606300D01*
X155765504Y-127606300D01*
X155562494Y-127565919D01*
X155450472Y-127519518D01*
X155371260Y-127486707D01*
X155199154Y-127371709D01*
X155052791Y-127225346D01*
X154937793Y-127053240D01*
X154904982Y-126974028D01*
X154858581Y-126862006D01*
X154818200Y-126658996D01*
X154818200Y-126452004D01*
X154858581Y-126248994D01*
X154937793Y-126057761D01*
X154937793Y-126057760D01*
X155052791Y-125885654D01*
X155199154Y-125739291D01*
X155371260Y-125624293D01*
X155450472Y-125591482D01*
X155562494Y-125545081D01*
X155765504Y-125504700D01*
X155972496Y-125504700D01*
X156175506Y-125545081D01*
X156175506Y-125545081D01*
G37*
G36*
X142865506Y-123965081D02*
G01*
X142977528Y-124011482D01*
X143056740Y-124044293D01*
X143228846Y-124159291D01*
X143375209Y-124305654D01*
X143490207Y-124477760D01*
X143490207Y-124477761D01*
X143569419Y-124668994D01*
X143609800Y-124872004D01*
X143609800Y-125078996D01*
X143569419Y-125282006D01*
X143523018Y-125394028D01*
X143490207Y-125473240D01*
X143375209Y-125645346D01*
X143228846Y-125791709D01*
X143056740Y-125906707D01*
X142977528Y-125939518D01*
X142865506Y-125985919D01*
X142662496Y-126026300D01*
X142455504Y-126026300D01*
X142252494Y-125985919D01*
X142140472Y-125939518D01*
X142061260Y-125906707D01*
X141889154Y-125791709D01*
X141742791Y-125645346D01*
X141627793Y-125473240D01*
X141594982Y-125394028D01*
X141548581Y-125282006D01*
X141508200Y-125078996D01*
X141508200Y-124872004D01*
X141548581Y-124668994D01*
X141627793Y-124477761D01*
X141627793Y-124477760D01*
X141742791Y-124305654D01*
X141889154Y-124159291D01*
X142061260Y-124044293D01*
X142140472Y-124011482D01*
X142252494Y-123965081D01*
X142455504Y-123924700D01*
X142662496Y-123924700D01*
X142865506Y-123965081D01*
X142865506Y-123965081D01*
G37*
G36*
X125085506Y-123965081D02*
G01*
X125197528Y-124011482D01*
X125276740Y-124044293D01*
X125448846Y-124159291D01*
X125595209Y-124305654D01*
X125710207Y-124477760D01*
X125710207Y-124477761D01*
X125789419Y-124668994D01*
X125829800Y-124872004D01*
X125829800Y-125078996D01*
X125789419Y-125282006D01*
X125743018Y-125394028D01*
X125710207Y-125473240D01*
X125595209Y-125645346D01*
X125448846Y-125791709D01*
X125276740Y-125906707D01*
X125197528Y-125939518D01*
X125085506Y-125985919D01*
X124882496Y-126026300D01*
X124675504Y-126026300D01*
X124472494Y-125985919D01*
X124360472Y-125939518D01*
X124281260Y-125906707D01*
X124109154Y-125791709D01*
X123962791Y-125645346D01*
X123847793Y-125473240D01*
X123814982Y-125394028D01*
X123768581Y-125282006D01*
X123728200Y-125078996D01*
X123728200Y-124872004D01*
X123768581Y-124668994D01*
X123847793Y-124477761D01*
X123847793Y-124477760D01*
X123962791Y-124305654D01*
X124109154Y-124159291D01*
X124281260Y-124044293D01*
X124360472Y-124011482D01*
X124472494Y-123965081D01*
X124675504Y-123924700D01*
X124882496Y-123924700D01*
X125085506Y-123965081D01*
X125085506Y-123965081D01*
G37*
G36*
X127625506Y-123965081D02*
G01*
X127737528Y-124011482D01*
X127816740Y-124044293D01*
X127988846Y-124159291D01*
X128135209Y-124305654D01*
X128250207Y-124477760D01*
X128250207Y-124477761D01*
X128329419Y-124668994D01*
X128369800Y-124872004D01*
X128369800Y-125078996D01*
X128329419Y-125282006D01*
X128283018Y-125394028D01*
X128250207Y-125473240D01*
X128135209Y-125645346D01*
X127988846Y-125791709D01*
X127816740Y-125906707D01*
X127737528Y-125939518D01*
X127625506Y-125985919D01*
X127422496Y-126026300D01*
X127215504Y-126026300D01*
X127012494Y-125985919D01*
X126900472Y-125939518D01*
X126821260Y-125906707D01*
X126649154Y-125791709D01*
X126502791Y-125645346D01*
X126387793Y-125473240D01*
X126354982Y-125394028D01*
X126308581Y-125282006D01*
X126268200Y-125078996D01*
X126268200Y-124872004D01*
X126308581Y-124668994D01*
X126387793Y-124477761D01*
X126387793Y-124477760D01*
X126502791Y-124305654D01*
X126649154Y-124159291D01*
X126821260Y-124044293D01*
X126900472Y-124011482D01*
X127012494Y-123965081D01*
X127215504Y-123924700D01*
X127422496Y-123924700D01*
X127625506Y-123965081D01*
X127625506Y-123965081D01*
G37*
G36*
X140325506Y-123965081D02*
G01*
X140437528Y-124011482D01*
X140516740Y-124044293D01*
X140688846Y-124159291D01*
X140835209Y-124305654D01*
X140950207Y-124477760D01*
X140950207Y-124477761D01*
X141029419Y-124668994D01*
X141069800Y-124872004D01*
X141069800Y-125078996D01*
X141029419Y-125282006D01*
X140983018Y-125394028D01*
X140950207Y-125473240D01*
X140835209Y-125645346D01*
X140688846Y-125791709D01*
X140516740Y-125906707D01*
X140437528Y-125939518D01*
X140325506Y-125985919D01*
X140122496Y-126026300D01*
X139915504Y-126026300D01*
X139712494Y-125985919D01*
X139600472Y-125939518D01*
X139521260Y-125906707D01*
X139349154Y-125791709D01*
X139202791Y-125645346D01*
X139087793Y-125473240D01*
X139054982Y-125394028D01*
X139008581Y-125282006D01*
X138968200Y-125078996D01*
X138968200Y-124872004D01*
X139008581Y-124668994D01*
X139087793Y-124477761D01*
X139087793Y-124477760D01*
X139202791Y-124305654D01*
X139349154Y-124159291D01*
X139521260Y-124044293D01*
X139600472Y-124011482D01*
X139712494Y-123965081D01*
X139915504Y-123924700D01*
X140122496Y-123924700D01*
X140325506Y-123965081D01*
X140325506Y-123965081D01*
G37*
G36*
X135245506Y-123965081D02*
G01*
X135357528Y-124011482D01*
X135436740Y-124044293D01*
X135608846Y-124159291D01*
X135755209Y-124305654D01*
X135870207Y-124477760D01*
X135870207Y-124477761D01*
X135949419Y-124668994D01*
X135989800Y-124872004D01*
X135989800Y-125078996D01*
X135949419Y-125282006D01*
X135903018Y-125394028D01*
X135870207Y-125473240D01*
X135755209Y-125645346D01*
X135608846Y-125791709D01*
X135436740Y-125906707D01*
X135357528Y-125939518D01*
X135245506Y-125985919D01*
X135042496Y-126026300D01*
X134835504Y-126026300D01*
X134632494Y-125985919D01*
X134520472Y-125939518D01*
X134441260Y-125906707D01*
X134269154Y-125791709D01*
X134122791Y-125645346D01*
X134007793Y-125473240D01*
X133974982Y-125394028D01*
X133928581Y-125282006D01*
X133888200Y-125078996D01*
X133888200Y-124872004D01*
X133928581Y-124668994D01*
X134007793Y-124477761D01*
X134007793Y-124477760D01*
X134122791Y-124305654D01*
X134269154Y-124159291D01*
X134441260Y-124044293D01*
X134520472Y-124011482D01*
X134632494Y-123965081D01*
X134835504Y-123924700D01*
X135042496Y-123924700D01*
X135245506Y-123965081D01*
X135245506Y-123965081D01*
G37*
G36*
X132705506Y-123965081D02*
G01*
X132817528Y-124011482D01*
X132896740Y-124044293D01*
X133068846Y-124159291D01*
X133215209Y-124305654D01*
X133330207Y-124477760D01*
X133330207Y-124477761D01*
X133409419Y-124668994D01*
X133449800Y-124872004D01*
X133449800Y-125078996D01*
X133409419Y-125282006D01*
X133363018Y-125394028D01*
X133330207Y-125473240D01*
X133215209Y-125645346D01*
X133068846Y-125791709D01*
X132896740Y-125906707D01*
X132817528Y-125939518D01*
X132705506Y-125985919D01*
X132502496Y-126026300D01*
X132295504Y-126026300D01*
X132092494Y-125985919D01*
X131980472Y-125939518D01*
X131901260Y-125906707D01*
X131729154Y-125791709D01*
X131582791Y-125645346D01*
X131467793Y-125473240D01*
X131434982Y-125394028D01*
X131388581Y-125282006D01*
X131348200Y-125078996D01*
X131348200Y-124872004D01*
X131388581Y-124668994D01*
X131467793Y-124477761D01*
X131467793Y-124477760D01*
X131582791Y-124305654D01*
X131729154Y-124159291D01*
X131901260Y-124044293D01*
X131980472Y-124011482D01*
X132092494Y-123965081D01*
X132295504Y-123924700D01*
X132502496Y-123924700D01*
X132705506Y-123965081D01*
X132705506Y-123965081D01*
G37*
G36*
X130165506Y-123965081D02*
G01*
X130277528Y-124011482D01*
X130356740Y-124044293D01*
X130528846Y-124159291D01*
X130675209Y-124305654D01*
X130790207Y-124477760D01*
X130790207Y-124477761D01*
X130869419Y-124668994D01*
X130909800Y-124872004D01*
X130909800Y-125078996D01*
X130869419Y-125282006D01*
X130823018Y-125394028D01*
X130790207Y-125473240D01*
X130675209Y-125645346D01*
X130528846Y-125791709D01*
X130356740Y-125906707D01*
X130277528Y-125939518D01*
X130165506Y-125985919D01*
X129962496Y-126026300D01*
X129755504Y-126026300D01*
X129552494Y-125985919D01*
X129440472Y-125939518D01*
X129361260Y-125906707D01*
X129189154Y-125791709D01*
X129042791Y-125645346D01*
X128927793Y-125473240D01*
X128894982Y-125394028D01*
X128848581Y-125282006D01*
X128808200Y-125078996D01*
X128808200Y-124872004D01*
X128848581Y-124668994D01*
X128927793Y-124477761D01*
X128927793Y-124477760D01*
X129042791Y-124305654D01*
X129189154Y-124159291D01*
X129361260Y-124044293D01*
X129440472Y-124011482D01*
X129552494Y-123965081D01*
X129755504Y-123924700D01*
X129962496Y-123924700D01*
X130165506Y-123965081D01*
X130165506Y-123965081D01*
G37*
G36*
X137785506Y-123965081D02*
G01*
X137897528Y-124011482D01*
X137976740Y-124044293D01*
X138148846Y-124159291D01*
X138295209Y-124305654D01*
X138410207Y-124477760D01*
X138410207Y-124477761D01*
X138489419Y-124668994D01*
X138529800Y-124872004D01*
X138529800Y-125078996D01*
X138489419Y-125282006D01*
X138443018Y-125394028D01*
X138410207Y-125473240D01*
X138295209Y-125645346D01*
X138148846Y-125791709D01*
X137976740Y-125906707D01*
X137897528Y-125939518D01*
X137785506Y-125985919D01*
X137582496Y-126026300D01*
X137375504Y-126026300D01*
X137172494Y-125985919D01*
X137060472Y-125939518D01*
X136981260Y-125906707D01*
X136809154Y-125791709D01*
X136662791Y-125645346D01*
X136547793Y-125473240D01*
X136514982Y-125394028D01*
X136468581Y-125282006D01*
X136428200Y-125078996D01*
X136428200Y-124872004D01*
X136468581Y-124668994D01*
X136547793Y-124477761D01*
X136547793Y-124477760D01*
X136662791Y-124305654D01*
X136809154Y-124159291D01*
X136981260Y-124044293D01*
X137060472Y-124011482D01*
X137172494Y-123965081D01*
X137375504Y-123924700D01*
X137582496Y-123924700D01*
X137785506Y-123965081D01*
X137785506Y-123965081D01*
G37*
G36*
X167175506Y-123045081D02*
G01*
X167287528Y-123091482D01*
X167366740Y-123124293D01*
X167538846Y-123239291D01*
X167685209Y-123385654D01*
X167800207Y-123557760D01*
X167800207Y-123557761D01*
X167879419Y-123748994D01*
X167919800Y-123952004D01*
X167919800Y-124158996D01*
X167879419Y-124362006D01*
X167833018Y-124474028D01*
X167800207Y-124553240D01*
X167685209Y-124725346D01*
X167538846Y-124871709D01*
X167366740Y-124986707D01*
X167287528Y-125019518D01*
X167175506Y-125065919D01*
X166972496Y-125106300D01*
X166765504Y-125106300D01*
X166562494Y-125065919D01*
X166450472Y-125019518D01*
X166371260Y-124986707D01*
X166199154Y-124871709D01*
X166052791Y-124725346D01*
X165937793Y-124553240D01*
X165904982Y-124474028D01*
X165858581Y-124362006D01*
X165818200Y-124158996D01*
X165818200Y-123952004D01*
X165858581Y-123748994D01*
X165937793Y-123557761D01*
X165937793Y-123557760D01*
X166052791Y-123385654D01*
X166199154Y-123239291D01*
X166371260Y-123124293D01*
X166450472Y-123091482D01*
X166562494Y-123045081D01*
X166765504Y-123004700D01*
X166972496Y-123004700D01*
X167175506Y-123045081D01*
X167175506Y-123045081D01*
G37*
G36*
X161675506Y-123045081D02*
G01*
X161787528Y-123091482D01*
X161866740Y-123124293D01*
X162038846Y-123239291D01*
X162185209Y-123385654D01*
X162300207Y-123557760D01*
X162300207Y-123557761D01*
X162379419Y-123748994D01*
X162419800Y-123952004D01*
X162419800Y-124158996D01*
X162379419Y-124362006D01*
X162333018Y-124474028D01*
X162300207Y-124553240D01*
X162185209Y-124725346D01*
X162038846Y-124871709D01*
X161866740Y-124986707D01*
X161787528Y-125019518D01*
X161675506Y-125065919D01*
X161472496Y-125106300D01*
X161265504Y-125106300D01*
X161062494Y-125065919D01*
X160950472Y-125019518D01*
X160871260Y-124986707D01*
X160699154Y-124871709D01*
X160552791Y-124725346D01*
X160437793Y-124553240D01*
X160404982Y-124474028D01*
X160358581Y-124362006D01*
X160318200Y-124158996D01*
X160318200Y-123952004D01*
X160358581Y-123748994D01*
X160437793Y-123557761D01*
X160437793Y-123557760D01*
X160552791Y-123385654D01*
X160699154Y-123239291D01*
X160871260Y-123124293D01*
X160950472Y-123091482D01*
X161062494Y-123045081D01*
X161265504Y-123004700D01*
X161472496Y-123004700D01*
X161675506Y-123045081D01*
X161675506Y-123045081D01*
G37*
G36*
X153175506Y-123045081D02*
G01*
X153287528Y-123091482D01*
X153366740Y-123124293D01*
X153538846Y-123239291D01*
X153685209Y-123385654D01*
X153800207Y-123557760D01*
X153800207Y-123557761D01*
X153879419Y-123748994D01*
X153919800Y-123952004D01*
X153919800Y-124158996D01*
X153879419Y-124362006D01*
X153833018Y-124474028D01*
X153800207Y-124553240D01*
X153685209Y-124725346D01*
X153538846Y-124871709D01*
X153366740Y-124986707D01*
X153287528Y-125019518D01*
X153175506Y-125065919D01*
X152972496Y-125106300D01*
X152765504Y-125106300D01*
X152562494Y-125065919D01*
X152450472Y-125019518D01*
X152371260Y-124986707D01*
X152199154Y-124871709D01*
X152052791Y-124725346D01*
X151937793Y-124553240D01*
X151904982Y-124474028D01*
X151858581Y-124362006D01*
X151818200Y-124158996D01*
X151818200Y-123952004D01*
X151858581Y-123748994D01*
X151937793Y-123557761D01*
X151937793Y-123557760D01*
X152052791Y-123385654D01*
X152199154Y-123239291D01*
X152371260Y-123124293D01*
X152450472Y-123091482D01*
X152562494Y-123045081D01*
X152765504Y-123004700D01*
X152972496Y-123004700D01*
X153175506Y-123045081D01*
X153175506Y-123045081D01*
G37*
G36*
X164175506Y-123045081D02*
G01*
X164287528Y-123091482D01*
X164366740Y-123124293D01*
X164538846Y-123239291D01*
X164685209Y-123385654D01*
X164800207Y-123557760D01*
X164800207Y-123557761D01*
X164879419Y-123748994D01*
X164919800Y-123952004D01*
X164919800Y-124158996D01*
X164879419Y-124362006D01*
X164833018Y-124474028D01*
X164800207Y-124553240D01*
X164685209Y-124725346D01*
X164538846Y-124871709D01*
X164366740Y-124986707D01*
X164287528Y-125019518D01*
X164175506Y-125065919D01*
X163972496Y-125106300D01*
X163765504Y-125106300D01*
X163562494Y-125065919D01*
X163450472Y-125019518D01*
X163371260Y-124986707D01*
X163199154Y-124871709D01*
X163052791Y-124725346D01*
X162937793Y-124553240D01*
X162904982Y-124474028D01*
X162858581Y-124362006D01*
X162818200Y-124158996D01*
X162818200Y-123952004D01*
X162858581Y-123748994D01*
X162937793Y-123557761D01*
X162937793Y-123557760D01*
X163052791Y-123385654D01*
X163199154Y-123239291D01*
X163371260Y-123124293D01*
X163450472Y-123091482D01*
X163562494Y-123045081D01*
X163765504Y-123004700D01*
X163972496Y-123004700D01*
X164175506Y-123045081D01*
X164175506Y-123045081D01*
G37*
G36*
X147675506Y-123045081D02*
G01*
X147787528Y-123091482D01*
X147866740Y-123124293D01*
X148038846Y-123239291D01*
X148185209Y-123385654D01*
X148300207Y-123557760D01*
X148300207Y-123557761D01*
X148379419Y-123748994D01*
X148419800Y-123952004D01*
X148419800Y-124158996D01*
X148379419Y-124362006D01*
X148333018Y-124474028D01*
X148300207Y-124553240D01*
X148185209Y-124725346D01*
X148038846Y-124871709D01*
X147866740Y-124986707D01*
X147787528Y-125019518D01*
X147675506Y-125065919D01*
X147472496Y-125106300D01*
X147265504Y-125106300D01*
X147062494Y-125065919D01*
X146950472Y-125019518D01*
X146871260Y-124986707D01*
X146699154Y-124871709D01*
X146552791Y-124725346D01*
X146437793Y-124553240D01*
X146404982Y-124474028D01*
X146358581Y-124362006D01*
X146318200Y-124158996D01*
X146318200Y-123952004D01*
X146358581Y-123748994D01*
X146437793Y-123557761D01*
X146437793Y-123557760D01*
X146552791Y-123385654D01*
X146699154Y-123239291D01*
X146871260Y-123124293D01*
X146950472Y-123091482D01*
X147062494Y-123045081D01*
X147265504Y-123004700D01*
X147472496Y-123004700D01*
X147675506Y-123045081D01*
X147675506Y-123045081D01*
G37*
G36*
X158675506Y-123045081D02*
G01*
X158787528Y-123091482D01*
X158866740Y-123124293D01*
X159038846Y-123239291D01*
X159185209Y-123385654D01*
X159300207Y-123557760D01*
X159300207Y-123557761D01*
X159379419Y-123748994D01*
X159419800Y-123952004D01*
X159419800Y-124158996D01*
X159379419Y-124362006D01*
X159333018Y-124474028D01*
X159300207Y-124553240D01*
X159185209Y-124725346D01*
X159038846Y-124871709D01*
X158866740Y-124986707D01*
X158787528Y-125019518D01*
X158675506Y-125065919D01*
X158472496Y-125106300D01*
X158265504Y-125106300D01*
X158062494Y-125065919D01*
X157950472Y-125019518D01*
X157871260Y-124986707D01*
X157699154Y-124871709D01*
X157552791Y-124725346D01*
X157437793Y-124553240D01*
X157404982Y-124474028D01*
X157358581Y-124362006D01*
X157318200Y-124158996D01*
X157318200Y-123952004D01*
X157358581Y-123748994D01*
X157437793Y-123557761D01*
X157437793Y-123557760D01*
X157552791Y-123385654D01*
X157699154Y-123239291D01*
X157871260Y-123124293D01*
X157950472Y-123091482D01*
X158062494Y-123045081D01*
X158265504Y-123004700D01*
X158472496Y-123004700D01*
X158675506Y-123045081D01*
X158675506Y-123045081D01*
G37*
G36*
X150675506Y-123045081D02*
G01*
X150787528Y-123091482D01*
X150866740Y-123124293D01*
X151038846Y-123239291D01*
X151185209Y-123385654D01*
X151300207Y-123557760D01*
X151300207Y-123557761D01*
X151379419Y-123748994D01*
X151419800Y-123952004D01*
X151419800Y-124158996D01*
X151379419Y-124362006D01*
X151333018Y-124474028D01*
X151300207Y-124553240D01*
X151185209Y-124725346D01*
X151038846Y-124871709D01*
X150866740Y-124986707D01*
X150787528Y-125019518D01*
X150675506Y-125065919D01*
X150472496Y-125106300D01*
X150265504Y-125106300D01*
X150062494Y-125065919D01*
X149950472Y-125019518D01*
X149871260Y-124986707D01*
X149699154Y-124871709D01*
X149552791Y-124725346D01*
X149437793Y-124553240D01*
X149404982Y-124474028D01*
X149358581Y-124362006D01*
X149318200Y-124158996D01*
X149318200Y-123952004D01*
X149358581Y-123748994D01*
X149437793Y-123557761D01*
X149437793Y-123557760D01*
X149552791Y-123385654D01*
X149699154Y-123239291D01*
X149871260Y-123124293D01*
X149950472Y-123091482D01*
X150062494Y-123045081D01*
X150265504Y-123004700D01*
X150472496Y-123004700D01*
X150675506Y-123045081D01*
X150675506Y-123045081D01*
G37*
G36*
X156175506Y-123045081D02*
G01*
X156287528Y-123091482D01*
X156366740Y-123124293D01*
X156538846Y-123239291D01*
X156685209Y-123385654D01*
X156800207Y-123557760D01*
X156800207Y-123557761D01*
X156879419Y-123748994D01*
X156919800Y-123952004D01*
X156919800Y-124158996D01*
X156879419Y-124362006D01*
X156833018Y-124474028D01*
X156800207Y-124553240D01*
X156685209Y-124725346D01*
X156538846Y-124871709D01*
X156366740Y-124986707D01*
X156287528Y-125019518D01*
X156175506Y-125065919D01*
X155972496Y-125106300D01*
X155765504Y-125106300D01*
X155562494Y-125065919D01*
X155450472Y-125019518D01*
X155371260Y-124986707D01*
X155199154Y-124871709D01*
X155052791Y-124725346D01*
X154937793Y-124553240D01*
X154904982Y-124474028D01*
X154858581Y-124362006D01*
X154818200Y-124158996D01*
X154818200Y-123952004D01*
X154858581Y-123748994D01*
X154937793Y-123557761D01*
X154937793Y-123557760D01*
X155052791Y-123385654D01*
X155199154Y-123239291D01*
X155371260Y-123124293D01*
X155450472Y-123091482D01*
X155562494Y-123045081D01*
X155765504Y-123004700D01*
X155972496Y-123004700D01*
X156175506Y-123045081D01*
X156175506Y-123045081D01*
G37*
G36*
X158675506Y-120545081D02*
G01*
X158787528Y-120591482D01*
X158866740Y-120624293D01*
X159038846Y-120739291D01*
X159185209Y-120885654D01*
X159300207Y-121057760D01*
X159300207Y-121057761D01*
X159379419Y-121248994D01*
X159419800Y-121452004D01*
X159419800Y-121658996D01*
X159379419Y-121862006D01*
X159333018Y-121974028D01*
X159300207Y-122053240D01*
X159185209Y-122225346D01*
X159038846Y-122371709D01*
X158866740Y-122486707D01*
X158787528Y-122519518D01*
X158675506Y-122565919D01*
X158472496Y-122606300D01*
X158265504Y-122606300D01*
X158062494Y-122565919D01*
X157950472Y-122519518D01*
X157871260Y-122486707D01*
X157699154Y-122371709D01*
X157552791Y-122225346D01*
X157437793Y-122053240D01*
X157404982Y-121974028D01*
X157358581Y-121862006D01*
X157318200Y-121658996D01*
X157318200Y-121452004D01*
X157358581Y-121248994D01*
X157437793Y-121057761D01*
X157437793Y-121057760D01*
X157552791Y-120885654D01*
X157699154Y-120739291D01*
X157871260Y-120624293D01*
X157950472Y-120591482D01*
X158062494Y-120545081D01*
X158265504Y-120504700D01*
X158472496Y-120504700D01*
X158675506Y-120545081D01*
X158675506Y-120545081D01*
G37*
G36*
X161675506Y-120545081D02*
G01*
X161787528Y-120591482D01*
X161866740Y-120624293D01*
X162038846Y-120739291D01*
X162185209Y-120885654D01*
X162300207Y-121057760D01*
X162300207Y-121057761D01*
X162379419Y-121248994D01*
X162419800Y-121452004D01*
X162419800Y-121658996D01*
X162379419Y-121862006D01*
X162333018Y-121974028D01*
X162300207Y-122053240D01*
X162185209Y-122225346D01*
X162038846Y-122371709D01*
X161866740Y-122486707D01*
X161787528Y-122519518D01*
X161675506Y-122565919D01*
X161472496Y-122606300D01*
X161265504Y-122606300D01*
X161062494Y-122565919D01*
X160950472Y-122519518D01*
X160871260Y-122486707D01*
X160699154Y-122371709D01*
X160552791Y-122225346D01*
X160437793Y-122053240D01*
X160404982Y-121974028D01*
X160358581Y-121862006D01*
X160318200Y-121658996D01*
X160318200Y-121452004D01*
X160358581Y-121248994D01*
X160437793Y-121057761D01*
X160437793Y-121057760D01*
X160552791Y-120885654D01*
X160699154Y-120739291D01*
X160871260Y-120624293D01*
X160950472Y-120591482D01*
X161062494Y-120545081D01*
X161265504Y-120504700D01*
X161472496Y-120504700D01*
X161675506Y-120545081D01*
X161675506Y-120545081D01*
G37*
G36*
X156175506Y-120545081D02*
G01*
X156287528Y-120591482D01*
X156366740Y-120624293D01*
X156538846Y-120739291D01*
X156685209Y-120885654D01*
X156800207Y-121057760D01*
X156800207Y-121057761D01*
X156879419Y-121248994D01*
X156919800Y-121452004D01*
X156919800Y-121658996D01*
X156879419Y-121862006D01*
X156833018Y-121974028D01*
X156800207Y-122053240D01*
X156685209Y-122225346D01*
X156538846Y-122371709D01*
X156366740Y-122486707D01*
X156287528Y-122519518D01*
X156175506Y-122565919D01*
X155972496Y-122606300D01*
X155765504Y-122606300D01*
X155562494Y-122565919D01*
X155450472Y-122519518D01*
X155371260Y-122486707D01*
X155199154Y-122371709D01*
X155052791Y-122225346D01*
X154937793Y-122053240D01*
X154904982Y-121974028D01*
X154858581Y-121862006D01*
X154818200Y-121658996D01*
X154818200Y-121452004D01*
X154858581Y-121248994D01*
X154937793Y-121057761D01*
X154937793Y-121057760D01*
X155052791Y-120885654D01*
X155199154Y-120739291D01*
X155371260Y-120624293D01*
X155450472Y-120591482D01*
X155562494Y-120545081D01*
X155765504Y-120504700D01*
X155972496Y-120504700D01*
X156175506Y-120545081D01*
X156175506Y-120545081D01*
G37*
G36*
X153175506Y-120545081D02*
G01*
X153287528Y-120591482D01*
X153366740Y-120624293D01*
X153538846Y-120739291D01*
X153685209Y-120885654D01*
X153800207Y-121057760D01*
X153800207Y-121057761D01*
X153879419Y-121248994D01*
X153919800Y-121452004D01*
X153919800Y-121658996D01*
X153879419Y-121862006D01*
X153833018Y-121974028D01*
X153800207Y-122053240D01*
X153685209Y-122225346D01*
X153538846Y-122371709D01*
X153366740Y-122486707D01*
X153287528Y-122519518D01*
X153175506Y-122565919D01*
X152972496Y-122606300D01*
X152765504Y-122606300D01*
X152562494Y-122565919D01*
X152450472Y-122519518D01*
X152371260Y-122486707D01*
X152199154Y-122371709D01*
X152052791Y-122225346D01*
X151937793Y-122053240D01*
X151904982Y-121974028D01*
X151858581Y-121862006D01*
X151818200Y-121658996D01*
X151818200Y-121452004D01*
X151858581Y-121248994D01*
X151937793Y-121057761D01*
X151937793Y-121057760D01*
X152052791Y-120885654D01*
X152199154Y-120739291D01*
X152371260Y-120624293D01*
X152450472Y-120591482D01*
X152562494Y-120545081D01*
X152765504Y-120504700D01*
X152972496Y-120504700D01*
X153175506Y-120545081D01*
X153175506Y-120545081D01*
G37*
G36*
X147675506Y-120545081D02*
G01*
X147787528Y-120591482D01*
X147866740Y-120624293D01*
X148038846Y-120739291D01*
X148185209Y-120885654D01*
X148300207Y-121057760D01*
X148300207Y-121057761D01*
X148379419Y-121248994D01*
X148419800Y-121452004D01*
X148419800Y-121658996D01*
X148379419Y-121862006D01*
X148333018Y-121974028D01*
X148300207Y-122053240D01*
X148185209Y-122225346D01*
X148038846Y-122371709D01*
X147866740Y-122486707D01*
X147787528Y-122519518D01*
X147675506Y-122565919D01*
X147472496Y-122606300D01*
X147265504Y-122606300D01*
X147062494Y-122565919D01*
X146950472Y-122519518D01*
X146871260Y-122486707D01*
X146699154Y-122371709D01*
X146552791Y-122225346D01*
X146437793Y-122053240D01*
X146404982Y-121974028D01*
X146358581Y-121862006D01*
X146318200Y-121658996D01*
X146318200Y-121452004D01*
X146358581Y-121248994D01*
X146437793Y-121057761D01*
X146437793Y-121057760D01*
X146552791Y-120885654D01*
X146699154Y-120739291D01*
X146871260Y-120624293D01*
X146950472Y-120591482D01*
X147062494Y-120545081D01*
X147265504Y-120504700D01*
X147472496Y-120504700D01*
X147675506Y-120545081D01*
X147675506Y-120545081D01*
G37*
G36*
X164175506Y-120545081D02*
G01*
X164287528Y-120591482D01*
X164366740Y-120624293D01*
X164538846Y-120739291D01*
X164685209Y-120885654D01*
X164800207Y-121057760D01*
X164800207Y-121057761D01*
X164879419Y-121248994D01*
X164919800Y-121452004D01*
X164919800Y-121658996D01*
X164879419Y-121862006D01*
X164833018Y-121974028D01*
X164800207Y-122053240D01*
X164685209Y-122225346D01*
X164538846Y-122371709D01*
X164366740Y-122486707D01*
X164287528Y-122519518D01*
X164175506Y-122565919D01*
X163972496Y-122606300D01*
X163765504Y-122606300D01*
X163562494Y-122565919D01*
X163450472Y-122519518D01*
X163371260Y-122486707D01*
X163199154Y-122371709D01*
X163052791Y-122225346D01*
X162937793Y-122053240D01*
X162904982Y-121974028D01*
X162858581Y-121862006D01*
X162818200Y-121658996D01*
X162818200Y-121452004D01*
X162858581Y-121248994D01*
X162937793Y-121057761D01*
X162937793Y-121057760D01*
X163052791Y-120885654D01*
X163199154Y-120739291D01*
X163371260Y-120624293D01*
X163450472Y-120591482D01*
X163562494Y-120545081D01*
X163765504Y-120504700D01*
X163972496Y-120504700D01*
X164175506Y-120545081D01*
X164175506Y-120545081D01*
G37*
G36*
X167175506Y-120545081D02*
G01*
X167287528Y-120591482D01*
X167366740Y-120624293D01*
X167538846Y-120739291D01*
X167685209Y-120885654D01*
X167800207Y-121057760D01*
X167800207Y-121057761D01*
X167879419Y-121248994D01*
X167919800Y-121452004D01*
X167919800Y-121658996D01*
X167879419Y-121862006D01*
X167833018Y-121974028D01*
X167800207Y-122053240D01*
X167685209Y-122225346D01*
X167538846Y-122371709D01*
X167366740Y-122486707D01*
X167287528Y-122519518D01*
X167175506Y-122565919D01*
X166972496Y-122606300D01*
X166765504Y-122606300D01*
X166562494Y-122565919D01*
X166450472Y-122519518D01*
X166371260Y-122486707D01*
X166199154Y-122371709D01*
X166052791Y-122225346D01*
X165937793Y-122053240D01*
X165904982Y-121974028D01*
X165858581Y-121862006D01*
X165818200Y-121658996D01*
X165818200Y-121452004D01*
X165858581Y-121248994D01*
X165937793Y-121057761D01*
X165937793Y-121057760D01*
X166052791Y-120885654D01*
X166199154Y-120739291D01*
X166371260Y-120624293D01*
X166450472Y-120591482D01*
X166562494Y-120545081D01*
X166765504Y-120504700D01*
X166972496Y-120504700D01*
X167175506Y-120545081D01*
X167175506Y-120545081D01*
G37*
G36*
X150675506Y-120545081D02*
G01*
X150787528Y-120591482D01*
X150866740Y-120624293D01*
X151038846Y-120739291D01*
X151185209Y-120885654D01*
X151300207Y-121057760D01*
X151300207Y-121057761D01*
X151379419Y-121248994D01*
X151419800Y-121452004D01*
X151419800Y-121658996D01*
X151379419Y-121862006D01*
X151333018Y-121974028D01*
X151300207Y-122053240D01*
X151185209Y-122225346D01*
X151038846Y-122371709D01*
X150866740Y-122486707D01*
X150787528Y-122519518D01*
X150675506Y-122565919D01*
X150472496Y-122606300D01*
X150265504Y-122606300D01*
X150062494Y-122565919D01*
X149950472Y-122519518D01*
X149871260Y-122486707D01*
X149699154Y-122371709D01*
X149552791Y-122225346D01*
X149437793Y-122053240D01*
X149404982Y-121974028D01*
X149358581Y-121862006D01*
X149318200Y-121658996D01*
X149318200Y-121452004D01*
X149358581Y-121248994D01*
X149437793Y-121057761D01*
X149437793Y-121057760D01*
X149552791Y-120885654D01*
X149699154Y-120739291D01*
X149871260Y-120624293D01*
X149950472Y-120591482D01*
X150062494Y-120545081D01*
X150265504Y-120504700D01*
X150472496Y-120504700D01*
X150675506Y-120545081D01*
X150675506Y-120545081D01*
G37*
G36*
X117997900Y-114765846D02*
G01*
X118210521Y-114808139D01*
X118510947Y-114932580D01*
X118781324Y-115113240D01*
X119011260Y-115343176D01*
X119191920Y-115613553D01*
X119316361Y-115913979D01*
X119379800Y-116232910D01*
X119379800Y-116558090D01*
X119316361Y-116877021D01*
X119191920Y-117177447D01*
X119011260Y-117447824D01*
X118781324Y-117677760D01*
X118510947Y-117858420D01*
X118210521Y-117982861D01*
X117997900Y-118025154D01*
X117891591Y-118046300D01*
X117566409Y-118046300D01*
X117460100Y-118025154D01*
X117247479Y-117982861D01*
X116947053Y-117858420D01*
X116676676Y-117677760D01*
X116446740Y-117447824D01*
X116266080Y-117177447D01*
X116141639Y-116877021D01*
X116078200Y-116558090D01*
X116078200Y-116232910D01*
X116141639Y-115913979D01*
X116266080Y-115613553D01*
X116446740Y-115343176D01*
X116676676Y-115113240D01*
X116947053Y-114932580D01*
X117247479Y-114808139D01*
X117460100Y-114765846D01*
X117566409Y-114744700D01*
X117891591Y-114744700D01*
X117997900Y-114765846D01*
X117997900Y-114765846D01*
G37*
G36*
X173877900Y-114765846D02*
G01*
X174090521Y-114808139D01*
X174390947Y-114932580D01*
X174661324Y-115113240D01*
X174891260Y-115343176D01*
X175071920Y-115613553D01*
X175196361Y-115913979D01*
X175259800Y-116232910D01*
X175259800Y-116558090D01*
X175196361Y-116877021D01*
X175071920Y-117177447D01*
X174891260Y-117447824D01*
X174661324Y-117677760D01*
X174390947Y-117858420D01*
X174090521Y-117982861D01*
X173877900Y-118025154D01*
X173771591Y-118046300D01*
X173446409Y-118046300D01*
X173340100Y-118025154D01*
X173127479Y-117982861D01*
X172827053Y-117858420D01*
X172556676Y-117677760D01*
X172326740Y-117447824D01*
X172146080Y-117177447D01*
X172021639Y-116877021D01*
X171958200Y-116558090D01*
X171958200Y-116232910D01*
X172021639Y-115913979D01*
X172146080Y-115613553D01*
X172326740Y-115343176D01*
X172556676Y-115113240D01*
X172827053Y-114932580D01*
X173127479Y-114808139D01*
X173340100Y-114765846D01*
X173446409Y-114744700D01*
X173771591Y-114744700D01*
X173877900Y-114765846D01*
X173877900Y-114765846D01*
G37*
G36*
X147026968Y-100506783D02*
G01*
X147060933Y-100517086D01*
X147092234Y-100533817D01*
X147119668Y-100556332D01*
X147142183Y-100583766D01*
X147158914Y-100615067D01*
X147169217Y-100649032D01*
X147173300Y-100690490D01*
X147173300Y-101366510D01*
X147169217Y-101407968D01*
X147158914Y-101441933D01*
X147142183Y-101473234D01*
X147119668Y-101500668D01*
X147092234Y-101523183D01*
X147060933Y-101539914D01*
X147026968Y-101550217D01*
X146985510Y-101554300D01*
X146384490Y-101554300D01*
X146343032Y-101550217D01*
X146309067Y-101539914D01*
X146277766Y-101523183D01*
X146250332Y-101500668D01*
X146227817Y-101473234D01*
X146211086Y-101441933D01*
X146200783Y-101407968D01*
X146196700Y-101366510D01*
X146196700Y-100690490D01*
X146200783Y-100649032D01*
X146211086Y-100615067D01*
X146227817Y-100583766D01*
X146250332Y-100556332D01*
X146277766Y-100533817D01*
X146309067Y-100517086D01*
X146343032Y-100506783D01*
X146384490Y-100502700D01*
X146985510Y-100502700D01*
X147026968Y-100506783D01*
X147026968Y-100506783D01*
G37*
G36*
X148601968Y-100506783D02*
G01*
X148635933Y-100517086D01*
X148667234Y-100533817D01*
X148694668Y-100556332D01*
X148717183Y-100583766D01*
X148733914Y-100615067D01*
X148744217Y-100649032D01*
X148748300Y-100690490D01*
X148748300Y-101366510D01*
X148744217Y-101407968D01*
X148733914Y-101441933D01*
X148717183Y-101473234D01*
X148694668Y-101500668D01*
X148667234Y-101523183D01*
X148635933Y-101539914D01*
X148601968Y-101550217D01*
X148560510Y-101554300D01*
X147959490Y-101554300D01*
X147918032Y-101550217D01*
X147884067Y-101539914D01*
X147852766Y-101523183D01*
X147825332Y-101500668D01*
X147802817Y-101473234D01*
X147786086Y-101441933D01*
X147775783Y-101407968D01*
X147771700Y-101366510D01*
X147771700Y-100690490D01*
X147775783Y-100649032D01*
X147786086Y-100615067D01*
X147802817Y-100583766D01*
X147825332Y-100556332D01*
X147852766Y-100533817D01*
X147884067Y-100517086D01*
X147918032Y-100506783D01*
X147959490Y-100502700D01*
X148560510Y-100502700D01*
X148601968Y-100506783D01*
X148601968Y-100506783D01*
G37*
G36*
X153097468Y-100379783D02*
G01*
X153131433Y-100390086D01*
X153162734Y-100406817D01*
X153190168Y-100429332D01*
X153212683Y-100456766D01*
X153229414Y-100488067D01*
X153239717Y-100522032D01*
X153243800Y-100563490D01*
X153243800Y-101239510D01*
X153239717Y-101280968D01*
X153229414Y-101314933D01*
X153212683Y-101346234D01*
X153190168Y-101373668D01*
X153162734Y-101396183D01*
X153131433Y-101412914D01*
X153097468Y-101423217D01*
X153056010Y-101427300D01*
X152454990Y-101427300D01*
X152413532Y-101423217D01*
X152379567Y-101412914D01*
X152348266Y-101396183D01*
X152320832Y-101373668D01*
X152298317Y-101346234D01*
X152281586Y-101314933D01*
X152271283Y-101280968D01*
X152267200Y-101239510D01*
X152267200Y-100563490D01*
X152271283Y-100522032D01*
X152281586Y-100488067D01*
X152298317Y-100456766D01*
X152320832Y-100429332D01*
X152348266Y-100406817D01*
X152379567Y-100390086D01*
X152413532Y-100379783D01*
X152454990Y-100375700D01*
X153056010Y-100375700D01*
X153097468Y-100379783D01*
X153097468Y-100379783D01*
G37*
G36*
X154672468Y-100379783D02*
G01*
X154706433Y-100390086D01*
X154737734Y-100406817D01*
X154765168Y-100429332D01*
X154787683Y-100456766D01*
X154804414Y-100488067D01*
X154814717Y-100522032D01*
X154818800Y-100563490D01*
X154818800Y-101239510D01*
X154814717Y-101280968D01*
X154804414Y-101314933D01*
X154787683Y-101346234D01*
X154765168Y-101373668D01*
X154737734Y-101396183D01*
X154706433Y-101412914D01*
X154672468Y-101423217D01*
X154631010Y-101427300D01*
X154029990Y-101427300D01*
X153988532Y-101423217D01*
X153954567Y-101412914D01*
X153923266Y-101396183D01*
X153895832Y-101373668D01*
X153873317Y-101346234D01*
X153856586Y-101314933D01*
X153846283Y-101280968D01*
X153842200Y-101239510D01*
X153842200Y-100563490D01*
X153846283Y-100522032D01*
X153856586Y-100488067D01*
X153873317Y-100456766D01*
X153895832Y-100429332D01*
X153923266Y-100406817D01*
X153954567Y-100390086D01*
X153988532Y-100379783D01*
X154029990Y-100375700D01*
X154631010Y-100375700D01*
X154672468Y-100379783D01*
X154672468Y-100379783D01*
G37*
G36*
X140587468Y-95261283D02*
G01*
X140621433Y-95271586D01*
X140652734Y-95288317D01*
X140680168Y-95310832D01*
X140702683Y-95338266D01*
X140719414Y-95369567D01*
X140729717Y-95403532D01*
X140733800Y-95444990D01*
X140733800Y-96046010D01*
X140729717Y-96087468D01*
X140719414Y-96121433D01*
X140702683Y-96152734D01*
X140680168Y-96180168D01*
X140652734Y-96202683D01*
X140621433Y-96219414D01*
X140587468Y-96229717D01*
X140546010Y-96233800D01*
X139869990Y-96233800D01*
X139828532Y-96229717D01*
X139794567Y-96219414D01*
X139763266Y-96202683D01*
X139735832Y-96180168D01*
X139713317Y-96152734D01*
X139696586Y-96121433D01*
X139686283Y-96087468D01*
X139682200Y-96046010D01*
X139682200Y-95444990D01*
X139686283Y-95403532D01*
X139696586Y-95369567D01*
X139713317Y-95338266D01*
X139735832Y-95310832D01*
X139763266Y-95288317D01*
X139794567Y-95271586D01*
X139828532Y-95261283D01*
X139869990Y-95257200D01*
X140546010Y-95257200D01*
X140587468Y-95261283D01*
X140587468Y-95261283D01*
G37*
G36*
X156081468Y-94499283D02*
G01*
X156115433Y-94509586D01*
X156146734Y-94526317D01*
X156174168Y-94548832D01*
X156196683Y-94576266D01*
X156213414Y-94607567D01*
X156223717Y-94641532D01*
X156227800Y-94682990D01*
X156227800Y-95284010D01*
X156223717Y-95325468D01*
X156213414Y-95359433D01*
X156196683Y-95390734D01*
X156174168Y-95418168D01*
X156146734Y-95440683D01*
X156115433Y-95457414D01*
X156081468Y-95467717D01*
X156040010Y-95471800D01*
X155363990Y-95471800D01*
X155322532Y-95467717D01*
X155288567Y-95457414D01*
X155257266Y-95440683D01*
X155229832Y-95418168D01*
X155207317Y-95390734D01*
X155190586Y-95359433D01*
X155180283Y-95325468D01*
X155176200Y-95284010D01*
X155176200Y-94682990D01*
X155180283Y-94641532D01*
X155190586Y-94607567D01*
X155207317Y-94576266D01*
X155229832Y-94548832D01*
X155257266Y-94526317D01*
X155288567Y-94509586D01*
X155322532Y-94499283D01*
X155363990Y-94495200D01*
X156040010Y-94495200D01*
X156081468Y-94499283D01*
X156081468Y-94499283D01*
G37*
G36*
X140587468Y-93686283D02*
G01*
X140621433Y-93696586D01*
X140652734Y-93713317D01*
X140680168Y-93735832D01*
X140702683Y-93763266D01*
X140719414Y-93794567D01*
X140729717Y-93828532D01*
X140733800Y-93869990D01*
X140733800Y-94471010D01*
X140729717Y-94512468D01*
X140719414Y-94546433D01*
X140702683Y-94577734D01*
X140680168Y-94605168D01*
X140652734Y-94627683D01*
X140621433Y-94644414D01*
X140587468Y-94654717D01*
X140546010Y-94658800D01*
X139869990Y-94658800D01*
X139828532Y-94654717D01*
X139794567Y-94644414D01*
X139763266Y-94627683D01*
X139735832Y-94605168D01*
X139713317Y-94577734D01*
X139696586Y-94546433D01*
X139686283Y-94512468D01*
X139682200Y-94471010D01*
X139682200Y-93869990D01*
X139686283Y-93828532D01*
X139696586Y-93794567D01*
X139713317Y-93763266D01*
X139735832Y-93735832D01*
X139763266Y-93713317D01*
X139794567Y-93696586D01*
X139828532Y-93686283D01*
X139869990Y-93682200D01*
X140546010Y-93682200D01*
X140587468Y-93686283D01*
X140587468Y-93686283D01*
G37*
G36*
X156081468Y-92924283D02*
G01*
X156115433Y-92934586D01*
X156146734Y-92951317D01*
X156174168Y-92973832D01*
X156196683Y-93001266D01*
X156213414Y-93032567D01*
X156223717Y-93066532D01*
X156227800Y-93107990D01*
X156227800Y-93709010D01*
X156223717Y-93750468D01*
X156213414Y-93784433D01*
X156196683Y-93815734D01*
X156174168Y-93843168D01*
X156146734Y-93865683D01*
X156115433Y-93882414D01*
X156081468Y-93892717D01*
X156040010Y-93896800D01*
X155363990Y-93896800D01*
X155322532Y-93892717D01*
X155288567Y-93882414D01*
X155257266Y-93865683D01*
X155229832Y-93843168D01*
X155207317Y-93815734D01*
X155190586Y-93784433D01*
X155180283Y-93750468D01*
X155176200Y-93709010D01*
X155176200Y-93107990D01*
X155180283Y-93066532D01*
X155190586Y-93032567D01*
X155207317Y-93001266D01*
X155229832Y-92973832D01*
X155257266Y-92951317D01*
X155288567Y-92934586D01*
X155322532Y-92924283D01*
X155363990Y-92920200D01*
X156040010Y-92920200D01*
X156081468Y-92924283D01*
X156081468Y-92924283D01*
G37*
G36*
X140587468Y-92035283D02*
G01*
X140621433Y-92045586D01*
X140652734Y-92062317D01*
X140680168Y-92084832D01*
X140702683Y-92112266D01*
X140719414Y-92143567D01*
X140729717Y-92177532D01*
X140733800Y-92218990D01*
X140733800Y-92820010D01*
X140729717Y-92861468D01*
X140719414Y-92895433D01*
X140702683Y-92926734D01*
X140680168Y-92954168D01*
X140652734Y-92976683D01*
X140621433Y-92993414D01*
X140587468Y-93003717D01*
X140546010Y-93007800D01*
X139869990Y-93007800D01*
X139828532Y-93003717D01*
X139794567Y-92993414D01*
X139763266Y-92976683D01*
X139735832Y-92954168D01*
X139713317Y-92926734D01*
X139696586Y-92895433D01*
X139686283Y-92861468D01*
X139682200Y-92820010D01*
X139682200Y-92218990D01*
X139686283Y-92177532D01*
X139696586Y-92143567D01*
X139713317Y-92112266D01*
X139735832Y-92084832D01*
X139763266Y-92062317D01*
X139794567Y-92045586D01*
X139828532Y-92035283D01*
X139869990Y-92031200D01*
X140546010Y-92031200D01*
X140587468Y-92035283D01*
X140587468Y-92035283D01*
G37*
G36*
X158939468Y-91654784D02*
G01*
X158973433Y-91665087D01*
X159004734Y-91681818D01*
X159032168Y-91704333D01*
X159054683Y-91731767D01*
X159071414Y-91763068D01*
X159081717Y-91797033D01*
X159085800Y-91838491D01*
X159085800Y-92514511D01*
X159081717Y-92555969D01*
X159071414Y-92589934D01*
X159054683Y-92621235D01*
X159032168Y-92648669D01*
X159004734Y-92671184D01*
X158973433Y-92687915D01*
X158939468Y-92698218D01*
X158898010Y-92702301D01*
X158296990Y-92702301D01*
X158255532Y-92698218D01*
X158221567Y-92687915D01*
X158190266Y-92671184D01*
X158162832Y-92648669D01*
X158140317Y-92621235D01*
X158123586Y-92589934D01*
X158113283Y-92555969D01*
X158109200Y-92514511D01*
X158109200Y-91838491D01*
X158113283Y-91797033D01*
X158123586Y-91763068D01*
X158140317Y-91731767D01*
X158162832Y-91704333D01*
X158190266Y-91681818D01*
X158221567Y-91665087D01*
X158255532Y-91654784D01*
X158296990Y-91650701D01*
X158898010Y-91650701D01*
X158939468Y-91654784D01*
X158939468Y-91654784D01*
G37*
G36*
X160514468Y-91654784D02*
G01*
X160548433Y-91665087D01*
X160579734Y-91681818D01*
X160607168Y-91704333D01*
X160629683Y-91731767D01*
X160646414Y-91763068D01*
X160656717Y-91797033D01*
X160660800Y-91838491D01*
X160660800Y-92514511D01*
X160656717Y-92555969D01*
X160646414Y-92589934D01*
X160629683Y-92621235D01*
X160607168Y-92648669D01*
X160579734Y-92671184D01*
X160548433Y-92687915D01*
X160514468Y-92698218D01*
X160473010Y-92702301D01*
X159871990Y-92702301D01*
X159830532Y-92698218D01*
X159796567Y-92687915D01*
X159765266Y-92671184D01*
X159737832Y-92648669D01*
X159715317Y-92621235D01*
X159698586Y-92589934D01*
X159688283Y-92555969D01*
X159684200Y-92514511D01*
X159684200Y-91838491D01*
X159688283Y-91797033D01*
X159698586Y-91763068D01*
X159715317Y-91731767D01*
X159737832Y-91704333D01*
X159765266Y-91681818D01*
X159796567Y-91665087D01*
X159830532Y-91654784D01*
X159871990Y-91650701D01*
X160473010Y-91650701D01*
X160514468Y-91654784D01*
X160514468Y-91654784D01*
G37*
G36*
X140587468Y-90460283D02*
G01*
X140621433Y-90470586D01*
X140652734Y-90487317D01*
X140680168Y-90509832D01*
X140702683Y-90537266D01*
X140719414Y-90568567D01*
X140729717Y-90602532D01*
X140733800Y-90643990D01*
X140733800Y-91245010D01*
X140729717Y-91286468D01*
X140719414Y-91320433D01*
X140702683Y-91351734D01*
X140680168Y-91379168D01*
X140652734Y-91401683D01*
X140621433Y-91418414D01*
X140587468Y-91428717D01*
X140546010Y-91432800D01*
X139869990Y-91432800D01*
X139828532Y-91428717D01*
X139794567Y-91418414D01*
X139763266Y-91401683D01*
X139735832Y-91379168D01*
X139713317Y-91351734D01*
X139696586Y-91320433D01*
X139686283Y-91286468D01*
X139682200Y-91245010D01*
X139682200Y-90643990D01*
X139686283Y-90602532D01*
X139696586Y-90568567D01*
X139713317Y-90537266D01*
X139735832Y-90509832D01*
X139763266Y-90487317D01*
X139794567Y-90470586D01*
X139828532Y-90460283D01*
X139869990Y-90456200D01*
X140546010Y-90456200D01*
X140587468Y-90460283D01*
X140587468Y-90460283D01*
G37*
G36*
X158939468Y-89965783D02*
G01*
X158973433Y-89976086D01*
X159004734Y-89992817D01*
X159032168Y-90015332D01*
X159054683Y-90042766D01*
X159071414Y-90074067D01*
X159081717Y-90108032D01*
X159085800Y-90149490D01*
X159085800Y-90825510D01*
X159081717Y-90866968D01*
X159071414Y-90900933D01*
X159054683Y-90932234D01*
X159032168Y-90959668D01*
X159004734Y-90982183D01*
X158973433Y-90998914D01*
X158939468Y-91009217D01*
X158898010Y-91013300D01*
X158296990Y-91013300D01*
X158255532Y-91009217D01*
X158221567Y-90998914D01*
X158190266Y-90982183D01*
X158162832Y-90959668D01*
X158140317Y-90932234D01*
X158123586Y-90900933D01*
X158113283Y-90866968D01*
X158109200Y-90825510D01*
X158109200Y-90149490D01*
X158113283Y-90108032D01*
X158123586Y-90074067D01*
X158140317Y-90042766D01*
X158162832Y-90015332D01*
X158190266Y-89992817D01*
X158221567Y-89976086D01*
X158255532Y-89965783D01*
X158296990Y-89961700D01*
X158898010Y-89961700D01*
X158939468Y-89965783D01*
X158939468Y-89965783D01*
G37*
G36*
X160514468Y-89965783D02*
G01*
X160548433Y-89976086D01*
X160579734Y-89992817D01*
X160607168Y-90015332D01*
X160629683Y-90042766D01*
X160646414Y-90074067D01*
X160656717Y-90108032D01*
X160660800Y-90149490D01*
X160660800Y-90825510D01*
X160656717Y-90866968D01*
X160646414Y-90900933D01*
X160629683Y-90932234D01*
X160607168Y-90959668D01*
X160579734Y-90982183D01*
X160548433Y-90998914D01*
X160514468Y-91009217D01*
X160473010Y-91013300D01*
X159871990Y-91013300D01*
X159830532Y-91009217D01*
X159796567Y-90998914D01*
X159765266Y-90982183D01*
X159737832Y-90959668D01*
X159715317Y-90932234D01*
X159698586Y-90900933D01*
X159688283Y-90866968D01*
X159684200Y-90825510D01*
X159684200Y-90149490D01*
X159688283Y-90108032D01*
X159698586Y-90074067D01*
X159715317Y-90042766D01*
X159737832Y-90015332D01*
X159765266Y-89992817D01*
X159796567Y-89976086D01*
X159830532Y-89965783D01*
X159871990Y-89961700D01*
X160473010Y-89961700D01*
X160514468Y-89965783D01*
X160514468Y-89965783D01*
G37*
G36*
X140587468Y-88885783D02*
G01*
X140621433Y-88896086D01*
X140652734Y-88912817D01*
X140680168Y-88935332D01*
X140702683Y-88962766D01*
X140719414Y-88994067D01*
X140729717Y-89028032D01*
X140733800Y-89069490D01*
X140733800Y-89670510D01*
X140729717Y-89711968D01*
X140719414Y-89745933D01*
X140702683Y-89777234D01*
X140680168Y-89804668D01*
X140652734Y-89827183D01*
X140621433Y-89843914D01*
X140587468Y-89854217D01*
X140546010Y-89858300D01*
X139869990Y-89858300D01*
X139828532Y-89854217D01*
X139794567Y-89843914D01*
X139763266Y-89827183D01*
X139735832Y-89804668D01*
X139713317Y-89777234D01*
X139696586Y-89745933D01*
X139686283Y-89711968D01*
X139682200Y-89670510D01*
X139682200Y-89069490D01*
X139686283Y-89028032D01*
X139696586Y-88994067D01*
X139713317Y-88962766D01*
X139735832Y-88935332D01*
X139763266Y-88912817D01*
X139794567Y-88896086D01*
X139828532Y-88885783D01*
X139869990Y-88881700D01*
X140546010Y-88881700D01*
X140587468Y-88885783D01*
X140587468Y-88885783D01*
G37*
G36*
X158939468Y-88187783D02*
G01*
X158973433Y-88198086D01*
X159004734Y-88214817D01*
X159032168Y-88237332D01*
X159054683Y-88264766D01*
X159071414Y-88296067D01*
X159081717Y-88330032D01*
X159085800Y-88371490D01*
X159085800Y-89047510D01*
X159081717Y-89088968D01*
X159071414Y-89122933D01*
X159054683Y-89154234D01*
X159032168Y-89181668D01*
X159004734Y-89204183D01*
X158973433Y-89220914D01*
X158939468Y-89231217D01*
X158898010Y-89235300D01*
X158296990Y-89235300D01*
X158255532Y-89231217D01*
X158221567Y-89220914D01*
X158190266Y-89204183D01*
X158162832Y-89181668D01*
X158140317Y-89154234D01*
X158123586Y-89122933D01*
X158113283Y-89088968D01*
X158109200Y-89047510D01*
X158109200Y-88371490D01*
X158113283Y-88330032D01*
X158123586Y-88296067D01*
X158140317Y-88264766D01*
X158162832Y-88237332D01*
X158190266Y-88214817D01*
X158221567Y-88198086D01*
X158255532Y-88187783D01*
X158296990Y-88183700D01*
X158898010Y-88183700D01*
X158939468Y-88187783D01*
X158939468Y-88187783D01*
G37*
G36*
X160514468Y-88187783D02*
G01*
X160548433Y-88198086D01*
X160579734Y-88214817D01*
X160607168Y-88237332D01*
X160629683Y-88264766D01*
X160646414Y-88296067D01*
X160656717Y-88330032D01*
X160660800Y-88371490D01*
X160660800Y-89047510D01*
X160656717Y-89088968D01*
X160646414Y-89122933D01*
X160629683Y-89154234D01*
X160607168Y-89181668D01*
X160579734Y-89204183D01*
X160548433Y-89220914D01*
X160514468Y-89231217D01*
X160473010Y-89235300D01*
X159871990Y-89235300D01*
X159830532Y-89231217D01*
X159796567Y-89220914D01*
X159765266Y-89204183D01*
X159737832Y-89181668D01*
X159715317Y-89154234D01*
X159698586Y-89122933D01*
X159688283Y-89088968D01*
X159684200Y-89047510D01*
X159684200Y-88371490D01*
X159688283Y-88330032D01*
X159698586Y-88296067D01*
X159715317Y-88264766D01*
X159737832Y-88237332D01*
X159765266Y-88214817D01*
X159796567Y-88198086D01*
X159830532Y-88187783D01*
X159871990Y-88183700D01*
X160473010Y-88183700D01*
X160514468Y-88187783D01*
X160514468Y-88187783D01*
G37*
G36*
X140587468Y-87310783D02*
G01*
X140621433Y-87321086D01*
X140652734Y-87337817D01*
X140680168Y-87360332D01*
X140702683Y-87387766D01*
X140719414Y-87419067D01*
X140729717Y-87453032D01*
X140733800Y-87494490D01*
X140733800Y-88095510D01*
X140729717Y-88136968D01*
X140719414Y-88170933D01*
X140702683Y-88202234D01*
X140680168Y-88229668D01*
X140652734Y-88252183D01*
X140621433Y-88268914D01*
X140587468Y-88279217D01*
X140546010Y-88283300D01*
X139869990Y-88283300D01*
X139828532Y-88279217D01*
X139794567Y-88268914D01*
X139763266Y-88252183D01*
X139735832Y-88229668D01*
X139713317Y-88202234D01*
X139696586Y-88170933D01*
X139686283Y-88136968D01*
X139682200Y-88095510D01*
X139682200Y-87494490D01*
X139686283Y-87453032D01*
X139696586Y-87419067D01*
X139713317Y-87387766D01*
X139735832Y-87360332D01*
X139763266Y-87337817D01*
X139794567Y-87321086D01*
X139828532Y-87310783D01*
X139869990Y-87306700D01*
X140546010Y-87306700D01*
X140587468Y-87310783D01*
X140587468Y-87310783D01*
G37*
G36*
X153414468Y-78598783D02*
G01*
X153448433Y-78609086D01*
X153479734Y-78625817D01*
X153507168Y-78648332D01*
X153529683Y-78675766D01*
X153546414Y-78707067D01*
X153556717Y-78741032D01*
X153560800Y-78782490D01*
X153560800Y-79383510D01*
X153556717Y-79424968D01*
X153546414Y-79458933D01*
X153529683Y-79490234D01*
X153507168Y-79517668D01*
X153479734Y-79540183D01*
X153448433Y-79556914D01*
X153414468Y-79567217D01*
X153373010Y-79571300D01*
X152696990Y-79571300D01*
X152655532Y-79567217D01*
X152621567Y-79556914D01*
X152590266Y-79540183D01*
X152562832Y-79517668D01*
X152540317Y-79490234D01*
X152523586Y-79458933D01*
X152513283Y-79424968D01*
X152509200Y-79383510D01*
X152509200Y-78782490D01*
X152513283Y-78741032D01*
X152523586Y-78707067D01*
X152540317Y-78675766D01*
X152562832Y-78648332D01*
X152590266Y-78625817D01*
X152621567Y-78609086D01*
X152655532Y-78598783D01*
X152696990Y-78594700D01*
X153373010Y-78594700D01*
X153414468Y-78598783D01*
X153414468Y-78598783D01*
G37*
G36*
X141730468Y-78598783D02*
G01*
X141764433Y-78609086D01*
X141795734Y-78625817D01*
X141823168Y-78648332D01*
X141845683Y-78675766D01*
X141862414Y-78707067D01*
X141872717Y-78741032D01*
X141876800Y-78782490D01*
X141876800Y-79383510D01*
X141872717Y-79424968D01*
X141862414Y-79458933D01*
X141845683Y-79490234D01*
X141823168Y-79517668D01*
X141795734Y-79540183D01*
X141764433Y-79556914D01*
X141730468Y-79567217D01*
X141689010Y-79571300D01*
X141012990Y-79571300D01*
X140971532Y-79567217D01*
X140937567Y-79556914D01*
X140906266Y-79540183D01*
X140878832Y-79517668D01*
X140856317Y-79490234D01*
X140839586Y-79458933D01*
X140829283Y-79424968D01*
X140825200Y-79383510D01*
X140825200Y-78782490D01*
X140829283Y-78741032D01*
X140839586Y-78707067D01*
X140856317Y-78675766D01*
X140878832Y-78648332D01*
X140906266Y-78625817D01*
X140937567Y-78609086D01*
X140971532Y-78598783D01*
X141012990Y-78594700D01*
X141689010Y-78594700D01*
X141730468Y-78598783D01*
X141730468Y-78598783D01*
G37*
G36*
X141730468Y-77023783D02*
G01*
X141764433Y-77034086D01*
X141795734Y-77050817D01*
X141823168Y-77073332D01*
X141845683Y-77100766D01*
X141862414Y-77132067D01*
X141872717Y-77166032D01*
X141876800Y-77207490D01*
X141876800Y-77808510D01*
X141872717Y-77849968D01*
X141862414Y-77883933D01*
X141845683Y-77915234D01*
X141823168Y-77942668D01*
X141795734Y-77965183D01*
X141764433Y-77981914D01*
X141730468Y-77992217D01*
X141689010Y-77996300D01*
X141012990Y-77996300D01*
X140971532Y-77992217D01*
X140937567Y-77981914D01*
X140906266Y-77965183D01*
X140878832Y-77942668D01*
X140856317Y-77915234D01*
X140839586Y-77883933D01*
X140829283Y-77849968D01*
X140825200Y-77808510D01*
X140825200Y-77207490D01*
X140829283Y-77166032D01*
X140839586Y-77132067D01*
X140856317Y-77100766D01*
X140878832Y-77073332D01*
X140906266Y-77050817D01*
X140937567Y-77034086D01*
X140971532Y-77023783D01*
X141012990Y-77019700D01*
X141689010Y-77019700D01*
X141730468Y-77023783D01*
X141730468Y-77023783D01*
G37*
G36*
X153414468Y-77023783D02*
G01*
X153448433Y-77034086D01*
X153479734Y-77050817D01*
X153507168Y-77073332D01*
X153529683Y-77100766D01*
X153546414Y-77132067D01*
X153556717Y-77166032D01*
X153560800Y-77207490D01*
X153560800Y-77808510D01*
X153556717Y-77849968D01*
X153546414Y-77883933D01*
X153529683Y-77915234D01*
X153507168Y-77942668D01*
X153479734Y-77965183D01*
X153448433Y-77981914D01*
X153414468Y-77992217D01*
X153373010Y-77996300D01*
X152696990Y-77996300D01*
X152655532Y-77992217D01*
X152621567Y-77981914D01*
X152590266Y-77965183D01*
X152562832Y-77942668D01*
X152540317Y-77915234D01*
X152523586Y-77883933D01*
X152513283Y-77849968D01*
X152509200Y-77808510D01*
X152509200Y-77207490D01*
X152513283Y-77166032D01*
X152523586Y-77132067D01*
X152540317Y-77100766D01*
X152562832Y-77073332D01*
X152590266Y-77050817D01*
X152621567Y-77034086D01*
X152655532Y-77023783D01*
X152696990Y-77019700D01*
X153373010Y-77019700D01*
X153414468Y-77023783D01*
X153414468Y-77023783D01*
G37*
G36*
X129018468Y-74979783D02*
G01*
X129052433Y-74990086D01*
X129083734Y-75006817D01*
X129111168Y-75029332D01*
X129133683Y-75056766D01*
X129150414Y-75088067D01*
X129160717Y-75122032D01*
X129164800Y-75163490D01*
X129164800Y-75839510D01*
X129160717Y-75880968D01*
X129150414Y-75914933D01*
X129133683Y-75946234D01*
X129111168Y-75973668D01*
X129083734Y-75996183D01*
X129052433Y-76012914D01*
X129018468Y-76023217D01*
X128977010Y-76027300D01*
X128375990Y-76027300D01*
X128334532Y-76023217D01*
X128300567Y-76012914D01*
X128269266Y-75996183D01*
X128241832Y-75973668D01*
X128219317Y-75946234D01*
X128202586Y-75914933D01*
X128192283Y-75880968D01*
X128188200Y-75839510D01*
X128188200Y-75163490D01*
X128192283Y-75122032D01*
X128202586Y-75088067D01*
X128219317Y-75056766D01*
X128241832Y-75029332D01*
X128269266Y-75006817D01*
X128300567Y-74990086D01*
X128334532Y-74979783D01*
X128375990Y-74975700D01*
X128977010Y-74975700D01*
X129018468Y-74979783D01*
X129018468Y-74979783D01*
G37*
G36*
X127443468Y-74979783D02*
G01*
X127477433Y-74990086D01*
X127508734Y-75006817D01*
X127536168Y-75029332D01*
X127558683Y-75056766D01*
X127575414Y-75088067D01*
X127585717Y-75122032D01*
X127589800Y-75163490D01*
X127589800Y-75839510D01*
X127585717Y-75880968D01*
X127575414Y-75914933D01*
X127558683Y-75946234D01*
X127536168Y-75973668D01*
X127508734Y-75996183D01*
X127477433Y-76012914D01*
X127443468Y-76023217D01*
X127402010Y-76027300D01*
X126800990Y-76027300D01*
X126759532Y-76023217D01*
X126725567Y-76012914D01*
X126694266Y-75996183D01*
X126666832Y-75973668D01*
X126644317Y-75946234D01*
X126627586Y-75914933D01*
X126617283Y-75880968D01*
X126613200Y-75839510D01*
X126613200Y-75163490D01*
X126617283Y-75122032D01*
X126627586Y-75088067D01*
X126644317Y-75056766D01*
X126666832Y-75029332D01*
X126694266Y-75006817D01*
X126725567Y-74990086D01*
X126759532Y-74979783D01*
X126800990Y-74975700D01*
X127402010Y-74975700D01*
X127443468Y-74979783D01*
X127443468Y-74979783D01*
G37*
G36*
X141730468Y-73772783D02*
G01*
X141764433Y-73783086D01*
X141795734Y-73799817D01*
X141823168Y-73822332D01*
X141845683Y-73849766D01*
X141862414Y-73881067D01*
X141872717Y-73915032D01*
X141876800Y-73956490D01*
X141876800Y-74557510D01*
X141872717Y-74598968D01*
X141862414Y-74632933D01*
X141845683Y-74664234D01*
X141823168Y-74691668D01*
X141795734Y-74714183D01*
X141764433Y-74730914D01*
X141730468Y-74741217D01*
X141689010Y-74745300D01*
X141012990Y-74745300D01*
X140971532Y-74741217D01*
X140937567Y-74730914D01*
X140906266Y-74714183D01*
X140878832Y-74691668D01*
X140856317Y-74664234D01*
X140839586Y-74632933D01*
X140829283Y-74598968D01*
X140825200Y-74557510D01*
X140825200Y-73956490D01*
X140829283Y-73915032D01*
X140839586Y-73881067D01*
X140856317Y-73849766D01*
X140878832Y-73822332D01*
X140906266Y-73799817D01*
X140937567Y-73783086D01*
X140971532Y-73772783D01*
X141012990Y-73768700D01*
X141689010Y-73768700D01*
X141730468Y-73772783D01*
X141730468Y-73772783D01*
G37*
G36*
X153414468Y-73772783D02*
G01*
X153448433Y-73783086D01*
X153479734Y-73799817D01*
X153507168Y-73822332D01*
X153529683Y-73849766D01*
X153546414Y-73881067D01*
X153556717Y-73915032D01*
X153560800Y-73956490D01*
X153560800Y-74557510D01*
X153556717Y-74598968D01*
X153546414Y-74632933D01*
X153529683Y-74664234D01*
X153507168Y-74691668D01*
X153479734Y-74714183D01*
X153448433Y-74730914D01*
X153414468Y-74741217D01*
X153373010Y-74745300D01*
X152696990Y-74745300D01*
X152655532Y-74741217D01*
X152621567Y-74730914D01*
X152590266Y-74714183D01*
X152562832Y-74691668D01*
X152540317Y-74664234D01*
X152523586Y-74632933D01*
X152513283Y-74598968D01*
X152509200Y-74557510D01*
X152509200Y-73956490D01*
X152513283Y-73915032D01*
X152523586Y-73881067D01*
X152540317Y-73849766D01*
X152562832Y-73822332D01*
X152590266Y-73799817D01*
X152621567Y-73783086D01*
X152655532Y-73772783D01*
X152696990Y-73768700D01*
X153373010Y-73768700D01*
X153414468Y-73772783D01*
X153414468Y-73772783D01*
G37*
G36*
X153414468Y-72197783D02*
G01*
X153448433Y-72208086D01*
X153479734Y-72224817D01*
X153507168Y-72247332D01*
X153529683Y-72274766D01*
X153546414Y-72306067D01*
X153556717Y-72340032D01*
X153560800Y-72381490D01*
X153560800Y-72982510D01*
X153556717Y-73023968D01*
X153546414Y-73057933D01*
X153529683Y-73089234D01*
X153507168Y-73116668D01*
X153479734Y-73139183D01*
X153448433Y-73155914D01*
X153414468Y-73166217D01*
X153373010Y-73170300D01*
X152696990Y-73170300D01*
X152655532Y-73166217D01*
X152621567Y-73155914D01*
X152590266Y-73139183D01*
X152562832Y-73116668D01*
X152540317Y-73089234D01*
X152523586Y-73057933D01*
X152513283Y-73023968D01*
X152509200Y-72982510D01*
X152509200Y-72381490D01*
X152513283Y-72340032D01*
X152523586Y-72306067D01*
X152540317Y-72274766D01*
X152562832Y-72247332D01*
X152590266Y-72224817D01*
X152621567Y-72208086D01*
X152655532Y-72197783D01*
X152696990Y-72193700D01*
X153373010Y-72193700D01*
X153414468Y-72197783D01*
X153414468Y-72197783D01*
G37*
G36*
X141730468Y-72197783D02*
G01*
X141764433Y-72208086D01*
X141795734Y-72224817D01*
X141823168Y-72247332D01*
X141845683Y-72274766D01*
X141862414Y-72306067D01*
X141872717Y-72340032D01*
X141876800Y-72381490D01*
X141876800Y-72982510D01*
X141872717Y-73023968D01*
X141862414Y-73057933D01*
X141845683Y-73089234D01*
X141823168Y-73116668D01*
X141795734Y-73139183D01*
X141764433Y-73155914D01*
X141730468Y-73166217D01*
X141689010Y-73170300D01*
X141012990Y-73170300D01*
X140971532Y-73166217D01*
X140937567Y-73155914D01*
X140906266Y-73139183D01*
X140878832Y-73116668D01*
X140856317Y-73089234D01*
X140839586Y-73057933D01*
X140829283Y-73023968D01*
X140825200Y-72982510D01*
X140825200Y-72381490D01*
X140829283Y-72340032D01*
X140839586Y-72306067D01*
X140856317Y-72274766D01*
X140878832Y-72247332D01*
X140906266Y-72224817D01*
X140937567Y-72208086D01*
X140971532Y-72197783D01*
X141012990Y-72193700D01*
X141689010Y-72193700D01*
X141730468Y-72197783D01*
X141730468Y-72197783D01*
G37*
G36*
X153414468Y-69708783D02*
G01*
X153448433Y-69719086D01*
X153479734Y-69735817D01*
X153507168Y-69758332D01*
X153529683Y-69785766D01*
X153546414Y-69817067D01*
X153556717Y-69851032D01*
X153560800Y-69892490D01*
X153560800Y-70493510D01*
X153556717Y-70534968D01*
X153546414Y-70568933D01*
X153529683Y-70600234D01*
X153507168Y-70627668D01*
X153479734Y-70650183D01*
X153448433Y-70666914D01*
X153414468Y-70677217D01*
X153373010Y-70681300D01*
X152696990Y-70681300D01*
X152655532Y-70677217D01*
X152621567Y-70666914D01*
X152590266Y-70650183D01*
X152562832Y-70627668D01*
X152540317Y-70600234D01*
X152523586Y-70568933D01*
X152513283Y-70534968D01*
X152509200Y-70493510D01*
X152509200Y-69892490D01*
X152513283Y-69851032D01*
X152523586Y-69817067D01*
X152540317Y-69785766D01*
X152562832Y-69758332D01*
X152590266Y-69735817D01*
X152621567Y-69719086D01*
X152655532Y-69708783D01*
X152696990Y-69704700D01*
X153373010Y-69704700D01*
X153414468Y-69708783D01*
X153414468Y-69708783D01*
G37*
G36*
X130770968Y-68121783D02*
G01*
X130804933Y-68132086D01*
X130836234Y-68148817D01*
X130863668Y-68171332D01*
X130886183Y-68198766D01*
X130902914Y-68230067D01*
X130913217Y-68264032D01*
X130917300Y-68305490D01*
X130917300Y-68981510D01*
X130913217Y-69022968D01*
X130902914Y-69056933D01*
X130886183Y-69088234D01*
X130863668Y-69115668D01*
X130836234Y-69138183D01*
X130804933Y-69154914D01*
X130770968Y-69165217D01*
X130729510Y-69169300D01*
X130128490Y-69169300D01*
X130087032Y-69165217D01*
X130053067Y-69154914D01*
X130021766Y-69138183D01*
X129994332Y-69115668D01*
X129971817Y-69088234D01*
X129955086Y-69056933D01*
X129944783Y-69022968D01*
X129940700Y-68981510D01*
X129940700Y-68305490D01*
X129944783Y-68264032D01*
X129955086Y-68230067D01*
X129971817Y-68198766D01*
X129994332Y-68171332D01*
X130021766Y-68148817D01*
X130053067Y-68132086D01*
X130087032Y-68121783D01*
X130128490Y-68117700D01*
X130729510Y-68117700D01*
X130770968Y-68121783D01*
X130770968Y-68121783D01*
G37*
G36*
X134123968Y-68121783D02*
G01*
X134157933Y-68132086D01*
X134189234Y-68148817D01*
X134216668Y-68171332D01*
X134239183Y-68198766D01*
X134255914Y-68230067D01*
X134266217Y-68264032D01*
X134270300Y-68305490D01*
X134270300Y-68981510D01*
X134266217Y-69022968D01*
X134255914Y-69056933D01*
X134239183Y-69088234D01*
X134216668Y-69115668D01*
X134189234Y-69138183D01*
X134157933Y-69154914D01*
X134123968Y-69165217D01*
X134082510Y-69169300D01*
X133481490Y-69169300D01*
X133440032Y-69165217D01*
X133406067Y-69154914D01*
X133374766Y-69138183D01*
X133347332Y-69115668D01*
X133324817Y-69088234D01*
X133308086Y-69056933D01*
X133297783Y-69022968D01*
X133293700Y-68981510D01*
X133293700Y-68305490D01*
X133297783Y-68264032D01*
X133308086Y-68230067D01*
X133324817Y-68198766D01*
X133347332Y-68171332D01*
X133374766Y-68148817D01*
X133406067Y-68132086D01*
X133440032Y-68121783D01*
X133481490Y-68117700D01*
X134082510Y-68117700D01*
X134123968Y-68121783D01*
X134123968Y-68121783D01*
G37*
G36*
X132548968Y-68121783D02*
G01*
X132582933Y-68132086D01*
X132614234Y-68148817D01*
X132641668Y-68171332D01*
X132664183Y-68198766D01*
X132680914Y-68230067D01*
X132691217Y-68264032D01*
X132695300Y-68305490D01*
X132695300Y-68981510D01*
X132691217Y-69022968D01*
X132680914Y-69056933D01*
X132664183Y-69088234D01*
X132641668Y-69115668D01*
X132614234Y-69138183D01*
X132582933Y-69154914D01*
X132548968Y-69165217D01*
X132507510Y-69169300D01*
X131906490Y-69169300D01*
X131865032Y-69165217D01*
X131831067Y-69154914D01*
X131799766Y-69138183D01*
X131772332Y-69115668D01*
X131749817Y-69088234D01*
X131733086Y-69056933D01*
X131722783Y-69022968D01*
X131718700Y-68981510D01*
X131718700Y-68305490D01*
X131722783Y-68264032D01*
X131733086Y-68230067D01*
X131749817Y-68198766D01*
X131772332Y-68171332D01*
X131799766Y-68148817D01*
X131831067Y-68132086D01*
X131865032Y-68121783D01*
X131906490Y-68117700D01*
X132507510Y-68117700D01*
X132548968Y-68121783D01*
X132548968Y-68121783D01*
G37*
G36*
X129195968Y-68121783D02*
G01*
X129229933Y-68132086D01*
X129261234Y-68148817D01*
X129288668Y-68171332D01*
X129311183Y-68198766D01*
X129327914Y-68230067D01*
X129338217Y-68264032D01*
X129342300Y-68305490D01*
X129342300Y-68981510D01*
X129338217Y-69022968D01*
X129327914Y-69056933D01*
X129311183Y-69088234D01*
X129288668Y-69115668D01*
X129261234Y-69138183D01*
X129229933Y-69154914D01*
X129195968Y-69165217D01*
X129154510Y-69169300D01*
X128553490Y-69169300D01*
X128512032Y-69165217D01*
X128478067Y-69154914D01*
X128446766Y-69138183D01*
X128419332Y-69115668D01*
X128396817Y-69088234D01*
X128380086Y-69056933D01*
X128369783Y-69022968D01*
X128365700Y-68981510D01*
X128365700Y-68305490D01*
X128369783Y-68264032D01*
X128380086Y-68230067D01*
X128396817Y-68198766D01*
X128419332Y-68171332D01*
X128446766Y-68148817D01*
X128478067Y-68132086D01*
X128512032Y-68121783D01*
X128553490Y-68117700D01*
X129154510Y-68117700D01*
X129195968Y-68121783D01*
X129195968Y-68121783D01*
G37*
G36*
X153414468Y-68133783D02*
G01*
X153448433Y-68144086D01*
X153479734Y-68160817D01*
X153507168Y-68183332D01*
X153529683Y-68210766D01*
X153546414Y-68242067D01*
X153556717Y-68276032D01*
X153560800Y-68317490D01*
X153560800Y-68918510D01*
X153556717Y-68959968D01*
X153546414Y-68993933D01*
X153529683Y-69025234D01*
X153507168Y-69052668D01*
X153479734Y-69075183D01*
X153448433Y-69091914D01*
X153414468Y-69102217D01*
X153373010Y-69106300D01*
X152696990Y-69106300D01*
X152655532Y-69102217D01*
X152621567Y-69091914D01*
X152590266Y-69075183D01*
X152562832Y-69052668D01*
X152540317Y-69025234D01*
X152523586Y-68993933D01*
X152513283Y-68959968D01*
X152509200Y-68918510D01*
X152509200Y-68317490D01*
X152513283Y-68276032D01*
X152523586Y-68242067D01*
X152540317Y-68210766D01*
X152562832Y-68183332D01*
X152590266Y-68160817D01*
X152621567Y-68144086D01*
X152655532Y-68133783D01*
X152696990Y-68129700D01*
X153373010Y-68129700D01*
X153414468Y-68133783D01*
X153414468Y-68133783D01*
G37*
G36*
X173877900Y-60155846D02*
G01*
X174090521Y-60198139D01*
X174390947Y-60322580D01*
X174661324Y-60503240D01*
X174891260Y-60733176D01*
X175071920Y-61003553D01*
X175196361Y-61303979D01*
X175259800Y-61622910D01*
X175259800Y-61948090D01*
X175196361Y-62267021D01*
X175071920Y-62567447D01*
X174891260Y-62837824D01*
X174661324Y-63067760D01*
X174390947Y-63248420D01*
X174090521Y-63372861D01*
X173877900Y-63415154D01*
X173771591Y-63436300D01*
X173446409Y-63436300D01*
X173340100Y-63415154D01*
X173127479Y-63372861D01*
X172827053Y-63248420D01*
X172556676Y-63067760D01*
X172326740Y-62837824D01*
X172146080Y-62567447D01*
X172021639Y-62267021D01*
X171958200Y-61948090D01*
X171958200Y-61622910D01*
X172021639Y-61303979D01*
X172146080Y-61003553D01*
X172326740Y-60733176D01*
X172556676Y-60503240D01*
X172827053Y-60322580D01*
X173127479Y-60198139D01*
X173340100Y-60155846D01*
X173446409Y-60134700D01*
X173771591Y-60134700D01*
X173877900Y-60155846D01*
X173877900Y-60155846D01*
G37*
G36*
X117997900Y-60155846D02*
G01*
X118210521Y-60198139D01*
X118510947Y-60322580D01*
X118781324Y-60503240D01*
X119011260Y-60733176D01*
X119191920Y-61003553D01*
X119316361Y-61303979D01*
X119379800Y-61622910D01*
X119379800Y-61948090D01*
X119316361Y-62267021D01*
X119191920Y-62567447D01*
X119011260Y-62837824D01*
X118781324Y-63067760D01*
X118510947Y-63248420D01*
X118210521Y-63372861D01*
X117997900Y-63415154D01*
X117891591Y-63436300D01*
X117566409Y-63436300D01*
X117460100Y-63415154D01*
X117247479Y-63372861D01*
X116947053Y-63248420D01*
X116676676Y-63067760D01*
X116446740Y-62837824D01*
X116266080Y-62567447D01*
X116141639Y-62267021D01*
X116078200Y-61948090D01*
X116078200Y-61622910D01*
X116141639Y-61303979D01*
X116266080Y-61003553D01*
X116446740Y-60733176D01*
X116676676Y-60503240D01*
X116947053Y-60322580D01*
X117247479Y-60198139D01*
X117460100Y-60155846D01*
X117566409Y-60134700D01*
X117891591Y-60134700D01*
X117997900Y-60155846D01*
X117997900Y-60155846D01*
G37*
G36*
X141730468Y-61834783D02*
G01*
X141764433Y-61845086D01*
X141795734Y-61861817D01*
X141823168Y-61884332D01*
X141845683Y-61911766D01*
X141862414Y-61943067D01*
X141872717Y-61977032D01*
X141876800Y-62018490D01*
X141876800Y-62619510D01*
X141872717Y-62660968D01*
X141862414Y-62694933D01*
X141845683Y-62726234D01*
X141823168Y-62753668D01*
X141795734Y-62776183D01*
X141764433Y-62792914D01*
X141730468Y-62803217D01*
X141689010Y-62807300D01*
X141012990Y-62807300D01*
X140971532Y-62803217D01*
X140937567Y-62792914D01*
X140906266Y-62776183D01*
X140878832Y-62753668D01*
X140856317Y-62726234D01*
X140839586Y-62694933D01*
X140829283Y-62660968D01*
X140825200Y-62619510D01*
X140825200Y-62018490D01*
X140829283Y-61977032D01*
X140839586Y-61943067D01*
X140856317Y-61911766D01*
X140878832Y-61884332D01*
X140906266Y-61861817D01*
X140937567Y-61845086D01*
X140971532Y-61834783D01*
X141012990Y-61830700D01*
X141689010Y-61830700D01*
X141730468Y-61834783D01*
X141730468Y-61834783D01*
G37*
G36*
X153414468Y-61834783D02*
G01*
X153448433Y-61845086D01*
X153479734Y-61861817D01*
X153507168Y-61884332D01*
X153529683Y-61911766D01*
X153546414Y-61943067D01*
X153556717Y-61977032D01*
X153560800Y-62018490D01*
X153560800Y-62619510D01*
X153556717Y-62660968D01*
X153546414Y-62694933D01*
X153529683Y-62726234D01*
X153507168Y-62753668D01*
X153479734Y-62776183D01*
X153448433Y-62792914D01*
X153414468Y-62803217D01*
X153373010Y-62807300D01*
X152696990Y-62807300D01*
X152655532Y-62803217D01*
X152621567Y-62792914D01*
X152590266Y-62776183D01*
X152562832Y-62753668D01*
X152540317Y-62726234D01*
X152523586Y-62694933D01*
X152513283Y-62660968D01*
X152509200Y-62619510D01*
X152509200Y-62018490D01*
X152513283Y-61977032D01*
X152523586Y-61943067D01*
X152540317Y-61911766D01*
X152562832Y-61884332D01*
X152590266Y-61861817D01*
X152621567Y-61845086D01*
X152655532Y-61834783D01*
X152696990Y-61830700D01*
X153373010Y-61830700D01*
X153414468Y-61834783D01*
X153414468Y-61834783D01*
G37*
G36*
X131031301Y-61213715D02*
G01*
X131123293Y-61232013D01*
X131164645Y-61249142D01*
X131264479Y-61290494D01*
X131391543Y-61375396D01*
X131499604Y-61483457D01*
X131584506Y-61610521D01*
X131642987Y-61751708D01*
X131672800Y-61901589D01*
X131672800Y-62054411D01*
X131642987Y-62204292D01*
X131584506Y-62345479D01*
X131499604Y-62472543D01*
X131391543Y-62580604D01*
X131264479Y-62665506D01*
X131164645Y-62706858D01*
X131123293Y-62723987D01*
X131063954Y-62735790D01*
X130973411Y-62753800D01*
X130820589Y-62753800D01*
X130730046Y-62735790D01*
X130670707Y-62723987D01*
X130629355Y-62706858D01*
X130529521Y-62665506D01*
X130402457Y-62580604D01*
X130294396Y-62472543D01*
X130209494Y-62345479D01*
X130151013Y-62204292D01*
X130121200Y-62054411D01*
X130121200Y-61901589D01*
X130151013Y-61751708D01*
X130209494Y-61610521D01*
X130294396Y-61483457D01*
X130402457Y-61375396D01*
X130529521Y-61290494D01*
X130629355Y-61249142D01*
X130670707Y-61232013D01*
X130762699Y-61213715D01*
X130820589Y-61202200D01*
X130973411Y-61202200D01*
X131031301Y-61213715D01*
X131031301Y-61213715D01*
G37*
G36*
X126031301Y-61213715D02*
G01*
X126123293Y-61232013D01*
X126164645Y-61249142D01*
X126264479Y-61290494D01*
X126391543Y-61375396D01*
X126499604Y-61483457D01*
X126584506Y-61610521D01*
X126642987Y-61751708D01*
X126672800Y-61901589D01*
X126672800Y-62054411D01*
X126642987Y-62204292D01*
X126584506Y-62345479D01*
X126499604Y-62472543D01*
X126391543Y-62580604D01*
X126264479Y-62665506D01*
X126164645Y-62706858D01*
X126123293Y-62723987D01*
X126063954Y-62735790D01*
X125973411Y-62753800D01*
X125820589Y-62753800D01*
X125730046Y-62735790D01*
X125670707Y-62723987D01*
X125629355Y-62706858D01*
X125529521Y-62665506D01*
X125402457Y-62580604D01*
X125294396Y-62472543D01*
X125209494Y-62345479D01*
X125151013Y-62204292D01*
X125121200Y-62054411D01*
X125121200Y-61901589D01*
X125151013Y-61751708D01*
X125209494Y-61610521D01*
X125294396Y-61483457D01*
X125402457Y-61375396D01*
X125529521Y-61290494D01*
X125629355Y-61249142D01*
X125670707Y-61232013D01*
X125762699Y-61213715D01*
X125820589Y-61202200D01*
X125973411Y-61202200D01*
X126031301Y-61213715D01*
X126031301Y-61213715D01*
G37*
G36*
X153414468Y-60259783D02*
G01*
X153448433Y-60270086D01*
X153479734Y-60286817D01*
X153507168Y-60309332D01*
X153529683Y-60336766D01*
X153546414Y-60368067D01*
X153556717Y-60402032D01*
X153560800Y-60443490D01*
X153560800Y-61044510D01*
X153556717Y-61085968D01*
X153546414Y-61119933D01*
X153529683Y-61151234D01*
X153507168Y-61178668D01*
X153479734Y-61201183D01*
X153448433Y-61217914D01*
X153414468Y-61228217D01*
X153373010Y-61232300D01*
X152696990Y-61232300D01*
X152655532Y-61228217D01*
X152621567Y-61217914D01*
X152590266Y-61201183D01*
X152562832Y-61178668D01*
X152540317Y-61151234D01*
X152523586Y-61119933D01*
X152513283Y-61085968D01*
X152509200Y-61044510D01*
X152509200Y-60443490D01*
X152513283Y-60402032D01*
X152523586Y-60368067D01*
X152540317Y-60336766D01*
X152562832Y-60309332D01*
X152590266Y-60286817D01*
X152621567Y-60270086D01*
X152655532Y-60259783D01*
X152696990Y-60255700D01*
X153373010Y-60255700D01*
X153414468Y-60259783D01*
X153414468Y-60259783D01*
G37*
G36*
X141730468Y-60259783D02*
G01*
X141764433Y-60270086D01*
X141795734Y-60286817D01*
X141823168Y-60309332D01*
X141845683Y-60336766D01*
X141862414Y-60368067D01*
X141872717Y-60402032D01*
X141876800Y-60443490D01*
X141876800Y-61044510D01*
X141872717Y-61085968D01*
X141862414Y-61119933D01*
X141845683Y-61151234D01*
X141823168Y-61178668D01*
X141795734Y-61201183D01*
X141764433Y-61217914D01*
X141730468Y-61228217D01*
X141689010Y-61232300D01*
X141012990Y-61232300D01*
X140971532Y-61228217D01*
X140937567Y-61217914D01*
X140906266Y-61201183D01*
X140878832Y-61178668D01*
X140856317Y-61151234D01*
X140839586Y-61119933D01*
X140829283Y-61085968D01*
X140825200Y-61044510D01*
X140825200Y-60443490D01*
X140829283Y-60402032D01*
X140839586Y-60368067D01*
X140856317Y-60336766D01*
X140878832Y-60309332D01*
X140906266Y-60286817D01*
X140937567Y-60270086D01*
X140971532Y-60259783D01*
X141012990Y-60255700D01*
X141689010Y-60255700D01*
X141730468Y-60259783D01*
X141730468Y-60259783D01*
G37*
G36*
X125024579Y-58286617D02*
G01*
X125147255Y-58323831D01*
X125147258Y-58323832D01*
X125260313Y-58384261D01*
X125359412Y-58465588D01*
X125440739Y-58564687D01*
X125501168Y-58677742D01*
X125501168Y-58677743D01*
X125501169Y-58677745D01*
X125538383Y-58800421D01*
X125547800Y-58896037D01*
X125547800Y-59659963D01*
X125538383Y-59755579D01*
X125501169Y-59878254D01*
X125501168Y-59878258D01*
X125440739Y-59991313D01*
X125359412Y-60090411D01*
X125260312Y-60171739D01*
X125147257Y-60232168D01*
X125147254Y-60232169D01*
X125024578Y-60269383D01*
X124897000Y-60281948D01*
X124769421Y-60269383D01*
X124646745Y-60232169D01*
X124646742Y-60232168D01*
X124533687Y-60171739D01*
X124434589Y-60090412D01*
X124353261Y-59991312D01*
X124292832Y-59878257D01*
X124255618Y-59755580D01*
X124255617Y-59755578D01*
X124246200Y-59659962D01*
X124246200Y-58896037D01*
X124255617Y-58800421D01*
X124292831Y-58677745D01*
X124292833Y-58677742D01*
X124353262Y-58564687D01*
X124434589Y-58465588D01*
X124533688Y-58384261D01*
X124646743Y-58323832D01*
X124646746Y-58323831D01*
X124769422Y-58286617D01*
X124897000Y-58274052D01*
X125024579Y-58286617D01*
X125024579Y-58286617D01*
G37*
G36*
X132024578Y-58286617D02*
G01*
X132147254Y-58323831D01*
X132147257Y-58323832D01*
X132260312Y-58384261D01*
X132359412Y-58465589D01*
X132440739Y-58564687D01*
X132501168Y-58677742D01*
X132501168Y-58677743D01*
X132501169Y-58677745D01*
X132538383Y-58800421D01*
X132547800Y-58896037D01*
X132547800Y-59659963D01*
X132538383Y-59755579D01*
X132501169Y-59878254D01*
X132501168Y-59878258D01*
X132440739Y-59991313D01*
X132359412Y-60090412D01*
X132260313Y-60171739D01*
X132147258Y-60232168D01*
X132147255Y-60232169D01*
X132024579Y-60269383D01*
X131897000Y-60281948D01*
X131769422Y-60269383D01*
X131646746Y-60232169D01*
X131646743Y-60232168D01*
X131533688Y-60171739D01*
X131434589Y-60090412D01*
X131353262Y-59991313D01*
X131292831Y-59878255D01*
X131255617Y-59755580D01*
X131246200Y-59659965D01*
X131246200Y-58896036D01*
X131255617Y-58800424D01*
X131255617Y-58800422D01*
X131292831Y-58677746D01*
X131292832Y-58677743D01*
X131353261Y-58564688D01*
X131434589Y-58465588D01*
X131533687Y-58384261D01*
X131646742Y-58323832D01*
X131646745Y-58323831D01*
X131769421Y-58286617D01*
X131897000Y-58274052D01*
X132024578Y-58286617D01*
X132024578Y-58286617D01*
G37*
M02*
