G04 #@! TF.GenerationSoftware,KiCad,Pcbnew,5.1.2*
G04 #@! TF.CreationDate,2019-07-22T21:22:39-05:00*
G04 #@! TF.ProjectId,Raptor2000,52617074-6f72-4323-9030-302e6b696361,A*
G04 #@! TF.SameCoordinates,Original*
G04 #@! TF.FileFunction,Soldermask,Top*
G04 #@! TF.FilePolarity,Negative*
%FSLAX46Y46*%
G04 Gerber Fmt 4.6, Leading zero omitted, Abs format (unit mm)*
G04 Created by KiCad (PCBNEW 5.1.2) date 2019-07-22 21:22:39*
%MOMM*%
%LPD*%
G04 APERTURE LIST*
%ADD10C,0.100000*%
G04 APERTURE END LIST*
D10*
G36*
X147675506Y-130545081D02*
G01*
X147787528Y-130591482D01*
X147866740Y-130624293D01*
X147981737Y-130701132D01*
X148017975Y-130725345D01*
X148038846Y-130739291D01*
X148185209Y-130885654D01*
X148300207Y-131057760D01*
X148320313Y-131106300D01*
X148379419Y-131248994D01*
X148419800Y-131452004D01*
X148419800Y-131658996D01*
X148379419Y-131862006D01*
X148333018Y-131974028D01*
X148300207Y-132053240D01*
X148185209Y-132225346D01*
X148038846Y-132371709D01*
X147866740Y-132486707D01*
X147787528Y-132519518D01*
X147675506Y-132565919D01*
X147472496Y-132606300D01*
X147265504Y-132606300D01*
X147062494Y-132565919D01*
X146950472Y-132519518D01*
X146871260Y-132486707D01*
X146699154Y-132371709D01*
X146552791Y-132225346D01*
X146437793Y-132053240D01*
X146404982Y-131974028D01*
X146358581Y-131862006D01*
X146318200Y-131658996D01*
X146318200Y-131452004D01*
X146358581Y-131248994D01*
X146417687Y-131106300D01*
X146437793Y-131057760D01*
X146552791Y-130885654D01*
X146699154Y-130739291D01*
X146720026Y-130725345D01*
X146756263Y-130701132D01*
X146871260Y-130624293D01*
X146950472Y-130591482D01*
X147062494Y-130545081D01*
X147265504Y-130504700D01*
X147472496Y-130504700D01*
X147675506Y-130545081D01*
X147675506Y-130545081D01*
G37*
G36*
X164175506Y-130545081D02*
G01*
X164287528Y-130591482D01*
X164366740Y-130624293D01*
X164481737Y-130701132D01*
X164517975Y-130725345D01*
X164538846Y-130739291D01*
X164685209Y-130885654D01*
X164800207Y-131057760D01*
X164820313Y-131106300D01*
X164879419Y-131248994D01*
X164919800Y-131452004D01*
X164919800Y-131658996D01*
X164879419Y-131862006D01*
X164833018Y-131974028D01*
X164800207Y-132053240D01*
X164685209Y-132225346D01*
X164538846Y-132371709D01*
X164366740Y-132486707D01*
X164287528Y-132519518D01*
X164175506Y-132565919D01*
X163972496Y-132606300D01*
X163765504Y-132606300D01*
X163562494Y-132565919D01*
X163450472Y-132519518D01*
X163371260Y-132486707D01*
X163199154Y-132371709D01*
X163052791Y-132225346D01*
X162937793Y-132053240D01*
X162904982Y-131974028D01*
X162858581Y-131862006D01*
X162818200Y-131658996D01*
X162818200Y-131452004D01*
X162858581Y-131248994D01*
X162917687Y-131106300D01*
X162937793Y-131057760D01*
X163052791Y-130885654D01*
X163199154Y-130739291D01*
X163220026Y-130725345D01*
X163256263Y-130701132D01*
X163371260Y-130624293D01*
X163450472Y-130591482D01*
X163562494Y-130545081D01*
X163765504Y-130504700D01*
X163972496Y-130504700D01*
X164175506Y-130545081D01*
X164175506Y-130545081D01*
G37*
G36*
X167175506Y-130545081D02*
G01*
X167287528Y-130591482D01*
X167366740Y-130624293D01*
X167481737Y-130701132D01*
X167517975Y-130725345D01*
X167538846Y-130739291D01*
X167685209Y-130885654D01*
X167800207Y-131057760D01*
X167820313Y-131106300D01*
X167879419Y-131248994D01*
X167919800Y-131452004D01*
X167919800Y-131658996D01*
X167879419Y-131862006D01*
X167833018Y-131974028D01*
X167800207Y-132053240D01*
X167685209Y-132225346D01*
X167538846Y-132371709D01*
X167366740Y-132486707D01*
X167287528Y-132519518D01*
X167175506Y-132565919D01*
X166972496Y-132606300D01*
X166765504Y-132606300D01*
X166562494Y-132565919D01*
X166450472Y-132519518D01*
X166371260Y-132486707D01*
X166199154Y-132371709D01*
X166052791Y-132225346D01*
X165937793Y-132053240D01*
X165904982Y-131974028D01*
X165858581Y-131862006D01*
X165818200Y-131658996D01*
X165818200Y-131452004D01*
X165858581Y-131248994D01*
X165917687Y-131106300D01*
X165937793Y-131057760D01*
X166052791Y-130885654D01*
X166199154Y-130739291D01*
X166220026Y-130725345D01*
X166256263Y-130701132D01*
X166371260Y-130624293D01*
X166450472Y-130591482D01*
X166562494Y-130545081D01*
X166765504Y-130504700D01*
X166972496Y-130504700D01*
X167175506Y-130545081D01*
X167175506Y-130545081D01*
G37*
G36*
X161675506Y-130545081D02*
G01*
X161787528Y-130591482D01*
X161866740Y-130624293D01*
X161981737Y-130701132D01*
X162017975Y-130725345D01*
X162038846Y-130739291D01*
X162185209Y-130885654D01*
X162300207Y-131057760D01*
X162320313Y-131106300D01*
X162379419Y-131248994D01*
X162419800Y-131452004D01*
X162419800Y-131658996D01*
X162379419Y-131862006D01*
X162333018Y-131974028D01*
X162300207Y-132053240D01*
X162185209Y-132225346D01*
X162038846Y-132371709D01*
X161866740Y-132486707D01*
X161787528Y-132519518D01*
X161675506Y-132565919D01*
X161472496Y-132606300D01*
X161265504Y-132606300D01*
X161062494Y-132565919D01*
X160950472Y-132519518D01*
X160871260Y-132486707D01*
X160699154Y-132371709D01*
X160552791Y-132225346D01*
X160437793Y-132053240D01*
X160404982Y-131974028D01*
X160358581Y-131862006D01*
X160318200Y-131658996D01*
X160318200Y-131452004D01*
X160358581Y-131248994D01*
X160417687Y-131106300D01*
X160437793Y-131057760D01*
X160552791Y-130885654D01*
X160699154Y-130739291D01*
X160720026Y-130725345D01*
X160756263Y-130701132D01*
X160871260Y-130624293D01*
X160950472Y-130591482D01*
X161062494Y-130545081D01*
X161265504Y-130504700D01*
X161472496Y-130504700D01*
X161675506Y-130545081D01*
X161675506Y-130545081D01*
G37*
G36*
X158675506Y-130545081D02*
G01*
X158787528Y-130591482D01*
X158866740Y-130624293D01*
X158981737Y-130701132D01*
X159017975Y-130725345D01*
X159038846Y-130739291D01*
X159185209Y-130885654D01*
X159300207Y-131057760D01*
X159320313Y-131106300D01*
X159379419Y-131248994D01*
X159419800Y-131452004D01*
X159419800Y-131658996D01*
X159379419Y-131862006D01*
X159333018Y-131974028D01*
X159300207Y-132053240D01*
X159185209Y-132225346D01*
X159038846Y-132371709D01*
X158866740Y-132486707D01*
X158787528Y-132519518D01*
X158675506Y-132565919D01*
X158472496Y-132606300D01*
X158265504Y-132606300D01*
X158062494Y-132565919D01*
X157950472Y-132519518D01*
X157871260Y-132486707D01*
X157699154Y-132371709D01*
X157552791Y-132225346D01*
X157437793Y-132053240D01*
X157404982Y-131974028D01*
X157358581Y-131862006D01*
X157318200Y-131658996D01*
X157318200Y-131452004D01*
X157358581Y-131248994D01*
X157417687Y-131106300D01*
X157437793Y-131057760D01*
X157552791Y-130885654D01*
X157699154Y-130739291D01*
X157720026Y-130725345D01*
X157756263Y-130701132D01*
X157871260Y-130624293D01*
X157950472Y-130591482D01*
X158062494Y-130545081D01*
X158265504Y-130504700D01*
X158472496Y-130504700D01*
X158675506Y-130545081D01*
X158675506Y-130545081D01*
G37*
G36*
X153175506Y-130545081D02*
G01*
X153287528Y-130591482D01*
X153366740Y-130624293D01*
X153481737Y-130701132D01*
X153517975Y-130725345D01*
X153538846Y-130739291D01*
X153685209Y-130885654D01*
X153800207Y-131057760D01*
X153820313Y-131106300D01*
X153879419Y-131248994D01*
X153919800Y-131452004D01*
X153919800Y-131658996D01*
X153879419Y-131862006D01*
X153833018Y-131974028D01*
X153800207Y-132053240D01*
X153685209Y-132225346D01*
X153538846Y-132371709D01*
X153366740Y-132486707D01*
X153287528Y-132519518D01*
X153175506Y-132565919D01*
X152972496Y-132606300D01*
X152765504Y-132606300D01*
X152562494Y-132565919D01*
X152450472Y-132519518D01*
X152371260Y-132486707D01*
X152199154Y-132371709D01*
X152052791Y-132225346D01*
X151937793Y-132053240D01*
X151904982Y-131974028D01*
X151858581Y-131862006D01*
X151818200Y-131658996D01*
X151818200Y-131452004D01*
X151858581Y-131248994D01*
X151917687Y-131106300D01*
X151937793Y-131057760D01*
X152052791Y-130885654D01*
X152199154Y-130739291D01*
X152220026Y-130725345D01*
X152256263Y-130701132D01*
X152371260Y-130624293D01*
X152450472Y-130591482D01*
X152562494Y-130545081D01*
X152765504Y-130504700D01*
X152972496Y-130504700D01*
X153175506Y-130545081D01*
X153175506Y-130545081D01*
G37*
G36*
X156175506Y-130545081D02*
G01*
X156287528Y-130591482D01*
X156366740Y-130624293D01*
X156481737Y-130701132D01*
X156517975Y-130725345D01*
X156538846Y-130739291D01*
X156685209Y-130885654D01*
X156800207Y-131057760D01*
X156820313Y-131106300D01*
X156879419Y-131248994D01*
X156919800Y-131452004D01*
X156919800Y-131658996D01*
X156879419Y-131862006D01*
X156833018Y-131974028D01*
X156800207Y-132053240D01*
X156685209Y-132225346D01*
X156538846Y-132371709D01*
X156366740Y-132486707D01*
X156287528Y-132519518D01*
X156175506Y-132565919D01*
X155972496Y-132606300D01*
X155765504Y-132606300D01*
X155562494Y-132565919D01*
X155450472Y-132519518D01*
X155371260Y-132486707D01*
X155199154Y-132371709D01*
X155052791Y-132225346D01*
X154937793Y-132053240D01*
X154904982Y-131974028D01*
X154858581Y-131862006D01*
X154818200Y-131658996D01*
X154818200Y-131452004D01*
X154858581Y-131248994D01*
X154917687Y-131106300D01*
X154937793Y-131057760D01*
X155052791Y-130885654D01*
X155199154Y-130739291D01*
X155220026Y-130725345D01*
X155256263Y-130701132D01*
X155371260Y-130624293D01*
X155450472Y-130591482D01*
X155562494Y-130545081D01*
X155765504Y-130504700D01*
X155972496Y-130504700D01*
X156175506Y-130545081D01*
X156175506Y-130545081D01*
G37*
G36*
X150675506Y-130545081D02*
G01*
X150787528Y-130591482D01*
X150866740Y-130624293D01*
X150981737Y-130701132D01*
X151017975Y-130725345D01*
X151038846Y-130739291D01*
X151185209Y-130885654D01*
X151300207Y-131057760D01*
X151320313Y-131106300D01*
X151379419Y-131248994D01*
X151419800Y-131452004D01*
X151419800Y-131658996D01*
X151379419Y-131862006D01*
X151333018Y-131974028D01*
X151300207Y-132053240D01*
X151185209Y-132225346D01*
X151038846Y-132371709D01*
X150866740Y-132486707D01*
X150787528Y-132519518D01*
X150675506Y-132565919D01*
X150472496Y-132606300D01*
X150265504Y-132606300D01*
X150062494Y-132565919D01*
X149950472Y-132519518D01*
X149871260Y-132486707D01*
X149699154Y-132371709D01*
X149552791Y-132225346D01*
X149437793Y-132053240D01*
X149404982Y-131974028D01*
X149358581Y-131862006D01*
X149318200Y-131658996D01*
X149318200Y-131452004D01*
X149358581Y-131248994D01*
X149417687Y-131106300D01*
X149437793Y-131057760D01*
X149552791Y-130885654D01*
X149699154Y-130739291D01*
X149720026Y-130725345D01*
X149756263Y-130701132D01*
X149871260Y-130624293D01*
X149950472Y-130591482D01*
X150062494Y-130545081D01*
X150265504Y-130504700D01*
X150472496Y-130504700D01*
X150675506Y-130545081D01*
X150675506Y-130545081D01*
G37*
G36*
X135245506Y-129045081D02*
G01*
X135357528Y-129091482D01*
X135436740Y-129124293D01*
X135608846Y-129239291D01*
X135755209Y-129385654D01*
X135870207Y-129557760D01*
X135870207Y-129557761D01*
X135949419Y-129748994D01*
X135989800Y-129952004D01*
X135989800Y-130158996D01*
X135949419Y-130362006D01*
X135903018Y-130474028D01*
X135870207Y-130553240D01*
X135793368Y-130668237D01*
X135755210Y-130725345D01*
X135608845Y-130871710D01*
X135551737Y-130909868D01*
X135436740Y-130986707D01*
X135357528Y-131019518D01*
X135245506Y-131065919D01*
X135042496Y-131106300D01*
X134835504Y-131106300D01*
X134632494Y-131065919D01*
X134520472Y-131019518D01*
X134441260Y-130986707D01*
X134326263Y-130909868D01*
X134269155Y-130871710D01*
X134122790Y-130725345D01*
X134084632Y-130668237D01*
X134007793Y-130553240D01*
X133974982Y-130474028D01*
X133928581Y-130362006D01*
X133888200Y-130158996D01*
X133888200Y-129952004D01*
X133928581Y-129748994D01*
X134007793Y-129557761D01*
X134007793Y-129557760D01*
X134122791Y-129385654D01*
X134269154Y-129239291D01*
X134441260Y-129124293D01*
X134520472Y-129091482D01*
X134632494Y-129045081D01*
X134835504Y-129004700D01*
X135042496Y-129004700D01*
X135245506Y-129045081D01*
X135245506Y-129045081D01*
G37*
G36*
X125085506Y-129045081D02*
G01*
X125197528Y-129091482D01*
X125276740Y-129124293D01*
X125448846Y-129239291D01*
X125595209Y-129385654D01*
X125710207Y-129557760D01*
X125710207Y-129557761D01*
X125789419Y-129748994D01*
X125829800Y-129952004D01*
X125829800Y-130158996D01*
X125789419Y-130362006D01*
X125743018Y-130474028D01*
X125710207Y-130553240D01*
X125633368Y-130668237D01*
X125595210Y-130725345D01*
X125448845Y-130871710D01*
X125391737Y-130909868D01*
X125276740Y-130986707D01*
X125197528Y-131019518D01*
X125085506Y-131065919D01*
X124882496Y-131106300D01*
X124675504Y-131106300D01*
X124472494Y-131065919D01*
X124360472Y-131019518D01*
X124281260Y-130986707D01*
X124166263Y-130909868D01*
X124109155Y-130871710D01*
X123962790Y-130725345D01*
X123924632Y-130668237D01*
X123847793Y-130553240D01*
X123814982Y-130474028D01*
X123768581Y-130362006D01*
X123728200Y-130158996D01*
X123728200Y-129952004D01*
X123768581Y-129748994D01*
X123847793Y-129557761D01*
X123847793Y-129557760D01*
X123962791Y-129385654D01*
X124109154Y-129239291D01*
X124281260Y-129124293D01*
X124360472Y-129091482D01*
X124472494Y-129045081D01*
X124675504Y-129004700D01*
X124882496Y-129004700D01*
X125085506Y-129045081D01*
X125085506Y-129045081D01*
G37*
G36*
X127625506Y-129045081D02*
G01*
X127737528Y-129091482D01*
X127816740Y-129124293D01*
X127988846Y-129239291D01*
X128135209Y-129385654D01*
X128250207Y-129557760D01*
X128250207Y-129557761D01*
X128329419Y-129748994D01*
X128369800Y-129952004D01*
X128369800Y-130158996D01*
X128329419Y-130362006D01*
X128283018Y-130474028D01*
X128250207Y-130553240D01*
X128173368Y-130668237D01*
X128135210Y-130725345D01*
X127988845Y-130871710D01*
X127931737Y-130909868D01*
X127816740Y-130986707D01*
X127737528Y-131019518D01*
X127625506Y-131065919D01*
X127422496Y-131106300D01*
X127215504Y-131106300D01*
X127012494Y-131065919D01*
X126900472Y-131019518D01*
X126821260Y-130986707D01*
X126706263Y-130909868D01*
X126649155Y-130871710D01*
X126502790Y-130725345D01*
X126464632Y-130668237D01*
X126387793Y-130553240D01*
X126354982Y-130474028D01*
X126308581Y-130362006D01*
X126268200Y-130158996D01*
X126268200Y-129952004D01*
X126308581Y-129748994D01*
X126387793Y-129557761D01*
X126387793Y-129557760D01*
X126502791Y-129385654D01*
X126649154Y-129239291D01*
X126821260Y-129124293D01*
X126900472Y-129091482D01*
X127012494Y-129045081D01*
X127215504Y-129004700D01*
X127422496Y-129004700D01*
X127625506Y-129045081D01*
X127625506Y-129045081D01*
G37*
G36*
X130165506Y-129045081D02*
G01*
X130277528Y-129091482D01*
X130356740Y-129124293D01*
X130528846Y-129239291D01*
X130675209Y-129385654D01*
X130790207Y-129557760D01*
X130790207Y-129557761D01*
X130869419Y-129748994D01*
X130909800Y-129952004D01*
X130909800Y-130158996D01*
X130869419Y-130362006D01*
X130823018Y-130474028D01*
X130790207Y-130553240D01*
X130713368Y-130668237D01*
X130675210Y-130725345D01*
X130528845Y-130871710D01*
X130471737Y-130909868D01*
X130356740Y-130986707D01*
X130277528Y-131019518D01*
X130165506Y-131065919D01*
X129962496Y-131106300D01*
X129755504Y-131106300D01*
X129552494Y-131065919D01*
X129440472Y-131019518D01*
X129361260Y-130986707D01*
X129246263Y-130909868D01*
X129189155Y-130871710D01*
X129042790Y-130725345D01*
X129004632Y-130668237D01*
X128927793Y-130553240D01*
X128894982Y-130474028D01*
X128848581Y-130362006D01*
X128808200Y-130158996D01*
X128808200Y-129952004D01*
X128848581Y-129748994D01*
X128927793Y-129557761D01*
X128927793Y-129557760D01*
X129042791Y-129385654D01*
X129189154Y-129239291D01*
X129361260Y-129124293D01*
X129440472Y-129091482D01*
X129552494Y-129045081D01*
X129755504Y-129004700D01*
X129962496Y-129004700D01*
X130165506Y-129045081D01*
X130165506Y-129045081D01*
G37*
G36*
X132705506Y-129045081D02*
G01*
X132817528Y-129091482D01*
X132896740Y-129124293D01*
X133068846Y-129239291D01*
X133215209Y-129385654D01*
X133330207Y-129557760D01*
X133330207Y-129557761D01*
X133409419Y-129748994D01*
X133449800Y-129952004D01*
X133449800Y-130158996D01*
X133409419Y-130362006D01*
X133363018Y-130474028D01*
X133330207Y-130553240D01*
X133253368Y-130668237D01*
X133215210Y-130725345D01*
X133068845Y-130871710D01*
X133011737Y-130909868D01*
X132896740Y-130986707D01*
X132817528Y-131019518D01*
X132705506Y-131065919D01*
X132502496Y-131106300D01*
X132295504Y-131106300D01*
X132092494Y-131065919D01*
X131980472Y-131019518D01*
X131901260Y-130986707D01*
X131786263Y-130909868D01*
X131729155Y-130871710D01*
X131582790Y-130725345D01*
X131544632Y-130668237D01*
X131467793Y-130553240D01*
X131434982Y-130474028D01*
X131388581Y-130362006D01*
X131348200Y-130158996D01*
X131348200Y-129952004D01*
X131388581Y-129748994D01*
X131467793Y-129557761D01*
X131467793Y-129557760D01*
X131582791Y-129385654D01*
X131729154Y-129239291D01*
X131901260Y-129124293D01*
X131980472Y-129091482D01*
X132092494Y-129045081D01*
X132295504Y-129004700D01*
X132502496Y-129004700D01*
X132705506Y-129045081D01*
X132705506Y-129045081D01*
G37*
G36*
X137785506Y-129045081D02*
G01*
X137897528Y-129091482D01*
X137976740Y-129124293D01*
X138148846Y-129239291D01*
X138295209Y-129385654D01*
X138410207Y-129557760D01*
X138410207Y-129557761D01*
X138489419Y-129748994D01*
X138529800Y-129952004D01*
X138529800Y-130158996D01*
X138489419Y-130362006D01*
X138443018Y-130474028D01*
X138410207Y-130553240D01*
X138333368Y-130668237D01*
X138295210Y-130725345D01*
X138148845Y-130871710D01*
X138091737Y-130909868D01*
X137976740Y-130986707D01*
X137897528Y-131019518D01*
X137785506Y-131065919D01*
X137582496Y-131106300D01*
X137375504Y-131106300D01*
X137172494Y-131065919D01*
X137060472Y-131019518D01*
X136981260Y-130986707D01*
X136866263Y-130909868D01*
X136809155Y-130871710D01*
X136662790Y-130725345D01*
X136624632Y-130668237D01*
X136547793Y-130553240D01*
X136514982Y-130474028D01*
X136468581Y-130362006D01*
X136428200Y-130158996D01*
X136428200Y-129952004D01*
X136468581Y-129748994D01*
X136547793Y-129557761D01*
X136547793Y-129557760D01*
X136662791Y-129385654D01*
X136809154Y-129239291D01*
X136981260Y-129124293D01*
X137060472Y-129091482D01*
X137172494Y-129045081D01*
X137375504Y-129004700D01*
X137582496Y-129004700D01*
X137785506Y-129045081D01*
X137785506Y-129045081D01*
G37*
G36*
X140325506Y-129045081D02*
G01*
X140437528Y-129091482D01*
X140516740Y-129124293D01*
X140688846Y-129239291D01*
X140835209Y-129385654D01*
X140950207Y-129557760D01*
X140950207Y-129557761D01*
X141029419Y-129748994D01*
X141069800Y-129952004D01*
X141069800Y-130158996D01*
X141029419Y-130362006D01*
X140983018Y-130474028D01*
X140950207Y-130553240D01*
X140873368Y-130668237D01*
X140835210Y-130725345D01*
X140688845Y-130871710D01*
X140631737Y-130909868D01*
X140516740Y-130986707D01*
X140437528Y-131019518D01*
X140325506Y-131065919D01*
X140122496Y-131106300D01*
X139915504Y-131106300D01*
X139712494Y-131065919D01*
X139600472Y-131019518D01*
X139521260Y-130986707D01*
X139406263Y-130909868D01*
X139349155Y-130871710D01*
X139202790Y-130725345D01*
X139164632Y-130668237D01*
X139087793Y-130553240D01*
X139054982Y-130474028D01*
X139008581Y-130362006D01*
X138968200Y-130158996D01*
X138968200Y-129952004D01*
X139008581Y-129748994D01*
X139087793Y-129557761D01*
X139087793Y-129557760D01*
X139202791Y-129385654D01*
X139349154Y-129239291D01*
X139521260Y-129124293D01*
X139600472Y-129091482D01*
X139712494Y-129045081D01*
X139915504Y-129004700D01*
X140122496Y-129004700D01*
X140325506Y-129045081D01*
X140325506Y-129045081D01*
G37*
G36*
X142865506Y-129045081D02*
G01*
X142977528Y-129091482D01*
X143056740Y-129124293D01*
X143228846Y-129239291D01*
X143375209Y-129385654D01*
X143490207Y-129557760D01*
X143490207Y-129557761D01*
X143569419Y-129748994D01*
X143609800Y-129952004D01*
X143609800Y-130158996D01*
X143569419Y-130362006D01*
X143523018Y-130474028D01*
X143490207Y-130553240D01*
X143413368Y-130668237D01*
X143375210Y-130725345D01*
X143228845Y-130871710D01*
X143171737Y-130909868D01*
X143056740Y-130986707D01*
X142977528Y-131019518D01*
X142865506Y-131065919D01*
X142662496Y-131106300D01*
X142455504Y-131106300D01*
X142252494Y-131065919D01*
X142140472Y-131019518D01*
X142061260Y-130986707D01*
X141946263Y-130909868D01*
X141889155Y-130871710D01*
X141742790Y-130725345D01*
X141704632Y-130668237D01*
X141627793Y-130553240D01*
X141594982Y-130474028D01*
X141548581Y-130362006D01*
X141508200Y-130158996D01*
X141508200Y-129952004D01*
X141548581Y-129748994D01*
X141627793Y-129557761D01*
X141627793Y-129557760D01*
X141742791Y-129385654D01*
X141889154Y-129239291D01*
X142061260Y-129124293D01*
X142140472Y-129091482D01*
X142252494Y-129045081D01*
X142455504Y-129004700D01*
X142662496Y-129004700D01*
X142865506Y-129045081D01*
X142865506Y-129045081D01*
G37*
G36*
X164175506Y-128045081D02*
G01*
X164287528Y-128091482D01*
X164366740Y-128124293D01*
X164538846Y-128239291D01*
X164685209Y-128385654D01*
X164800207Y-128557760D01*
X164800207Y-128557761D01*
X164879419Y-128748994D01*
X164919800Y-128952004D01*
X164919800Y-129158996D01*
X164879419Y-129362006D01*
X164869623Y-129385655D01*
X164800207Y-129553240D01*
X164685209Y-129725346D01*
X164538846Y-129871709D01*
X164366740Y-129986707D01*
X164287528Y-130019518D01*
X164175506Y-130065919D01*
X163972496Y-130106300D01*
X163765504Y-130106300D01*
X163562494Y-130065919D01*
X163450472Y-130019518D01*
X163371260Y-129986707D01*
X163199154Y-129871709D01*
X163052791Y-129725346D01*
X162937793Y-129553240D01*
X162868377Y-129385655D01*
X162858581Y-129362006D01*
X162818200Y-129158996D01*
X162818200Y-128952004D01*
X162858581Y-128748994D01*
X162937793Y-128557761D01*
X162937793Y-128557760D01*
X163052791Y-128385654D01*
X163199154Y-128239291D01*
X163371260Y-128124293D01*
X163450472Y-128091482D01*
X163562494Y-128045081D01*
X163765504Y-128004700D01*
X163972496Y-128004700D01*
X164175506Y-128045081D01*
X164175506Y-128045081D01*
G37*
G36*
X153175506Y-128045081D02*
G01*
X153287528Y-128091482D01*
X153366740Y-128124293D01*
X153538846Y-128239291D01*
X153685209Y-128385654D01*
X153800207Y-128557760D01*
X153800207Y-128557761D01*
X153879419Y-128748994D01*
X153919800Y-128952004D01*
X153919800Y-129158996D01*
X153879419Y-129362006D01*
X153869623Y-129385655D01*
X153800207Y-129553240D01*
X153685209Y-129725346D01*
X153538846Y-129871709D01*
X153366740Y-129986707D01*
X153287528Y-130019518D01*
X153175506Y-130065919D01*
X152972496Y-130106300D01*
X152765504Y-130106300D01*
X152562494Y-130065919D01*
X152450472Y-130019518D01*
X152371260Y-129986707D01*
X152199154Y-129871709D01*
X152052791Y-129725346D01*
X151937793Y-129553240D01*
X151868377Y-129385655D01*
X151858581Y-129362006D01*
X151818200Y-129158996D01*
X151818200Y-128952004D01*
X151858581Y-128748994D01*
X151937793Y-128557761D01*
X151937793Y-128557760D01*
X152052791Y-128385654D01*
X152199154Y-128239291D01*
X152371260Y-128124293D01*
X152450472Y-128091482D01*
X152562494Y-128045081D01*
X152765504Y-128004700D01*
X152972496Y-128004700D01*
X153175506Y-128045081D01*
X153175506Y-128045081D01*
G37*
G36*
X150675506Y-128045081D02*
G01*
X150787528Y-128091482D01*
X150866740Y-128124293D01*
X151038846Y-128239291D01*
X151185209Y-128385654D01*
X151300207Y-128557760D01*
X151300207Y-128557761D01*
X151379419Y-128748994D01*
X151419800Y-128952004D01*
X151419800Y-129158996D01*
X151379419Y-129362006D01*
X151369623Y-129385655D01*
X151300207Y-129553240D01*
X151185209Y-129725346D01*
X151038846Y-129871709D01*
X150866740Y-129986707D01*
X150787528Y-130019518D01*
X150675506Y-130065919D01*
X150472496Y-130106300D01*
X150265504Y-130106300D01*
X150062494Y-130065919D01*
X149950472Y-130019518D01*
X149871260Y-129986707D01*
X149699154Y-129871709D01*
X149552791Y-129725346D01*
X149437793Y-129553240D01*
X149368377Y-129385655D01*
X149358581Y-129362006D01*
X149318200Y-129158996D01*
X149318200Y-128952004D01*
X149358581Y-128748994D01*
X149437793Y-128557761D01*
X149437793Y-128557760D01*
X149552791Y-128385654D01*
X149699154Y-128239291D01*
X149871260Y-128124293D01*
X149950472Y-128091482D01*
X150062494Y-128045081D01*
X150265504Y-128004700D01*
X150472496Y-128004700D01*
X150675506Y-128045081D01*
X150675506Y-128045081D01*
G37*
G36*
X156175506Y-128045081D02*
G01*
X156287528Y-128091482D01*
X156366740Y-128124293D01*
X156538846Y-128239291D01*
X156685209Y-128385654D01*
X156800207Y-128557760D01*
X156800207Y-128557761D01*
X156879419Y-128748994D01*
X156919800Y-128952004D01*
X156919800Y-129158996D01*
X156879419Y-129362006D01*
X156869623Y-129385655D01*
X156800207Y-129553240D01*
X156685209Y-129725346D01*
X156538846Y-129871709D01*
X156366740Y-129986707D01*
X156287528Y-130019518D01*
X156175506Y-130065919D01*
X155972496Y-130106300D01*
X155765504Y-130106300D01*
X155562494Y-130065919D01*
X155450472Y-130019518D01*
X155371260Y-129986707D01*
X155199154Y-129871709D01*
X155052791Y-129725346D01*
X154937793Y-129553240D01*
X154868377Y-129385655D01*
X154858581Y-129362006D01*
X154818200Y-129158996D01*
X154818200Y-128952004D01*
X154858581Y-128748994D01*
X154937793Y-128557761D01*
X154937793Y-128557760D01*
X155052791Y-128385654D01*
X155199154Y-128239291D01*
X155371260Y-128124293D01*
X155450472Y-128091482D01*
X155562494Y-128045081D01*
X155765504Y-128004700D01*
X155972496Y-128004700D01*
X156175506Y-128045081D01*
X156175506Y-128045081D01*
G37*
G36*
X147675506Y-128045081D02*
G01*
X147787528Y-128091482D01*
X147866740Y-128124293D01*
X148038846Y-128239291D01*
X148185209Y-128385654D01*
X148300207Y-128557760D01*
X148300207Y-128557761D01*
X148379419Y-128748994D01*
X148419800Y-128952004D01*
X148419800Y-129158996D01*
X148379419Y-129362006D01*
X148369623Y-129385655D01*
X148300207Y-129553240D01*
X148185209Y-129725346D01*
X148038846Y-129871709D01*
X147866740Y-129986707D01*
X147787528Y-130019518D01*
X147675506Y-130065919D01*
X147472496Y-130106300D01*
X147265504Y-130106300D01*
X147062494Y-130065919D01*
X146950472Y-130019518D01*
X146871260Y-129986707D01*
X146699154Y-129871709D01*
X146552791Y-129725346D01*
X146437793Y-129553240D01*
X146368377Y-129385655D01*
X146358581Y-129362006D01*
X146318200Y-129158996D01*
X146318200Y-128952004D01*
X146358581Y-128748994D01*
X146437793Y-128557761D01*
X146437793Y-128557760D01*
X146552791Y-128385654D01*
X146699154Y-128239291D01*
X146871260Y-128124293D01*
X146950472Y-128091482D01*
X147062494Y-128045081D01*
X147265504Y-128004700D01*
X147472496Y-128004700D01*
X147675506Y-128045081D01*
X147675506Y-128045081D01*
G37*
G36*
X158675506Y-128045081D02*
G01*
X158787528Y-128091482D01*
X158866740Y-128124293D01*
X159038846Y-128239291D01*
X159185209Y-128385654D01*
X159300207Y-128557760D01*
X159300207Y-128557761D01*
X159379419Y-128748994D01*
X159419800Y-128952004D01*
X159419800Y-129158996D01*
X159379419Y-129362006D01*
X159369623Y-129385655D01*
X159300207Y-129553240D01*
X159185209Y-129725346D01*
X159038846Y-129871709D01*
X158866740Y-129986707D01*
X158787528Y-130019518D01*
X158675506Y-130065919D01*
X158472496Y-130106300D01*
X158265504Y-130106300D01*
X158062494Y-130065919D01*
X157950472Y-130019518D01*
X157871260Y-129986707D01*
X157699154Y-129871709D01*
X157552791Y-129725346D01*
X157437793Y-129553240D01*
X157368377Y-129385655D01*
X157358581Y-129362006D01*
X157318200Y-129158996D01*
X157318200Y-128952004D01*
X157358581Y-128748994D01*
X157437793Y-128557761D01*
X157437793Y-128557760D01*
X157552791Y-128385654D01*
X157699154Y-128239291D01*
X157871260Y-128124293D01*
X157950472Y-128091482D01*
X158062494Y-128045081D01*
X158265504Y-128004700D01*
X158472496Y-128004700D01*
X158675506Y-128045081D01*
X158675506Y-128045081D01*
G37*
G36*
X161675506Y-128045081D02*
G01*
X161787528Y-128091482D01*
X161866740Y-128124293D01*
X162038846Y-128239291D01*
X162185209Y-128385654D01*
X162300207Y-128557760D01*
X162300207Y-128557761D01*
X162379419Y-128748994D01*
X162419800Y-128952004D01*
X162419800Y-129158996D01*
X162379419Y-129362006D01*
X162369623Y-129385655D01*
X162300207Y-129553240D01*
X162185209Y-129725346D01*
X162038846Y-129871709D01*
X161866740Y-129986707D01*
X161787528Y-130019518D01*
X161675506Y-130065919D01*
X161472496Y-130106300D01*
X161265504Y-130106300D01*
X161062494Y-130065919D01*
X160950472Y-130019518D01*
X160871260Y-129986707D01*
X160699154Y-129871709D01*
X160552791Y-129725346D01*
X160437793Y-129553240D01*
X160368377Y-129385655D01*
X160358581Y-129362006D01*
X160318200Y-129158996D01*
X160318200Y-128952004D01*
X160358581Y-128748994D01*
X160437793Y-128557761D01*
X160437793Y-128557760D01*
X160552791Y-128385654D01*
X160699154Y-128239291D01*
X160871260Y-128124293D01*
X160950472Y-128091482D01*
X161062494Y-128045081D01*
X161265504Y-128004700D01*
X161472496Y-128004700D01*
X161675506Y-128045081D01*
X161675506Y-128045081D01*
G37*
G36*
X167175506Y-128045081D02*
G01*
X167287528Y-128091482D01*
X167366740Y-128124293D01*
X167538846Y-128239291D01*
X167685209Y-128385654D01*
X167800207Y-128557760D01*
X167800207Y-128557761D01*
X167879419Y-128748994D01*
X167919800Y-128952004D01*
X167919800Y-129158996D01*
X167879419Y-129362006D01*
X167869623Y-129385655D01*
X167800207Y-129553240D01*
X167685209Y-129725346D01*
X167538846Y-129871709D01*
X167366740Y-129986707D01*
X167287528Y-130019518D01*
X167175506Y-130065919D01*
X166972496Y-130106300D01*
X166765504Y-130106300D01*
X166562494Y-130065919D01*
X166450472Y-130019518D01*
X166371260Y-129986707D01*
X166199154Y-129871709D01*
X166052791Y-129725346D01*
X165937793Y-129553240D01*
X165868377Y-129385655D01*
X165858581Y-129362006D01*
X165818200Y-129158996D01*
X165818200Y-128952004D01*
X165858581Y-128748994D01*
X165937793Y-128557761D01*
X165937793Y-128557760D01*
X166052791Y-128385654D01*
X166199154Y-128239291D01*
X166371260Y-128124293D01*
X166450472Y-128091482D01*
X166562494Y-128045081D01*
X166765504Y-128004700D01*
X166972496Y-128004700D01*
X167175506Y-128045081D01*
X167175506Y-128045081D01*
G37*
G36*
X142865506Y-126505081D02*
G01*
X142977528Y-126551482D01*
X143056740Y-126584293D01*
X143228846Y-126699291D01*
X143375209Y-126845654D01*
X143490207Y-127017760D01*
X143490207Y-127017761D01*
X143569419Y-127208994D01*
X143609800Y-127412004D01*
X143609800Y-127618996D01*
X143569419Y-127822006D01*
X143562893Y-127837760D01*
X143490207Y-128013240D01*
X143375209Y-128185346D01*
X143228846Y-128331709D01*
X143056740Y-128446707D01*
X142977528Y-128479518D01*
X142865506Y-128525919D01*
X142662496Y-128566300D01*
X142455504Y-128566300D01*
X142252494Y-128525919D01*
X142140472Y-128479518D01*
X142061260Y-128446707D01*
X141889154Y-128331709D01*
X141742791Y-128185346D01*
X141627793Y-128013240D01*
X141555107Y-127837760D01*
X141548581Y-127822006D01*
X141508200Y-127618996D01*
X141508200Y-127412004D01*
X141548581Y-127208994D01*
X141627793Y-127017761D01*
X141627793Y-127017760D01*
X141742791Y-126845654D01*
X141889154Y-126699291D01*
X142061260Y-126584293D01*
X142140472Y-126551482D01*
X142252494Y-126505081D01*
X142455504Y-126464700D01*
X142662496Y-126464700D01*
X142865506Y-126505081D01*
X142865506Y-126505081D01*
G37*
G36*
X125085506Y-126505081D02*
G01*
X125197528Y-126551482D01*
X125276740Y-126584293D01*
X125448846Y-126699291D01*
X125595209Y-126845654D01*
X125710207Y-127017760D01*
X125710207Y-127017761D01*
X125789419Y-127208994D01*
X125829800Y-127412004D01*
X125829800Y-127618996D01*
X125789419Y-127822006D01*
X125782893Y-127837760D01*
X125710207Y-128013240D01*
X125595209Y-128185346D01*
X125448846Y-128331709D01*
X125276740Y-128446707D01*
X125197528Y-128479518D01*
X125085506Y-128525919D01*
X124882496Y-128566300D01*
X124675504Y-128566300D01*
X124472494Y-128525919D01*
X124360472Y-128479518D01*
X124281260Y-128446707D01*
X124109154Y-128331709D01*
X123962791Y-128185346D01*
X123847793Y-128013240D01*
X123775107Y-127837760D01*
X123768581Y-127822006D01*
X123728200Y-127618996D01*
X123728200Y-127412004D01*
X123768581Y-127208994D01*
X123847793Y-127017761D01*
X123847793Y-127017760D01*
X123962791Y-126845654D01*
X124109154Y-126699291D01*
X124281260Y-126584293D01*
X124360472Y-126551482D01*
X124472494Y-126505081D01*
X124675504Y-126464700D01*
X124882496Y-126464700D01*
X125085506Y-126505081D01*
X125085506Y-126505081D01*
G37*
G36*
X140325506Y-126505081D02*
G01*
X140437528Y-126551482D01*
X140516740Y-126584293D01*
X140688846Y-126699291D01*
X140835209Y-126845654D01*
X140950207Y-127017760D01*
X140950207Y-127017761D01*
X141029419Y-127208994D01*
X141069800Y-127412004D01*
X141069800Y-127618996D01*
X141029419Y-127822006D01*
X141022893Y-127837760D01*
X140950207Y-128013240D01*
X140835209Y-128185346D01*
X140688846Y-128331709D01*
X140516740Y-128446707D01*
X140437528Y-128479518D01*
X140325506Y-128525919D01*
X140122496Y-128566300D01*
X139915504Y-128566300D01*
X139712494Y-128525919D01*
X139600472Y-128479518D01*
X139521260Y-128446707D01*
X139349154Y-128331709D01*
X139202791Y-128185346D01*
X139087793Y-128013240D01*
X139015107Y-127837760D01*
X139008581Y-127822006D01*
X138968200Y-127618996D01*
X138968200Y-127412004D01*
X139008581Y-127208994D01*
X139087793Y-127017761D01*
X139087793Y-127017760D01*
X139202791Y-126845654D01*
X139349154Y-126699291D01*
X139521260Y-126584293D01*
X139600472Y-126551482D01*
X139712494Y-126505081D01*
X139915504Y-126464700D01*
X140122496Y-126464700D01*
X140325506Y-126505081D01*
X140325506Y-126505081D01*
G37*
G36*
X137785506Y-126505081D02*
G01*
X137897528Y-126551482D01*
X137976740Y-126584293D01*
X138148846Y-126699291D01*
X138295209Y-126845654D01*
X138410207Y-127017760D01*
X138410207Y-127017761D01*
X138489419Y-127208994D01*
X138529800Y-127412004D01*
X138529800Y-127618996D01*
X138489419Y-127822006D01*
X138482893Y-127837760D01*
X138410207Y-128013240D01*
X138295209Y-128185346D01*
X138148846Y-128331709D01*
X137976740Y-128446707D01*
X137897528Y-128479518D01*
X137785506Y-128525919D01*
X137582496Y-128566300D01*
X137375504Y-128566300D01*
X137172494Y-128525919D01*
X137060472Y-128479518D01*
X136981260Y-128446707D01*
X136809154Y-128331709D01*
X136662791Y-128185346D01*
X136547793Y-128013240D01*
X136475107Y-127837760D01*
X136468581Y-127822006D01*
X136428200Y-127618996D01*
X136428200Y-127412004D01*
X136468581Y-127208994D01*
X136547793Y-127017761D01*
X136547793Y-127017760D01*
X136662791Y-126845654D01*
X136809154Y-126699291D01*
X136981260Y-126584293D01*
X137060472Y-126551482D01*
X137172494Y-126505081D01*
X137375504Y-126464700D01*
X137582496Y-126464700D01*
X137785506Y-126505081D01*
X137785506Y-126505081D01*
G37*
G36*
X132705506Y-126505081D02*
G01*
X132817528Y-126551482D01*
X132896740Y-126584293D01*
X133068846Y-126699291D01*
X133215209Y-126845654D01*
X133330207Y-127017760D01*
X133330207Y-127017761D01*
X133409419Y-127208994D01*
X133449800Y-127412004D01*
X133449800Y-127618996D01*
X133409419Y-127822006D01*
X133402893Y-127837760D01*
X133330207Y-128013240D01*
X133215209Y-128185346D01*
X133068846Y-128331709D01*
X132896740Y-128446707D01*
X132817528Y-128479518D01*
X132705506Y-128525919D01*
X132502496Y-128566300D01*
X132295504Y-128566300D01*
X132092494Y-128525919D01*
X131980472Y-128479518D01*
X131901260Y-128446707D01*
X131729154Y-128331709D01*
X131582791Y-128185346D01*
X131467793Y-128013240D01*
X131395107Y-127837760D01*
X131388581Y-127822006D01*
X131348200Y-127618996D01*
X131348200Y-127412004D01*
X131388581Y-127208994D01*
X131467793Y-127017761D01*
X131467793Y-127017760D01*
X131582791Y-126845654D01*
X131729154Y-126699291D01*
X131901260Y-126584293D01*
X131980472Y-126551482D01*
X132092494Y-126505081D01*
X132295504Y-126464700D01*
X132502496Y-126464700D01*
X132705506Y-126505081D01*
X132705506Y-126505081D01*
G37*
G36*
X130165506Y-126505081D02*
G01*
X130277528Y-126551482D01*
X130356740Y-126584293D01*
X130528846Y-126699291D01*
X130675209Y-126845654D01*
X130790207Y-127017760D01*
X130790207Y-127017761D01*
X130869419Y-127208994D01*
X130909800Y-127412004D01*
X130909800Y-127618996D01*
X130869419Y-127822006D01*
X130862893Y-127837760D01*
X130790207Y-128013240D01*
X130675209Y-128185346D01*
X130528846Y-128331709D01*
X130356740Y-128446707D01*
X130277528Y-128479518D01*
X130165506Y-128525919D01*
X129962496Y-128566300D01*
X129755504Y-128566300D01*
X129552494Y-128525919D01*
X129440472Y-128479518D01*
X129361260Y-128446707D01*
X129189154Y-128331709D01*
X129042791Y-128185346D01*
X128927793Y-128013240D01*
X128855107Y-127837760D01*
X128848581Y-127822006D01*
X128808200Y-127618996D01*
X128808200Y-127412004D01*
X128848581Y-127208994D01*
X128927793Y-127017761D01*
X128927793Y-127017760D01*
X129042791Y-126845654D01*
X129189154Y-126699291D01*
X129361260Y-126584293D01*
X129440472Y-126551482D01*
X129552494Y-126505081D01*
X129755504Y-126464700D01*
X129962496Y-126464700D01*
X130165506Y-126505081D01*
X130165506Y-126505081D01*
G37*
G36*
X127625506Y-126505081D02*
G01*
X127737528Y-126551482D01*
X127816740Y-126584293D01*
X127988846Y-126699291D01*
X128135209Y-126845654D01*
X128250207Y-127017760D01*
X128250207Y-127017761D01*
X128329419Y-127208994D01*
X128369800Y-127412004D01*
X128369800Y-127618996D01*
X128329419Y-127822006D01*
X128322893Y-127837760D01*
X128250207Y-128013240D01*
X128135209Y-128185346D01*
X127988846Y-128331709D01*
X127816740Y-128446707D01*
X127737528Y-128479518D01*
X127625506Y-128525919D01*
X127422496Y-128566300D01*
X127215504Y-128566300D01*
X127012494Y-128525919D01*
X126900472Y-128479518D01*
X126821260Y-128446707D01*
X126649154Y-128331709D01*
X126502791Y-128185346D01*
X126387793Y-128013240D01*
X126315107Y-127837760D01*
X126308581Y-127822006D01*
X126268200Y-127618996D01*
X126268200Y-127412004D01*
X126308581Y-127208994D01*
X126387793Y-127017761D01*
X126387793Y-127017760D01*
X126502791Y-126845654D01*
X126649154Y-126699291D01*
X126821260Y-126584293D01*
X126900472Y-126551482D01*
X127012494Y-126505081D01*
X127215504Y-126464700D01*
X127422496Y-126464700D01*
X127625506Y-126505081D01*
X127625506Y-126505081D01*
G37*
G36*
X135245506Y-126505081D02*
G01*
X135357528Y-126551482D01*
X135436740Y-126584293D01*
X135608846Y-126699291D01*
X135755209Y-126845654D01*
X135870207Y-127017760D01*
X135870207Y-127017761D01*
X135949419Y-127208994D01*
X135989800Y-127412004D01*
X135989800Y-127618996D01*
X135949419Y-127822006D01*
X135942893Y-127837760D01*
X135870207Y-128013240D01*
X135755209Y-128185346D01*
X135608846Y-128331709D01*
X135436740Y-128446707D01*
X135357528Y-128479518D01*
X135245506Y-128525919D01*
X135042496Y-128566300D01*
X134835504Y-128566300D01*
X134632494Y-128525919D01*
X134520472Y-128479518D01*
X134441260Y-128446707D01*
X134269154Y-128331709D01*
X134122791Y-128185346D01*
X134007793Y-128013240D01*
X133935107Y-127837760D01*
X133928581Y-127822006D01*
X133888200Y-127618996D01*
X133888200Y-127412004D01*
X133928581Y-127208994D01*
X134007793Y-127017761D01*
X134007793Y-127017760D01*
X134122791Y-126845654D01*
X134269154Y-126699291D01*
X134441260Y-126584293D01*
X134520472Y-126551482D01*
X134632494Y-126505081D01*
X134835504Y-126464700D01*
X135042496Y-126464700D01*
X135245506Y-126505081D01*
X135245506Y-126505081D01*
G37*
G36*
X118877900Y-124925846D02*
G01*
X119090521Y-124968139D01*
X119390947Y-125092580D01*
X119661324Y-125273240D01*
X119891260Y-125503176D01*
X120071920Y-125773553D01*
X120196361Y-126073979D01*
X120259800Y-126392910D01*
X120259800Y-126718090D01*
X120196361Y-127037021D01*
X120071920Y-127337447D01*
X119891260Y-127607824D01*
X119661324Y-127837760D01*
X119390947Y-128018420D01*
X119090521Y-128142861D01*
X118877900Y-128185154D01*
X118771591Y-128206300D01*
X118446409Y-128206300D01*
X118340100Y-128185154D01*
X118127479Y-128142861D01*
X117827053Y-128018420D01*
X117556676Y-127837760D01*
X117326740Y-127607824D01*
X117146080Y-127337447D01*
X117021639Y-127037021D01*
X116958200Y-126718090D01*
X116958200Y-126392910D01*
X117021639Y-126073979D01*
X117146080Y-125773553D01*
X117326740Y-125503176D01*
X117556676Y-125273240D01*
X117827053Y-125092580D01*
X118127479Y-124968139D01*
X118340100Y-124925846D01*
X118446409Y-124904700D01*
X118771591Y-124904700D01*
X118877900Y-124925846D01*
X118877900Y-124925846D01*
G37*
G36*
X172637900Y-124925846D02*
G01*
X172850521Y-124968139D01*
X173150947Y-125092580D01*
X173421324Y-125273240D01*
X173651260Y-125503176D01*
X173831920Y-125773553D01*
X173956361Y-126073979D01*
X174019800Y-126392910D01*
X174019800Y-126718090D01*
X173956361Y-127037021D01*
X173831920Y-127337447D01*
X173651260Y-127607824D01*
X173421324Y-127837760D01*
X173150947Y-128018420D01*
X172850521Y-128142861D01*
X172637900Y-128185154D01*
X172531591Y-128206300D01*
X172206409Y-128206300D01*
X172100100Y-128185154D01*
X171887479Y-128142861D01*
X171587053Y-128018420D01*
X171316676Y-127837760D01*
X171086740Y-127607824D01*
X170906080Y-127337447D01*
X170781639Y-127037021D01*
X170718200Y-126718090D01*
X170718200Y-126392910D01*
X170781639Y-126073979D01*
X170906080Y-125773553D01*
X171086740Y-125503176D01*
X171316676Y-125273240D01*
X171587053Y-125092580D01*
X171887479Y-124968139D01*
X172100100Y-124925846D01*
X172206409Y-124904700D01*
X172531591Y-124904700D01*
X172637900Y-124925846D01*
X172637900Y-124925846D01*
G37*
G36*
X153175506Y-125545081D02*
G01*
X153287528Y-125591482D01*
X153366740Y-125624293D01*
X153538846Y-125739291D01*
X153685209Y-125885654D01*
X153800207Y-126057760D01*
X153800207Y-126057761D01*
X153879419Y-126248994D01*
X153919800Y-126452004D01*
X153919800Y-126658996D01*
X153879419Y-126862006D01*
X153833018Y-126974028D01*
X153800207Y-127053240D01*
X153685209Y-127225346D01*
X153538846Y-127371709D01*
X153366740Y-127486707D01*
X153287528Y-127519518D01*
X153175506Y-127565919D01*
X152972496Y-127606300D01*
X152765504Y-127606300D01*
X152562494Y-127565919D01*
X152450472Y-127519518D01*
X152371260Y-127486707D01*
X152199154Y-127371709D01*
X152052791Y-127225346D01*
X151937793Y-127053240D01*
X151904982Y-126974028D01*
X151858581Y-126862006D01*
X151818200Y-126658996D01*
X151818200Y-126452004D01*
X151858581Y-126248994D01*
X151937793Y-126057761D01*
X151937793Y-126057760D01*
X152052791Y-125885654D01*
X152199154Y-125739291D01*
X152371260Y-125624293D01*
X152450472Y-125591482D01*
X152562494Y-125545081D01*
X152765504Y-125504700D01*
X152972496Y-125504700D01*
X153175506Y-125545081D01*
X153175506Y-125545081D01*
G37*
G36*
X167175506Y-125545081D02*
G01*
X167287528Y-125591482D01*
X167366740Y-125624293D01*
X167538846Y-125739291D01*
X167685209Y-125885654D01*
X167800207Y-126057760D01*
X167800207Y-126057761D01*
X167879419Y-126248994D01*
X167919800Y-126452004D01*
X167919800Y-126658996D01*
X167879419Y-126862006D01*
X167833018Y-126974028D01*
X167800207Y-127053240D01*
X167685209Y-127225346D01*
X167538846Y-127371709D01*
X167366740Y-127486707D01*
X167287528Y-127519518D01*
X167175506Y-127565919D01*
X166972496Y-127606300D01*
X166765504Y-127606300D01*
X166562494Y-127565919D01*
X166450472Y-127519518D01*
X166371260Y-127486707D01*
X166199154Y-127371709D01*
X166052791Y-127225346D01*
X165937793Y-127053240D01*
X165904982Y-126974028D01*
X165858581Y-126862006D01*
X165818200Y-126658996D01*
X165818200Y-126452004D01*
X165858581Y-126248994D01*
X165937793Y-126057761D01*
X165937793Y-126057760D01*
X166052791Y-125885654D01*
X166199154Y-125739291D01*
X166371260Y-125624293D01*
X166450472Y-125591482D01*
X166562494Y-125545081D01*
X166765504Y-125504700D01*
X166972496Y-125504700D01*
X167175506Y-125545081D01*
X167175506Y-125545081D01*
G37*
G36*
X164175506Y-125545081D02*
G01*
X164287528Y-125591482D01*
X164366740Y-125624293D01*
X164538846Y-125739291D01*
X164685209Y-125885654D01*
X164800207Y-126057760D01*
X164800207Y-126057761D01*
X164879419Y-126248994D01*
X164919800Y-126452004D01*
X164919800Y-126658996D01*
X164879419Y-126862006D01*
X164833018Y-126974028D01*
X164800207Y-127053240D01*
X164685209Y-127225346D01*
X164538846Y-127371709D01*
X164366740Y-127486707D01*
X164287528Y-127519518D01*
X164175506Y-127565919D01*
X163972496Y-127606300D01*
X163765504Y-127606300D01*
X163562494Y-127565919D01*
X163450472Y-127519518D01*
X163371260Y-127486707D01*
X163199154Y-127371709D01*
X163052791Y-127225346D01*
X162937793Y-127053240D01*
X162904982Y-126974028D01*
X162858581Y-126862006D01*
X162818200Y-126658996D01*
X162818200Y-126452004D01*
X162858581Y-126248994D01*
X162937793Y-126057761D01*
X162937793Y-126057760D01*
X163052791Y-125885654D01*
X163199154Y-125739291D01*
X163371260Y-125624293D01*
X163450472Y-125591482D01*
X163562494Y-125545081D01*
X163765504Y-125504700D01*
X163972496Y-125504700D01*
X164175506Y-125545081D01*
X164175506Y-125545081D01*
G37*
G36*
X161675506Y-125545081D02*
G01*
X161787528Y-125591482D01*
X161866740Y-125624293D01*
X162038846Y-125739291D01*
X162185209Y-125885654D01*
X162300207Y-126057760D01*
X162300207Y-126057761D01*
X162379419Y-126248994D01*
X162419800Y-126452004D01*
X162419800Y-126658996D01*
X162379419Y-126862006D01*
X162333018Y-126974028D01*
X162300207Y-127053240D01*
X162185209Y-127225346D01*
X162038846Y-127371709D01*
X161866740Y-127486707D01*
X161787528Y-127519518D01*
X161675506Y-127565919D01*
X161472496Y-127606300D01*
X161265504Y-127606300D01*
X161062494Y-127565919D01*
X160950472Y-127519518D01*
X160871260Y-127486707D01*
X160699154Y-127371709D01*
X160552791Y-127225346D01*
X160437793Y-127053240D01*
X160404982Y-126974028D01*
X160358581Y-126862006D01*
X160318200Y-126658996D01*
X160318200Y-126452004D01*
X160358581Y-126248994D01*
X160437793Y-126057761D01*
X160437793Y-126057760D01*
X160552791Y-125885654D01*
X160699154Y-125739291D01*
X160871260Y-125624293D01*
X160950472Y-125591482D01*
X161062494Y-125545081D01*
X161265504Y-125504700D01*
X161472496Y-125504700D01*
X161675506Y-125545081D01*
X161675506Y-125545081D01*
G37*
G36*
X158675506Y-125545081D02*
G01*
X158787528Y-125591482D01*
X158866740Y-125624293D01*
X159038846Y-125739291D01*
X159185209Y-125885654D01*
X159300207Y-126057760D01*
X159300207Y-126057761D01*
X159379419Y-126248994D01*
X159419800Y-126452004D01*
X159419800Y-126658996D01*
X159379419Y-126862006D01*
X159333018Y-126974028D01*
X159300207Y-127053240D01*
X159185209Y-127225346D01*
X159038846Y-127371709D01*
X158866740Y-127486707D01*
X158787528Y-127519518D01*
X158675506Y-127565919D01*
X158472496Y-127606300D01*
X158265504Y-127606300D01*
X158062494Y-127565919D01*
X157950472Y-127519518D01*
X157871260Y-127486707D01*
X157699154Y-127371709D01*
X157552791Y-127225346D01*
X157437793Y-127053240D01*
X157404982Y-126974028D01*
X157358581Y-126862006D01*
X157318200Y-126658996D01*
X157318200Y-126452004D01*
X157358581Y-126248994D01*
X157437793Y-126057761D01*
X157437793Y-126057760D01*
X157552791Y-125885654D01*
X157699154Y-125739291D01*
X157871260Y-125624293D01*
X157950472Y-125591482D01*
X158062494Y-125545081D01*
X158265504Y-125504700D01*
X158472496Y-125504700D01*
X158675506Y-125545081D01*
X158675506Y-125545081D01*
G37*
G36*
X150675506Y-125545081D02*
G01*
X150787528Y-125591482D01*
X150866740Y-125624293D01*
X151038846Y-125739291D01*
X151185209Y-125885654D01*
X151300207Y-126057760D01*
X151300207Y-126057761D01*
X151379419Y-126248994D01*
X151419800Y-126452004D01*
X151419800Y-126658996D01*
X151379419Y-126862006D01*
X151333018Y-126974028D01*
X151300207Y-127053240D01*
X151185209Y-127225346D01*
X151038846Y-127371709D01*
X150866740Y-127486707D01*
X150787528Y-127519518D01*
X150675506Y-127565919D01*
X150472496Y-127606300D01*
X150265504Y-127606300D01*
X150062494Y-127565919D01*
X149950472Y-127519518D01*
X149871260Y-127486707D01*
X149699154Y-127371709D01*
X149552791Y-127225346D01*
X149437793Y-127053240D01*
X149404982Y-126974028D01*
X149358581Y-126862006D01*
X149318200Y-126658996D01*
X149318200Y-126452004D01*
X149358581Y-126248994D01*
X149437793Y-126057761D01*
X149437793Y-126057760D01*
X149552791Y-125885654D01*
X149699154Y-125739291D01*
X149871260Y-125624293D01*
X149950472Y-125591482D01*
X150062494Y-125545081D01*
X150265504Y-125504700D01*
X150472496Y-125504700D01*
X150675506Y-125545081D01*
X150675506Y-125545081D01*
G37*
G36*
X147675506Y-125545081D02*
G01*
X147787528Y-125591482D01*
X147866740Y-125624293D01*
X148038846Y-125739291D01*
X148185209Y-125885654D01*
X148300207Y-126057760D01*
X148300207Y-126057761D01*
X148379419Y-126248994D01*
X148419800Y-126452004D01*
X148419800Y-126658996D01*
X148379419Y-126862006D01*
X148333018Y-126974028D01*
X148300207Y-127053240D01*
X148185209Y-127225346D01*
X148038846Y-127371709D01*
X147866740Y-127486707D01*
X147787528Y-127519518D01*
X147675506Y-127565919D01*
X147472496Y-127606300D01*
X147265504Y-127606300D01*
X147062494Y-127565919D01*
X146950472Y-127519518D01*
X146871260Y-127486707D01*
X146699154Y-127371709D01*
X146552791Y-127225346D01*
X146437793Y-127053240D01*
X146404982Y-126974028D01*
X146358581Y-126862006D01*
X146318200Y-126658996D01*
X146318200Y-126452004D01*
X146358581Y-126248994D01*
X146437793Y-126057761D01*
X146437793Y-126057760D01*
X146552791Y-125885654D01*
X146699154Y-125739291D01*
X146871260Y-125624293D01*
X146950472Y-125591482D01*
X147062494Y-125545081D01*
X147265504Y-125504700D01*
X147472496Y-125504700D01*
X147675506Y-125545081D01*
X147675506Y-125545081D01*
G37*
G36*
X156175506Y-125545081D02*
G01*
X156287528Y-125591482D01*
X156366740Y-125624293D01*
X156538846Y-125739291D01*
X156685209Y-125885654D01*
X156800207Y-126057760D01*
X156800207Y-126057761D01*
X156879419Y-126248994D01*
X156919800Y-126452004D01*
X156919800Y-126658996D01*
X156879419Y-126862006D01*
X156833018Y-126974028D01*
X156800207Y-127053240D01*
X156685209Y-127225346D01*
X156538846Y-127371709D01*
X156366740Y-127486707D01*
X156287528Y-127519518D01*
X156175506Y-127565919D01*
X155972496Y-127606300D01*
X155765504Y-127606300D01*
X155562494Y-127565919D01*
X155450472Y-127519518D01*
X155371260Y-127486707D01*
X155199154Y-127371709D01*
X155052791Y-127225346D01*
X154937793Y-127053240D01*
X154904982Y-126974028D01*
X154858581Y-126862006D01*
X154818200Y-126658996D01*
X154818200Y-126452004D01*
X154858581Y-126248994D01*
X154937793Y-126057761D01*
X154937793Y-126057760D01*
X155052791Y-125885654D01*
X155199154Y-125739291D01*
X155371260Y-125624293D01*
X155450472Y-125591482D01*
X155562494Y-125545081D01*
X155765504Y-125504700D01*
X155972496Y-125504700D01*
X156175506Y-125545081D01*
X156175506Y-125545081D01*
G37*
G36*
X137785506Y-123965081D02*
G01*
X137897528Y-124011482D01*
X137976740Y-124044293D01*
X138148846Y-124159291D01*
X138295209Y-124305654D01*
X138410207Y-124477760D01*
X138410207Y-124477761D01*
X138489419Y-124668994D01*
X138529800Y-124872004D01*
X138529800Y-125078996D01*
X138489419Y-125282006D01*
X138443018Y-125394028D01*
X138410207Y-125473240D01*
X138295209Y-125645346D01*
X138148846Y-125791709D01*
X137976740Y-125906707D01*
X137897528Y-125939518D01*
X137785506Y-125985919D01*
X137582496Y-126026300D01*
X137375504Y-126026300D01*
X137172494Y-125985919D01*
X137060472Y-125939518D01*
X136981260Y-125906707D01*
X136809154Y-125791709D01*
X136662791Y-125645346D01*
X136547793Y-125473240D01*
X136514982Y-125394028D01*
X136468581Y-125282006D01*
X136428200Y-125078996D01*
X136428200Y-124872004D01*
X136468581Y-124668994D01*
X136547793Y-124477761D01*
X136547793Y-124477760D01*
X136662791Y-124305654D01*
X136809154Y-124159291D01*
X136981260Y-124044293D01*
X137060472Y-124011482D01*
X137172494Y-123965081D01*
X137375504Y-123924700D01*
X137582496Y-123924700D01*
X137785506Y-123965081D01*
X137785506Y-123965081D01*
G37*
G36*
X135245506Y-123965081D02*
G01*
X135357528Y-124011482D01*
X135436740Y-124044293D01*
X135608846Y-124159291D01*
X135755209Y-124305654D01*
X135870207Y-124477760D01*
X135870207Y-124477761D01*
X135949419Y-124668994D01*
X135989800Y-124872004D01*
X135989800Y-125078996D01*
X135949419Y-125282006D01*
X135903018Y-125394028D01*
X135870207Y-125473240D01*
X135755209Y-125645346D01*
X135608846Y-125791709D01*
X135436740Y-125906707D01*
X135357528Y-125939518D01*
X135245506Y-125985919D01*
X135042496Y-126026300D01*
X134835504Y-126026300D01*
X134632494Y-125985919D01*
X134520472Y-125939518D01*
X134441260Y-125906707D01*
X134269154Y-125791709D01*
X134122791Y-125645346D01*
X134007793Y-125473240D01*
X133974982Y-125394028D01*
X133928581Y-125282006D01*
X133888200Y-125078996D01*
X133888200Y-124872004D01*
X133928581Y-124668994D01*
X134007793Y-124477761D01*
X134007793Y-124477760D01*
X134122791Y-124305654D01*
X134269154Y-124159291D01*
X134441260Y-124044293D01*
X134520472Y-124011482D01*
X134632494Y-123965081D01*
X134835504Y-123924700D01*
X135042496Y-123924700D01*
X135245506Y-123965081D01*
X135245506Y-123965081D01*
G37*
G36*
X132705506Y-123965081D02*
G01*
X132817528Y-124011482D01*
X132896740Y-124044293D01*
X133068846Y-124159291D01*
X133215209Y-124305654D01*
X133330207Y-124477760D01*
X133330207Y-124477761D01*
X133409419Y-124668994D01*
X133449800Y-124872004D01*
X133449800Y-125078996D01*
X133409419Y-125282006D01*
X133363018Y-125394028D01*
X133330207Y-125473240D01*
X133215209Y-125645346D01*
X133068846Y-125791709D01*
X132896740Y-125906707D01*
X132817528Y-125939518D01*
X132705506Y-125985919D01*
X132502496Y-126026300D01*
X132295504Y-126026300D01*
X132092494Y-125985919D01*
X131980472Y-125939518D01*
X131901260Y-125906707D01*
X131729154Y-125791709D01*
X131582791Y-125645346D01*
X131467793Y-125473240D01*
X131434982Y-125394028D01*
X131388581Y-125282006D01*
X131348200Y-125078996D01*
X131348200Y-124872004D01*
X131388581Y-124668994D01*
X131467793Y-124477761D01*
X131467793Y-124477760D01*
X131582791Y-124305654D01*
X131729154Y-124159291D01*
X131901260Y-124044293D01*
X131980472Y-124011482D01*
X132092494Y-123965081D01*
X132295504Y-123924700D01*
X132502496Y-123924700D01*
X132705506Y-123965081D01*
X132705506Y-123965081D01*
G37*
G36*
X130165506Y-123965081D02*
G01*
X130277528Y-124011482D01*
X130356740Y-124044293D01*
X130528846Y-124159291D01*
X130675209Y-124305654D01*
X130790207Y-124477760D01*
X130790207Y-124477761D01*
X130869419Y-124668994D01*
X130909800Y-124872004D01*
X130909800Y-125078996D01*
X130869419Y-125282006D01*
X130823018Y-125394028D01*
X130790207Y-125473240D01*
X130675209Y-125645346D01*
X130528846Y-125791709D01*
X130356740Y-125906707D01*
X130277528Y-125939518D01*
X130165506Y-125985919D01*
X129962496Y-126026300D01*
X129755504Y-126026300D01*
X129552494Y-125985919D01*
X129440472Y-125939518D01*
X129361260Y-125906707D01*
X129189154Y-125791709D01*
X129042791Y-125645346D01*
X128927793Y-125473240D01*
X128894982Y-125394028D01*
X128848581Y-125282006D01*
X128808200Y-125078996D01*
X128808200Y-124872004D01*
X128848581Y-124668994D01*
X128927793Y-124477761D01*
X128927793Y-124477760D01*
X129042791Y-124305654D01*
X129189154Y-124159291D01*
X129361260Y-124044293D01*
X129440472Y-124011482D01*
X129552494Y-123965081D01*
X129755504Y-123924700D01*
X129962496Y-123924700D01*
X130165506Y-123965081D01*
X130165506Y-123965081D01*
G37*
G36*
X127625506Y-123965081D02*
G01*
X127737528Y-124011482D01*
X127816740Y-124044293D01*
X127988846Y-124159291D01*
X128135209Y-124305654D01*
X128250207Y-124477760D01*
X128250207Y-124477761D01*
X128329419Y-124668994D01*
X128369800Y-124872004D01*
X128369800Y-125078996D01*
X128329419Y-125282006D01*
X128283018Y-125394028D01*
X128250207Y-125473240D01*
X128135209Y-125645346D01*
X127988846Y-125791709D01*
X127816740Y-125906707D01*
X127737528Y-125939518D01*
X127625506Y-125985919D01*
X127422496Y-126026300D01*
X127215504Y-126026300D01*
X127012494Y-125985919D01*
X126900472Y-125939518D01*
X126821260Y-125906707D01*
X126649154Y-125791709D01*
X126502791Y-125645346D01*
X126387793Y-125473240D01*
X126354982Y-125394028D01*
X126308581Y-125282006D01*
X126268200Y-125078996D01*
X126268200Y-124872004D01*
X126308581Y-124668994D01*
X126387793Y-124477761D01*
X126387793Y-124477760D01*
X126502791Y-124305654D01*
X126649154Y-124159291D01*
X126821260Y-124044293D01*
X126900472Y-124011482D01*
X127012494Y-123965081D01*
X127215504Y-123924700D01*
X127422496Y-123924700D01*
X127625506Y-123965081D01*
X127625506Y-123965081D01*
G37*
G36*
X125085506Y-123965081D02*
G01*
X125197528Y-124011482D01*
X125276740Y-124044293D01*
X125448846Y-124159291D01*
X125595209Y-124305654D01*
X125710207Y-124477760D01*
X125710207Y-124477761D01*
X125789419Y-124668994D01*
X125829800Y-124872004D01*
X125829800Y-125078996D01*
X125789419Y-125282006D01*
X125743018Y-125394028D01*
X125710207Y-125473240D01*
X125595209Y-125645346D01*
X125448846Y-125791709D01*
X125276740Y-125906707D01*
X125197528Y-125939518D01*
X125085506Y-125985919D01*
X124882496Y-126026300D01*
X124675504Y-126026300D01*
X124472494Y-125985919D01*
X124360472Y-125939518D01*
X124281260Y-125906707D01*
X124109154Y-125791709D01*
X123962791Y-125645346D01*
X123847793Y-125473240D01*
X123814982Y-125394028D01*
X123768581Y-125282006D01*
X123728200Y-125078996D01*
X123728200Y-124872004D01*
X123768581Y-124668994D01*
X123847793Y-124477761D01*
X123847793Y-124477760D01*
X123962791Y-124305654D01*
X124109154Y-124159291D01*
X124281260Y-124044293D01*
X124360472Y-124011482D01*
X124472494Y-123965081D01*
X124675504Y-123924700D01*
X124882496Y-123924700D01*
X125085506Y-123965081D01*
X125085506Y-123965081D01*
G37*
G36*
X142865506Y-123965081D02*
G01*
X142977528Y-124011482D01*
X143056740Y-124044293D01*
X143228846Y-124159291D01*
X143375209Y-124305654D01*
X143490207Y-124477760D01*
X143490207Y-124477761D01*
X143569419Y-124668994D01*
X143609800Y-124872004D01*
X143609800Y-125078996D01*
X143569419Y-125282006D01*
X143523018Y-125394028D01*
X143490207Y-125473240D01*
X143375209Y-125645346D01*
X143228846Y-125791709D01*
X143056740Y-125906707D01*
X142977528Y-125939518D01*
X142865506Y-125985919D01*
X142662496Y-126026300D01*
X142455504Y-126026300D01*
X142252494Y-125985919D01*
X142140472Y-125939518D01*
X142061260Y-125906707D01*
X141889154Y-125791709D01*
X141742791Y-125645346D01*
X141627793Y-125473240D01*
X141594982Y-125394028D01*
X141548581Y-125282006D01*
X141508200Y-125078996D01*
X141508200Y-124872004D01*
X141548581Y-124668994D01*
X141627793Y-124477761D01*
X141627793Y-124477760D01*
X141742791Y-124305654D01*
X141889154Y-124159291D01*
X142061260Y-124044293D01*
X142140472Y-124011482D01*
X142252494Y-123965081D01*
X142455504Y-123924700D01*
X142662496Y-123924700D01*
X142865506Y-123965081D01*
X142865506Y-123965081D01*
G37*
G36*
X140325506Y-123965081D02*
G01*
X140437528Y-124011482D01*
X140516740Y-124044293D01*
X140688846Y-124159291D01*
X140835209Y-124305654D01*
X140950207Y-124477760D01*
X140950207Y-124477761D01*
X141029419Y-124668994D01*
X141069800Y-124872004D01*
X141069800Y-125078996D01*
X141029419Y-125282006D01*
X140983018Y-125394028D01*
X140950207Y-125473240D01*
X140835209Y-125645346D01*
X140688846Y-125791709D01*
X140516740Y-125906707D01*
X140437528Y-125939518D01*
X140325506Y-125985919D01*
X140122496Y-126026300D01*
X139915504Y-126026300D01*
X139712494Y-125985919D01*
X139600472Y-125939518D01*
X139521260Y-125906707D01*
X139349154Y-125791709D01*
X139202791Y-125645346D01*
X139087793Y-125473240D01*
X139054982Y-125394028D01*
X139008581Y-125282006D01*
X138968200Y-125078996D01*
X138968200Y-124872004D01*
X139008581Y-124668994D01*
X139087793Y-124477761D01*
X139087793Y-124477760D01*
X139202791Y-124305654D01*
X139349154Y-124159291D01*
X139521260Y-124044293D01*
X139600472Y-124011482D01*
X139712494Y-123965081D01*
X139915504Y-123924700D01*
X140122496Y-123924700D01*
X140325506Y-123965081D01*
X140325506Y-123965081D01*
G37*
G36*
X164175506Y-123045081D02*
G01*
X164287528Y-123091482D01*
X164366740Y-123124293D01*
X164538846Y-123239291D01*
X164685209Y-123385654D01*
X164800207Y-123557760D01*
X164800207Y-123557761D01*
X164879419Y-123748994D01*
X164919800Y-123952004D01*
X164919800Y-124158996D01*
X164879419Y-124362006D01*
X164833018Y-124474028D01*
X164800207Y-124553240D01*
X164685209Y-124725346D01*
X164538846Y-124871709D01*
X164366740Y-124986707D01*
X164287528Y-125019518D01*
X164175506Y-125065919D01*
X163972496Y-125106300D01*
X163765504Y-125106300D01*
X163562494Y-125065919D01*
X163450472Y-125019518D01*
X163371260Y-124986707D01*
X163199154Y-124871709D01*
X163052791Y-124725346D01*
X162937793Y-124553240D01*
X162904982Y-124474028D01*
X162858581Y-124362006D01*
X162818200Y-124158996D01*
X162818200Y-123952004D01*
X162858581Y-123748994D01*
X162937793Y-123557761D01*
X162937793Y-123557760D01*
X163052791Y-123385654D01*
X163199154Y-123239291D01*
X163371260Y-123124293D01*
X163450472Y-123091482D01*
X163562494Y-123045081D01*
X163765504Y-123004700D01*
X163972496Y-123004700D01*
X164175506Y-123045081D01*
X164175506Y-123045081D01*
G37*
G36*
X161675506Y-123045081D02*
G01*
X161787528Y-123091482D01*
X161866740Y-123124293D01*
X162038846Y-123239291D01*
X162185209Y-123385654D01*
X162300207Y-123557760D01*
X162300207Y-123557761D01*
X162379419Y-123748994D01*
X162419800Y-123952004D01*
X162419800Y-124158996D01*
X162379419Y-124362006D01*
X162333018Y-124474028D01*
X162300207Y-124553240D01*
X162185209Y-124725346D01*
X162038846Y-124871709D01*
X161866740Y-124986707D01*
X161787528Y-125019518D01*
X161675506Y-125065919D01*
X161472496Y-125106300D01*
X161265504Y-125106300D01*
X161062494Y-125065919D01*
X160950472Y-125019518D01*
X160871260Y-124986707D01*
X160699154Y-124871709D01*
X160552791Y-124725346D01*
X160437793Y-124553240D01*
X160404982Y-124474028D01*
X160358581Y-124362006D01*
X160318200Y-124158996D01*
X160318200Y-123952004D01*
X160358581Y-123748994D01*
X160437793Y-123557761D01*
X160437793Y-123557760D01*
X160552791Y-123385654D01*
X160699154Y-123239291D01*
X160871260Y-123124293D01*
X160950472Y-123091482D01*
X161062494Y-123045081D01*
X161265504Y-123004700D01*
X161472496Y-123004700D01*
X161675506Y-123045081D01*
X161675506Y-123045081D01*
G37*
G36*
X158675506Y-123045081D02*
G01*
X158787528Y-123091482D01*
X158866740Y-123124293D01*
X159038846Y-123239291D01*
X159185209Y-123385654D01*
X159300207Y-123557760D01*
X159300207Y-123557761D01*
X159379419Y-123748994D01*
X159419800Y-123952004D01*
X159419800Y-124158996D01*
X159379419Y-124362006D01*
X159333018Y-124474028D01*
X159300207Y-124553240D01*
X159185209Y-124725346D01*
X159038846Y-124871709D01*
X158866740Y-124986707D01*
X158787528Y-125019518D01*
X158675506Y-125065919D01*
X158472496Y-125106300D01*
X158265504Y-125106300D01*
X158062494Y-125065919D01*
X157950472Y-125019518D01*
X157871260Y-124986707D01*
X157699154Y-124871709D01*
X157552791Y-124725346D01*
X157437793Y-124553240D01*
X157404982Y-124474028D01*
X157358581Y-124362006D01*
X157318200Y-124158996D01*
X157318200Y-123952004D01*
X157358581Y-123748994D01*
X157437793Y-123557761D01*
X157437793Y-123557760D01*
X157552791Y-123385654D01*
X157699154Y-123239291D01*
X157871260Y-123124293D01*
X157950472Y-123091482D01*
X158062494Y-123045081D01*
X158265504Y-123004700D01*
X158472496Y-123004700D01*
X158675506Y-123045081D01*
X158675506Y-123045081D01*
G37*
G36*
X153175506Y-123045081D02*
G01*
X153287528Y-123091482D01*
X153366740Y-123124293D01*
X153538846Y-123239291D01*
X153685209Y-123385654D01*
X153800207Y-123557760D01*
X153800207Y-123557761D01*
X153879419Y-123748994D01*
X153919800Y-123952004D01*
X153919800Y-124158996D01*
X153879419Y-124362006D01*
X153833018Y-124474028D01*
X153800207Y-124553240D01*
X153685209Y-124725346D01*
X153538846Y-124871709D01*
X153366740Y-124986707D01*
X153287528Y-125019518D01*
X153175506Y-125065919D01*
X152972496Y-125106300D01*
X152765504Y-125106300D01*
X152562494Y-125065919D01*
X152450472Y-125019518D01*
X152371260Y-124986707D01*
X152199154Y-124871709D01*
X152052791Y-124725346D01*
X151937793Y-124553240D01*
X151904982Y-124474028D01*
X151858581Y-124362006D01*
X151818200Y-124158996D01*
X151818200Y-123952004D01*
X151858581Y-123748994D01*
X151937793Y-123557761D01*
X151937793Y-123557760D01*
X152052791Y-123385654D01*
X152199154Y-123239291D01*
X152371260Y-123124293D01*
X152450472Y-123091482D01*
X152562494Y-123045081D01*
X152765504Y-123004700D01*
X152972496Y-123004700D01*
X153175506Y-123045081D01*
X153175506Y-123045081D01*
G37*
G36*
X150675506Y-123045081D02*
G01*
X150787528Y-123091482D01*
X150866740Y-123124293D01*
X151038846Y-123239291D01*
X151185209Y-123385654D01*
X151300207Y-123557760D01*
X151300207Y-123557761D01*
X151379419Y-123748994D01*
X151419800Y-123952004D01*
X151419800Y-124158996D01*
X151379419Y-124362006D01*
X151333018Y-124474028D01*
X151300207Y-124553240D01*
X151185209Y-124725346D01*
X151038846Y-124871709D01*
X150866740Y-124986707D01*
X150787528Y-125019518D01*
X150675506Y-125065919D01*
X150472496Y-125106300D01*
X150265504Y-125106300D01*
X150062494Y-125065919D01*
X149950472Y-125019518D01*
X149871260Y-124986707D01*
X149699154Y-124871709D01*
X149552791Y-124725346D01*
X149437793Y-124553240D01*
X149404982Y-124474028D01*
X149358581Y-124362006D01*
X149318200Y-124158996D01*
X149318200Y-123952004D01*
X149358581Y-123748994D01*
X149437793Y-123557761D01*
X149437793Y-123557760D01*
X149552791Y-123385654D01*
X149699154Y-123239291D01*
X149871260Y-123124293D01*
X149950472Y-123091482D01*
X150062494Y-123045081D01*
X150265504Y-123004700D01*
X150472496Y-123004700D01*
X150675506Y-123045081D01*
X150675506Y-123045081D01*
G37*
G36*
X156175506Y-123045081D02*
G01*
X156287528Y-123091482D01*
X156366740Y-123124293D01*
X156538846Y-123239291D01*
X156685209Y-123385654D01*
X156800207Y-123557760D01*
X156800207Y-123557761D01*
X156879419Y-123748994D01*
X156919800Y-123952004D01*
X156919800Y-124158996D01*
X156879419Y-124362006D01*
X156833018Y-124474028D01*
X156800207Y-124553240D01*
X156685209Y-124725346D01*
X156538846Y-124871709D01*
X156366740Y-124986707D01*
X156287528Y-125019518D01*
X156175506Y-125065919D01*
X155972496Y-125106300D01*
X155765504Y-125106300D01*
X155562494Y-125065919D01*
X155450472Y-125019518D01*
X155371260Y-124986707D01*
X155199154Y-124871709D01*
X155052791Y-124725346D01*
X154937793Y-124553240D01*
X154904982Y-124474028D01*
X154858581Y-124362006D01*
X154818200Y-124158996D01*
X154818200Y-123952004D01*
X154858581Y-123748994D01*
X154937793Y-123557761D01*
X154937793Y-123557760D01*
X155052791Y-123385654D01*
X155199154Y-123239291D01*
X155371260Y-123124293D01*
X155450472Y-123091482D01*
X155562494Y-123045081D01*
X155765504Y-123004700D01*
X155972496Y-123004700D01*
X156175506Y-123045081D01*
X156175506Y-123045081D01*
G37*
G36*
X167175506Y-123045081D02*
G01*
X167287528Y-123091482D01*
X167366740Y-123124293D01*
X167538846Y-123239291D01*
X167685209Y-123385654D01*
X167800207Y-123557760D01*
X167800207Y-123557761D01*
X167879419Y-123748994D01*
X167919800Y-123952004D01*
X167919800Y-124158996D01*
X167879419Y-124362006D01*
X167833018Y-124474028D01*
X167800207Y-124553240D01*
X167685209Y-124725346D01*
X167538846Y-124871709D01*
X167366740Y-124986707D01*
X167287528Y-125019518D01*
X167175506Y-125065919D01*
X166972496Y-125106300D01*
X166765504Y-125106300D01*
X166562494Y-125065919D01*
X166450472Y-125019518D01*
X166371260Y-124986707D01*
X166199154Y-124871709D01*
X166052791Y-124725346D01*
X165937793Y-124553240D01*
X165904982Y-124474028D01*
X165858581Y-124362006D01*
X165818200Y-124158996D01*
X165818200Y-123952004D01*
X165858581Y-123748994D01*
X165937793Y-123557761D01*
X165937793Y-123557760D01*
X166052791Y-123385654D01*
X166199154Y-123239291D01*
X166371260Y-123124293D01*
X166450472Y-123091482D01*
X166562494Y-123045081D01*
X166765504Y-123004700D01*
X166972496Y-123004700D01*
X167175506Y-123045081D01*
X167175506Y-123045081D01*
G37*
G36*
X147675506Y-123045081D02*
G01*
X147787528Y-123091482D01*
X147866740Y-123124293D01*
X148038846Y-123239291D01*
X148185209Y-123385654D01*
X148300207Y-123557760D01*
X148300207Y-123557761D01*
X148379419Y-123748994D01*
X148419800Y-123952004D01*
X148419800Y-124158996D01*
X148379419Y-124362006D01*
X148333018Y-124474028D01*
X148300207Y-124553240D01*
X148185209Y-124725346D01*
X148038846Y-124871709D01*
X147866740Y-124986707D01*
X147787528Y-125019518D01*
X147675506Y-125065919D01*
X147472496Y-125106300D01*
X147265504Y-125106300D01*
X147062494Y-125065919D01*
X146950472Y-125019518D01*
X146871260Y-124986707D01*
X146699154Y-124871709D01*
X146552791Y-124725346D01*
X146437793Y-124553240D01*
X146404982Y-124474028D01*
X146358581Y-124362006D01*
X146318200Y-124158996D01*
X146318200Y-123952004D01*
X146358581Y-123748994D01*
X146437793Y-123557761D01*
X146437793Y-123557760D01*
X146552791Y-123385654D01*
X146699154Y-123239291D01*
X146871260Y-123124293D01*
X146950472Y-123091482D01*
X147062494Y-123045081D01*
X147265504Y-123004700D01*
X147472496Y-123004700D01*
X147675506Y-123045081D01*
X147675506Y-123045081D01*
G37*
G36*
X147675506Y-120545081D02*
G01*
X147787528Y-120591482D01*
X147866740Y-120624293D01*
X148038846Y-120739291D01*
X148185209Y-120885654D01*
X148300207Y-121057760D01*
X148300207Y-121057761D01*
X148379419Y-121248994D01*
X148419800Y-121452004D01*
X148419800Y-121658996D01*
X148379419Y-121862006D01*
X148333018Y-121974028D01*
X148300207Y-122053240D01*
X148185209Y-122225346D01*
X148038846Y-122371709D01*
X147866740Y-122486707D01*
X147787528Y-122519518D01*
X147675506Y-122565919D01*
X147472496Y-122606300D01*
X147265504Y-122606300D01*
X147062494Y-122565919D01*
X146950472Y-122519518D01*
X146871260Y-122486707D01*
X146699154Y-122371709D01*
X146552791Y-122225346D01*
X146437793Y-122053240D01*
X146404982Y-121974028D01*
X146358581Y-121862006D01*
X146318200Y-121658996D01*
X146318200Y-121452004D01*
X146358581Y-121248994D01*
X146437793Y-121057761D01*
X146437793Y-121057760D01*
X146552791Y-120885654D01*
X146699154Y-120739291D01*
X146871260Y-120624293D01*
X146950472Y-120591482D01*
X147062494Y-120545081D01*
X147265504Y-120504700D01*
X147472496Y-120504700D01*
X147675506Y-120545081D01*
X147675506Y-120545081D01*
G37*
G36*
X167175506Y-120545081D02*
G01*
X167287528Y-120591482D01*
X167366740Y-120624293D01*
X167538846Y-120739291D01*
X167685209Y-120885654D01*
X167800207Y-121057760D01*
X167800207Y-121057761D01*
X167879419Y-121248994D01*
X167919800Y-121452004D01*
X167919800Y-121658996D01*
X167879419Y-121862006D01*
X167833018Y-121974028D01*
X167800207Y-122053240D01*
X167685209Y-122225346D01*
X167538846Y-122371709D01*
X167366740Y-122486707D01*
X167287528Y-122519518D01*
X167175506Y-122565919D01*
X166972496Y-122606300D01*
X166765504Y-122606300D01*
X166562494Y-122565919D01*
X166450472Y-122519518D01*
X166371260Y-122486707D01*
X166199154Y-122371709D01*
X166052791Y-122225346D01*
X165937793Y-122053240D01*
X165904982Y-121974028D01*
X165858581Y-121862006D01*
X165818200Y-121658996D01*
X165818200Y-121452004D01*
X165858581Y-121248994D01*
X165937793Y-121057761D01*
X165937793Y-121057760D01*
X166052791Y-120885654D01*
X166199154Y-120739291D01*
X166371260Y-120624293D01*
X166450472Y-120591482D01*
X166562494Y-120545081D01*
X166765504Y-120504700D01*
X166972496Y-120504700D01*
X167175506Y-120545081D01*
X167175506Y-120545081D01*
G37*
G36*
X150675506Y-120545081D02*
G01*
X150787528Y-120591482D01*
X150866740Y-120624293D01*
X151038846Y-120739291D01*
X151185209Y-120885654D01*
X151300207Y-121057760D01*
X151300207Y-121057761D01*
X151379419Y-121248994D01*
X151419800Y-121452004D01*
X151419800Y-121658996D01*
X151379419Y-121862006D01*
X151333018Y-121974028D01*
X151300207Y-122053240D01*
X151185209Y-122225346D01*
X151038846Y-122371709D01*
X150866740Y-122486707D01*
X150787528Y-122519518D01*
X150675506Y-122565919D01*
X150472496Y-122606300D01*
X150265504Y-122606300D01*
X150062494Y-122565919D01*
X149950472Y-122519518D01*
X149871260Y-122486707D01*
X149699154Y-122371709D01*
X149552791Y-122225346D01*
X149437793Y-122053240D01*
X149404982Y-121974028D01*
X149358581Y-121862006D01*
X149318200Y-121658996D01*
X149318200Y-121452004D01*
X149358581Y-121248994D01*
X149437793Y-121057761D01*
X149437793Y-121057760D01*
X149552791Y-120885654D01*
X149699154Y-120739291D01*
X149871260Y-120624293D01*
X149950472Y-120591482D01*
X150062494Y-120545081D01*
X150265504Y-120504700D01*
X150472496Y-120504700D01*
X150675506Y-120545081D01*
X150675506Y-120545081D01*
G37*
G36*
X153175506Y-120545081D02*
G01*
X153287528Y-120591482D01*
X153366740Y-120624293D01*
X153538846Y-120739291D01*
X153685209Y-120885654D01*
X153800207Y-121057760D01*
X153800207Y-121057761D01*
X153879419Y-121248994D01*
X153919800Y-121452004D01*
X153919800Y-121658996D01*
X153879419Y-121862006D01*
X153833018Y-121974028D01*
X153800207Y-122053240D01*
X153685209Y-122225346D01*
X153538846Y-122371709D01*
X153366740Y-122486707D01*
X153287528Y-122519518D01*
X153175506Y-122565919D01*
X152972496Y-122606300D01*
X152765504Y-122606300D01*
X152562494Y-122565919D01*
X152450472Y-122519518D01*
X152371260Y-122486707D01*
X152199154Y-122371709D01*
X152052791Y-122225346D01*
X151937793Y-122053240D01*
X151904982Y-121974028D01*
X151858581Y-121862006D01*
X151818200Y-121658996D01*
X151818200Y-121452004D01*
X151858581Y-121248994D01*
X151937793Y-121057761D01*
X151937793Y-121057760D01*
X152052791Y-120885654D01*
X152199154Y-120739291D01*
X152371260Y-120624293D01*
X152450472Y-120591482D01*
X152562494Y-120545081D01*
X152765504Y-120504700D01*
X152972496Y-120504700D01*
X153175506Y-120545081D01*
X153175506Y-120545081D01*
G37*
G36*
X156175506Y-120545081D02*
G01*
X156287528Y-120591482D01*
X156366740Y-120624293D01*
X156538846Y-120739291D01*
X156685209Y-120885654D01*
X156800207Y-121057760D01*
X156800207Y-121057761D01*
X156879419Y-121248994D01*
X156919800Y-121452004D01*
X156919800Y-121658996D01*
X156879419Y-121862006D01*
X156833018Y-121974028D01*
X156800207Y-122053240D01*
X156685209Y-122225346D01*
X156538846Y-122371709D01*
X156366740Y-122486707D01*
X156287528Y-122519518D01*
X156175506Y-122565919D01*
X155972496Y-122606300D01*
X155765504Y-122606300D01*
X155562494Y-122565919D01*
X155450472Y-122519518D01*
X155371260Y-122486707D01*
X155199154Y-122371709D01*
X155052791Y-122225346D01*
X154937793Y-122053240D01*
X154904982Y-121974028D01*
X154858581Y-121862006D01*
X154818200Y-121658996D01*
X154818200Y-121452004D01*
X154858581Y-121248994D01*
X154937793Y-121057761D01*
X154937793Y-121057760D01*
X155052791Y-120885654D01*
X155199154Y-120739291D01*
X155371260Y-120624293D01*
X155450472Y-120591482D01*
X155562494Y-120545081D01*
X155765504Y-120504700D01*
X155972496Y-120504700D01*
X156175506Y-120545081D01*
X156175506Y-120545081D01*
G37*
G36*
X158675506Y-120545081D02*
G01*
X158787528Y-120591482D01*
X158866740Y-120624293D01*
X159038846Y-120739291D01*
X159185209Y-120885654D01*
X159300207Y-121057760D01*
X159300207Y-121057761D01*
X159379419Y-121248994D01*
X159419800Y-121452004D01*
X159419800Y-121658996D01*
X159379419Y-121862006D01*
X159333018Y-121974028D01*
X159300207Y-122053240D01*
X159185209Y-122225346D01*
X159038846Y-122371709D01*
X158866740Y-122486707D01*
X158787528Y-122519518D01*
X158675506Y-122565919D01*
X158472496Y-122606300D01*
X158265504Y-122606300D01*
X158062494Y-122565919D01*
X157950472Y-122519518D01*
X157871260Y-122486707D01*
X157699154Y-122371709D01*
X157552791Y-122225346D01*
X157437793Y-122053240D01*
X157404982Y-121974028D01*
X157358581Y-121862006D01*
X157318200Y-121658996D01*
X157318200Y-121452004D01*
X157358581Y-121248994D01*
X157437793Y-121057761D01*
X157437793Y-121057760D01*
X157552791Y-120885654D01*
X157699154Y-120739291D01*
X157871260Y-120624293D01*
X157950472Y-120591482D01*
X158062494Y-120545081D01*
X158265504Y-120504700D01*
X158472496Y-120504700D01*
X158675506Y-120545081D01*
X158675506Y-120545081D01*
G37*
G36*
X161675506Y-120545081D02*
G01*
X161787528Y-120591482D01*
X161866740Y-120624293D01*
X162038846Y-120739291D01*
X162185209Y-120885654D01*
X162300207Y-121057760D01*
X162300207Y-121057761D01*
X162379419Y-121248994D01*
X162419800Y-121452004D01*
X162419800Y-121658996D01*
X162379419Y-121862006D01*
X162333018Y-121974028D01*
X162300207Y-122053240D01*
X162185209Y-122225346D01*
X162038846Y-122371709D01*
X161866740Y-122486707D01*
X161787528Y-122519518D01*
X161675506Y-122565919D01*
X161472496Y-122606300D01*
X161265504Y-122606300D01*
X161062494Y-122565919D01*
X160950472Y-122519518D01*
X160871260Y-122486707D01*
X160699154Y-122371709D01*
X160552791Y-122225346D01*
X160437793Y-122053240D01*
X160404982Y-121974028D01*
X160358581Y-121862006D01*
X160318200Y-121658996D01*
X160318200Y-121452004D01*
X160358581Y-121248994D01*
X160437793Y-121057761D01*
X160437793Y-121057760D01*
X160552791Y-120885654D01*
X160699154Y-120739291D01*
X160871260Y-120624293D01*
X160950472Y-120591482D01*
X161062494Y-120545081D01*
X161265504Y-120504700D01*
X161472496Y-120504700D01*
X161675506Y-120545081D01*
X161675506Y-120545081D01*
G37*
G36*
X164175506Y-120545081D02*
G01*
X164287528Y-120591482D01*
X164366740Y-120624293D01*
X164538846Y-120739291D01*
X164685209Y-120885654D01*
X164800207Y-121057760D01*
X164800207Y-121057761D01*
X164879419Y-121248994D01*
X164919800Y-121452004D01*
X164919800Y-121658996D01*
X164879419Y-121862006D01*
X164833018Y-121974028D01*
X164800207Y-122053240D01*
X164685209Y-122225346D01*
X164538846Y-122371709D01*
X164366740Y-122486707D01*
X164287528Y-122519518D01*
X164175506Y-122565919D01*
X163972496Y-122606300D01*
X163765504Y-122606300D01*
X163562494Y-122565919D01*
X163450472Y-122519518D01*
X163371260Y-122486707D01*
X163199154Y-122371709D01*
X163052791Y-122225346D01*
X162937793Y-122053240D01*
X162904982Y-121974028D01*
X162858581Y-121862006D01*
X162818200Y-121658996D01*
X162818200Y-121452004D01*
X162858581Y-121248994D01*
X162937793Y-121057761D01*
X162937793Y-121057760D01*
X163052791Y-120885654D01*
X163199154Y-120739291D01*
X163371260Y-120624293D01*
X163450472Y-120591482D01*
X163562494Y-120545081D01*
X163765504Y-120504700D01*
X163972496Y-120504700D01*
X164175506Y-120545081D01*
X164175506Y-120545081D01*
G37*
G36*
X117997900Y-114765846D02*
G01*
X118210521Y-114808139D01*
X118510947Y-114932580D01*
X118781324Y-115113240D01*
X119011260Y-115343176D01*
X119191920Y-115613553D01*
X119316361Y-115913979D01*
X119379800Y-116232910D01*
X119379800Y-116558090D01*
X119316361Y-116877021D01*
X119191920Y-117177447D01*
X119011260Y-117447824D01*
X118781324Y-117677760D01*
X118510947Y-117858420D01*
X118210521Y-117982861D01*
X117997900Y-118025154D01*
X117891591Y-118046300D01*
X117566409Y-118046300D01*
X117460100Y-118025154D01*
X117247479Y-117982861D01*
X116947053Y-117858420D01*
X116676676Y-117677760D01*
X116446740Y-117447824D01*
X116266080Y-117177447D01*
X116141639Y-116877021D01*
X116078200Y-116558090D01*
X116078200Y-116232910D01*
X116141639Y-115913979D01*
X116266080Y-115613553D01*
X116446740Y-115343176D01*
X116676676Y-115113240D01*
X116947053Y-114932580D01*
X117247479Y-114808139D01*
X117460100Y-114765846D01*
X117566409Y-114744700D01*
X117891591Y-114744700D01*
X117997900Y-114765846D01*
X117997900Y-114765846D01*
G37*
G36*
X173877900Y-114765846D02*
G01*
X174090521Y-114808139D01*
X174390947Y-114932580D01*
X174661324Y-115113240D01*
X174891260Y-115343176D01*
X175071920Y-115613553D01*
X175196361Y-115913979D01*
X175259800Y-116232910D01*
X175259800Y-116558090D01*
X175196361Y-116877021D01*
X175071920Y-117177447D01*
X174891260Y-117447824D01*
X174661324Y-117677760D01*
X174390947Y-117858420D01*
X174090521Y-117982861D01*
X173877900Y-118025154D01*
X173771591Y-118046300D01*
X173446409Y-118046300D01*
X173340100Y-118025154D01*
X173127479Y-117982861D01*
X172827053Y-117858420D01*
X172556676Y-117677760D01*
X172326740Y-117447824D01*
X172146080Y-117177447D01*
X172021639Y-116877021D01*
X171958200Y-116558090D01*
X171958200Y-116232910D01*
X172021639Y-115913979D01*
X172146080Y-115613553D01*
X172326740Y-115343176D01*
X172556676Y-115113240D01*
X172827053Y-114932580D01*
X173127479Y-114808139D01*
X173340100Y-114765846D01*
X173446409Y-114744700D01*
X173771591Y-114744700D01*
X173877900Y-114765846D01*
X173877900Y-114765846D01*
G37*
G36*
X130796468Y-115365783D02*
G01*
X130830433Y-115376086D01*
X130861734Y-115392817D01*
X130889168Y-115415332D01*
X130911683Y-115442766D01*
X130928414Y-115474067D01*
X130938717Y-115508032D01*
X130942800Y-115549490D01*
X130942800Y-116225510D01*
X130938717Y-116266968D01*
X130928414Y-116300933D01*
X130911683Y-116332234D01*
X130889168Y-116359668D01*
X130861734Y-116382183D01*
X130830433Y-116398914D01*
X130796468Y-116409217D01*
X130755010Y-116413300D01*
X130153990Y-116413300D01*
X130112532Y-116409217D01*
X130078567Y-116398914D01*
X130047266Y-116382183D01*
X130019832Y-116359668D01*
X129997317Y-116332234D01*
X129980586Y-116300933D01*
X129970283Y-116266968D01*
X129966200Y-116225510D01*
X129966200Y-115549490D01*
X129970283Y-115508032D01*
X129980586Y-115474067D01*
X129997317Y-115442766D01*
X130019832Y-115415332D01*
X130047266Y-115392817D01*
X130078567Y-115376086D01*
X130112532Y-115365783D01*
X130153990Y-115361700D01*
X130755010Y-115361700D01*
X130796468Y-115365783D01*
X130796468Y-115365783D01*
G37*
G36*
X129221468Y-115365783D02*
G01*
X129255433Y-115376086D01*
X129286734Y-115392817D01*
X129314168Y-115415332D01*
X129336683Y-115442766D01*
X129353414Y-115474067D01*
X129363717Y-115508032D01*
X129367800Y-115549490D01*
X129367800Y-116225510D01*
X129363717Y-116266968D01*
X129353414Y-116300933D01*
X129336683Y-116332234D01*
X129314168Y-116359668D01*
X129286734Y-116382183D01*
X129255433Y-116398914D01*
X129221468Y-116409217D01*
X129180010Y-116413300D01*
X128578990Y-116413300D01*
X128537532Y-116409217D01*
X128503567Y-116398914D01*
X128472266Y-116382183D01*
X128444832Y-116359668D01*
X128422317Y-116332234D01*
X128405586Y-116300933D01*
X128395283Y-116266968D01*
X128391200Y-116225510D01*
X128391200Y-115549490D01*
X128395283Y-115508032D01*
X128405586Y-115474067D01*
X128422317Y-115442766D01*
X128444832Y-115415332D01*
X128472266Y-115392817D01*
X128503567Y-115376086D01*
X128537532Y-115365783D01*
X128578990Y-115361700D01*
X129180010Y-115361700D01*
X129221468Y-115365783D01*
X129221468Y-115365783D01*
G37*
G36*
X139711968Y-115365783D02*
G01*
X139745933Y-115376086D01*
X139777234Y-115392817D01*
X139804668Y-115415332D01*
X139827183Y-115442766D01*
X139843914Y-115474067D01*
X139854217Y-115508032D01*
X139858300Y-115549490D01*
X139858300Y-116225510D01*
X139854217Y-116266968D01*
X139843914Y-116300933D01*
X139827183Y-116332234D01*
X139804668Y-116359668D01*
X139777234Y-116382183D01*
X139745933Y-116398914D01*
X139711968Y-116409217D01*
X139670510Y-116413300D01*
X139069490Y-116413300D01*
X139028032Y-116409217D01*
X138994067Y-116398914D01*
X138962766Y-116382183D01*
X138935332Y-116359668D01*
X138912817Y-116332234D01*
X138896086Y-116300933D01*
X138885783Y-116266968D01*
X138881700Y-116225510D01*
X138881700Y-115549490D01*
X138885783Y-115508032D01*
X138896086Y-115474067D01*
X138912817Y-115442766D01*
X138935332Y-115415332D01*
X138962766Y-115392817D01*
X138994067Y-115376086D01*
X139028032Y-115365783D01*
X139069490Y-115361700D01*
X139670510Y-115361700D01*
X139711968Y-115365783D01*
X139711968Y-115365783D01*
G37*
G36*
X138136968Y-115365783D02*
G01*
X138170933Y-115376086D01*
X138202234Y-115392817D01*
X138229668Y-115415332D01*
X138252183Y-115442766D01*
X138268914Y-115474067D01*
X138279217Y-115508032D01*
X138283300Y-115549490D01*
X138283300Y-116225510D01*
X138279217Y-116266968D01*
X138268914Y-116300933D01*
X138252183Y-116332234D01*
X138229668Y-116359668D01*
X138202234Y-116382183D01*
X138170933Y-116398914D01*
X138136968Y-116409217D01*
X138095510Y-116413300D01*
X137494490Y-116413300D01*
X137453032Y-116409217D01*
X137419067Y-116398914D01*
X137387766Y-116382183D01*
X137360332Y-116359668D01*
X137337817Y-116332234D01*
X137321086Y-116300933D01*
X137310783Y-116266968D01*
X137306700Y-116225510D01*
X137306700Y-115549490D01*
X137310783Y-115508032D01*
X137321086Y-115474067D01*
X137337817Y-115442766D01*
X137360332Y-115415332D01*
X137387766Y-115392817D01*
X137419067Y-115376086D01*
X137453032Y-115365783D01*
X137494490Y-115361700D01*
X138095510Y-115361700D01*
X138136968Y-115365783D01*
X138136968Y-115365783D01*
G37*
G36*
X158735800Y-115689300D02*
G01*
X157414200Y-115689300D01*
X157414200Y-113037700D01*
X158735800Y-113037700D01*
X158735800Y-115689300D01*
X158735800Y-115689300D01*
G37*
G36*
X161355800Y-115689300D02*
G01*
X160034200Y-115689300D01*
X160034200Y-114937700D01*
X161355800Y-114937700D01*
X161355800Y-115689300D01*
X161355800Y-115689300D01*
G37*
G36*
X163066468Y-114666783D02*
G01*
X163100433Y-114677086D01*
X163131734Y-114693817D01*
X163159168Y-114716332D01*
X163181683Y-114743766D01*
X163198414Y-114775067D01*
X163208717Y-114809032D01*
X163212800Y-114850490D01*
X163212800Y-115451510D01*
X163208717Y-115492968D01*
X163198414Y-115526933D01*
X163181683Y-115558234D01*
X163159168Y-115585668D01*
X163131734Y-115608183D01*
X163100433Y-115624914D01*
X163066468Y-115635217D01*
X163025010Y-115639300D01*
X162348990Y-115639300D01*
X162307532Y-115635217D01*
X162273567Y-115624914D01*
X162242266Y-115608183D01*
X162214832Y-115585668D01*
X162192317Y-115558234D01*
X162175586Y-115526933D01*
X162165283Y-115492968D01*
X162161200Y-115451510D01*
X162161200Y-114850490D01*
X162165283Y-114809032D01*
X162175586Y-114775067D01*
X162192317Y-114743766D01*
X162214832Y-114716332D01*
X162242266Y-114693817D01*
X162273567Y-114677086D01*
X162307532Y-114666783D01*
X162348990Y-114662700D01*
X163025010Y-114662700D01*
X163066468Y-114666783D01*
X163066468Y-114666783D01*
G37*
G36*
X164844468Y-114666783D02*
G01*
X164878433Y-114677086D01*
X164909734Y-114693817D01*
X164937168Y-114716332D01*
X164959683Y-114743766D01*
X164976414Y-114775067D01*
X164986717Y-114809032D01*
X164990800Y-114850490D01*
X164990800Y-115451510D01*
X164986717Y-115492968D01*
X164976414Y-115526933D01*
X164959683Y-115558234D01*
X164937168Y-115585668D01*
X164909734Y-115608183D01*
X164878433Y-115624914D01*
X164844468Y-115635217D01*
X164803010Y-115639300D01*
X164126990Y-115639300D01*
X164085532Y-115635217D01*
X164051567Y-115624914D01*
X164020266Y-115608183D01*
X163992832Y-115585668D01*
X163970317Y-115558234D01*
X163953586Y-115526933D01*
X163943283Y-115492968D01*
X163939200Y-115451510D01*
X163939200Y-114850490D01*
X163943283Y-114809032D01*
X163953586Y-114775067D01*
X163970317Y-114743766D01*
X163992832Y-114716332D01*
X164020266Y-114693817D01*
X164051567Y-114677086D01*
X164085532Y-114666783D01*
X164126990Y-114662700D01*
X164803010Y-114662700D01*
X164844468Y-114666783D01*
X164844468Y-114666783D01*
G37*
G36*
X156462468Y-114641283D02*
G01*
X156496433Y-114651586D01*
X156527734Y-114668317D01*
X156555168Y-114690832D01*
X156577683Y-114718266D01*
X156594414Y-114749567D01*
X156604717Y-114783532D01*
X156608800Y-114824990D01*
X156608800Y-115426010D01*
X156604717Y-115467468D01*
X156594414Y-115501433D01*
X156577683Y-115532734D01*
X156555168Y-115560168D01*
X156527734Y-115582683D01*
X156496433Y-115599414D01*
X156462468Y-115609717D01*
X156421010Y-115613800D01*
X155744990Y-115613800D01*
X155703532Y-115609717D01*
X155669567Y-115599414D01*
X155638266Y-115582683D01*
X155610832Y-115560168D01*
X155588317Y-115532734D01*
X155571586Y-115501433D01*
X155561283Y-115467468D01*
X155557200Y-115426010D01*
X155557200Y-114824990D01*
X155561283Y-114783532D01*
X155571586Y-114749567D01*
X155588317Y-114718266D01*
X155610832Y-114690832D01*
X155638266Y-114668317D01*
X155669567Y-114651586D01*
X155703532Y-114641283D01*
X155744990Y-114637200D01*
X156421010Y-114637200D01*
X156462468Y-114641283D01*
X156462468Y-114641283D01*
G37*
G36*
X164844468Y-113091783D02*
G01*
X164878433Y-113102086D01*
X164909734Y-113118817D01*
X164937168Y-113141332D01*
X164959683Y-113168766D01*
X164976414Y-113200067D01*
X164986717Y-113234032D01*
X164990800Y-113275490D01*
X164990800Y-113876510D01*
X164986717Y-113917968D01*
X164976414Y-113951933D01*
X164959683Y-113983234D01*
X164937168Y-114010668D01*
X164909734Y-114033183D01*
X164878433Y-114049914D01*
X164844468Y-114060217D01*
X164803010Y-114064300D01*
X164126990Y-114064300D01*
X164085532Y-114060217D01*
X164051567Y-114049914D01*
X164020266Y-114033183D01*
X163992832Y-114010668D01*
X163970317Y-113983234D01*
X163953586Y-113951933D01*
X163943283Y-113917968D01*
X163939200Y-113876510D01*
X163939200Y-113275490D01*
X163943283Y-113234032D01*
X163953586Y-113200067D01*
X163970317Y-113168766D01*
X163992832Y-113141332D01*
X164020266Y-113118817D01*
X164051567Y-113102086D01*
X164085532Y-113091783D01*
X164126990Y-113087700D01*
X164803010Y-113087700D01*
X164844468Y-113091783D01*
X164844468Y-113091783D01*
G37*
G36*
X163066468Y-113091783D02*
G01*
X163100433Y-113102086D01*
X163131734Y-113118817D01*
X163159168Y-113141332D01*
X163181683Y-113168766D01*
X163198414Y-113200067D01*
X163208717Y-113234032D01*
X163212800Y-113275490D01*
X163212800Y-113876510D01*
X163208717Y-113917968D01*
X163198414Y-113951933D01*
X163181683Y-113983234D01*
X163159168Y-114010668D01*
X163131734Y-114033183D01*
X163100433Y-114049914D01*
X163066468Y-114060217D01*
X163025010Y-114064300D01*
X162348990Y-114064300D01*
X162307532Y-114060217D01*
X162273567Y-114049914D01*
X162242266Y-114033183D01*
X162214832Y-114010668D01*
X162192317Y-113983234D01*
X162175586Y-113951933D01*
X162165283Y-113917968D01*
X162161200Y-113876510D01*
X162161200Y-113275490D01*
X162165283Y-113234032D01*
X162175586Y-113200067D01*
X162192317Y-113168766D01*
X162214832Y-113141332D01*
X162242266Y-113118817D01*
X162273567Y-113102086D01*
X162307532Y-113091783D01*
X162348990Y-113087700D01*
X163025010Y-113087700D01*
X163066468Y-113091783D01*
X163066468Y-113091783D01*
G37*
G36*
X156462468Y-113066283D02*
G01*
X156496433Y-113076586D01*
X156527734Y-113093317D01*
X156555168Y-113115832D01*
X156577683Y-113143266D01*
X156594414Y-113174567D01*
X156604717Y-113208532D01*
X156608800Y-113249990D01*
X156608800Y-113851010D01*
X156604717Y-113892468D01*
X156594414Y-113926433D01*
X156577683Y-113957734D01*
X156555168Y-113985168D01*
X156527734Y-114007683D01*
X156496433Y-114024414D01*
X156462468Y-114034717D01*
X156421010Y-114038800D01*
X155744990Y-114038800D01*
X155703532Y-114034717D01*
X155669567Y-114024414D01*
X155638266Y-114007683D01*
X155610832Y-113985168D01*
X155588317Y-113957734D01*
X155571586Y-113926433D01*
X155561283Y-113892468D01*
X155557200Y-113851010D01*
X155557200Y-113249990D01*
X155561283Y-113208532D01*
X155571586Y-113174567D01*
X155588317Y-113143266D01*
X155610832Y-113115832D01*
X155638266Y-113093317D01*
X155669567Y-113076586D01*
X155703532Y-113066283D01*
X155744990Y-113062200D01*
X156421010Y-113062200D01*
X156462468Y-113066283D01*
X156462468Y-113066283D01*
G37*
G36*
X161355800Y-113789300D02*
G01*
X160034200Y-113789300D01*
X160034200Y-113037700D01*
X161355800Y-113037700D01*
X161355800Y-113789300D01*
X161355800Y-113789300D01*
G37*
G36*
X164844468Y-111364783D02*
G01*
X164878433Y-111375086D01*
X164909734Y-111391817D01*
X164937168Y-111414332D01*
X164959683Y-111441766D01*
X164976414Y-111473067D01*
X164986717Y-111507032D01*
X164990800Y-111548490D01*
X164990800Y-112149510D01*
X164986717Y-112190968D01*
X164976414Y-112224933D01*
X164959683Y-112256234D01*
X164937168Y-112283668D01*
X164909734Y-112306183D01*
X164878433Y-112322914D01*
X164844468Y-112333217D01*
X164803010Y-112337300D01*
X164126990Y-112337300D01*
X164085532Y-112333217D01*
X164051567Y-112322914D01*
X164020266Y-112306183D01*
X163992832Y-112283668D01*
X163970317Y-112256234D01*
X163953586Y-112224933D01*
X163943283Y-112190968D01*
X163939200Y-112149510D01*
X163939200Y-111548490D01*
X163943283Y-111507032D01*
X163953586Y-111473067D01*
X163970317Y-111441766D01*
X163992832Y-111414332D01*
X164020266Y-111391817D01*
X164051567Y-111375086D01*
X164085532Y-111364783D01*
X164126990Y-111360700D01*
X164803010Y-111360700D01*
X164844468Y-111364783D01*
X164844468Y-111364783D01*
G37*
G36*
X163066468Y-111364783D02*
G01*
X163100433Y-111375086D01*
X163131734Y-111391817D01*
X163159168Y-111414332D01*
X163181683Y-111441766D01*
X163198414Y-111473067D01*
X163208717Y-111507032D01*
X163212800Y-111548490D01*
X163212800Y-112149510D01*
X163208717Y-112190968D01*
X163198414Y-112224933D01*
X163181683Y-112256234D01*
X163159168Y-112283668D01*
X163131734Y-112306183D01*
X163100433Y-112322914D01*
X163066468Y-112333217D01*
X163025010Y-112337300D01*
X162348990Y-112337300D01*
X162307532Y-112333217D01*
X162273567Y-112322914D01*
X162242266Y-112306183D01*
X162214832Y-112283668D01*
X162192317Y-112256234D01*
X162175586Y-112224933D01*
X162165283Y-112190968D01*
X162161200Y-112149510D01*
X162161200Y-111548490D01*
X162165283Y-111507032D01*
X162175586Y-111473067D01*
X162192317Y-111441766D01*
X162214832Y-111414332D01*
X162242266Y-111391817D01*
X162273567Y-111375086D01*
X162307532Y-111364783D01*
X162348990Y-111360700D01*
X163025010Y-111360700D01*
X163066468Y-111364783D01*
X163066468Y-111364783D01*
G37*
G36*
X164844468Y-109789783D02*
G01*
X164878433Y-109800086D01*
X164909734Y-109816817D01*
X164937168Y-109839332D01*
X164959683Y-109866766D01*
X164976414Y-109898067D01*
X164986717Y-109932032D01*
X164990800Y-109973490D01*
X164990800Y-110574510D01*
X164986717Y-110615968D01*
X164976414Y-110649933D01*
X164959683Y-110681234D01*
X164937168Y-110708668D01*
X164909734Y-110731183D01*
X164878433Y-110747914D01*
X164844468Y-110758217D01*
X164803010Y-110762300D01*
X164126990Y-110762300D01*
X164085532Y-110758217D01*
X164051567Y-110747914D01*
X164020266Y-110731183D01*
X163992832Y-110708668D01*
X163970317Y-110681234D01*
X163953586Y-110649933D01*
X163943283Y-110615968D01*
X163939200Y-110574510D01*
X163939200Y-109973490D01*
X163943283Y-109932032D01*
X163953586Y-109898067D01*
X163970317Y-109866766D01*
X163992832Y-109839332D01*
X164020266Y-109816817D01*
X164051567Y-109800086D01*
X164085532Y-109789783D01*
X164126990Y-109785700D01*
X164803010Y-109785700D01*
X164844468Y-109789783D01*
X164844468Y-109789783D01*
G37*
G36*
X163066468Y-109789783D02*
G01*
X163100433Y-109800086D01*
X163131734Y-109816817D01*
X163159168Y-109839332D01*
X163181683Y-109866766D01*
X163198414Y-109898067D01*
X163208717Y-109932032D01*
X163212800Y-109973490D01*
X163212800Y-110574510D01*
X163208717Y-110615968D01*
X163198414Y-110649933D01*
X163181683Y-110681234D01*
X163159168Y-110708668D01*
X163131734Y-110731183D01*
X163100433Y-110747914D01*
X163066468Y-110758217D01*
X163025010Y-110762300D01*
X162348990Y-110762300D01*
X162307532Y-110758217D01*
X162273567Y-110747914D01*
X162242266Y-110731183D01*
X162214832Y-110708668D01*
X162192317Y-110681234D01*
X162175586Y-110649933D01*
X162165283Y-110615968D01*
X162161200Y-110574510D01*
X162161200Y-109973490D01*
X162165283Y-109932032D01*
X162175586Y-109898067D01*
X162192317Y-109866766D01*
X162214832Y-109839332D01*
X162242266Y-109816817D01*
X162273567Y-109800086D01*
X162307532Y-109789783D01*
X162348990Y-109785700D01*
X163025010Y-109785700D01*
X163066468Y-109789783D01*
X163066468Y-109789783D01*
G37*
G36*
X152081468Y-106729783D02*
G01*
X152115433Y-106740086D01*
X152146734Y-106756817D01*
X152174168Y-106779332D01*
X152196683Y-106806766D01*
X152213414Y-106838067D01*
X152223717Y-106872032D01*
X152227800Y-106913490D01*
X152227800Y-107589510D01*
X152223717Y-107630968D01*
X152213414Y-107664933D01*
X152196683Y-107696234D01*
X152174168Y-107723668D01*
X152146734Y-107746183D01*
X152115433Y-107762914D01*
X152081468Y-107773217D01*
X152040010Y-107777300D01*
X151438990Y-107777300D01*
X151397532Y-107773217D01*
X151363567Y-107762914D01*
X151332266Y-107746183D01*
X151304832Y-107723668D01*
X151282317Y-107696234D01*
X151265586Y-107664933D01*
X151255283Y-107630968D01*
X151251200Y-107589510D01*
X151251200Y-106913490D01*
X151255283Y-106872032D01*
X151265586Y-106838067D01*
X151282317Y-106806766D01*
X151304832Y-106779332D01*
X151332266Y-106756817D01*
X151363567Y-106740086D01*
X151397532Y-106729783D01*
X151438990Y-106725700D01*
X152040010Y-106725700D01*
X152081468Y-106729783D01*
X152081468Y-106729783D01*
G37*
G36*
X153656468Y-106729783D02*
G01*
X153690433Y-106740086D01*
X153721734Y-106756817D01*
X153749168Y-106779332D01*
X153771683Y-106806766D01*
X153788414Y-106838067D01*
X153798717Y-106872032D01*
X153802800Y-106913490D01*
X153802800Y-107589510D01*
X153798717Y-107630968D01*
X153788414Y-107664933D01*
X153771683Y-107696234D01*
X153749168Y-107723668D01*
X153721734Y-107746183D01*
X153690433Y-107762914D01*
X153656468Y-107773217D01*
X153615010Y-107777300D01*
X153013990Y-107777300D01*
X152972532Y-107773217D01*
X152938567Y-107762914D01*
X152907266Y-107746183D01*
X152879832Y-107723668D01*
X152857317Y-107696234D01*
X152840586Y-107664933D01*
X152830283Y-107630968D01*
X152826200Y-107589510D01*
X152826200Y-106913490D01*
X152830283Y-106872032D01*
X152840586Y-106838067D01*
X152857317Y-106806766D01*
X152879832Y-106779332D01*
X152907266Y-106756817D01*
X152938567Y-106740086D01*
X152972532Y-106729783D01*
X153013990Y-106725700D01*
X153615010Y-106725700D01*
X153656468Y-106729783D01*
X153656468Y-106729783D01*
G37*
G36*
X146302468Y-106157783D02*
G01*
X146336433Y-106168086D01*
X146367734Y-106184817D01*
X146395168Y-106207332D01*
X146417683Y-106234766D01*
X146434414Y-106266067D01*
X146444717Y-106300032D01*
X146448800Y-106341490D01*
X146448800Y-106942510D01*
X146444717Y-106983968D01*
X146434414Y-107017933D01*
X146417683Y-107049234D01*
X146395168Y-107076668D01*
X146367734Y-107099183D01*
X146336433Y-107115914D01*
X146302468Y-107126217D01*
X146261010Y-107130300D01*
X145584990Y-107130300D01*
X145543532Y-107126217D01*
X145509567Y-107115914D01*
X145478266Y-107099183D01*
X145450832Y-107076668D01*
X145428317Y-107049234D01*
X145411586Y-107017933D01*
X145401283Y-106983968D01*
X145397200Y-106942510D01*
X145397200Y-106341490D01*
X145401283Y-106300032D01*
X145411586Y-106266067D01*
X145428317Y-106234766D01*
X145450832Y-106207332D01*
X145478266Y-106184817D01*
X145509567Y-106168086D01*
X145543532Y-106157783D01*
X145584990Y-106153700D01*
X146261010Y-106153700D01*
X146302468Y-106157783D01*
X146302468Y-106157783D01*
G37*
G36*
X150938468Y-104951783D02*
G01*
X150972433Y-104962086D01*
X151003734Y-104978817D01*
X151031168Y-105001332D01*
X151053683Y-105028766D01*
X151070414Y-105060067D01*
X151080717Y-105094032D01*
X151084800Y-105135490D01*
X151084800Y-105811510D01*
X151080717Y-105852968D01*
X151070414Y-105886933D01*
X151053683Y-105918234D01*
X151031168Y-105945668D01*
X151003734Y-105968183D01*
X150972433Y-105984914D01*
X150938468Y-105995217D01*
X150897010Y-105999300D01*
X150295990Y-105999300D01*
X150254532Y-105995217D01*
X150220567Y-105984914D01*
X150189266Y-105968183D01*
X150161832Y-105945668D01*
X150139317Y-105918234D01*
X150122586Y-105886933D01*
X150112283Y-105852968D01*
X150108200Y-105811510D01*
X150108200Y-105135490D01*
X150112283Y-105094032D01*
X150122586Y-105060067D01*
X150139317Y-105028766D01*
X150161832Y-105001332D01*
X150189266Y-104978817D01*
X150220567Y-104962086D01*
X150254532Y-104951783D01*
X150295990Y-104947700D01*
X150897010Y-104947700D01*
X150938468Y-104951783D01*
X150938468Y-104951783D01*
G37*
G36*
X152513468Y-104951783D02*
G01*
X152547433Y-104962086D01*
X152578734Y-104978817D01*
X152606168Y-105001332D01*
X152628683Y-105028766D01*
X152645414Y-105060067D01*
X152655717Y-105094032D01*
X152659800Y-105135490D01*
X152659800Y-105811510D01*
X152655717Y-105852968D01*
X152645414Y-105886933D01*
X152628683Y-105918234D01*
X152606168Y-105945668D01*
X152578734Y-105968183D01*
X152547433Y-105984914D01*
X152513468Y-105995217D01*
X152472010Y-105999300D01*
X151870990Y-105999300D01*
X151829532Y-105995217D01*
X151795567Y-105984914D01*
X151764266Y-105968183D01*
X151736832Y-105945668D01*
X151714317Y-105918234D01*
X151697586Y-105886933D01*
X151687283Y-105852968D01*
X151683200Y-105811510D01*
X151683200Y-105135490D01*
X151687283Y-105094032D01*
X151697586Y-105060067D01*
X151714317Y-105028766D01*
X151736832Y-105001332D01*
X151764266Y-104978817D01*
X151795567Y-104962086D01*
X151829532Y-104951783D01*
X151870990Y-104947700D01*
X152472010Y-104947700D01*
X152513468Y-104951783D01*
X152513468Y-104951783D01*
G37*
G36*
X148588468Y-105014783D02*
G01*
X148622433Y-105025086D01*
X148653734Y-105041817D01*
X148681168Y-105064332D01*
X148703683Y-105091766D01*
X148720414Y-105123067D01*
X148730717Y-105157032D01*
X148734800Y-105198490D01*
X148734800Y-105799510D01*
X148730717Y-105840968D01*
X148720414Y-105874933D01*
X148703683Y-105906234D01*
X148681168Y-105933668D01*
X148653734Y-105956183D01*
X148622433Y-105972914D01*
X148588468Y-105983217D01*
X148547010Y-105987300D01*
X147870990Y-105987300D01*
X147829532Y-105983217D01*
X147795567Y-105972914D01*
X147764266Y-105956183D01*
X147736832Y-105933668D01*
X147714317Y-105906234D01*
X147697586Y-105874933D01*
X147687283Y-105840968D01*
X147683200Y-105799510D01*
X147683200Y-105198490D01*
X147687283Y-105157032D01*
X147697586Y-105123067D01*
X147714317Y-105091766D01*
X147736832Y-105064332D01*
X147764266Y-105041817D01*
X147795567Y-105025086D01*
X147829532Y-105014783D01*
X147870990Y-105010700D01*
X148547010Y-105010700D01*
X148588468Y-105014783D01*
X148588468Y-105014783D01*
G37*
G36*
X146302468Y-104582783D02*
G01*
X146336433Y-104593086D01*
X146367734Y-104609817D01*
X146395168Y-104632332D01*
X146417683Y-104659766D01*
X146434414Y-104691067D01*
X146444717Y-104725032D01*
X146448800Y-104766490D01*
X146448800Y-105367510D01*
X146444717Y-105408968D01*
X146434414Y-105442933D01*
X146417683Y-105474234D01*
X146395168Y-105501668D01*
X146367734Y-105524183D01*
X146336433Y-105540914D01*
X146302468Y-105551217D01*
X146261010Y-105555300D01*
X145584990Y-105555300D01*
X145543532Y-105551217D01*
X145509567Y-105540914D01*
X145478266Y-105524183D01*
X145450832Y-105501668D01*
X145428317Y-105474234D01*
X145411586Y-105442933D01*
X145401283Y-105408968D01*
X145397200Y-105367510D01*
X145397200Y-104766490D01*
X145401283Y-104725032D01*
X145411586Y-104691067D01*
X145428317Y-104659766D01*
X145450832Y-104632332D01*
X145478266Y-104609817D01*
X145509567Y-104593086D01*
X145543532Y-104582783D01*
X145584990Y-104578700D01*
X146261010Y-104578700D01*
X146302468Y-104582783D01*
X146302468Y-104582783D01*
G37*
G36*
X148588468Y-103439783D02*
G01*
X148622433Y-103450086D01*
X148653734Y-103466817D01*
X148681168Y-103489332D01*
X148703683Y-103516766D01*
X148720414Y-103548067D01*
X148730717Y-103582032D01*
X148734800Y-103623490D01*
X148734800Y-104224510D01*
X148730717Y-104265968D01*
X148720414Y-104299933D01*
X148703683Y-104331234D01*
X148681168Y-104358668D01*
X148653734Y-104381183D01*
X148622433Y-104397914D01*
X148588468Y-104408217D01*
X148547010Y-104412300D01*
X147870990Y-104412300D01*
X147829532Y-104408217D01*
X147795567Y-104397914D01*
X147764266Y-104381183D01*
X147736832Y-104358668D01*
X147714317Y-104331234D01*
X147697586Y-104299933D01*
X147687283Y-104265968D01*
X147683200Y-104224510D01*
X147683200Y-103623490D01*
X147687283Y-103582032D01*
X147697586Y-103548067D01*
X147714317Y-103516766D01*
X147736832Y-103489332D01*
X147764266Y-103466817D01*
X147795567Y-103450086D01*
X147829532Y-103439783D01*
X147870990Y-103435700D01*
X148547010Y-103435700D01*
X148588468Y-103439783D01*
X148588468Y-103439783D01*
G37*
G36*
X158240468Y-102220783D02*
G01*
X158274433Y-102231086D01*
X158305734Y-102247817D01*
X158333168Y-102270332D01*
X158355683Y-102297766D01*
X158372414Y-102329067D01*
X158382717Y-102363032D01*
X158386800Y-102404490D01*
X158386800Y-103005510D01*
X158382717Y-103046968D01*
X158372414Y-103080933D01*
X158355683Y-103112234D01*
X158333168Y-103139668D01*
X158305734Y-103162183D01*
X158274433Y-103178914D01*
X158240468Y-103189217D01*
X158199010Y-103193300D01*
X157522990Y-103193300D01*
X157481532Y-103189217D01*
X157447567Y-103178914D01*
X157416266Y-103162183D01*
X157388832Y-103139668D01*
X157366317Y-103112234D01*
X157349586Y-103080933D01*
X157339283Y-103046968D01*
X157335200Y-103005510D01*
X157335200Y-102404490D01*
X157339283Y-102363032D01*
X157349586Y-102329067D01*
X157366317Y-102297766D01*
X157388832Y-102270332D01*
X157416266Y-102247817D01*
X157447567Y-102231086D01*
X157481532Y-102220783D01*
X157522990Y-102216700D01*
X158199010Y-102216700D01*
X158240468Y-102220783D01*
X158240468Y-102220783D01*
G37*
G36*
X161097800Y-102194300D02*
G01*
X159196200Y-102194300D01*
X159196200Y-101092700D01*
X161097800Y-101092700D01*
X161097800Y-102194300D01*
X161097800Y-102194300D01*
G37*
G36*
X158240468Y-100645783D02*
G01*
X158274433Y-100656086D01*
X158305734Y-100672817D01*
X158333168Y-100695332D01*
X158355683Y-100722766D01*
X158372414Y-100754067D01*
X158382717Y-100788032D01*
X158386800Y-100829490D01*
X158386800Y-101430510D01*
X158382717Y-101471968D01*
X158372414Y-101505933D01*
X158355683Y-101537234D01*
X158333168Y-101564668D01*
X158305734Y-101587183D01*
X158274433Y-101603914D01*
X158240468Y-101614217D01*
X158199010Y-101618300D01*
X157522990Y-101618300D01*
X157481532Y-101614217D01*
X157447567Y-101603914D01*
X157416266Y-101587183D01*
X157388832Y-101564668D01*
X157366317Y-101537234D01*
X157349586Y-101505933D01*
X157339283Y-101471968D01*
X157335200Y-101430510D01*
X157335200Y-100829490D01*
X157339283Y-100788032D01*
X157349586Y-100754067D01*
X157366317Y-100722766D01*
X157388832Y-100695332D01*
X157416266Y-100672817D01*
X157447567Y-100656086D01*
X157481532Y-100645783D01*
X157522990Y-100641700D01*
X158199010Y-100641700D01*
X158240468Y-100645783D01*
X158240468Y-100645783D01*
G37*
G36*
X154320800Y-101532300D02*
G01*
X141589200Y-101532300D01*
X141589200Y-100430700D01*
X154320800Y-100430700D01*
X154320800Y-101532300D01*
X154320800Y-101532300D01*
G37*
G36*
X158240468Y-98918783D02*
G01*
X158274433Y-98929086D01*
X158305734Y-98945817D01*
X158333168Y-98968332D01*
X158355683Y-98995766D01*
X158372414Y-99027067D01*
X158382717Y-99061032D01*
X158386800Y-99102490D01*
X158386800Y-99703510D01*
X158382717Y-99744968D01*
X158372414Y-99778933D01*
X158355683Y-99810234D01*
X158333168Y-99837668D01*
X158305734Y-99860183D01*
X158274433Y-99876914D01*
X158240468Y-99887217D01*
X158199010Y-99891300D01*
X157522990Y-99891300D01*
X157481532Y-99887217D01*
X157447567Y-99876914D01*
X157416266Y-99860183D01*
X157388832Y-99837668D01*
X157366317Y-99810234D01*
X157349586Y-99778933D01*
X157339283Y-99744968D01*
X157335200Y-99703510D01*
X157335200Y-99102490D01*
X157339283Y-99061032D01*
X157349586Y-99027067D01*
X157366317Y-98995766D01*
X157388832Y-98968332D01*
X157416266Y-98945817D01*
X157447567Y-98929086D01*
X157481532Y-98918783D01*
X157522990Y-98914700D01*
X158199010Y-98914700D01*
X158240468Y-98918783D01*
X158240468Y-98918783D01*
G37*
G36*
X161097800Y-99694300D02*
G01*
X159196200Y-99694300D01*
X159196200Y-98592700D01*
X161097800Y-98592700D01*
X161097800Y-99694300D01*
X161097800Y-99694300D01*
G37*
G36*
X156205800Y-99647300D02*
G01*
X155104200Y-99647300D01*
X155104200Y-86915700D01*
X156205800Y-86915700D01*
X156205800Y-99647300D01*
X156205800Y-99647300D01*
G37*
G36*
X140805800Y-99647300D02*
G01*
X139704200Y-99647300D01*
X139704200Y-86915700D01*
X140805800Y-86915700D01*
X140805800Y-99647300D01*
X140805800Y-99647300D01*
G37*
G36*
X158240468Y-97343783D02*
G01*
X158274433Y-97354086D01*
X158305734Y-97370817D01*
X158333168Y-97393332D01*
X158355683Y-97420766D01*
X158372414Y-97452067D01*
X158382717Y-97486032D01*
X158386800Y-97527490D01*
X158386800Y-98128510D01*
X158382717Y-98169968D01*
X158372414Y-98203933D01*
X158355683Y-98235234D01*
X158333168Y-98262668D01*
X158305734Y-98285183D01*
X158274433Y-98301914D01*
X158240468Y-98312217D01*
X158199010Y-98316300D01*
X157522990Y-98316300D01*
X157481532Y-98312217D01*
X157447567Y-98301914D01*
X157416266Y-98285183D01*
X157388832Y-98262668D01*
X157366317Y-98235234D01*
X157349586Y-98203933D01*
X157339283Y-98169968D01*
X157335200Y-98128510D01*
X157335200Y-97527490D01*
X157339283Y-97486032D01*
X157349586Y-97452067D01*
X157366317Y-97420766D01*
X157388832Y-97393332D01*
X157416266Y-97370817D01*
X157447567Y-97354086D01*
X157481532Y-97343783D01*
X157522990Y-97339700D01*
X158199010Y-97339700D01*
X158240468Y-97343783D01*
X158240468Y-97343783D01*
G37*
G36*
X158240468Y-95083283D02*
G01*
X158274433Y-95093586D01*
X158305734Y-95110317D01*
X158333168Y-95132832D01*
X158355683Y-95160266D01*
X158372414Y-95191567D01*
X158382717Y-95225532D01*
X158386800Y-95266990D01*
X158386800Y-95868010D01*
X158382717Y-95909468D01*
X158372414Y-95943433D01*
X158355683Y-95974734D01*
X158333168Y-96002168D01*
X158305734Y-96024683D01*
X158274433Y-96041414D01*
X158240468Y-96051717D01*
X158199010Y-96055800D01*
X157522990Y-96055800D01*
X157481532Y-96051717D01*
X157447567Y-96041414D01*
X157416266Y-96024683D01*
X157388832Y-96002168D01*
X157366317Y-95974734D01*
X157349586Y-95943433D01*
X157339283Y-95909468D01*
X157335200Y-95868010D01*
X157335200Y-95266990D01*
X157339283Y-95225532D01*
X157349586Y-95191567D01*
X157366317Y-95160266D01*
X157388832Y-95132832D01*
X157416266Y-95110317D01*
X157447567Y-95093586D01*
X157481532Y-95083283D01*
X157522990Y-95079200D01*
X158199010Y-95079200D01*
X158240468Y-95083283D01*
X158240468Y-95083283D01*
G37*
G36*
X158240468Y-93508283D02*
G01*
X158274433Y-93518586D01*
X158305734Y-93535317D01*
X158333168Y-93557832D01*
X158355683Y-93585266D01*
X158372414Y-93616567D01*
X158382717Y-93650532D01*
X158386800Y-93691990D01*
X158386800Y-94293010D01*
X158382717Y-94334468D01*
X158372414Y-94368433D01*
X158355683Y-94399734D01*
X158333168Y-94427168D01*
X158305734Y-94449683D01*
X158274433Y-94466414D01*
X158240468Y-94476717D01*
X158199010Y-94480800D01*
X157522990Y-94480800D01*
X157481532Y-94476717D01*
X157447567Y-94466414D01*
X157416266Y-94449683D01*
X157388832Y-94427168D01*
X157366317Y-94399734D01*
X157349586Y-94368433D01*
X157339283Y-94334468D01*
X157335200Y-94293010D01*
X157335200Y-93691990D01*
X157339283Y-93650532D01*
X157349586Y-93616567D01*
X157366317Y-93585266D01*
X157388832Y-93557832D01*
X157416266Y-93535317D01*
X157447567Y-93518586D01*
X157481532Y-93508283D01*
X157522990Y-93504200D01*
X158199010Y-93504200D01*
X158240468Y-93508283D01*
X158240468Y-93508283D01*
G37*
G36*
X161796468Y-92314783D02*
G01*
X161830433Y-92325086D01*
X161861734Y-92341817D01*
X161889168Y-92364332D01*
X161911683Y-92391766D01*
X161928414Y-92423067D01*
X161938717Y-92457032D01*
X161942800Y-92498490D01*
X161942800Y-93099510D01*
X161938717Y-93140968D01*
X161928414Y-93174933D01*
X161911683Y-93206234D01*
X161889168Y-93233668D01*
X161861734Y-93256183D01*
X161830433Y-93272914D01*
X161796468Y-93283217D01*
X161755010Y-93287300D01*
X161078990Y-93287300D01*
X161037532Y-93283217D01*
X161003567Y-93272914D01*
X160972266Y-93256183D01*
X160944832Y-93233668D01*
X160922317Y-93206234D01*
X160905586Y-93174933D01*
X160895283Y-93140968D01*
X160891200Y-93099510D01*
X160891200Y-92498490D01*
X160895283Y-92457032D01*
X160905586Y-92423067D01*
X160922317Y-92391766D01*
X160944832Y-92364332D01*
X160972266Y-92341817D01*
X161003567Y-92325086D01*
X161037532Y-92314783D01*
X161078990Y-92310700D01*
X161755010Y-92310700D01*
X161796468Y-92314783D01*
X161796468Y-92314783D01*
G37*
G36*
X132066468Y-91997783D02*
G01*
X132100433Y-92008086D01*
X132131734Y-92024817D01*
X132159168Y-92047332D01*
X132181683Y-92074766D01*
X132198414Y-92106067D01*
X132208717Y-92140032D01*
X132212800Y-92181490D01*
X132212800Y-92857510D01*
X132208717Y-92898968D01*
X132198414Y-92932933D01*
X132181683Y-92964234D01*
X132159168Y-92991668D01*
X132131734Y-93014183D01*
X132100433Y-93030914D01*
X132066468Y-93041217D01*
X132025010Y-93045300D01*
X131423990Y-93045300D01*
X131382532Y-93041217D01*
X131348567Y-93030914D01*
X131317266Y-93014183D01*
X131289832Y-92991668D01*
X131267317Y-92964234D01*
X131250586Y-92932933D01*
X131240283Y-92898968D01*
X131236200Y-92857510D01*
X131236200Y-92181490D01*
X131240283Y-92140032D01*
X131250586Y-92106067D01*
X131267317Y-92074766D01*
X131289832Y-92047332D01*
X131317266Y-92024817D01*
X131348567Y-92008086D01*
X131382532Y-91997783D01*
X131423990Y-91993700D01*
X132025010Y-91993700D01*
X132066468Y-91997783D01*
X132066468Y-91997783D01*
G37*
G36*
X126224468Y-91997783D02*
G01*
X126258433Y-92008086D01*
X126289734Y-92024817D01*
X126317168Y-92047332D01*
X126339683Y-92074766D01*
X126356414Y-92106067D01*
X126366717Y-92140032D01*
X126370800Y-92181490D01*
X126370800Y-92857510D01*
X126366717Y-92898968D01*
X126356414Y-92932933D01*
X126339683Y-92964234D01*
X126317168Y-92991668D01*
X126289734Y-93014183D01*
X126258433Y-93030914D01*
X126224468Y-93041217D01*
X126183010Y-93045300D01*
X125581990Y-93045300D01*
X125540532Y-93041217D01*
X125506567Y-93030914D01*
X125475266Y-93014183D01*
X125447832Y-92991668D01*
X125425317Y-92964234D01*
X125408586Y-92932933D01*
X125398283Y-92898968D01*
X125394200Y-92857510D01*
X125394200Y-92181490D01*
X125398283Y-92140032D01*
X125408586Y-92106067D01*
X125425317Y-92074766D01*
X125447832Y-92047332D01*
X125475266Y-92024817D01*
X125506567Y-92008086D01*
X125540532Y-91997783D01*
X125581990Y-91993700D01*
X126183010Y-91993700D01*
X126224468Y-91997783D01*
X126224468Y-91997783D01*
G37*
G36*
X124649468Y-91997783D02*
G01*
X124683433Y-92008086D01*
X124714734Y-92024817D01*
X124742168Y-92047332D01*
X124764683Y-92074766D01*
X124781414Y-92106067D01*
X124791717Y-92140032D01*
X124795800Y-92181490D01*
X124795800Y-92857510D01*
X124791717Y-92898968D01*
X124781414Y-92932933D01*
X124764683Y-92964234D01*
X124742168Y-92991668D01*
X124714734Y-93014183D01*
X124683433Y-93030914D01*
X124649468Y-93041217D01*
X124608010Y-93045300D01*
X124006990Y-93045300D01*
X123965532Y-93041217D01*
X123931567Y-93030914D01*
X123900266Y-93014183D01*
X123872832Y-92991668D01*
X123850317Y-92964234D01*
X123833586Y-92932933D01*
X123823283Y-92898968D01*
X123819200Y-92857510D01*
X123819200Y-92181490D01*
X123823283Y-92140032D01*
X123833586Y-92106067D01*
X123850317Y-92074766D01*
X123872832Y-92047332D01*
X123900266Y-92024817D01*
X123931567Y-92008086D01*
X123965532Y-91997783D01*
X124006990Y-91993700D01*
X124608010Y-91993700D01*
X124649468Y-91997783D01*
X124649468Y-91997783D01*
G37*
G36*
X130491468Y-91997783D02*
G01*
X130525433Y-92008086D01*
X130556734Y-92024817D01*
X130584168Y-92047332D01*
X130606683Y-92074766D01*
X130623414Y-92106067D01*
X130633717Y-92140032D01*
X130637800Y-92181490D01*
X130637800Y-92857510D01*
X130633717Y-92898968D01*
X130623414Y-92932933D01*
X130606683Y-92964234D01*
X130584168Y-92991668D01*
X130556734Y-93014183D01*
X130525433Y-93030914D01*
X130491468Y-93041217D01*
X130450010Y-93045300D01*
X129848990Y-93045300D01*
X129807532Y-93041217D01*
X129773567Y-93030914D01*
X129742266Y-93014183D01*
X129714832Y-92991668D01*
X129692317Y-92964234D01*
X129675586Y-92932933D01*
X129665283Y-92898968D01*
X129661200Y-92857510D01*
X129661200Y-92181490D01*
X129665283Y-92140032D01*
X129675586Y-92106067D01*
X129692317Y-92074766D01*
X129714832Y-92047332D01*
X129742266Y-92024817D01*
X129773567Y-92008086D01*
X129807532Y-91997783D01*
X129848990Y-91993700D01*
X130450010Y-91993700D01*
X130491468Y-91997783D01*
X130491468Y-91997783D01*
G37*
G36*
X137158468Y-91298783D02*
G01*
X137192433Y-91309086D01*
X137223734Y-91325817D01*
X137251168Y-91348332D01*
X137273683Y-91375766D01*
X137290414Y-91407067D01*
X137300717Y-91441032D01*
X137304800Y-91482490D01*
X137304800Y-92083510D01*
X137300717Y-92124968D01*
X137290414Y-92158933D01*
X137273683Y-92190234D01*
X137251168Y-92217668D01*
X137223734Y-92240183D01*
X137192433Y-92256914D01*
X137158468Y-92267217D01*
X137117010Y-92271300D01*
X136440990Y-92271300D01*
X136399532Y-92267217D01*
X136365567Y-92256914D01*
X136334266Y-92240183D01*
X136306832Y-92217668D01*
X136284317Y-92190234D01*
X136267586Y-92158933D01*
X136257283Y-92124968D01*
X136253200Y-92083510D01*
X136253200Y-91482490D01*
X136257283Y-91441032D01*
X136267586Y-91407067D01*
X136284317Y-91375766D01*
X136306832Y-91348332D01*
X136334266Y-91325817D01*
X136365567Y-91309086D01*
X136399532Y-91298783D01*
X136440990Y-91294700D01*
X137117010Y-91294700D01*
X137158468Y-91298783D01*
X137158468Y-91298783D01*
G37*
G36*
X165457800Y-92084300D02*
G01*
X164156200Y-92084300D01*
X164156200Y-90582700D01*
X165457800Y-90582700D01*
X165457800Y-92084300D01*
X165457800Y-92084300D01*
G37*
G36*
X163757800Y-92084300D02*
G01*
X162456200Y-92084300D01*
X162456200Y-90582700D01*
X163757800Y-90582700D01*
X163757800Y-92084300D01*
X163757800Y-92084300D01*
G37*
G36*
X161796468Y-90739783D02*
G01*
X161830433Y-90750086D01*
X161861734Y-90766817D01*
X161889168Y-90789332D01*
X161911683Y-90816766D01*
X161928414Y-90848067D01*
X161938717Y-90882032D01*
X161942800Y-90923490D01*
X161942800Y-91524510D01*
X161938717Y-91565968D01*
X161928414Y-91599933D01*
X161911683Y-91631234D01*
X161889168Y-91658668D01*
X161861734Y-91681183D01*
X161830433Y-91697914D01*
X161796468Y-91708217D01*
X161755010Y-91712300D01*
X161078990Y-91712300D01*
X161037532Y-91708217D01*
X161003567Y-91697914D01*
X160972266Y-91681183D01*
X160944832Y-91658668D01*
X160922317Y-91631234D01*
X160905586Y-91599933D01*
X160895283Y-91565968D01*
X160891200Y-91524510D01*
X160891200Y-90923490D01*
X160895283Y-90882032D01*
X160905586Y-90848067D01*
X160922317Y-90816766D01*
X160944832Y-90789332D01*
X160972266Y-90766817D01*
X161003567Y-90750086D01*
X161037532Y-90739783D01*
X161078990Y-90735700D01*
X161755010Y-90735700D01*
X161796468Y-90739783D01*
X161796468Y-90739783D01*
G37*
G36*
X167384468Y-89916783D02*
G01*
X167418433Y-89927086D01*
X167449734Y-89943817D01*
X167477168Y-89966332D01*
X167499683Y-89993766D01*
X167516414Y-90025067D01*
X167526717Y-90059032D01*
X167530800Y-90100490D01*
X167530800Y-90701510D01*
X167526717Y-90742968D01*
X167516414Y-90776933D01*
X167499683Y-90808234D01*
X167477168Y-90835668D01*
X167449734Y-90858183D01*
X167418433Y-90874914D01*
X167384468Y-90885217D01*
X167343010Y-90889300D01*
X166666990Y-90889300D01*
X166625532Y-90885217D01*
X166591567Y-90874914D01*
X166560266Y-90858183D01*
X166532832Y-90835668D01*
X166510317Y-90808234D01*
X166493586Y-90776933D01*
X166483283Y-90742968D01*
X166479200Y-90701510D01*
X166479200Y-90100490D01*
X166483283Y-90059032D01*
X166493586Y-90025067D01*
X166510317Y-89993766D01*
X166532832Y-89966332D01*
X166560266Y-89943817D01*
X166591567Y-89927086D01*
X166625532Y-89916783D01*
X166666990Y-89912700D01*
X167343010Y-89912700D01*
X167384468Y-89916783D01*
X167384468Y-89916783D01*
G37*
G36*
X137158468Y-89723783D02*
G01*
X137192433Y-89734086D01*
X137223734Y-89750817D01*
X137251168Y-89773332D01*
X137273683Y-89800766D01*
X137290414Y-89832067D01*
X137300717Y-89866032D01*
X137304800Y-89907490D01*
X137304800Y-90508510D01*
X137300717Y-90549968D01*
X137290414Y-90583933D01*
X137273683Y-90615234D01*
X137251168Y-90642668D01*
X137223734Y-90665183D01*
X137192433Y-90681914D01*
X137158468Y-90692217D01*
X137117010Y-90696300D01*
X136440990Y-90696300D01*
X136399532Y-90692217D01*
X136365567Y-90681914D01*
X136334266Y-90665183D01*
X136306832Y-90642668D01*
X136284317Y-90615234D01*
X136267586Y-90583933D01*
X136257283Y-90549968D01*
X136253200Y-90508510D01*
X136253200Y-89907490D01*
X136257283Y-89866032D01*
X136267586Y-89832067D01*
X136284317Y-89800766D01*
X136306832Y-89773332D01*
X136334266Y-89750817D01*
X136365567Y-89734086D01*
X136399532Y-89723783D01*
X136440990Y-89719700D01*
X137117010Y-89719700D01*
X137158468Y-89723783D01*
X137158468Y-89723783D01*
G37*
G36*
X129943800Y-90502300D02*
G01*
X126342200Y-90502300D01*
X126342200Y-85900700D01*
X129943800Y-85900700D01*
X129943800Y-90502300D01*
X129943800Y-90502300D01*
G37*
G36*
X133693800Y-90407300D02*
G01*
X131592200Y-90407300D01*
X131592200Y-89805700D01*
X133693800Y-89805700D01*
X133693800Y-90407300D01*
X133693800Y-90407300D01*
G37*
G36*
X124693800Y-90407300D02*
G01*
X122592200Y-90407300D01*
X122592200Y-89805700D01*
X124693800Y-89805700D01*
X124693800Y-90407300D01*
X124693800Y-90407300D01*
G37*
G36*
X163757800Y-89884300D02*
G01*
X162456200Y-89884300D01*
X162456200Y-88382700D01*
X163757800Y-88382700D01*
X163757800Y-89884300D01*
X163757800Y-89884300D01*
G37*
G36*
X165457800Y-89884300D02*
G01*
X164156200Y-89884300D01*
X164156200Y-88382700D01*
X165457800Y-88382700D01*
X165457800Y-89884300D01*
X165457800Y-89884300D01*
G37*
G36*
X161796468Y-88758783D02*
G01*
X161830433Y-88769086D01*
X161861734Y-88785817D01*
X161889168Y-88808332D01*
X161911683Y-88835766D01*
X161928414Y-88867067D01*
X161938717Y-88901032D01*
X161942800Y-88942490D01*
X161942800Y-89543510D01*
X161938717Y-89584968D01*
X161928414Y-89618933D01*
X161911683Y-89650234D01*
X161889168Y-89677668D01*
X161861734Y-89700183D01*
X161830433Y-89716914D01*
X161796468Y-89727217D01*
X161755010Y-89731300D01*
X161078990Y-89731300D01*
X161037532Y-89727217D01*
X161003567Y-89716914D01*
X160972266Y-89700183D01*
X160944832Y-89677668D01*
X160922317Y-89650234D01*
X160905586Y-89618933D01*
X160895283Y-89584968D01*
X160891200Y-89543510D01*
X160891200Y-88942490D01*
X160895283Y-88901032D01*
X160905586Y-88867067D01*
X160922317Y-88835766D01*
X160944832Y-88808332D01*
X160972266Y-88785817D01*
X161003567Y-88769086D01*
X161037532Y-88758783D01*
X161078990Y-88754700D01*
X161755010Y-88754700D01*
X161796468Y-88758783D01*
X161796468Y-88758783D01*
G37*
G36*
X160272468Y-88758783D02*
G01*
X160306433Y-88769086D01*
X160337734Y-88785817D01*
X160365168Y-88808332D01*
X160387683Y-88835766D01*
X160404414Y-88867067D01*
X160414717Y-88901032D01*
X160418800Y-88942490D01*
X160418800Y-89543510D01*
X160414717Y-89584968D01*
X160404414Y-89618933D01*
X160387683Y-89650234D01*
X160365168Y-89677668D01*
X160337734Y-89700183D01*
X160306433Y-89716914D01*
X160272468Y-89727217D01*
X160231010Y-89731300D01*
X159554990Y-89731300D01*
X159513532Y-89727217D01*
X159479567Y-89716914D01*
X159448266Y-89700183D01*
X159420832Y-89677668D01*
X159398317Y-89650234D01*
X159381586Y-89618933D01*
X159371283Y-89584968D01*
X159367200Y-89543510D01*
X159367200Y-88942490D01*
X159371283Y-88901032D01*
X159381586Y-88867067D01*
X159398317Y-88835766D01*
X159420832Y-88808332D01*
X159448266Y-88785817D01*
X159479567Y-88769086D01*
X159513532Y-88758783D01*
X159554990Y-88754700D01*
X160231010Y-88754700D01*
X160272468Y-88758783D01*
X160272468Y-88758783D01*
G37*
G36*
X167384468Y-88341783D02*
G01*
X167418433Y-88352086D01*
X167449734Y-88368817D01*
X167477168Y-88391332D01*
X167499683Y-88418766D01*
X167516414Y-88450067D01*
X167526717Y-88484032D01*
X167530800Y-88525490D01*
X167530800Y-89126510D01*
X167526717Y-89167968D01*
X167516414Y-89201933D01*
X167499683Y-89233234D01*
X167477168Y-89260668D01*
X167449734Y-89283183D01*
X167418433Y-89299914D01*
X167384468Y-89310217D01*
X167343010Y-89314300D01*
X166666990Y-89314300D01*
X166625532Y-89310217D01*
X166591567Y-89299914D01*
X166560266Y-89283183D01*
X166532832Y-89260668D01*
X166510317Y-89233234D01*
X166493586Y-89201933D01*
X166483283Y-89167968D01*
X166479200Y-89126510D01*
X166479200Y-88525490D01*
X166483283Y-88484032D01*
X166493586Y-88450067D01*
X166510317Y-88418766D01*
X166532832Y-88391332D01*
X166560266Y-88368817D01*
X166591567Y-88352086D01*
X166625532Y-88341783D01*
X166666990Y-88337700D01*
X167343010Y-88337700D01*
X167384468Y-88341783D01*
X167384468Y-88341783D01*
G37*
G36*
X133693800Y-89137300D02*
G01*
X131592200Y-89137300D01*
X131592200Y-88535700D01*
X133693800Y-88535700D01*
X133693800Y-89137300D01*
X133693800Y-89137300D01*
G37*
G36*
X124693800Y-89137300D02*
G01*
X122592200Y-89137300D01*
X122592200Y-88535700D01*
X124693800Y-88535700D01*
X124693800Y-89137300D01*
X124693800Y-89137300D01*
G37*
G36*
X160272468Y-87183783D02*
G01*
X160306433Y-87194086D01*
X160337734Y-87210817D01*
X160365168Y-87233332D01*
X160387683Y-87260766D01*
X160404414Y-87292067D01*
X160414717Y-87326032D01*
X160418800Y-87367490D01*
X160418800Y-87968510D01*
X160414717Y-88009968D01*
X160404414Y-88043933D01*
X160387683Y-88075234D01*
X160365168Y-88102668D01*
X160337734Y-88125183D01*
X160306433Y-88141914D01*
X160272468Y-88152217D01*
X160231010Y-88156300D01*
X159554990Y-88156300D01*
X159513532Y-88152217D01*
X159479567Y-88141914D01*
X159448266Y-88125183D01*
X159420832Y-88102668D01*
X159398317Y-88075234D01*
X159381586Y-88043933D01*
X159371283Y-88009968D01*
X159367200Y-87968510D01*
X159367200Y-87367490D01*
X159371283Y-87326032D01*
X159381586Y-87292067D01*
X159398317Y-87260766D01*
X159420832Y-87233332D01*
X159448266Y-87210817D01*
X159479567Y-87194086D01*
X159513532Y-87183783D01*
X159554990Y-87179700D01*
X160231010Y-87179700D01*
X160272468Y-87183783D01*
X160272468Y-87183783D01*
G37*
G36*
X161796468Y-87183783D02*
G01*
X161830433Y-87194086D01*
X161861734Y-87210817D01*
X161889168Y-87233332D01*
X161911683Y-87260766D01*
X161928414Y-87292067D01*
X161938717Y-87326032D01*
X161942800Y-87367490D01*
X161942800Y-87968510D01*
X161938717Y-88009968D01*
X161928414Y-88043933D01*
X161911683Y-88075234D01*
X161889168Y-88102668D01*
X161861734Y-88125183D01*
X161830433Y-88141914D01*
X161796468Y-88152217D01*
X161755010Y-88156300D01*
X161078990Y-88156300D01*
X161037532Y-88152217D01*
X161003567Y-88141914D01*
X160972266Y-88125183D01*
X160944832Y-88102668D01*
X160922317Y-88075234D01*
X160905586Y-88043933D01*
X160895283Y-88009968D01*
X160891200Y-87968510D01*
X160891200Y-87367490D01*
X160895283Y-87326032D01*
X160905586Y-87292067D01*
X160922317Y-87260766D01*
X160944832Y-87233332D01*
X160972266Y-87210817D01*
X161003567Y-87194086D01*
X161037532Y-87183783D01*
X161078990Y-87179700D01*
X161755010Y-87179700D01*
X161796468Y-87183783D01*
X161796468Y-87183783D01*
G37*
G36*
X124693800Y-87867300D02*
G01*
X122592200Y-87867300D01*
X122592200Y-87265700D01*
X124693800Y-87265700D01*
X124693800Y-87867300D01*
X124693800Y-87867300D01*
G37*
G36*
X133693800Y-87867300D02*
G01*
X131592200Y-87867300D01*
X131592200Y-87265700D01*
X133693800Y-87265700D01*
X133693800Y-87867300D01*
X133693800Y-87867300D01*
G37*
G36*
X133693800Y-86597300D02*
G01*
X131592200Y-86597300D01*
X131592200Y-85995700D01*
X133693800Y-85995700D01*
X133693800Y-86597300D01*
X133693800Y-86597300D01*
G37*
G36*
X124693800Y-86597300D02*
G01*
X122592200Y-86597300D01*
X122592200Y-85995700D01*
X124693800Y-85995700D01*
X124693800Y-86597300D01*
X124693800Y-86597300D01*
G37*
G36*
X154320800Y-86132300D02*
G01*
X141589200Y-86132300D01*
X141589200Y-85030700D01*
X154320800Y-85030700D01*
X154320800Y-86132300D01*
X154320800Y-86132300D01*
G37*
G36*
X136650468Y-84440783D02*
G01*
X136684433Y-84451086D01*
X136715734Y-84467817D01*
X136743168Y-84490332D01*
X136765683Y-84517766D01*
X136782414Y-84549067D01*
X136792717Y-84583032D01*
X136796800Y-84624490D01*
X136796800Y-85225510D01*
X136792717Y-85266968D01*
X136782414Y-85300933D01*
X136765683Y-85332234D01*
X136743168Y-85359668D01*
X136715734Y-85382183D01*
X136684433Y-85398914D01*
X136650468Y-85409217D01*
X136609010Y-85413300D01*
X135932990Y-85413300D01*
X135891532Y-85409217D01*
X135857567Y-85398914D01*
X135826266Y-85382183D01*
X135798832Y-85359668D01*
X135776317Y-85332234D01*
X135759586Y-85300933D01*
X135749283Y-85266968D01*
X135745200Y-85225510D01*
X135745200Y-84624490D01*
X135749283Y-84583032D01*
X135759586Y-84549067D01*
X135776317Y-84517766D01*
X135798832Y-84490332D01*
X135826266Y-84467817D01*
X135857567Y-84451086D01*
X135891532Y-84440783D01*
X135932990Y-84436700D01*
X136609010Y-84436700D01*
X136650468Y-84440783D01*
X136650468Y-84440783D01*
G37*
G36*
X135126468Y-84440783D02*
G01*
X135160433Y-84451086D01*
X135191734Y-84467817D01*
X135219168Y-84490332D01*
X135241683Y-84517766D01*
X135258414Y-84549067D01*
X135268717Y-84583032D01*
X135272800Y-84624490D01*
X135272800Y-85225510D01*
X135268717Y-85266968D01*
X135258414Y-85300933D01*
X135241683Y-85332234D01*
X135219168Y-85359668D01*
X135191734Y-85382183D01*
X135160433Y-85398914D01*
X135126468Y-85409217D01*
X135085010Y-85413300D01*
X134408990Y-85413300D01*
X134367532Y-85409217D01*
X134333567Y-85398914D01*
X134302266Y-85382183D01*
X134274832Y-85359668D01*
X134252317Y-85332234D01*
X134235586Y-85300933D01*
X134225283Y-85266968D01*
X134221200Y-85225510D01*
X134221200Y-84624490D01*
X134225283Y-84583032D01*
X134235586Y-84549067D01*
X134252317Y-84517766D01*
X134274832Y-84490332D01*
X134302266Y-84467817D01*
X134333567Y-84451086D01*
X134367532Y-84440783D01*
X134408990Y-84436700D01*
X135085010Y-84436700D01*
X135126468Y-84440783D01*
X135126468Y-84440783D01*
G37*
G36*
X135126468Y-82865783D02*
G01*
X135160433Y-82876086D01*
X135191734Y-82892817D01*
X135219168Y-82915332D01*
X135241683Y-82942766D01*
X135258414Y-82974067D01*
X135268717Y-83008032D01*
X135272800Y-83049490D01*
X135272800Y-83650510D01*
X135268717Y-83691968D01*
X135258414Y-83725933D01*
X135241683Y-83757234D01*
X135219168Y-83784668D01*
X135191734Y-83807183D01*
X135160433Y-83823914D01*
X135126468Y-83834217D01*
X135085010Y-83838300D01*
X134408990Y-83838300D01*
X134367532Y-83834217D01*
X134333567Y-83823914D01*
X134302266Y-83807183D01*
X134274832Y-83784668D01*
X134252317Y-83757234D01*
X134235586Y-83725933D01*
X134225283Y-83691968D01*
X134221200Y-83650510D01*
X134221200Y-83049490D01*
X134225283Y-83008032D01*
X134235586Y-82974067D01*
X134252317Y-82942766D01*
X134274832Y-82915332D01*
X134302266Y-82892817D01*
X134333567Y-82876086D01*
X134367532Y-82865783D01*
X134408990Y-82861700D01*
X135085010Y-82861700D01*
X135126468Y-82865783D01*
X135126468Y-82865783D01*
G37*
G36*
X136650468Y-82865783D02*
G01*
X136684433Y-82876086D01*
X136715734Y-82892817D01*
X136743168Y-82915332D01*
X136765683Y-82942766D01*
X136782414Y-82974067D01*
X136792717Y-83008032D01*
X136796800Y-83049490D01*
X136796800Y-83650510D01*
X136792717Y-83691968D01*
X136782414Y-83725933D01*
X136765683Y-83757234D01*
X136743168Y-83784668D01*
X136715734Y-83807183D01*
X136684433Y-83823914D01*
X136650468Y-83834217D01*
X136609010Y-83838300D01*
X135932990Y-83838300D01*
X135891532Y-83834217D01*
X135857567Y-83823914D01*
X135826266Y-83807183D01*
X135798832Y-83784668D01*
X135776317Y-83757234D01*
X135759586Y-83725933D01*
X135749283Y-83691968D01*
X135745200Y-83650510D01*
X135745200Y-83049490D01*
X135749283Y-83008032D01*
X135759586Y-82974067D01*
X135776317Y-82942766D01*
X135798832Y-82915332D01*
X135826266Y-82892817D01*
X135857567Y-82876086D01*
X135891532Y-82865783D01*
X135932990Y-82861700D01*
X136609010Y-82861700D01*
X136650468Y-82865783D01*
X136650468Y-82865783D01*
G37*
G36*
X176188348Y-82121264D02*
G01*
X176227000Y-82132989D01*
X176262623Y-82152030D01*
X176293846Y-82177654D01*
X176319470Y-82208877D01*
X176338511Y-82244500D01*
X176350236Y-82283152D01*
X176354800Y-82329491D01*
X176354800Y-83405509D01*
X176350236Y-83451848D01*
X176338511Y-83490500D01*
X176319470Y-83526123D01*
X176293846Y-83557346D01*
X176262623Y-83582970D01*
X176227000Y-83602011D01*
X176188348Y-83613736D01*
X176142009Y-83618300D01*
X175490991Y-83618300D01*
X175444652Y-83613736D01*
X175406000Y-83602011D01*
X175370377Y-83582970D01*
X175339154Y-83557346D01*
X175313530Y-83526123D01*
X175294489Y-83490500D01*
X175282764Y-83451848D01*
X175278200Y-83405509D01*
X175278200Y-82329491D01*
X175282764Y-82283152D01*
X175294489Y-82244500D01*
X175313530Y-82208877D01*
X175339154Y-82177654D01*
X175370377Y-82152030D01*
X175406000Y-82132989D01*
X175444652Y-82121264D01*
X175490991Y-82116700D01*
X176142009Y-82116700D01*
X176188348Y-82121264D01*
X176188348Y-82121264D01*
G37*
G36*
X174313348Y-82121264D02*
G01*
X174352000Y-82132989D01*
X174387623Y-82152030D01*
X174418846Y-82177654D01*
X174444470Y-82208877D01*
X174463511Y-82244500D01*
X174475236Y-82283152D01*
X174479800Y-82329491D01*
X174479800Y-83405509D01*
X174475236Y-83451848D01*
X174463511Y-83490500D01*
X174444470Y-83526123D01*
X174418846Y-83557346D01*
X174387623Y-83582970D01*
X174352000Y-83602011D01*
X174313348Y-83613736D01*
X174267009Y-83618300D01*
X173615991Y-83618300D01*
X173569652Y-83613736D01*
X173531000Y-83602011D01*
X173495377Y-83582970D01*
X173464154Y-83557346D01*
X173438530Y-83526123D01*
X173419489Y-83490500D01*
X173407764Y-83451848D01*
X173403200Y-83405509D01*
X173403200Y-82329491D01*
X173407764Y-82283152D01*
X173419489Y-82244500D01*
X173438530Y-82208877D01*
X173464154Y-82177654D01*
X173495377Y-82152030D01*
X173531000Y-82132989D01*
X173569652Y-82121264D01*
X173615991Y-82116700D01*
X174267009Y-82116700D01*
X174313348Y-82121264D01*
X174313348Y-82121264D01*
G37*
G36*
X170877468Y-82345783D02*
G01*
X170911433Y-82356086D01*
X170942734Y-82372817D01*
X170970168Y-82395332D01*
X170992683Y-82422766D01*
X171009414Y-82454067D01*
X171019717Y-82488032D01*
X171023800Y-82529490D01*
X171023800Y-83205510D01*
X171019717Y-83246968D01*
X171009414Y-83280933D01*
X170992683Y-83312234D01*
X170970168Y-83339668D01*
X170942734Y-83362183D01*
X170911433Y-83378914D01*
X170877468Y-83389217D01*
X170836010Y-83393300D01*
X170234990Y-83393300D01*
X170193532Y-83389217D01*
X170159567Y-83378914D01*
X170128266Y-83362183D01*
X170100832Y-83339668D01*
X170078317Y-83312234D01*
X170061586Y-83280933D01*
X170051283Y-83246968D01*
X170047200Y-83205510D01*
X170047200Y-82529490D01*
X170051283Y-82488032D01*
X170061586Y-82454067D01*
X170078317Y-82422766D01*
X170100832Y-82395332D01*
X170128266Y-82372817D01*
X170159567Y-82356086D01*
X170193532Y-82345783D01*
X170234990Y-82341700D01*
X170836010Y-82341700D01*
X170877468Y-82345783D01*
X170877468Y-82345783D01*
G37*
G36*
X172452468Y-82345783D02*
G01*
X172486433Y-82356086D01*
X172517734Y-82372817D01*
X172545168Y-82395332D01*
X172567683Y-82422766D01*
X172584414Y-82454067D01*
X172594717Y-82488032D01*
X172598800Y-82529490D01*
X172598800Y-83205510D01*
X172594717Y-83246968D01*
X172584414Y-83280933D01*
X172567683Y-83312234D01*
X172545168Y-83339668D01*
X172517734Y-83362183D01*
X172486433Y-83378914D01*
X172452468Y-83389217D01*
X172411010Y-83393300D01*
X171809990Y-83393300D01*
X171768532Y-83389217D01*
X171734567Y-83378914D01*
X171703266Y-83362183D01*
X171675832Y-83339668D01*
X171653317Y-83312234D01*
X171636586Y-83280933D01*
X171626283Y-83246968D01*
X171622200Y-83205510D01*
X171622200Y-82529490D01*
X171626283Y-82488032D01*
X171636586Y-82454067D01*
X171653317Y-82422766D01*
X171675832Y-82395332D01*
X171703266Y-82372817D01*
X171734567Y-82356086D01*
X171768532Y-82345783D01*
X171809990Y-82341700D01*
X172411010Y-82341700D01*
X172452468Y-82345783D01*
X172452468Y-82345783D01*
G37*
G36*
X153748800Y-81355300D02*
G01*
X152137200Y-81355300D01*
X152137200Y-59995700D01*
X153748800Y-59995700D01*
X153748800Y-81355300D01*
X153748800Y-81355300D01*
G37*
G36*
X142248800Y-81355300D02*
G01*
X140637200Y-81355300D01*
X140637200Y-59995700D01*
X142248800Y-59995700D01*
X142248800Y-81355300D01*
X142248800Y-81355300D01*
G37*
G36*
X174391848Y-79581264D02*
G01*
X174430500Y-79592989D01*
X174466123Y-79612030D01*
X174497346Y-79637654D01*
X174522970Y-79668877D01*
X174542011Y-79704500D01*
X174553736Y-79743152D01*
X174558300Y-79789491D01*
X174558300Y-80865509D01*
X174553736Y-80911848D01*
X174542011Y-80950500D01*
X174522970Y-80986123D01*
X174497346Y-81017346D01*
X174466123Y-81042970D01*
X174430500Y-81062011D01*
X174391848Y-81073736D01*
X174345509Y-81078300D01*
X173694491Y-81078300D01*
X173648152Y-81073736D01*
X173609500Y-81062011D01*
X173573877Y-81042970D01*
X173542654Y-81017346D01*
X173517030Y-80986123D01*
X173497989Y-80950500D01*
X173486264Y-80911848D01*
X173481700Y-80865509D01*
X173481700Y-79789491D01*
X173486264Y-79743152D01*
X173497989Y-79704500D01*
X173517030Y-79668877D01*
X173542654Y-79637654D01*
X173573877Y-79612030D01*
X173609500Y-79592989D01*
X173648152Y-79581264D01*
X173694491Y-79576700D01*
X174345509Y-79576700D01*
X174391848Y-79581264D01*
X174391848Y-79581264D01*
G37*
G36*
X176266848Y-79581264D02*
G01*
X176305500Y-79592989D01*
X176341123Y-79612030D01*
X176372346Y-79637654D01*
X176397970Y-79668877D01*
X176417011Y-79704500D01*
X176428736Y-79743152D01*
X176433300Y-79789491D01*
X176433300Y-80865509D01*
X176428736Y-80911848D01*
X176417011Y-80950500D01*
X176397970Y-80986123D01*
X176372346Y-81017346D01*
X176341123Y-81042970D01*
X176305500Y-81062011D01*
X176266848Y-81073736D01*
X176220509Y-81078300D01*
X175569491Y-81078300D01*
X175523152Y-81073736D01*
X175484500Y-81062011D01*
X175448877Y-81042970D01*
X175417654Y-81017346D01*
X175392030Y-80986123D01*
X175372989Y-80950500D01*
X175361264Y-80911848D01*
X175356700Y-80865509D01*
X175356700Y-79789491D01*
X175361264Y-79743152D01*
X175372989Y-79704500D01*
X175392030Y-79668877D01*
X175417654Y-79637654D01*
X175448877Y-79612030D01*
X175484500Y-79592989D01*
X175523152Y-79581264D01*
X175569491Y-79576700D01*
X176220509Y-79576700D01*
X176266848Y-79581264D01*
X176266848Y-79581264D01*
G37*
G36*
X170877468Y-79805783D02*
G01*
X170911433Y-79816086D01*
X170942734Y-79832817D01*
X170970168Y-79855332D01*
X170992683Y-79882766D01*
X171009414Y-79914067D01*
X171019717Y-79948032D01*
X171023800Y-79989490D01*
X171023800Y-80665510D01*
X171019717Y-80706968D01*
X171009414Y-80740933D01*
X170992683Y-80772234D01*
X170970168Y-80799668D01*
X170942734Y-80822183D01*
X170911433Y-80838914D01*
X170877468Y-80849217D01*
X170836010Y-80853300D01*
X170234990Y-80853300D01*
X170193532Y-80849217D01*
X170159567Y-80838914D01*
X170128266Y-80822183D01*
X170100832Y-80799668D01*
X170078317Y-80772234D01*
X170061586Y-80740933D01*
X170051283Y-80706968D01*
X170047200Y-80665510D01*
X170047200Y-79989490D01*
X170051283Y-79948032D01*
X170061586Y-79914067D01*
X170078317Y-79882766D01*
X170100832Y-79855332D01*
X170128266Y-79832817D01*
X170159567Y-79816086D01*
X170193532Y-79805783D01*
X170234990Y-79801700D01*
X170836010Y-79801700D01*
X170877468Y-79805783D01*
X170877468Y-79805783D01*
G37*
G36*
X172452468Y-79805783D02*
G01*
X172486433Y-79816086D01*
X172517734Y-79832817D01*
X172545168Y-79855332D01*
X172567683Y-79882766D01*
X172584414Y-79914067D01*
X172594717Y-79948032D01*
X172598800Y-79989490D01*
X172598800Y-80665510D01*
X172594717Y-80706968D01*
X172584414Y-80740933D01*
X172567683Y-80772234D01*
X172545168Y-80799668D01*
X172517734Y-80822183D01*
X172486433Y-80838914D01*
X172452468Y-80849217D01*
X172411010Y-80853300D01*
X171809990Y-80853300D01*
X171768532Y-80849217D01*
X171734567Y-80838914D01*
X171703266Y-80822183D01*
X171675832Y-80799668D01*
X171653317Y-80772234D01*
X171636586Y-80740933D01*
X171626283Y-80706968D01*
X171622200Y-80665510D01*
X171622200Y-79989490D01*
X171626283Y-79948032D01*
X171636586Y-79914067D01*
X171653317Y-79882766D01*
X171675832Y-79855332D01*
X171703266Y-79832817D01*
X171734567Y-79816086D01*
X171768532Y-79805783D01*
X171809990Y-79801700D01*
X172411010Y-79801700D01*
X172452468Y-79805783D01*
X172452468Y-79805783D01*
G37*
G36*
X174313348Y-77041264D02*
G01*
X174352000Y-77052989D01*
X174387623Y-77072030D01*
X174418846Y-77097654D01*
X174444470Y-77128877D01*
X174463511Y-77164500D01*
X174475236Y-77203152D01*
X174479800Y-77249491D01*
X174479800Y-78325509D01*
X174475236Y-78371848D01*
X174463511Y-78410500D01*
X174444470Y-78446123D01*
X174418846Y-78477346D01*
X174387623Y-78502970D01*
X174352000Y-78522011D01*
X174313348Y-78533736D01*
X174267009Y-78538300D01*
X173615991Y-78538300D01*
X173569652Y-78533736D01*
X173531000Y-78522011D01*
X173495377Y-78502970D01*
X173464154Y-78477346D01*
X173438530Y-78446123D01*
X173419489Y-78410500D01*
X173407764Y-78371848D01*
X173403200Y-78325509D01*
X173403200Y-77249491D01*
X173407764Y-77203152D01*
X173419489Y-77164500D01*
X173438530Y-77128877D01*
X173464154Y-77097654D01*
X173495377Y-77072030D01*
X173531000Y-77052989D01*
X173569652Y-77041264D01*
X173615991Y-77036700D01*
X174267009Y-77036700D01*
X174313348Y-77041264D01*
X174313348Y-77041264D01*
G37*
G36*
X176188348Y-77041264D02*
G01*
X176227000Y-77052989D01*
X176262623Y-77072030D01*
X176293846Y-77097654D01*
X176319470Y-77128877D01*
X176338511Y-77164500D01*
X176350236Y-77203152D01*
X176354800Y-77249491D01*
X176354800Y-78325509D01*
X176350236Y-78371848D01*
X176338511Y-78410500D01*
X176319470Y-78446123D01*
X176293846Y-78477346D01*
X176262623Y-78502970D01*
X176227000Y-78522011D01*
X176188348Y-78533736D01*
X176142009Y-78538300D01*
X175490991Y-78538300D01*
X175444652Y-78533736D01*
X175406000Y-78522011D01*
X175370377Y-78502970D01*
X175339154Y-78477346D01*
X175313530Y-78446123D01*
X175294489Y-78410500D01*
X175282764Y-78371848D01*
X175278200Y-78325509D01*
X175278200Y-77249491D01*
X175282764Y-77203152D01*
X175294489Y-77164500D01*
X175313530Y-77128877D01*
X175339154Y-77097654D01*
X175370377Y-77072030D01*
X175406000Y-77052989D01*
X175444652Y-77041264D01*
X175490991Y-77036700D01*
X176142009Y-77036700D01*
X176188348Y-77041264D01*
X176188348Y-77041264D01*
G37*
G36*
X172452468Y-77265783D02*
G01*
X172486433Y-77276086D01*
X172517734Y-77292817D01*
X172545168Y-77315332D01*
X172567683Y-77342766D01*
X172584414Y-77374067D01*
X172594717Y-77408032D01*
X172598800Y-77449490D01*
X172598800Y-78125510D01*
X172594717Y-78166968D01*
X172584414Y-78200933D01*
X172567683Y-78232234D01*
X172545168Y-78259668D01*
X172517734Y-78282183D01*
X172486433Y-78298914D01*
X172452468Y-78309217D01*
X172411010Y-78313300D01*
X171809990Y-78313300D01*
X171768532Y-78309217D01*
X171734567Y-78298914D01*
X171703266Y-78282183D01*
X171675832Y-78259668D01*
X171653317Y-78232234D01*
X171636586Y-78200933D01*
X171626283Y-78166968D01*
X171622200Y-78125510D01*
X171622200Y-77449490D01*
X171626283Y-77408032D01*
X171636586Y-77374067D01*
X171653317Y-77342766D01*
X171675832Y-77315332D01*
X171703266Y-77292817D01*
X171734567Y-77276086D01*
X171768532Y-77265783D01*
X171809990Y-77261700D01*
X172411010Y-77261700D01*
X172452468Y-77265783D01*
X172452468Y-77265783D01*
G37*
G36*
X170877468Y-77265783D02*
G01*
X170911433Y-77276086D01*
X170942734Y-77292817D01*
X170970168Y-77315332D01*
X170992683Y-77342766D01*
X171009414Y-77374067D01*
X171019717Y-77408032D01*
X171023800Y-77449490D01*
X171023800Y-78125510D01*
X171019717Y-78166968D01*
X171009414Y-78200933D01*
X170992683Y-78232234D01*
X170970168Y-78259668D01*
X170942734Y-78282183D01*
X170911433Y-78298914D01*
X170877468Y-78309217D01*
X170836010Y-78313300D01*
X170234990Y-78313300D01*
X170193532Y-78309217D01*
X170159567Y-78298914D01*
X170128266Y-78282183D01*
X170100832Y-78259668D01*
X170078317Y-78232234D01*
X170061586Y-78200933D01*
X170051283Y-78166968D01*
X170047200Y-78125510D01*
X170047200Y-77449490D01*
X170051283Y-77408032D01*
X170061586Y-77374067D01*
X170078317Y-77342766D01*
X170100832Y-77315332D01*
X170128266Y-77292817D01*
X170159567Y-77276086D01*
X170193532Y-77265783D01*
X170234990Y-77261700D01*
X170836010Y-77261700D01*
X170877468Y-77265783D01*
X170877468Y-77265783D01*
G37*
G36*
X133836801Y-76686299D02*
G01*
X124835201Y-76686299D01*
X124835201Y-74834699D01*
X133836801Y-74834699D01*
X133836801Y-76686299D01*
X133836801Y-76686299D01*
G37*
G36*
X176188348Y-74501264D02*
G01*
X176227000Y-74512989D01*
X176262623Y-74532030D01*
X176293846Y-74557654D01*
X176319470Y-74588877D01*
X176338511Y-74624500D01*
X176350236Y-74663152D01*
X176354800Y-74709491D01*
X176354800Y-75785509D01*
X176350236Y-75831848D01*
X176338511Y-75870500D01*
X176319470Y-75906123D01*
X176293846Y-75937346D01*
X176262623Y-75962970D01*
X176227000Y-75982011D01*
X176188348Y-75993736D01*
X176142009Y-75998300D01*
X175490991Y-75998300D01*
X175444652Y-75993736D01*
X175406000Y-75982011D01*
X175370377Y-75962970D01*
X175339154Y-75937346D01*
X175313530Y-75906123D01*
X175294489Y-75870500D01*
X175282764Y-75831848D01*
X175278200Y-75785509D01*
X175278200Y-74709491D01*
X175282764Y-74663152D01*
X175294489Y-74624500D01*
X175313530Y-74588877D01*
X175339154Y-74557654D01*
X175370377Y-74532030D01*
X175406000Y-74512989D01*
X175444652Y-74501264D01*
X175490991Y-74496700D01*
X176142009Y-74496700D01*
X176188348Y-74501264D01*
X176188348Y-74501264D01*
G37*
G36*
X174313348Y-74501264D02*
G01*
X174352000Y-74512989D01*
X174387623Y-74532030D01*
X174418846Y-74557654D01*
X174444470Y-74588877D01*
X174463511Y-74624500D01*
X174475236Y-74663152D01*
X174479800Y-74709491D01*
X174479800Y-75785509D01*
X174475236Y-75831848D01*
X174463511Y-75870500D01*
X174444470Y-75906123D01*
X174418846Y-75937346D01*
X174387623Y-75962970D01*
X174352000Y-75982011D01*
X174313348Y-75993736D01*
X174267009Y-75998300D01*
X173615991Y-75998300D01*
X173569652Y-75993736D01*
X173531000Y-75982011D01*
X173495377Y-75962970D01*
X173464154Y-75937346D01*
X173438530Y-75906123D01*
X173419489Y-75870500D01*
X173407764Y-75831848D01*
X173403200Y-75785509D01*
X173403200Y-74709491D01*
X173407764Y-74663152D01*
X173419489Y-74624500D01*
X173438530Y-74588877D01*
X173464154Y-74557654D01*
X173495377Y-74532030D01*
X173531000Y-74512989D01*
X173569652Y-74501264D01*
X173615991Y-74496700D01*
X174267009Y-74496700D01*
X174313348Y-74501264D01*
X174313348Y-74501264D01*
G37*
G36*
X170877468Y-74725783D02*
G01*
X170911433Y-74736086D01*
X170942734Y-74752817D01*
X170970168Y-74775332D01*
X170992683Y-74802766D01*
X171009414Y-74834067D01*
X171019717Y-74868032D01*
X171023800Y-74909490D01*
X171023800Y-75585510D01*
X171019717Y-75626968D01*
X171009414Y-75660933D01*
X170992683Y-75692234D01*
X170970168Y-75719668D01*
X170942734Y-75742183D01*
X170911433Y-75758914D01*
X170877468Y-75769217D01*
X170836010Y-75773300D01*
X170234990Y-75773300D01*
X170193532Y-75769217D01*
X170159567Y-75758914D01*
X170128266Y-75742183D01*
X170100832Y-75719668D01*
X170078317Y-75692234D01*
X170061586Y-75660933D01*
X170051283Y-75626968D01*
X170047200Y-75585510D01*
X170047200Y-74909490D01*
X170051283Y-74868032D01*
X170061586Y-74834067D01*
X170078317Y-74802766D01*
X170100832Y-74775332D01*
X170128266Y-74752817D01*
X170159567Y-74736086D01*
X170193532Y-74725783D01*
X170234990Y-74721700D01*
X170836010Y-74721700D01*
X170877468Y-74725783D01*
X170877468Y-74725783D01*
G37*
G36*
X172452468Y-74725783D02*
G01*
X172486433Y-74736086D01*
X172517734Y-74752817D01*
X172545168Y-74775332D01*
X172567683Y-74802766D01*
X172584414Y-74834067D01*
X172594717Y-74868032D01*
X172598800Y-74909490D01*
X172598800Y-75585510D01*
X172594717Y-75626968D01*
X172584414Y-75660933D01*
X172567683Y-75692234D01*
X172545168Y-75719668D01*
X172517734Y-75742183D01*
X172486433Y-75758914D01*
X172452468Y-75769217D01*
X172411010Y-75773300D01*
X171809990Y-75773300D01*
X171768532Y-75769217D01*
X171734567Y-75758914D01*
X171703266Y-75742183D01*
X171675832Y-75719668D01*
X171653317Y-75692234D01*
X171636586Y-75660933D01*
X171626283Y-75626968D01*
X171622200Y-75585510D01*
X171622200Y-74909490D01*
X171626283Y-74868032D01*
X171636586Y-74834067D01*
X171653317Y-74802766D01*
X171675832Y-74775332D01*
X171703266Y-74752817D01*
X171734567Y-74736086D01*
X171768532Y-74725783D01*
X171809990Y-74721700D01*
X172411010Y-74721700D01*
X172452468Y-74725783D01*
X172452468Y-74725783D01*
G37*
G36*
X176188348Y-71961264D02*
G01*
X176227000Y-71972989D01*
X176262623Y-71992030D01*
X176293846Y-72017654D01*
X176319470Y-72048877D01*
X176338511Y-72084500D01*
X176350236Y-72123152D01*
X176354800Y-72169491D01*
X176354800Y-73245509D01*
X176350236Y-73291848D01*
X176338511Y-73330500D01*
X176319470Y-73366123D01*
X176293846Y-73397346D01*
X176262623Y-73422970D01*
X176227000Y-73442011D01*
X176188348Y-73453736D01*
X176142009Y-73458300D01*
X175490991Y-73458300D01*
X175444652Y-73453736D01*
X175406000Y-73442011D01*
X175370377Y-73422970D01*
X175339154Y-73397346D01*
X175313530Y-73366123D01*
X175294489Y-73330500D01*
X175282764Y-73291848D01*
X175278200Y-73245509D01*
X175278200Y-72169491D01*
X175282764Y-72123152D01*
X175294489Y-72084500D01*
X175313530Y-72048877D01*
X175339154Y-72017654D01*
X175370377Y-71992030D01*
X175406000Y-71972989D01*
X175444652Y-71961264D01*
X175490991Y-71956700D01*
X176142009Y-71956700D01*
X176188348Y-71961264D01*
X176188348Y-71961264D01*
G37*
G36*
X174313348Y-71961264D02*
G01*
X174352000Y-71972989D01*
X174387623Y-71992030D01*
X174418846Y-72017654D01*
X174444470Y-72048877D01*
X174463511Y-72084500D01*
X174475236Y-72123152D01*
X174479800Y-72169491D01*
X174479800Y-73245509D01*
X174475236Y-73291848D01*
X174463511Y-73330500D01*
X174444470Y-73366123D01*
X174418846Y-73397346D01*
X174387623Y-73422970D01*
X174352000Y-73442011D01*
X174313348Y-73453736D01*
X174267009Y-73458300D01*
X173615991Y-73458300D01*
X173569652Y-73453736D01*
X173531000Y-73442011D01*
X173495377Y-73422970D01*
X173464154Y-73397346D01*
X173438530Y-73366123D01*
X173419489Y-73330500D01*
X173407764Y-73291848D01*
X173403200Y-73245509D01*
X173403200Y-72169491D01*
X173407764Y-72123152D01*
X173419489Y-72084500D01*
X173438530Y-72048877D01*
X173464154Y-72017654D01*
X173495377Y-71992030D01*
X173531000Y-71972989D01*
X173569652Y-71961264D01*
X173615991Y-71956700D01*
X174267009Y-71956700D01*
X174313348Y-71961264D01*
X174313348Y-71961264D01*
G37*
G36*
X172452468Y-72185783D02*
G01*
X172486433Y-72196086D01*
X172517734Y-72212817D01*
X172545168Y-72235332D01*
X172567683Y-72262766D01*
X172584414Y-72294067D01*
X172594717Y-72328032D01*
X172598800Y-72369490D01*
X172598800Y-73045510D01*
X172594717Y-73086968D01*
X172584414Y-73120933D01*
X172567683Y-73152234D01*
X172545168Y-73179668D01*
X172517734Y-73202183D01*
X172486433Y-73218914D01*
X172452468Y-73229217D01*
X172411010Y-73233300D01*
X171809990Y-73233300D01*
X171768532Y-73229217D01*
X171734567Y-73218914D01*
X171703266Y-73202183D01*
X171675832Y-73179668D01*
X171653317Y-73152234D01*
X171636586Y-73120933D01*
X171626283Y-73086968D01*
X171622200Y-73045510D01*
X171622200Y-72369490D01*
X171626283Y-72328032D01*
X171636586Y-72294067D01*
X171653317Y-72262766D01*
X171675832Y-72235332D01*
X171703266Y-72212817D01*
X171734567Y-72196086D01*
X171768532Y-72185783D01*
X171809990Y-72181700D01*
X172411010Y-72181700D01*
X172452468Y-72185783D01*
X172452468Y-72185783D01*
G37*
G36*
X170877468Y-72185783D02*
G01*
X170911433Y-72196086D01*
X170942734Y-72212817D01*
X170970168Y-72235332D01*
X170992683Y-72262766D01*
X171009414Y-72294067D01*
X171019717Y-72328032D01*
X171023800Y-72369490D01*
X171023800Y-73045510D01*
X171019717Y-73086968D01*
X171009414Y-73120933D01*
X170992683Y-73152234D01*
X170970168Y-73179668D01*
X170942734Y-73202183D01*
X170911433Y-73218914D01*
X170877468Y-73229217D01*
X170836010Y-73233300D01*
X170234990Y-73233300D01*
X170193532Y-73229217D01*
X170159567Y-73218914D01*
X170128266Y-73202183D01*
X170100832Y-73179668D01*
X170078317Y-73152234D01*
X170061586Y-73120933D01*
X170051283Y-73086968D01*
X170047200Y-73045510D01*
X170047200Y-72369490D01*
X170051283Y-72328032D01*
X170061586Y-72294067D01*
X170078317Y-72262766D01*
X170100832Y-72235332D01*
X170128266Y-72212817D01*
X170159567Y-72196086D01*
X170193532Y-72185783D01*
X170234990Y-72181700D01*
X170836010Y-72181700D01*
X170877468Y-72185783D01*
X170877468Y-72185783D01*
G37*
G36*
X117514348Y-69675264D02*
G01*
X117553000Y-69686989D01*
X117588623Y-69706030D01*
X117619846Y-69731654D01*
X117645470Y-69762877D01*
X117664511Y-69798500D01*
X117676236Y-69837152D01*
X117680800Y-69883491D01*
X117680800Y-70959509D01*
X117676236Y-71005848D01*
X117664511Y-71044500D01*
X117645470Y-71080123D01*
X117619846Y-71111346D01*
X117588623Y-71136970D01*
X117553000Y-71156011D01*
X117514348Y-71167736D01*
X117468009Y-71172300D01*
X116816991Y-71172300D01*
X116770652Y-71167736D01*
X116732000Y-71156011D01*
X116696377Y-71136970D01*
X116665154Y-71111346D01*
X116639530Y-71080123D01*
X116620489Y-71044500D01*
X116608764Y-71005848D01*
X116604200Y-70959509D01*
X116604200Y-69883491D01*
X116608764Y-69837152D01*
X116620489Y-69798500D01*
X116639530Y-69762877D01*
X116665154Y-69731654D01*
X116696377Y-69706030D01*
X116732000Y-69686989D01*
X116770652Y-69675264D01*
X116816991Y-69670700D01*
X117468009Y-69670700D01*
X117514348Y-69675264D01*
X117514348Y-69675264D01*
G37*
G36*
X115639348Y-69675264D02*
G01*
X115678000Y-69686989D01*
X115713623Y-69706030D01*
X115744846Y-69731654D01*
X115770470Y-69762877D01*
X115789511Y-69798500D01*
X115801236Y-69837152D01*
X115805800Y-69883491D01*
X115805800Y-70959509D01*
X115801236Y-71005848D01*
X115789511Y-71044500D01*
X115770470Y-71080123D01*
X115744846Y-71111346D01*
X115713623Y-71136970D01*
X115678000Y-71156011D01*
X115639348Y-71167736D01*
X115593009Y-71172300D01*
X114941991Y-71172300D01*
X114895652Y-71167736D01*
X114857000Y-71156011D01*
X114821377Y-71136970D01*
X114790154Y-71111346D01*
X114764530Y-71080123D01*
X114745489Y-71044500D01*
X114733764Y-71005848D01*
X114729200Y-70959509D01*
X114729200Y-69883491D01*
X114733764Y-69837152D01*
X114745489Y-69798500D01*
X114764530Y-69762877D01*
X114790154Y-69731654D01*
X114821377Y-69706030D01*
X114857000Y-69686989D01*
X114895652Y-69675264D01*
X114941991Y-69670700D01*
X115593009Y-69670700D01*
X115639348Y-69675264D01*
X115639348Y-69675264D01*
G37*
G36*
X119315468Y-69899783D02*
G01*
X119349433Y-69910086D01*
X119380734Y-69926817D01*
X119408168Y-69949332D01*
X119430683Y-69976766D01*
X119447414Y-70008067D01*
X119457717Y-70042032D01*
X119461800Y-70083490D01*
X119461800Y-70759510D01*
X119457717Y-70800968D01*
X119447414Y-70834933D01*
X119430683Y-70866234D01*
X119408168Y-70893668D01*
X119380734Y-70916183D01*
X119349433Y-70932914D01*
X119315468Y-70943217D01*
X119274010Y-70947300D01*
X118672990Y-70947300D01*
X118631532Y-70943217D01*
X118597567Y-70932914D01*
X118566266Y-70916183D01*
X118538832Y-70893668D01*
X118516317Y-70866234D01*
X118499586Y-70834933D01*
X118489283Y-70800968D01*
X118485200Y-70759510D01*
X118485200Y-70083490D01*
X118489283Y-70042032D01*
X118499586Y-70008067D01*
X118516317Y-69976766D01*
X118538832Y-69949332D01*
X118566266Y-69926817D01*
X118597567Y-69910086D01*
X118631532Y-69899783D01*
X118672990Y-69895700D01*
X119274010Y-69895700D01*
X119315468Y-69899783D01*
X119315468Y-69899783D01*
G37*
G36*
X120890468Y-69899783D02*
G01*
X120924433Y-69910086D01*
X120955734Y-69926817D01*
X120983168Y-69949332D01*
X121005683Y-69976766D01*
X121022414Y-70008067D01*
X121032717Y-70042032D01*
X121036800Y-70083490D01*
X121036800Y-70759510D01*
X121032717Y-70800968D01*
X121022414Y-70834933D01*
X121005683Y-70866234D01*
X120983168Y-70893668D01*
X120955734Y-70916183D01*
X120924433Y-70932914D01*
X120890468Y-70943217D01*
X120849010Y-70947300D01*
X120247990Y-70947300D01*
X120206532Y-70943217D01*
X120172567Y-70932914D01*
X120141266Y-70916183D01*
X120113832Y-70893668D01*
X120091317Y-70866234D01*
X120074586Y-70834933D01*
X120064283Y-70800968D01*
X120060200Y-70759510D01*
X120060200Y-70083490D01*
X120064283Y-70042032D01*
X120074586Y-70008067D01*
X120091317Y-69976766D01*
X120113832Y-69949332D01*
X120141266Y-69926817D01*
X120172567Y-69910086D01*
X120206532Y-69899783D01*
X120247990Y-69895700D01*
X120849010Y-69895700D01*
X120890468Y-69899783D01*
X120890468Y-69899783D01*
G37*
G36*
X176188348Y-69421264D02*
G01*
X176227000Y-69432989D01*
X176262623Y-69452030D01*
X176293846Y-69477654D01*
X176319470Y-69508877D01*
X176338511Y-69544500D01*
X176350236Y-69583152D01*
X176354800Y-69629491D01*
X176354800Y-70705509D01*
X176350236Y-70751848D01*
X176338511Y-70790500D01*
X176319470Y-70826123D01*
X176293846Y-70857346D01*
X176262623Y-70882970D01*
X176227000Y-70902011D01*
X176188348Y-70913736D01*
X176142009Y-70918300D01*
X175490991Y-70918300D01*
X175444652Y-70913736D01*
X175406000Y-70902011D01*
X175370377Y-70882970D01*
X175339154Y-70857346D01*
X175313530Y-70826123D01*
X175294489Y-70790500D01*
X175282764Y-70751848D01*
X175278200Y-70705509D01*
X175278200Y-69629491D01*
X175282764Y-69583152D01*
X175294489Y-69544500D01*
X175313530Y-69508877D01*
X175339154Y-69477654D01*
X175370377Y-69452030D01*
X175406000Y-69432989D01*
X175444652Y-69421264D01*
X175490991Y-69416700D01*
X176142009Y-69416700D01*
X176188348Y-69421264D01*
X176188348Y-69421264D01*
G37*
G36*
X174313348Y-69421264D02*
G01*
X174352000Y-69432989D01*
X174387623Y-69452030D01*
X174418846Y-69477654D01*
X174444470Y-69508877D01*
X174463511Y-69544500D01*
X174475236Y-69583152D01*
X174479800Y-69629491D01*
X174479800Y-70705509D01*
X174475236Y-70751848D01*
X174463511Y-70790500D01*
X174444470Y-70826123D01*
X174418846Y-70857346D01*
X174387623Y-70882970D01*
X174352000Y-70902011D01*
X174313348Y-70913736D01*
X174267009Y-70918300D01*
X173615991Y-70918300D01*
X173569652Y-70913736D01*
X173531000Y-70902011D01*
X173495377Y-70882970D01*
X173464154Y-70857346D01*
X173438530Y-70826123D01*
X173419489Y-70790500D01*
X173407764Y-70751848D01*
X173403200Y-70705509D01*
X173403200Y-69629491D01*
X173407764Y-69583152D01*
X173419489Y-69544500D01*
X173438530Y-69508877D01*
X173464154Y-69477654D01*
X173495377Y-69452030D01*
X173531000Y-69432989D01*
X173569652Y-69421264D01*
X173615991Y-69416700D01*
X174267009Y-69416700D01*
X174313348Y-69421264D01*
X174313348Y-69421264D01*
G37*
G36*
X170877468Y-69645783D02*
G01*
X170911433Y-69656086D01*
X170942734Y-69672817D01*
X170970168Y-69695332D01*
X170992683Y-69722766D01*
X171009414Y-69754067D01*
X171019717Y-69788032D01*
X171023800Y-69829490D01*
X171023800Y-70505510D01*
X171019717Y-70546968D01*
X171009414Y-70580933D01*
X170992683Y-70612234D01*
X170970168Y-70639668D01*
X170942734Y-70662183D01*
X170911433Y-70678914D01*
X170877468Y-70689217D01*
X170836010Y-70693300D01*
X170234990Y-70693300D01*
X170193532Y-70689217D01*
X170159567Y-70678914D01*
X170128266Y-70662183D01*
X170100832Y-70639668D01*
X170078317Y-70612234D01*
X170061586Y-70580933D01*
X170051283Y-70546968D01*
X170047200Y-70505510D01*
X170047200Y-69829490D01*
X170051283Y-69788032D01*
X170061586Y-69754067D01*
X170078317Y-69722766D01*
X170100832Y-69695332D01*
X170128266Y-69672817D01*
X170159567Y-69656086D01*
X170193532Y-69645783D01*
X170234990Y-69641700D01*
X170836010Y-69641700D01*
X170877468Y-69645783D01*
X170877468Y-69645783D01*
G37*
G36*
X172452468Y-69645783D02*
G01*
X172486433Y-69656086D01*
X172517734Y-69672817D01*
X172545168Y-69695332D01*
X172567683Y-69722766D01*
X172584414Y-69754067D01*
X172594717Y-69788032D01*
X172598800Y-69829490D01*
X172598800Y-70505510D01*
X172594717Y-70546968D01*
X172584414Y-70580933D01*
X172567683Y-70612234D01*
X172545168Y-70639668D01*
X172517734Y-70662183D01*
X172486433Y-70678914D01*
X172452468Y-70689217D01*
X172411010Y-70693300D01*
X171809990Y-70693300D01*
X171768532Y-70689217D01*
X171734567Y-70678914D01*
X171703266Y-70662183D01*
X171675832Y-70639668D01*
X171653317Y-70612234D01*
X171636586Y-70580933D01*
X171626283Y-70546968D01*
X171622200Y-70505510D01*
X171622200Y-69829490D01*
X171626283Y-69788032D01*
X171636586Y-69754067D01*
X171653317Y-69722766D01*
X171675832Y-69695332D01*
X171703266Y-69672817D01*
X171734567Y-69656086D01*
X171768532Y-69645783D01*
X171809990Y-69641700D01*
X172411010Y-69641700D01*
X172452468Y-69645783D01*
X172452468Y-69645783D01*
G37*
G36*
X139190468Y-69683283D02*
G01*
X139224433Y-69693586D01*
X139255734Y-69710317D01*
X139283168Y-69732832D01*
X139305683Y-69760266D01*
X139322414Y-69791567D01*
X139332717Y-69825532D01*
X139336800Y-69866990D01*
X139336800Y-70468010D01*
X139332717Y-70509468D01*
X139322414Y-70543433D01*
X139305683Y-70574734D01*
X139283168Y-70602168D01*
X139255734Y-70624683D01*
X139224433Y-70641414D01*
X139190468Y-70651717D01*
X139149010Y-70655800D01*
X138472990Y-70655800D01*
X138431532Y-70651717D01*
X138397567Y-70641414D01*
X138366266Y-70624683D01*
X138338832Y-70602168D01*
X138316317Y-70574734D01*
X138299586Y-70543433D01*
X138289283Y-70509468D01*
X138285200Y-70468010D01*
X138285200Y-69866990D01*
X138289283Y-69825532D01*
X138299586Y-69791567D01*
X138316317Y-69760266D01*
X138338832Y-69732832D01*
X138366266Y-69710317D01*
X138397567Y-69693586D01*
X138431532Y-69683283D01*
X138472990Y-69679200D01*
X139149010Y-69679200D01*
X139190468Y-69683283D01*
X139190468Y-69683283D01*
G37*
G36*
X159447468Y-68439283D02*
G01*
X159481433Y-68449586D01*
X159512734Y-68466317D01*
X159540168Y-68488832D01*
X159562683Y-68516266D01*
X159579414Y-68547567D01*
X159589717Y-68581532D01*
X159593800Y-68622990D01*
X159593800Y-69299010D01*
X159589717Y-69340468D01*
X159579414Y-69374433D01*
X159562683Y-69405734D01*
X159540168Y-69433168D01*
X159512734Y-69455683D01*
X159481433Y-69472414D01*
X159447468Y-69482717D01*
X159406010Y-69486800D01*
X158804990Y-69486800D01*
X158763532Y-69482717D01*
X158729567Y-69472414D01*
X158698266Y-69455683D01*
X158670832Y-69433168D01*
X158648317Y-69405734D01*
X158631586Y-69374433D01*
X158621283Y-69340468D01*
X158617200Y-69299010D01*
X158617200Y-68622990D01*
X158621283Y-68581532D01*
X158631586Y-68547567D01*
X158648317Y-68516266D01*
X158670832Y-68488832D01*
X158698266Y-68466317D01*
X158729567Y-68449586D01*
X158763532Y-68439283D01*
X158804990Y-68435200D01*
X159406010Y-68435200D01*
X159447468Y-68439283D01*
X159447468Y-68439283D01*
G37*
G36*
X161022468Y-68439283D02*
G01*
X161056433Y-68449586D01*
X161087734Y-68466317D01*
X161115168Y-68488832D01*
X161137683Y-68516266D01*
X161154414Y-68547567D01*
X161164717Y-68581532D01*
X161168800Y-68622990D01*
X161168800Y-69299010D01*
X161164717Y-69340468D01*
X161154414Y-69374433D01*
X161137683Y-69405734D01*
X161115168Y-69433168D01*
X161087734Y-69455683D01*
X161056433Y-69472414D01*
X161022468Y-69482717D01*
X160981010Y-69486800D01*
X160379990Y-69486800D01*
X160338532Y-69482717D01*
X160304567Y-69472414D01*
X160273266Y-69455683D01*
X160245832Y-69433168D01*
X160223317Y-69405734D01*
X160206586Y-69374433D01*
X160196283Y-69340468D01*
X160192200Y-69299010D01*
X160192200Y-68622990D01*
X160196283Y-68581532D01*
X160206586Y-68547567D01*
X160223317Y-68516266D01*
X160245832Y-68488832D01*
X160273266Y-68466317D01*
X160304567Y-68449586D01*
X160338532Y-68439283D01*
X160379990Y-68435200D01*
X160981010Y-68435200D01*
X161022468Y-68439283D01*
X161022468Y-68439283D01*
G37*
G36*
X133836801Y-69486299D02*
G01*
X124835201Y-69486299D01*
X124835201Y-67634699D01*
X133836801Y-67634699D01*
X133836801Y-69486299D01*
X133836801Y-69486299D01*
G37*
G36*
X139190468Y-68108283D02*
G01*
X139224433Y-68118586D01*
X139255734Y-68135317D01*
X139283168Y-68157832D01*
X139305683Y-68185266D01*
X139322414Y-68216567D01*
X139332717Y-68250532D01*
X139336800Y-68291990D01*
X139336800Y-68893010D01*
X139332717Y-68934468D01*
X139322414Y-68968433D01*
X139305683Y-68999734D01*
X139283168Y-69027168D01*
X139255734Y-69049683D01*
X139224433Y-69066414D01*
X139190468Y-69076717D01*
X139149010Y-69080800D01*
X138472990Y-69080800D01*
X138431532Y-69076717D01*
X138397567Y-69066414D01*
X138366266Y-69049683D01*
X138338832Y-69027168D01*
X138316317Y-68999734D01*
X138299586Y-68968433D01*
X138289283Y-68934468D01*
X138285200Y-68893010D01*
X138285200Y-68291990D01*
X138289283Y-68250532D01*
X138299586Y-68216567D01*
X138316317Y-68185266D01*
X138338832Y-68157832D01*
X138366266Y-68135317D01*
X138397567Y-68118586D01*
X138431532Y-68108283D01*
X138472990Y-68104200D01*
X139149010Y-68104200D01*
X139190468Y-68108283D01*
X139190468Y-68108283D01*
G37*
G36*
X117514348Y-67135264D02*
G01*
X117553000Y-67146989D01*
X117588623Y-67166030D01*
X117619846Y-67191654D01*
X117645470Y-67222877D01*
X117664511Y-67258500D01*
X117676236Y-67297152D01*
X117680800Y-67343491D01*
X117680800Y-68419509D01*
X117676236Y-68465848D01*
X117664511Y-68504500D01*
X117645470Y-68540123D01*
X117619846Y-68571346D01*
X117588623Y-68596970D01*
X117553000Y-68616011D01*
X117514348Y-68627736D01*
X117468009Y-68632300D01*
X116816991Y-68632300D01*
X116770652Y-68627736D01*
X116732000Y-68616011D01*
X116696377Y-68596970D01*
X116665154Y-68571346D01*
X116639530Y-68540123D01*
X116620489Y-68504500D01*
X116608764Y-68465848D01*
X116604200Y-68419509D01*
X116604200Y-67343491D01*
X116608764Y-67297152D01*
X116620489Y-67258500D01*
X116639530Y-67222877D01*
X116665154Y-67191654D01*
X116696377Y-67166030D01*
X116732000Y-67146989D01*
X116770652Y-67135264D01*
X116816991Y-67130700D01*
X117468009Y-67130700D01*
X117514348Y-67135264D01*
X117514348Y-67135264D01*
G37*
G36*
X115639348Y-67135264D02*
G01*
X115678000Y-67146989D01*
X115713623Y-67166030D01*
X115744846Y-67191654D01*
X115770470Y-67222877D01*
X115789511Y-67258500D01*
X115801236Y-67297152D01*
X115805800Y-67343491D01*
X115805800Y-68419509D01*
X115801236Y-68465848D01*
X115789511Y-68504500D01*
X115770470Y-68540123D01*
X115744846Y-68571346D01*
X115713623Y-68596970D01*
X115678000Y-68616011D01*
X115639348Y-68627736D01*
X115593009Y-68632300D01*
X114941991Y-68632300D01*
X114895652Y-68627736D01*
X114857000Y-68616011D01*
X114821377Y-68596970D01*
X114790154Y-68571346D01*
X114764530Y-68540123D01*
X114745489Y-68504500D01*
X114733764Y-68465848D01*
X114729200Y-68419509D01*
X114729200Y-67343491D01*
X114733764Y-67297152D01*
X114745489Y-67258500D01*
X114764530Y-67222877D01*
X114790154Y-67191654D01*
X114821377Y-67166030D01*
X114857000Y-67146989D01*
X114895652Y-67135264D01*
X114941991Y-67130700D01*
X115593009Y-67130700D01*
X115639348Y-67135264D01*
X115639348Y-67135264D01*
G37*
G36*
X120890468Y-67359783D02*
G01*
X120924433Y-67370086D01*
X120955734Y-67386817D01*
X120983168Y-67409332D01*
X121005683Y-67436766D01*
X121022414Y-67468067D01*
X121032717Y-67502032D01*
X121036800Y-67543490D01*
X121036800Y-68219510D01*
X121032717Y-68260968D01*
X121022414Y-68294933D01*
X121005683Y-68326234D01*
X120983168Y-68353668D01*
X120955734Y-68376183D01*
X120924433Y-68392914D01*
X120890468Y-68403217D01*
X120849010Y-68407300D01*
X120247990Y-68407300D01*
X120206532Y-68403217D01*
X120172567Y-68392914D01*
X120141266Y-68376183D01*
X120113832Y-68353668D01*
X120091317Y-68326234D01*
X120074586Y-68294933D01*
X120064283Y-68260968D01*
X120060200Y-68219510D01*
X120060200Y-67543490D01*
X120064283Y-67502032D01*
X120074586Y-67468067D01*
X120091317Y-67436766D01*
X120113832Y-67409332D01*
X120141266Y-67386817D01*
X120172567Y-67370086D01*
X120206532Y-67359783D01*
X120247990Y-67355700D01*
X120849010Y-67355700D01*
X120890468Y-67359783D01*
X120890468Y-67359783D01*
G37*
G36*
X119315468Y-67359783D02*
G01*
X119349433Y-67370086D01*
X119380734Y-67386817D01*
X119408168Y-67409332D01*
X119430683Y-67436766D01*
X119447414Y-67468067D01*
X119457717Y-67502032D01*
X119461800Y-67543490D01*
X119461800Y-68219510D01*
X119457717Y-68260968D01*
X119447414Y-68294933D01*
X119430683Y-68326234D01*
X119408168Y-68353668D01*
X119380734Y-68376183D01*
X119349433Y-68392914D01*
X119315468Y-68403217D01*
X119274010Y-68407300D01*
X118672990Y-68407300D01*
X118631532Y-68403217D01*
X118597567Y-68392914D01*
X118566266Y-68376183D01*
X118538832Y-68353668D01*
X118516317Y-68326234D01*
X118499586Y-68294933D01*
X118489283Y-68260968D01*
X118485200Y-68219510D01*
X118485200Y-67543490D01*
X118489283Y-67502032D01*
X118499586Y-67468067D01*
X118516317Y-67436766D01*
X118538832Y-67409332D01*
X118566266Y-67386817D01*
X118597567Y-67370086D01*
X118631532Y-67359783D01*
X118672990Y-67355700D01*
X119274010Y-67355700D01*
X119315468Y-67359783D01*
X119315468Y-67359783D01*
G37*
G36*
X176188348Y-66881264D02*
G01*
X176227000Y-66892989D01*
X176262623Y-66912030D01*
X176293846Y-66937654D01*
X176319470Y-66968877D01*
X176338511Y-67004500D01*
X176350236Y-67043152D01*
X176354800Y-67089491D01*
X176354800Y-68165509D01*
X176350236Y-68211848D01*
X176338511Y-68250500D01*
X176319470Y-68286123D01*
X176293846Y-68317346D01*
X176262623Y-68342970D01*
X176227000Y-68362011D01*
X176188348Y-68373736D01*
X176142009Y-68378300D01*
X175490991Y-68378300D01*
X175444652Y-68373736D01*
X175406000Y-68362011D01*
X175370377Y-68342970D01*
X175339154Y-68317346D01*
X175313530Y-68286123D01*
X175294489Y-68250500D01*
X175282764Y-68211848D01*
X175278200Y-68165509D01*
X175278200Y-67089491D01*
X175282764Y-67043152D01*
X175294489Y-67004500D01*
X175313530Y-66968877D01*
X175339154Y-66937654D01*
X175370377Y-66912030D01*
X175406000Y-66892989D01*
X175444652Y-66881264D01*
X175490991Y-66876700D01*
X176142009Y-66876700D01*
X176188348Y-66881264D01*
X176188348Y-66881264D01*
G37*
G36*
X174313348Y-66881264D02*
G01*
X174352000Y-66892989D01*
X174387623Y-66912030D01*
X174418846Y-66937654D01*
X174444470Y-66968877D01*
X174463511Y-67004500D01*
X174475236Y-67043152D01*
X174479800Y-67089491D01*
X174479800Y-68165509D01*
X174475236Y-68211848D01*
X174463511Y-68250500D01*
X174444470Y-68286123D01*
X174418846Y-68317346D01*
X174387623Y-68342970D01*
X174352000Y-68362011D01*
X174313348Y-68373736D01*
X174267009Y-68378300D01*
X173615991Y-68378300D01*
X173569652Y-68373736D01*
X173531000Y-68362011D01*
X173495377Y-68342970D01*
X173464154Y-68317346D01*
X173438530Y-68286123D01*
X173419489Y-68250500D01*
X173407764Y-68211848D01*
X173403200Y-68165509D01*
X173403200Y-67089491D01*
X173407764Y-67043152D01*
X173419489Y-67004500D01*
X173438530Y-66968877D01*
X173464154Y-66937654D01*
X173495377Y-66912030D01*
X173531000Y-66892989D01*
X173569652Y-66881264D01*
X173615991Y-66876700D01*
X174267009Y-66876700D01*
X174313348Y-66881264D01*
X174313348Y-66881264D01*
G37*
G36*
X170877468Y-67105783D02*
G01*
X170911433Y-67116086D01*
X170942734Y-67132817D01*
X170970168Y-67155332D01*
X170992683Y-67182766D01*
X171009414Y-67214067D01*
X171019717Y-67248032D01*
X171023800Y-67289490D01*
X171023800Y-67965510D01*
X171019717Y-68006968D01*
X171009414Y-68040933D01*
X170992683Y-68072234D01*
X170970168Y-68099668D01*
X170942734Y-68122183D01*
X170911433Y-68138914D01*
X170877468Y-68149217D01*
X170836010Y-68153300D01*
X170234990Y-68153300D01*
X170193532Y-68149217D01*
X170159567Y-68138914D01*
X170128266Y-68122183D01*
X170100832Y-68099668D01*
X170078317Y-68072234D01*
X170061586Y-68040933D01*
X170051283Y-68006968D01*
X170047200Y-67965510D01*
X170047200Y-67289490D01*
X170051283Y-67248032D01*
X170061586Y-67214067D01*
X170078317Y-67182766D01*
X170100832Y-67155332D01*
X170128266Y-67132817D01*
X170159567Y-67116086D01*
X170193532Y-67105783D01*
X170234990Y-67101700D01*
X170836010Y-67101700D01*
X170877468Y-67105783D01*
X170877468Y-67105783D01*
G37*
G36*
X172452468Y-67105783D02*
G01*
X172486433Y-67116086D01*
X172517734Y-67132817D01*
X172545168Y-67155332D01*
X172567683Y-67182766D01*
X172584414Y-67214067D01*
X172594717Y-67248032D01*
X172598800Y-67289490D01*
X172598800Y-67965510D01*
X172594717Y-68006968D01*
X172584414Y-68040933D01*
X172567683Y-68072234D01*
X172545168Y-68099668D01*
X172517734Y-68122183D01*
X172486433Y-68138914D01*
X172452468Y-68149217D01*
X172411010Y-68153300D01*
X171809990Y-68153300D01*
X171768532Y-68149217D01*
X171734567Y-68138914D01*
X171703266Y-68122183D01*
X171675832Y-68099668D01*
X171653317Y-68072234D01*
X171636586Y-68040933D01*
X171626283Y-68006968D01*
X171622200Y-67965510D01*
X171622200Y-67289490D01*
X171626283Y-67248032D01*
X171636586Y-67214067D01*
X171653317Y-67182766D01*
X171675832Y-67155332D01*
X171703266Y-67132817D01*
X171734567Y-67116086D01*
X171768532Y-67105783D01*
X171809990Y-67101700D01*
X172411010Y-67101700D01*
X172452468Y-67105783D01*
X172452468Y-67105783D01*
G37*
G36*
X161022468Y-66597783D02*
G01*
X161056433Y-66608086D01*
X161087734Y-66624817D01*
X161115168Y-66647332D01*
X161137683Y-66674766D01*
X161154414Y-66706067D01*
X161164717Y-66740032D01*
X161168800Y-66781490D01*
X161168800Y-67457510D01*
X161164717Y-67498968D01*
X161154414Y-67532933D01*
X161137683Y-67564234D01*
X161115168Y-67591668D01*
X161087734Y-67614183D01*
X161056433Y-67630914D01*
X161022468Y-67641217D01*
X160981010Y-67645300D01*
X160379990Y-67645300D01*
X160338532Y-67641217D01*
X160304567Y-67630914D01*
X160273266Y-67614183D01*
X160245832Y-67591668D01*
X160223317Y-67564234D01*
X160206586Y-67532933D01*
X160196283Y-67498968D01*
X160192200Y-67457510D01*
X160192200Y-66781490D01*
X160196283Y-66740032D01*
X160206586Y-66706067D01*
X160223317Y-66674766D01*
X160245832Y-66647332D01*
X160273266Y-66624817D01*
X160304567Y-66608086D01*
X160338532Y-66597783D01*
X160379990Y-66593700D01*
X160981010Y-66593700D01*
X161022468Y-66597783D01*
X161022468Y-66597783D01*
G37*
G36*
X159447468Y-66597783D02*
G01*
X159481433Y-66608086D01*
X159512734Y-66624817D01*
X159540168Y-66647332D01*
X159562683Y-66674766D01*
X159579414Y-66706067D01*
X159589717Y-66740032D01*
X159593800Y-66781490D01*
X159593800Y-67457510D01*
X159589717Y-67498968D01*
X159579414Y-67532933D01*
X159562683Y-67564234D01*
X159540168Y-67591668D01*
X159512734Y-67614183D01*
X159481433Y-67630914D01*
X159447468Y-67641217D01*
X159406010Y-67645300D01*
X158804990Y-67645300D01*
X158763532Y-67641217D01*
X158729567Y-67630914D01*
X158698266Y-67614183D01*
X158670832Y-67591668D01*
X158648317Y-67564234D01*
X158631586Y-67532933D01*
X158621283Y-67498968D01*
X158617200Y-67457510D01*
X158617200Y-66781490D01*
X158621283Y-66740032D01*
X158631586Y-66706067D01*
X158648317Y-66674766D01*
X158670832Y-66647332D01*
X158698266Y-66624817D01*
X158729567Y-66608086D01*
X158763532Y-66597783D01*
X158804990Y-66593700D01*
X159406010Y-66593700D01*
X159447468Y-66597783D01*
X159447468Y-66597783D01*
G37*
G36*
X125220468Y-65898783D02*
G01*
X125254433Y-65909086D01*
X125285734Y-65925817D01*
X125313168Y-65948332D01*
X125335683Y-65975766D01*
X125352414Y-66007067D01*
X125362717Y-66041032D01*
X125366800Y-66082490D01*
X125366800Y-66683510D01*
X125362717Y-66724968D01*
X125352414Y-66758933D01*
X125335683Y-66790234D01*
X125313168Y-66817668D01*
X125285734Y-66840183D01*
X125254433Y-66856914D01*
X125220468Y-66867217D01*
X125179010Y-66871300D01*
X124502990Y-66871300D01*
X124461532Y-66867217D01*
X124427567Y-66856914D01*
X124396266Y-66840183D01*
X124368832Y-66817668D01*
X124346317Y-66790234D01*
X124329586Y-66758933D01*
X124319283Y-66724968D01*
X124315200Y-66683510D01*
X124315200Y-66082490D01*
X124319283Y-66041032D01*
X124329586Y-66007067D01*
X124346317Y-65975766D01*
X124368832Y-65948332D01*
X124396266Y-65925817D01*
X124427567Y-65909086D01*
X124461532Y-65898783D01*
X124502990Y-65894700D01*
X125179010Y-65894700D01*
X125220468Y-65898783D01*
X125220468Y-65898783D01*
G37*
G36*
X130808468Y-65898783D02*
G01*
X130842433Y-65909086D01*
X130873734Y-65925817D01*
X130901168Y-65948332D01*
X130923683Y-65975766D01*
X130940414Y-66007067D01*
X130950717Y-66041032D01*
X130954800Y-66082490D01*
X130954800Y-66683510D01*
X130950717Y-66724968D01*
X130940414Y-66758933D01*
X130923683Y-66790234D01*
X130901168Y-66817668D01*
X130873734Y-66840183D01*
X130842433Y-66856914D01*
X130808468Y-66867217D01*
X130767010Y-66871300D01*
X130090990Y-66871300D01*
X130049532Y-66867217D01*
X130015567Y-66856914D01*
X129984266Y-66840183D01*
X129956832Y-66817668D01*
X129934317Y-66790234D01*
X129917586Y-66758933D01*
X129907283Y-66724968D01*
X129903200Y-66683510D01*
X129903200Y-66082490D01*
X129907283Y-66041032D01*
X129917586Y-66007067D01*
X129934317Y-65975766D01*
X129956832Y-65948332D01*
X129984266Y-65925817D01*
X130015567Y-65909086D01*
X130049532Y-65898783D01*
X130090990Y-65894700D01*
X130767010Y-65894700D01*
X130808468Y-65898783D01*
X130808468Y-65898783D01*
G37*
G36*
X127252468Y-65898783D02*
G01*
X127286433Y-65909086D01*
X127317734Y-65925817D01*
X127345168Y-65948332D01*
X127367683Y-65975766D01*
X127384414Y-66007067D01*
X127394717Y-66041032D01*
X127398800Y-66082490D01*
X127398800Y-66683510D01*
X127394717Y-66724968D01*
X127384414Y-66758933D01*
X127367683Y-66790234D01*
X127345168Y-66817668D01*
X127317734Y-66840183D01*
X127286433Y-66856914D01*
X127252468Y-66867217D01*
X127211010Y-66871300D01*
X126534990Y-66871300D01*
X126493532Y-66867217D01*
X126459567Y-66856914D01*
X126428266Y-66840183D01*
X126400832Y-66817668D01*
X126378317Y-66790234D01*
X126361586Y-66758933D01*
X126351283Y-66724968D01*
X126347200Y-66683510D01*
X126347200Y-66082490D01*
X126351283Y-66041032D01*
X126361586Y-66007067D01*
X126378317Y-65975766D01*
X126400832Y-65948332D01*
X126428266Y-65925817D01*
X126459567Y-65909086D01*
X126493532Y-65898783D01*
X126534990Y-65894700D01*
X127211010Y-65894700D01*
X127252468Y-65898783D01*
X127252468Y-65898783D01*
G37*
G36*
X127252468Y-64323783D02*
G01*
X127286433Y-64334086D01*
X127317734Y-64350817D01*
X127345168Y-64373332D01*
X127367683Y-64400766D01*
X127384414Y-64432067D01*
X127394717Y-64466032D01*
X127398800Y-64507490D01*
X127398800Y-65108510D01*
X127394717Y-65149968D01*
X127384414Y-65183933D01*
X127367683Y-65215234D01*
X127345168Y-65242668D01*
X127317734Y-65265183D01*
X127286433Y-65281914D01*
X127252468Y-65292217D01*
X127211010Y-65296300D01*
X126534990Y-65296300D01*
X126493532Y-65292217D01*
X126459567Y-65281914D01*
X126428266Y-65265183D01*
X126400832Y-65242668D01*
X126378317Y-65215234D01*
X126361586Y-65183933D01*
X126351283Y-65149968D01*
X126347200Y-65108510D01*
X126347200Y-64507490D01*
X126351283Y-64466032D01*
X126361586Y-64432067D01*
X126378317Y-64400766D01*
X126400832Y-64373332D01*
X126428266Y-64350817D01*
X126459567Y-64334086D01*
X126493532Y-64323783D01*
X126534990Y-64319700D01*
X127211010Y-64319700D01*
X127252468Y-64323783D01*
X127252468Y-64323783D01*
G37*
G36*
X125220468Y-64323783D02*
G01*
X125254433Y-64334086D01*
X125285734Y-64350817D01*
X125313168Y-64373332D01*
X125335683Y-64400766D01*
X125352414Y-64432067D01*
X125362717Y-64466032D01*
X125366800Y-64507490D01*
X125366800Y-65108510D01*
X125362717Y-65149968D01*
X125352414Y-65183933D01*
X125335683Y-65215234D01*
X125313168Y-65242668D01*
X125285734Y-65265183D01*
X125254433Y-65281914D01*
X125220468Y-65292217D01*
X125179010Y-65296300D01*
X124502990Y-65296300D01*
X124461532Y-65292217D01*
X124427567Y-65281914D01*
X124396266Y-65265183D01*
X124368832Y-65242668D01*
X124346317Y-65215234D01*
X124329586Y-65183933D01*
X124319283Y-65149968D01*
X124315200Y-65108510D01*
X124315200Y-64507490D01*
X124319283Y-64466032D01*
X124329586Y-64432067D01*
X124346317Y-64400766D01*
X124368832Y-64373332D01*
X124396266Y-64350817D01*
X124427567Y-64334086D01*
X124461532Y-64323783D01*
X124502990Y-64319700D01*
X125179010Y-64319700D01*
X125220468Y-64323783D01*
X125220468Y-64323783D01*
G37*
G36*
X130808468Y-64323783D02*
G01*
X130842433Y-64334086D01*
X130873734Y-64350817D01*
X130901168Y-64373332D01*
X130923683Y-64400766D01*
X130940414Y-64432067D01*
X130950717Y-64466032D01*
X130954800Y-64507490D01*
X130954800Y-65108510D01*
X130950717Y-65149968D01*
X130940414Y-65183933D01*
X130923683Y-65215234D01*
X130901168Y-65242668D01*
X130873734Y-65265183D01*
X130842433Y-65281914D01*
X130808468Y-65292217D01*
X130767010Y-65296300D01*
X130090990Y-65296300D01*
X130049532Y-65292217D01*
X130015567Y-65281914D01*
X129984266Y-65265183D01*
X129956832Y-65242668D01*
X129934317Y-65215234D01*
X129917586Y-65183933D01*
X129907283Y-65149968D01*
X129903200Y-65108510D01*
X129903200Y-64507490D01*
X129907283Y-64466032D01*
X129917586Y-64432067D01*
X129934317Y-64400766D01*
X129956832Y-64373332D01*
X129984266Y-64350817D01*
X130015567Y-64334086D01*
X130049532Y-64323783D01*
X130090990Y-64319700D01*
X130767010Y-64319700D01*
X130808468Y-64323783D01*
X130808468Y-64323783D01*
G37*
G36*
X168249800Y-65244300D02*
G01*
X166598200Y-65244300D01*
X166598200Y-63842700D01*
X168249800Y-63842700D01*
X168249800Y-65244300D01*
X168249800Y-65244300D01*
G37*
G36*
X160299800Y-65244300D02*
G01*
X158648200Y-65244300D01*
X158648200Y-63842700D01*
X160299800Y-63842700D01*
X160299800Y-65244300D01*
X160299800Y-65244300D01*
G37*
G36*
X173877900Y-60155846D02*
G01*
X174090521Y-60198139D01*
X174390947Y-60322580D01*
X174661324Y-60503240D01*
X174891260Y-60733176D01*
X175071920Y-61003553D01*
X175196361Y-61303979D01*
X175259800Y-61622910D01*
X175259800Y-61948090D01*
X175196361Y-62267021D01*
X175071920Y-62567447D01*
X174891260Y-62837824D01*
X174661324Y-63067760D01*
X174390947Y-63248420D01*
X174090521Y-63372861D01*
X173877900Y-63415154D01*
X173771591Y-63436300D01*
X173446409Y-63436300D01*
X173340100Y-63415154D01*
X173127479Y-63372861D01*
X172827053Y-63248420D01*
X172556676Y-63067760D01*
X172326740Y-62837824D01*
X172146080Y-62567447D01*
X172021639Y-62267021D01*
X171958200Y-61948090D01*
X171958200Y-61622910D01*
X172021639Y-61303979D01*
X172146080Y-61003553D01*
X172326740Y-60733176D01*
X172556676Y-60503240D01*
X172827053Y-60322580D01*
X173127479Y-60198139D01*
X173340100Y-60155846D01*
X173446409Y-60134700D01*
X173771591Y-60134700D01*
X173877900Y-60155846D01*
X173877900Y-60155846D01*
G37*
G36*
X117997900Y-60155846D02*
G01*
X118210521Y-60198139D01*
X118510947Y-60322580D01*
X118781324Y-60503240D01*
X119011260Y-60733176D01*
X119191920Y-61003553D01*
X119316361Y-61303979D01*
X119379800Y-61622910D01*
X119379800Y-61948090D01*
X119316361Y-62267021D01*
X119191920Y-62567447D01*
X119011260Y-62837824D01*
X118781324Y-63067760D01*
X118510947Y-63248420D01*
X118210521Y-63372861D01*
X117997900Y-63415154D01*
X117891591Y-63436300D01*
X117566409Y-63436300D01*
X117460100Y-63415154D01*
X117247479Y-63372861D01*
X116947053Y-63248420D01*
X116676676Y-63067760D01*
X116446740Y-62837824D01*
X116266080Y-62567447D01*
X116141639Y-62267021D01*
X116078200Y-61948090D01*
X116078200Y-61622910D01*
X116141639Y-61303979D01*
X116266080Y-61003553D01*
X116446740Y-60733176D01*
X116676676Y-60503240D01*
X116947053Y-60322580D01*
X117247479Y-60198139D01*
X117460100Y-60155846D01*
X117566409Y-60134700D01*
X117891591Y-60134700D01*
X117997900Y-60155846D01*
X117997900Y-60155846D01*
G37*
G36*
X126048351Y-61217106D02*
G01*
X126123293Y-61232013D01*
X126164645Y-61249142D01*
X126264479Y-61290494D01*
X126391543Y-61375396D01*
X126499604Y-61483457D01*
X126584506Y-61610521D01*
X126605717Y-61661730D01*
X126617268Y-61683341D01*
X126632813Y-61702282D01*
X126651755Y-61717828D01*
X126673366Y-61729379D01*
X126696815Y-61736492D01*
X126721201Y-61738894D01*
X126745587Y-61736492D01*
X126769036Y-61729379D01*
X126790647Y-61717828D01*
X126809588Y-61702283D01*
X126825134Y-61683341D01*
X126836685Y-61661730D01*
X126843798Y-61638281D01*
X126846200Y-61613895D01*
X126846200Y-61252200D01*
X129947800Y-61252200D01*
X129947800Y-61613895D01*
X129950202Y-61638281D01*
X129957315Y-61661730D01*
X129968866Y-61683341D01*
X129984411Y-61702283D01*
X130003353Y-61717828D01*
X130024964Y-61729379D01*
X130048413Y-61736492D01*
X130072799Y-61738894D01*
X130097185Y-61736492D01*
X130120634Y-61729379D01*
X130142245Y-61717828D01*
X130161187Y-61702283D01*
X130176732Y-61683341D01*
X130188283Y-61661730D01*
X130209494Y-61610521D01*
X130294396Y-61483457D01*
X130402457Y-61375396D01*
X130529521Y-61290494D01*
X130629355Y-61249142D01*
X130670707Y-61232013D01*
X130745649Y-61217106D01*
X130820589Y-61202200D01*
X130973411Y-61202200D01*
X131048351Y-61217106D01*
X131123293Y-61232013D01*
X131164645Y-61249142D01*
X131264479Y-61290494D01*
X131391543Y-61375396D01*
X131499604Y-61483457D01*
X131584506Y-61610521D01*
X131622514Y-61702282D01*
X131642987Y-61751707D01*
X131672800Y-61901590D01*
X131672800Y-62054410D01*
X131642987Y-62204293D01*
X131633738Y-62226621D01*
X131584506Y-62345479D01*
X131499604Y-62472543D01*
X131391543Y-62580604D01*
X131264479Y-62665506D01*
X131172028Y-62703800D01*
X131123293Y-62723987D01*
X131048351Y-62738894D01*
X130973411Y-62753800D01*
X130820589Y-62753800D01*
X130745649Y-62738894D01*
X130670707Y-62723987D01*
X130621972Y-62703800D01*
X130529521Y-62665506D01*
X130402457Y-62580604D01*
X130294396Y-62472543D01*
X130209494Y-62345479D01*
X130188283Y-62294270D01*
X130176732Y-62272659D01*
X130161187Y-62253718D01*
X130142245Y-62238172D01*
X130120634Y-62226621D01*
X130097185Y-62219508D01*
X130072799Y-62217106D01*
X130048413Y-62219508D01*
X130024964Y-62226621D01*
X130003353Y-62238172D01*
X129984412Y-62253717D01*
X129968866Y-62272659D01*
X129957315Y-62294270D01*
X129950202Y-62317719D01*
X129947800Y-62342105D01*
X129947800Y-62703800D01*
X126846200Y-62703800D01*
X126846200Y-62342105D01*
X126843798Y-62317719D01*
X126836685Y-62294270D01*
X126825134Y-62272659D01*
X126809589Y-62253717D01*
X126790647Y-62238172D01*
X126769036Y-62226621D01*
X126745587Y-62219508D01*
X126721201Y-62217106D01*
X126696815Y-62219508D01*
X126673366Y-62226621D01*
X126651755Y-62238172D01*
X126632813Y-62253717D01*
X126617268Y-62272659D01*
X126605717Y-62294270D01*
X126584506Y-62345479D01*
X126499604Y-62472543D01*
X126391543Y-62580604D01*
X126264479Y-62665506D01*
X126172028Y-62703800D01*
X126123293Y-62723987D01*
X126048351Y-62738894D01*
X125973411Y-62753800D01*
X125820589Y-62753800D01*
X125745649Y-62738894D01*
X125670707Y-62723987D01*
X125621972Y-62703800D01*
X125529521Y-62665506D01*
X125402457Y-62580604D01*
X125294396Y-62472543D01*
X125209494Y-62345479D01*
X125160262Y-62226621D01*
X125151013Y-62204293D01*
X125121200Y-62054410D01*
X125121200Y-61901590D01*
X125151013Y-61751707D01*
X125171486Y-61702282D01*
X125209494Y-61610521D01*
X125294396Y-61483457D01*
X125402457Y-61375396D01*
X125529521Y-61290494D01*
X125629355Y-61249142D01*
X125670707Y-61232013D01*
X125745649Y-61217106D01*
X125820589Y-61202200D01*
X125973411Y-61202200D01*
X126048351Y-61217106D01*
X126048351Y-61217106D01*
G37*
G36*
X168249800Y-60744300D02*
G01*
X166598200Y-60744300D01*
X166598200Y-59342700D01*
X168249800Y-59342700D01*
X168249800Y-60744300D01*
X168249800Y-60744300D01*
G37*
G36*
X160299800Y-60744300D02*
G01*
X158648200Y-60744300D01*
X158648200Y-59342700D01*
X160299800Y-59342700D01*
X160299800Y-60744300D01*
X160299800Y-60744300D01*
G37*
G36*
X124922853Y-58276598D02*
G01*
X124935105Y-58277200D01*
X126147800Y-58277200D01*
X126147800Y-60278800D01*
X124935104Y-60278800D01*
X124922852Y-60279402D01*
X124897000Y-60281948D01*
X124871147Y-60279402D01*
X124858895Y-60278800D01*
X124785053Y-60278800D01*
X124757489Y-60265763D01*
X124646745Y-60232169D01*
X124646742Y-60232168D01*
X124533687Y-60171739D01*
X124434589Y-60090412D01*
X124353261Y-59991312D01*
X124292832Y-59878257D01*
X124292831Y-59878254D01*
X124255617Y-59755578D01*
X124246200Y-59659962D01*
X124246200Y-58896037D01*
X124255617Y-58800421D01*
X124292831Y-58677745D01*
X124353263Y-58564686D01*
X124434589Y-58465588D01*
X124533688Y-58384261D01*
X124646746Y-58323830D01*
X124757487Y-58290237D01*
X124780125Y-58280860D01*
X124785603Y-58277200D01*
X124858896Y-58277200D01*
X124871148Y-58276598D01*
X124897000Y-58274052D01*
X124922853Y-58276598D01*
X124922853Y-58276598D01*
G37*
G36*
X131922852Y-58276598D02*
G01*
X131935104Y-58277200D01*
X132008948Y-58277200D01*
X132036513Y-58290237D01*
X132147254Y-58323830D01*
X132260312Y-58384261D01*
X132359412Y-58465589D01*
X132440739Y-58564687D01*
X132501168Y-58677742D01*
X132501169Y-58677745D01*
X132538383Y-58800421D01*
X132547800Y-58896037D01*
X132547800Y-59659963D01*
X132538383Y-59755579D01*
X132501169Y-59878254D01*
X132501168Y-59878258D01*
X132440739Y-59991313D01*
X132359412Y-60090412D01*
X132260313Y-60171739D01*
X132147258Y-60232168D01*
X132147255Y-60232169D01*
X132036510Y-60265764D01*
X132013875Y-60275140D01*
X132008397Y-60278800D01*
X131935105Y-60278800D01*
X131922853Y-60279402D01*
X131897000Y-60281948D01*
X131871148Y-60279402D01*
X131858896Y-60278800D01*
X130646200Y-60278800D01*
X130646200Y-58277200D01*
X131858895Y-58277200D01*
X131871147Y-58276598D01*
X131897000Y-58274052D01*
X131922852Y-58276598D01*
X131922852Y-58276598D01*
G37*
G36*
X128197800Y-60278800D02*
G01*
X126596200Y-60278800D01*
X126596200Y-58277200D01*
X128197800Y-58277200D01*
X128197800Y-60278800D01*
X128197800Y-60278800D01*
G37*
G36*
X130197800Y-60278800D02*
G01*
X128596200Y-60278800D01*
X128596200Y-58277200D01*
X130197800Y-58277200D01*
X130197800Y-60278800D01*
X130197800Y-60278800D01*
G37*
M02*
